<?xml version="1.0" encoding="utf-8"?>
<!-- Generator: Adobe Illustrator 26.0.2, SVG Export Plug-In . SVG Version: 6.00 Build 0)  -->
<svg version="1.1" xmlns="http://www.w3.org/2000/svg" xmlns:xlink="http://www.w3.org/1999/xlink" x="0px" y="0px"
	 viewBox="0 0 128 128" style="enable-background:new 0 0 128 128;" xml:space="preserve">
<style type="text/css">
	.AddtoCablex0{fill:none;stroke:#000000;stroke-width:5;stroke-linejoin:round;stroke-miterlimit:10;}
	.AddtoCablex1{fill:none;stroke:#010101;stroke-width:5;stroke-linejoin:round;stroke-miterlimit:10;}
	.AddtoCablex2{fill:none;stroke:#010101;stroke-width:5;stroke-miterlimit:10;}
	.AddtoCablex3{fill:none;stroke:#000000;stroke-width:4;stroke-miterlimit:10;}
	.AddtoCablex4{fill:none;stroke:#000000;stroke-miterlimit:10;}
	.AddtoCablex5{fill:none;stroke:#000000;stroke-width:5;stroke-miterlimit:10;}
	.AddtoCablex6{fill:none;stroke:#000000;stroke-width:5;stroke-linecap:round;stroke-linejoin:round;stroke-miterlimit:10;}
	.AddtoCablex7{fill:none;stroke:#020202;stroke-width:5;stroke-linecap:round;stroke-miterlimit:10;}
	.AddtoCablex8{fill:none;stroke:#020202;stroke-width:5;stroke-miterlimit:10;}
	.AddtoCablex9{fill:none;stroke:#020202;stroke-width:5;stroke-linecap:round;stroke-linejoin:round;stroke-miterlimit:10;}
	.AddtoCablex10{fill:none;stroke:#010101;stroke-width:5;stroke-linecap:round;stroke-miterlimit:10;}
	.AddtoCablex11{fill:none;stroke:#010101;stroke-miterlimit:10;}
	.AddtoCablex12{fill:none;stroke:#000000;stroke-width:5;stroke-linecap:round;stroke-miterlimit:10;}
	.AddtoCablex13{fill:none;stroke:#000000;stroke-width:4;stroke-linecap:round;stroke-linejoin:round;stroke-miterlimit:10;}
</style>
<g id="Layer_1">
</g>
<g id="Layer_2">
	<g>
		<g>
			<path class="AddtoCablex2" d="M21.75,76V46.38c0-2.24,0.41-4.4,1.12-6.38c0.93-2.5,2.4-4.75,4.26-6.62C30.45,30.06,35.04,28,40.12,28
				c3.43,0,6.63,0.93,9.38,2.58c3.6,2.11,6.41,5.44,7.88,9.42c0.72,1.98,1.12,4.14,1.12,6.38v38.25c0,5.18,4.2,9.38,9.38,9.38
				s9.38-4.2,9.38-9.38V52h9v32.62c0,2.24-0.41,4.4-1.12,6.38c-2.59,7-9.33,12-17.25,12c-3.43,0-6.64-0.93-9.38-2.56
				c-1.32-0.8-2.54-1.74-3.61-2.82c-1.86-1.86-3.33-4.11-4.26-6.62c-0.72-1.98-1.12-4.14-1.12-6.38V46.38c0-5.18-4.2-9.38-9.38-9.38
				s-9.38,4.2-9.38,9.38V76H21.75z"/>
			<rect x="18" y="83.5" class="AddtoCablex2" width="16.5" height="25.5"/>
			<path class="AddtoCablex2" d="M18,116.5h16.5v4.73c0,1.53-1.24,2.77-2.77,2.77h-9.96c-2.08,0-3.77-1.69-3.77-3.77L18,116.5z"/>
			<rect x="73.5" y="19" class="AddtoCablex2" width="16.5" height="25.5"/>
			<path class="AddtoCablex2" d="M90,11.5H73.5V6.77C73.5,5.24,74.74,4,76.27,4h9.96C88.31,4,90,5.69,90,7.77V11.5z"/>
		</g>
		<g>
			<path d="M101.23,122.97v-14.25H86.86v-9.84h14.37V84.62h9.58v14.25h14.4v9.84h-14.4v14.25H101.23z"/>
		</g>
	</g>
</g>
</svg>
