<?xml version="1.0" encoding="utf-8"?>
<!-- Generator: Adobe Illustrator 26.0.2, SVG Export Plug-In . SVG Version: 6.00 Build 0)  -->
<svg version="1.1" id="Layer_1" xmlns="http://www.w3.org/2000/svg" xmlns:xlink="http://www.w3.org/1999/xlink" x="0px" y="0px"
	 viewBox="0 0 128 128" style="enable-background:new 0 0 128 128;" xml:space="preserve">
<style type="text/css">
	.Adminx0{fill:none;stroke:#000000;stroke-width:5;stroke-miterlimit:10;}
	.Adminx1{stroke:#000000;stroke-width:5;stroke-miterlimit:10;}
	.Adminx2{fill:none;stroke:#000000;stroke-width:5;stroke-linejoin:round;stroke-miterlimit:10;}
	.Adminx3{fill:none;stroke:#000000;stroke-width:4;stroke-miterlimit:10;}
	.Adminx4{fill:none;stroke:#000000;stroke-width:3;stroke-miterlimit:10;}
	.Adminx5{fill:none;stroke:#FF0000;stroke-width:5;stroke-miterlimit:10;}
	.Adminx6{fill:none;stroke:#000000;stroke-width:2;stroke-miterlimit:10;}
	.Adminx7{stroke:#000000;stroke-miterlimit:10;}
	.Adminx8{fill:#FF0000;}
</style>
<g>
	<path class="Adminx0" d="M5.22,103.2c5.99-21.15,21.28-35.7,44.34-36.94"/>
	<circle class="Adminx0" cx="93.77" cy="94.99" r="12.58"/>
	<g>
		<path class="Adminx0" d="M86.38,115.52c0.89,0.37,1.55,1.15,1.75,2.1l0.66,3.02c0.49,1.89,1.48,3.2,3.37,3.37h3.21
			c1.89-0.16,2.88-1.48,3.37-3.37l0.66-3.02c0.21-0.94,0.86-1.73,1.75-2.1l1.92-0.79c0.89-0.37,1.91-0.28,2.72,0.24l2.6,1.67
			c1.68,0.99,3.31,1.22,4.76,0l2.27-2.27c1.22-1.45,0.99-3.08,0-4.76l-1.67-2.6c-0.52-0.81-0.61-1.83-0.24-2.72l0.79-1.92
			c0.37-0.89,1.15-1.55,2.1-1.75l3.02-0.66c1.89-0.49,3.2-1.48,3.37-3.37v-3.21c-0.16-1.89-1.48-2.88-3.37-3.37l-3.02-0.66
			c-0.94-0.21-1.73-0.86-2.1-1.75l-0.79-1.92c-0.37-0.89-0.28-1.91,0.24-2.72l1.67-2.6c0.99-1.68,1.22-3.31,0-4.76l-2.27-2.27
			c-1.45-1.22-3.08-0.99-4.76,0l-2.6,1.67c-0.81,0.52-1.83,0.61-2.72,0.24l-1.92-0.79c-0.89-0.37-1.55-1.15-1.75-2.1l-0.66-3.02
			c-0.49-1.89-1.48-3.2-3.37-3.37h-3.21c-1.89,0.16-2.88,1.48-3.37,3.37l-0.66,3.02c-0.21,0.94-0.86,1.73-1.75,2.1l-1.92,0.79
			c-0.89,0.37-1.91,0.28-2.72-0.24l-2.6-1.67c-1.68-0.99-3.31-1.22-4.76,0l-2.27,2.27c-1.22,1.45-0.99,3.08,0,4.76l1.67,2.6
			c0.52,0.81,0.61,1.83,0.24,2.72l-0.79,1.92c-0.37,0.89-1.15,1.55-2.1,1.75l-3.02,0.66c-1.89,0.49-3.2,1.48-3.37,3.37v3.21
			c0.16,1.89,1.48,2.88,3.37,3.37l3.02,0.66c0.94,0.21,1.73,0.86,2.1,1.75l0.79,1.92c0.37,0.89,0.28,1.91-0.24,2.72l-1.67,2.6
			c-0.99,1.68-1.22,3.31,0,4.76l2.27,2.27c1.45,1.22,3.08,0.99,4.76,0l2.6-1.67c0.81-0.52,1.83-0.61,2.72-0.24L86.38,115.52z"/>
	</g>
	<circle class="Adminx0" cx="54.5" cy="36.5" r="30"/>
</g>
</svg>
