<?xml version="1.0" encoding="utf-8"?>
<!-- Generator: Adobe Illustrator 26.0.2, SVG Export Plug-In . SVG Version: 6.00 Build 0)  -->
<svg version="1.1" xmlns="http://www.w3.org/2000/svg" xmlns:xlink="http://www.w3.org/1999/xlink" x="0px" y="0px"
	 viewBox="0 0 128 128" style="enable-background:new 0 0 128 128;" xml:space="preserve">
<style type="text/css">
	.AlertDeliverylogx0{fill:none;stroke:#000000;stroke-width:5;stroke-linecap:round;stroke-linejoin:round;stroke-miterlimit:10;}
	.AlertDeliverylogx1{fill:none;stroke:#000000;stroke-width:2;stroke-linecap:round;stroke-miterlimit:10;}
	.AlertDeliverylogx2{fill:#F89A1F;stroke:#F89A1F;stroke-miterlimit:10;}
	.AlertDeliverylogx3{fill:none;stroke:#000000;stroke-width:5;stroke-linecap:round;stroke-miterlimit:10;}
	.AlertDeliverylogx4{fill:none;stroke:#000000;stroke-width:5;stroke-miterlimit:10;}
	.AlertDeliverylogx5{fill:none;stroke:#000000;stroke-width:2;stroke-linecap:round;stroke-linejoin:round;stroke-miterlimit:10;}
	.AlertDeliverylogx6{fill:none;stroke:#000000;stroke-linecap:round;stroke-linejoin:round;stroke-miterlimit:10;}
	.AlertDeliverylogx7{fill:none;stroke:#000000;stroke-width:5;stroke-linejoin:round;stroke-miterlimit:10;}
	.AlertDeliverylogx8{fill:none;stroke:#000000;stroke-width:2;stroke-miterlimit:10;}
	.AlertDeliverylogx9{fill:none;stroke:#000000;stroke-miterlimit:10;}
	.AlertDeliverylogx10{fill:#F9BB16;}
	.AlertDeliverylogx11{fill:#EA4435;}
	.AlertDeliverylogx12{fill:#2FA952;}
	.AlertDeliverylogx13{fill:#547DBF;}
	.AlertDeliverylogx14{fill:none;stroke:#000000;stroke-width:3;stroke-linecap:round;stroke-linejoin:round;stroke-miterlimit:10;}
	.AlertDeliverylogx15{stroke:#000000;stroke-miterlimit:10;}
	.AlertDeliverylogx16{fill:none;stroke:#010101;stroke-width:5;stroke-miterlimit:10;}
	.AlertDeliverylogx17{fill:none;stroke:#020202;stroke-width:5;stroke-miterlimit:10;}
</style>
<g id="Layer_1">
	<g>
		<polyline class="AlertDeliverylogx0" points="19,40.98 63.34,58.98 63.34,109 19,88.3 19,61.38 		"/>
		<polygon class="AlertDeliverylogx0" points="63.34,58.98 19.01,40.98 5.51,55.9 49.84,73.9 		"/>
		<line class="AlertDeliverylogx0" x1="107.19" y1="73.58" x2="107.19" y2="58.93"/>
		<polyline class="AlertDeliverylogx0" points="107.19,40.08 63.34,58.98 63.34,109 72.24,104.61 		"/>
		<polygon class="AlertDeliverylogx0" points="63.34,58.98 107.19,40.08 122.49,51.4 78.64,73 		"/>
		<polygon class="AlertDeliverylogx0" points="63.34,58.98 19.01,40.98 63.1,19 107.43,39.7 		"/>
		<path class="AlertDeliverylogx0" d="M95.09,103.78H82.62c-2.02,0-3.29-2.19-2.28-3.94l6.23-10.8l6.23-10.8c1.01-1.75,3.54-1.75,4.56,0l6.23,10.8
			l6.23,10.8c1.01,1.75-0.25,3.94-2.28,3.94H95.09z"/>
		<line class="AlertDeliverylogx1" x1="95.09" y1="85.79" x2="95.09" y2="92.78"/>
		<circle class="AlertDeliverylogx1" cx="95.09" cy="97.93" r="1.36"/>
	</g>
</g>
<g id="Layer_2">
</g>
</svg>
