<?xml version="1.0" encoding="utf-8"?>
<!-- Generator: Adobe Illustrator 26.0.2, SVG Export Plug-In . SVG Version: 6.00 Build 0)  -->
<svg version="1.1" id="Layer_1" xmlns="http://www.w3.org/2000/svg" xmlns:xlink="http://www.w3.org/1999/xlink" x="0px" y="0px"
	 viewBox="0 0 128 128" style="enable-background:new 0 0 128 128;" xml:space="preserve">
<style type="text/css">
	.AlertProfilex0{fill:none;stroke:#010101;stroke-width:5;stroke-miterlimit:10;}
	.AlertProfilex1{fill:none;stroke:#000000;stroke-width:5;stroke-miterlimit:10;}
	.AlertProfilex2{fill:none;stroke:#020202;stroke-width:5;stroke-miterlimit:10;}
</style>
<g>
	<line class="AlertProfilex0" x1="36.9" y1="17.2" x2="36.9" y2="32.7"/>
	<circle class="AlertProfilex0" cx="36.9" cy="41.1" r="1.5"/>
	<path class="AlertProfilex0" d="M33.8,5.1L10.3,45.8c-1.4,2.4,0.3,5.4,3.1,5.4h47c2.8,0,4.5-3,3.1-5.4L40,5.1C38.6,2.7,35.2,2.7,33.8,5.1z"/>
	<polyline class="AlertProfilex0" points="50,10.3 97.5,10.3 97.5,39.6 	"/>
	<polyline class="AlertProfilex0" points="20.9,57.2 20.9,109.3 54.8,109.3 	"/>
	<g>
		<g>
			<circle class="AlertProfilex1" cx="91.1" cy="81.7" r="14.7"/>
			<path class="AlertProfilex1" d="M118.1,124.7v-11.6c0-9.5-7.7-17.2-17.2-17.2H81.2c-9.5,0-17.2,7.7-17.2,17.2v11.6"/>
		</g>
		<line class="AlertProfilex2" x1="99.1" y1="95.9" x2="99.1" y2="94"/>
	</g>
</g>
</svg>
