<?xml version="1.0" encoding="utf-8"?>
<!-- Generator: Adobe Illustrator 26.0.2, SVG Export Plug-In . SVG Version: 6.00 Build 0)  -->
<svg version="1.1" id="Layer_1" xmlns="http://www.w3.org/2000/svg" xmlns:xlink="http://www.w3.org/1999/xlink" x="0px" y="0px"
	 viewBox="0 0 128 128" style="enable-background:new 0 0 128 128;" xml:space="preserve">
<style type="text/css">
	.Alertsx0{fill:none;stroke:#010101;stroke-width:5;stroke-miterlimit:10;}
	.Alertsx1{fill:none;stroke:#010101;stroke-width:3;stroke-miterlimit:10;}
	.Alertsx2{fill:none;stroke:#010101;stroke-width:2;stroke-miterlimit:10;}
	.Alertsx3{fill:none;stroke:#010101;stroke-width:5;stroke-linecap:round;stroke-linejoin:round;stroke-miterlimit:10;}
	.Alertsx4{fill:#010101;stroke:#010101;stroke-width:5;stroke-miterlimit:10;}
	.Alertsx5{fill:none;stroke:#000000;stroke-width:5;stroke-linecap:round;stroke-miterlimit:10;}
	.Alertsx6{fill:none;stroke:#000000;stroke-width:5;stroke-miterlimit:10;}
	.Alertsx7{fill:none;stroke:#000000;stroke-width:5;stroke-linecap:round;stroke-linejoin:round;stroke-miterlimit:10;}
</style>
<g>
	<line class="Alertsx0" x1="36.9" y1="17.16" x2="36.9" y2="32.67"/>
	<circle class="Alertsx0" cx="36.9" cy="41.06" r="1.48"/>
	<path class="Alertsx0" d="M33.8,5.1L10.32,45.77c-1.38,2.38,0.34,5.36,3.09,5.36h46.97c2.75,0,4.47-2.98,3.09-5.36L39.99,5.1
		C38.62,2.71,35.18,2.71,33.8,5.1z"/>
	<g>
		<circle class="Alertsx0" cx="77.84" cy="99.54" r="10.91"/>
		<g>
			<path class="Alertsx0" d="M71.44,117.34c0.77,0.32,1.34,1,1.52,1.82l0.57,2.61c0.43,1.64,1.28,2.78,2.92,2.92h2.78
				c1.64-0.14,2.49-1.28,2.92-2.92l0.57-2.61c0.18-0.82,0.75-1.5,1.52-1.82l1.66-0.69c0.77-0.32,1.65-0.24,2.36,0.21l2.25,1.45
				c1.46,0.86,2.87,1.06,4.13,0l1.97-1.97c1.06-1.26,0.86-2.67,0-4.13l-1.45-2.25c-0.45-0.7-0.53-1.59-0.21-2.36l0.69-1.66
				c0.32-0.77,1-1.34,1.82-1.52l2.61-0.57c1.64-0.43,2.78-1.28,2.92-2.92v-2.78c-0.14-1.64-1.28-2.49-2.92-2.92l-2.61-0.57
				c-0.82-0.18-1.5-0.75-1.82-1.52l-0.69-1.66c-0.32-0.77-0.24-1.65,0.21-2.36l1.45-2.25c0.86-1.46,1.06-2.87,0-4.13l-1.97-1.97
				c-1.26-1.06-2.67-0.86-4.13,0l-2.25,1.45c-0.7,0.45-1.59,0.53-2.36,0.21l-1.66-0.69c-0.77-0.32-1.34-1-1.52-1.82l-0.57-2.61
				c-0.43-1.64-1.28-2.78-2.92-2.92h-2.78c-1.64,0.14-2.49,1.28-2.92,2.92l-0.57,2.61c-0.18,0.82-0.75,1.5-1.52,1.82l-1.66,0.69
				c-0.77,0.32-1.65,0.24-2.36-0.21l-2.25-1.45c-1.46-0.86-2.87-1.06-4.13,0l-1.97,1.97c-1.06,1.26-0.86,2.67,0,4.13l1.45,2.25
				c0.45,0.7,0.53,1.59,0.21,2.36l-0.69,1.66c-0.32,0.77-1,1.34-1.82,1.52l-2.61,0.57c-1.64,0.43-2.78,1.28-2.92,2.92v2.78
				c0.14,1.64,1.28,2.49,2.92,2.92l2.61,0.57c0.82,0.18,1.5,0.75,1.82,1.52l0.69,1.66c0.32,0.77,0.24,1.65-0.21,2.36l-1.45,2.25
				c-0.86,1.46-1.06,2.87,0,4.13l1.97,1.97c1.26,1.06,2.67,0.86,4.13,0l2.25-1.45c0.7-0.45,1.59-0.53,2.36-0.21L71.44,117.34z"/>
		</g>
	</g>
	<circle class="Alertsx1" cx="101.29" cy="61.54" r="7.32"/>
	<g>
		<path class="Alertsx1" d="M96.99,73.49c0.52,0.21,0.9,0.67,1.02,1.22l0.38,1.75c0.29,1.1,0.86,1.86,1.96,1.96h1.87
			c1.1-0.1,1.67-0.86,1.96-1.96l0.38-1.75c0.12-0.55,0.5-1,1.02-1.22l1.11-0.46c0.52-0.21,1.11-0.16,1.58,0.14l1.51,0.97
			c0.98,0.57,1.93,0.71,2.77,0l1.32-1.32c0.71-0.84,0.57-1.79,0-2.77l-0.97-1.51c-0.3-0.47-0.36-1.06-0.14-1.58l0.46-1.11
			c0.21-0.52,0.67-0.9,1.22-1.02l1.75-0.38c1.1-0.29,1.86-0.86,1.96-1.96v-1.87c-0.1-1.1-0.86-1.67-1.96-1.96l-1.75-0.38
			c-0.55-0.12-1-0.5-1.22-1.02l-0.46-1.11c-0.21-0.52-0.16-1.11,0.14-1.58l0.97-1.51c0.57-0.98,0.71-1.93,0-2.77l-1.32-1.32
			c-0.84-0.71-1.79-0.57-2.77,0l-1.51,0.97c-0.47,0.3-1.06,0.36-1.58,0.14l-1.11-0.46c-0.52-0.21-0.9-0.67-1.02-1.22l-0.38-1.75
			c-0.29-1.1-0.86-1.86-1.96-1.96h-1.87c-1.1,0.1-1.67,0.86-1.96,1.96l-0.38,1.75c-0.12,0.55-0.5,1-1.02,1.22l-1.11,0.46
			c-0.52,0.21-1.11,0.16-1.58-0.14l-1.51-0.97c-0.98-0.57-1.93-0.71-2.77,0l-1.32,1.32c-0.71,0.84-0.57,1.79,0,2.77l0.97,1.51
			c0.3,0.47,0.36,1.06,0.14,1.58l-0.46,1.11c-0.21,0.52-0.67,0.9-1.22,1.02l-1.75,0.38c-1.1,0.29-1.86,0.86-1.96,1.96v1.87
			c0.1,1.1,0.86,1.67,1.96,1.96l1.75,0.38c0.55,0.12,1,0.5,1.22,1.02l0.46,1.11c0.21,0.52,0.16,1.11-0.14,1.58l-0.97,1.51
			c-0.57,0.98-0.71,1.93,0,2.77l1.32,1.32c0.84,0.71,1.79,0.57,2.77,0l1.51-0.97c0.47-0.3,1.06-0.36,1.58-0.14L96.99,73.49z"/>
	</g>
	<polyline class="Alertsx0" points="49.95,10.31 97.51,10.31 97.51,39.57 	"/>
	<polyline class="Alertsx0" points="20.85,57.19 20.85,109.33 54.8,109.33 	"/>
</g>
</svg>
