<?xml version="1.0" encoding="utf-8"?>
<!-- Generator: Adobe Illustrator 26.0.2, SVG Export Plug-In . SVG Version: 6.00 Build 0)  -->
<svg version="1.1" id="Layer_1" xmlns="http://www.w3.org/2000/svg" xmlns:xlink="http://www.w3.org/1999/xlink" x="0px" y="0px"
	 viewBox="0 0 128 128" style="enable-background:new 0 0 128 128;" xml:space="preserve">
<style type="text/css">
	.Analyticsx0{fill:none;stroke:#000000;stroke-width:5;stroke-miterlimit:10;}
	.Analyticsx1{stroke:#000000;stroke-width:5;stroke-miterlimit:10;}
	.Analyticsx2{fill:none;stroke:#000000;stroke-width:5;stroke-linejoin:round;stroke-miterlimit:10;}
	.Analyticsx3{fill:none;stroke:#000000;stroke-width:4;stroke-miterlimit:10;}
	.Analyticsx4{fill:none;stroke:#000000;stroke-width:3;stroke-miterlimit:10;}
	.Analyticsx5{fill:none;stroke:#FF0000;stroke-width:5;stroke-miterlimit:10;}
	.Analyticsx6{fill:none;stroke:#000000;stroke-width:2;stroke-miterlimit:10;}
	.Analyticsx7{stroke:#000000;stroke-miterlimit:10;}
	.Analyticsx8{fill:#FF0000;}
</style>
<g>
	<line class="Analyticsx0" x1="4" y1="97.82" x2="4" y2="41.91"/>
	<circle class="Analyticsx0" cx="13.82" cy="114.18" r="9.82"/>
	<circle class="Analyticsx0" cx="46.55" cy="72.73" r="9.82"/>
	<circle class="Analyticsx0" cx="101.09" cy="53.09" r="9.82"/>
	<circle class="Analyticsx0" cx="79.27" cy="98.91" r="9.82"/>
	<path class="Analyticsx0" d="M110.91,30.18H4V14.21C4,8.6,8.6,4,14.21,4h99.58C119.4,4,124,8.6,124,14.21v99.58
		c0,5.61-4.6,10.21-10.21,10.21H32.36"/>
	<circle class="Analyticsx0" cx="17.09" cy="17.09" r="1.91"/>
	<circle class="Analyticsx0" cx="40.82" cy="17.09" r="1.91"/>
	<circle class="Analyticsx0" cx="28.95" cy="17.09" r="1.91"/>
	<line class="Analyticsx0" x1="97.82" y1="62.34" x2="83.59" y2="90.09"/>
	<polyline class="Analyticsx0" points="54.81,78.01 71.81,92.54 71.83,92.54 	"/>
	<line class="Analyticsx0" x1="19.33" y1="106.06" x2="40" y2="80.04"/>
</g>
</svg>
