<?xml version="1.0" encoding="utf-8"?>
<!-- Generator: Adobe Illustrator 26.0.2, SVG Export Plug-In . SVG Version: 6.00 Build 0)  -->
<svg version="1.1" id="Layer_1" xmlns="http://www.w3.org/2000/svg" xmlns:xlink="http://www.w3.org/1999/xlink" x="0px" y="0px"
	 viewBox="0 0 128 128" style="enable-background:new 0 0 128 128;" xml:space="preserve">
<style type="text/css">
	.ApplyWatermarkx0{fill:none;stroke:#010101;stroke-width:5;stroke-miterlimit:10;}
	.ApplyWatermarkx1{fill:none;stroke:#010101;stroke-width:3;stroke-miterlimit:10;}
	.ApplyWatermarkx2{fill:#010101;stroke:#010101;stroke-miterlimit:10;}
	.ApplyWatermarkx3{fill:#010101;}
	.ApplyWatermarkx4{fill:#010101;stroke:#010101;stroke-width:5;stroke-miterlimit:10;}
	.ApplyWatermarkx5{fill:none;stroke:#010101;stroke-width:2;stroke-miterlimit:10;}
</style>
<g>
	<path class="ApplyWatermarkx0" d="M82.54,4.06L82.49,4L82.54,4.06v0.15L82.36,4h-0.05h-0.53h-55.2c-3.78,0-6.84,3.06-6.84,6.84v106.32
		c0,3.78,3.06,6.84,6.84,6.84h74.85c3.78,0,6.84-3.06,6.84-6.84V33.72v-0.21L82.54,4.06z"/>
	<g>
		<line class="ApplyWatermarkx0" x1="34.91" y1="80.03" x2="93.09" y2="80.03"/>
		<line class="ApplyWatermarkx0" x1="34.91" y1="91.49" x2="93.09" y2="91.49"/>
		<path class="ApplyWatermarkx0" d="M69.4,70.87l5.96-20.16c0,0,3.21-12.37-10.54-14.2h-1.51c-13.74,1.83-10.54,14.2-10.54,14.2l5.96,20.16H69.4z
			"/>
	</g>
</g>
</svg>
