<?xml version="1.0" encoding="utf-8"?>
<!-- Generator: Adobe Illustrator 26.0.2, SVG Export Plug-In . SVG Version: 6.00 Build 0)  -->
<svg version="1.1" id="Layer_1" xmlns="http://www.w3.org/2000/svg" xmlns:xlink="http://www.w3.org/1999/xlink" x="0px" y="0px"
	 viewBox="0 0 128 128" style="enable-background:new 0 0 128 128;" xml:space="preserve">
<style type="text/css">
	.APProfilex0{fill:none;stroke:#000000;stroke-width:5;stroke-miterlimit:10;}
	.APProfilex1{fill:none;stroke:#000000;stroke-width:5;stroke-linecap:round;stroke-miterlimit:10;}
	.APProfilex2{fill:none;stroke:#000000;stroke-width:5;stroke-linecap:round;stroke-linejoin:round;stroke-miterlimit:21.3333;}
	.APProfilex3{fill:#FFFFFF;fill-opacity:0;stroke:#000000;stroke-width:5;stroke-linecap:round;stroke-miterlimit:10;}
	.APProfilex4{fill:none;stroke:#000000;stroke-width:4;stroke-linecap:round;stroke-miterlimit:10;}
	.APProfilex5{fill:none;stroke:#010101;stroke-width:5;stroke-miterlimit:10;}
	.APProfilex6{fill:none;stroke:#010101;stroke-width:3;stroke-miterlimit:10;}
	.APProfilex7{fill:none;stroke:#010101;stroke-width:5;stroke-linecap:round;stroke-miterlimit:10;}
	.APProfilex8{fill:none;stroke:#010101;stroke-width:4;stroke-miterlimit:10;}
</style>
<g>
	<g>
		<path class="APProfilex0" d="M65.8,104.3H108v-6c0-8.4-6.8-15.1-15.1-15.1h-12c-8.4,0-15.1,6.8-15.1,15.1V104.3z"/>
		<circle class="APProfilex0" cx="86.9" cy="58.1" r="14.1"/>
	</g>
	<path class="APProfilex5" d="M124,17v11.5H4V17C4,9.8,9.8,4,17,4H111C118.2,4,124,9.8,124,17z"/>
	<path class="APProfilex5" d="M124,28.5v85.2c0,4.5-5.8,10.3-13,10.3H17c-7.2,0-13-5.8-13-10.3V28.5H124z"/>
	<line class="APProfilex8" x1="22.6" y1="113.6" x2="22.6" y2="74.4"/>
	<line class="APProfilex8" x1="22.6" y1="60.6" x2="22.6" y2="37.3"/>
	<line class="APProfilex8" x1="43.7" y1="113.6" x2="43.7" y2="87.9"/>
	<line class="APProfilex8" x1="43.7" y1="74.2" x2="43.7" y2="37.3"/>
	<rect x="15.7" y="60.6" class="APProfilex8" width="13.8" height="13.8"/>
	<g>
		<rect x="36.7" y="74.2" class="APProfilex8" width="13.8" height="13.8"/>
	</g>
</g>
</svg>
