<?xml version="1.0" encoding="utf-8"?>
<!-- Generator: Adobe Illustrator 26.0.2, SVG Export Plug-In . SVG Version: 6.00 Build 0)  -->
<svg version="1.1" xmlns="http://www.w3.org/2000/svg" xmlns:xlink="http://www.w3.org/1999/xlink" x="0px" y="0px"
	 viewBox="0 0 128 128" style="enable-background:new 0 0 128 128;" xml:space="preserve">
<style type="text/css">
	.Assetx0{fill:none;stroke:#000000;stroke-width:5;stroke-linecap:round;stroke-linejoin:round;stroke-miterlimit:10;}
	.Assetx1{fill:none;stroke:#000000;stroke-width:2;stroke-linecap:round;stroke-miterlimit:10;}
	.Assetx2{fill:#F89A1F;stroke:#F89A1F;stroke-miterlimit:10;}
	.Assetx3{fill:none;stroke:#000000;stroke-width:5;stroke-linecap:round;stroke-miterlimit:10;}
	.Assetx4{fill:none;stroke:#000000;stroke-width:5;stroke-miterlimit:10;}
	.Assetx5{fill:none;stroke:#000000;stroke-width:2;stroke-linecap:round;stroke-linejoin:round;stroke-miterlimit:10;}
	.Assetx6{fill:none;stroke:#000000;stroke-linecap:round;stroke-linejoin:round;stroke-miterlimit:10;}
	.Assetx7{fill:none;stroke:#000000;stroke-width:5;stroke-linejoin:round;stroke-miterlimit:10;}
	.Assetx8{fill:none;stroke:#000000;stroke-width:2;stroke-miterlimit:10;}
	.Assetx9{fill:none;stroke:#000000;stroke-miterlimit:10;}
	.Assetx10{fill:#F9BB16;}
	.Assetx11{fill:#EA4435;}
	.Assetx12{fill:#2FA952;}
	.Assetx13{fill:#547DBF;}
	.Assetx14{fill:none;stroke:#000000;stroke-width:3;stroke-linecap:round;stroke-linejoin:round;stroke-miterlimit:10;}
	.Assetx15{stroke:#000000;stroke-miterlimit:10;}
	.Assetx16{fill:none;stroke:#010101;stroke-width:5;stroke-miterlimit:10;}
	.Assetx17{fill:none;stroke:#020202;stroke-width:5;stroke-miterlimit:10;}
</style>
<g id="Layer_1">
	<g>
		<g>
			<rect x="41.37" y="33.13" class="Assetx0" width="25.14" height="37.88"/>
			<polygon class="Assetx0" points="66.51,71.01 97.86,71.01 107.05,53.43 66.51,53.43 			"/>
			<polygon class="Assetx0" points="117.04,71.01 97.86,71.01 107.05,53.43 106.32,53.43 			"/>
			
				<rect x="84.69" y="18.4" transform="matrix(-1 -1.224647e-16 1.224647e-16 -1 179.1564 71.8387)" class="Assetx0" width="9.77" height="35.03"/>
			<polyline class="Assetx0" points="56.74,33.13 56.74,18.4 84.7,18.4 84.7,53.44 66.51,53.44 			"/>
			<path class="Assetx0" d="M32.09,71.09h24.66l25.24,13.26c0,0,5.51,13.06-4.93,8.7c-0.29-0.87-20.31-11.31-20.31-11.31"/>
			<path class="Assetx0" d="M32.09,97.12l31.38,12.47h36.8l21.18-24.08c0,0-0.87-11.39-11.02-5.12c0,0.77-12.56,13.55-12.56,13.55H80.83
				"/>
			<line class="Assetx0" x1="97.86" y1="71.01" x2="97.86" y2="93.95"/>
			<line class="Assetx0" x1="115.35" y1="71.01" x2="115.35" y2="78.51"/>
			<rect x="6.56" y="65.85" class="Assetx0" width="24.08" height="36.49"/>
		</g>
		<rect x="47.36" y="38.91" class="Assetx5" width="4.25" height="4.25"/>
		<rect x="55.98" y="38.91" class="Assetx5" width="4.25" height="4.25"/>
		<rect x="47.51" y="49.35" class="Assetx5" width="4.25" height="4.25"/>
		<rect x="56.13" y="49.35" class="Assetx5" width="4.25" height="4.25"/>
		<rect x="47.65" y="59.79" class="Assetx5" width="4.25" height="4.25"/>
		<rect x="56.27" y="59.79" class="Assetx5" width="4.25" height="4.25"/>
		<rect x="65.93" y="23.35" class="Assetx5" width="4.25" height="4.25"/>
		<rect x="74.55" y="23.35" class="Assetx5" width="4.25" height="4.25"/>
		<rect x="74.7" y="33.79" class="Assetx5" width="4.25" height="4.25"/>
		<rect x="74.85" y="44.23" class="Assetx5" width="4.25" height="4.25"/>
		<rect x="88.28" y="24.33" class="Assetx6" width="2.3" height="2.3"/>
		<rect x="88.43" y="34.77" class="Assetx6" width="2.3" height="2.3"/>
		<rect x="88.58" y="45.21" class="Assetx6" width="2.3" height="2.3"/>
	</g>
</g>
<g id="Layer_2">
</g>
</svg>
