<?xml version="1.0" encoding="utf-8"?>
<!-- Generator: Adobe Illustrator 26.0.2, SVG Export Plug-In . SVG Version: 6.00 Build 0)  -->
<svg version="1.1" id="Layer_1" xmlns="http://www.w3.org/2000/svg" xmlns:xlink="http://www.w3.org/1999/xlink" x="0px" y="0px"
	 viewBox="0 0 128 128" style="enable-background:new 0 0 128 128;" xml:space="preserve">
<style type="text/css">
	.AssetConfigurationx0{fill:none;stroke:#000000;stroke-width:5;stroke-miterlimit:10;}
	.AssetConfigurationx1{stroke:#000000;stroke-width:5;stroke-miterlimit:10;}
	.AssetConfigurationx2{fill:none;stroke:#000000;stroke-width:5;stroke-linejoin:round;stroke-miterlimit:10;}
	.AssetConfigurationx3{fill:none;stroke:#000000;stroke-width:4;stroke-miterlimit:10;}
	.AssetConfigurationx4{fill:none;stroke:#000000;stroke-width:3;stroke-miterlimit:10;}
	.AssetConfigurationx5{fill:none;stroke:#FF0000;stroke-width:5;stroke-miterlimit:10;}
	.AssetConfigurationx6{fill:none;stroke:#000000;stroke-width:2;stroke-miterlimit:10;}
	.AssetConfigurationx7{stroke:#000000;stroke-miterlimit:10;}
	.AssetConfigurationx8{fill:#FF0000;}
</style>
<g>
	<circle class="AssetConfigurationx0" cx="82.1" cy="99.15" r="10.78"/>
	<path class="AssetConfigurationx0" d="M75.78,116.74c0.76,0.32,1.32,0.99,1.5,1.8l0.56,2.58c0.42,1.62,1.27,2.74,2.89,2.89h2.75
		c1.62-0.14,2.46-1.27,2.89-2.89l0.56-2.58c0.18-0.81,0.74-1.48,1.5-1.8l1.64-0.68c0.76-0.32,1.63-0.24,2.33,0.21l2.22,1.43
		c1.44,0.85,2.84,1.04,4.08,0l1.94-1.94c1.04-1.24,0.85-2.64,0-4.08l-1.43-2.22c-0.45-0.7-0.52-1.57-0.21-2.33l0.68-1.64
		c0.32-0.76,0.99-1.32,1.8-1.5l2.58-0.56c1.62-0.42,2.74-1.27,2.89-2.89v-2.75c-0.14-1.62-1.27-2.46-2.89-2.89l-2.58-0.56
		c-0.81-0.18-1.48-0.74-1.8-1.5l-0.68-1.64c-0.32-0.76-0.24-1.63,0.21-2.33l1.43-2.22c0.85-1.44,1.04-2.84,0-4.08l-1.94-1.94
		c-1.24-1.04-2.64-0.85-4.08,0l-2.22,1.43c-0.7,0.45-1.57,0.52-2.33,0.21l-1.64-0.68c-0.76-0.32-1.32-0.99-1.5-1.8l-0.56-2.58
		c-0.42-1.62-1.27-2.74-2.89-2.89h-2.75c-1.62,0.14-2.46,1.27-2.89,2.89l-0.56,2.58c-0.18,0.81-0.74,1.48-1.5,1.8l-1.64,0.68
		c-0.76,0.32-1.63,0.24-2.33-0.21l-2.22-1.43c-1.44-0.85-2.84-1.04-4.08,0l-1.94,1.94c-1.04,1.24-0.85,2.64,0,4.08l1.43,2.22
		c0.45,0.7,0.52,1.57,0.21,2.33l-0.68,1.64c-0.32,0.76-0.99,1.32-1.8,1.5l-2.58,0.56c-1.62,0.42-2.74,1.27-2.89,2.89v2.75
		c0.14,1.62,1.27,2.46,2.89,2.89l2.58,0.56c0.81,0.18,1.48,0.74,1.8,1.5l0.68,1.64c0.32,0.76,0.24,1.63-0.21,2.33l-1.43,2.22
		c-0.85,1.44-1.04,2.84,0,4.08l1.94,1.94c1.24,1.04,2.64,0.85,4.08,0l2.22-1.43c0.7-0.45,1.57-0.52,2.33-0.21L75.78,116.74z"/>
	<polyline class="AssetConfigurationx0" points="59.23,124 21.05,124 21.05,4 106.95,4 106.95,75.59 106.95,82.41 	"/>
	<rect x="28.55" y="11.98" class="AssetConfigurationx4" width="70.91" height="20.83"/>
	<rect x="28.55" y="36.39" class="AssetConfigurationx4" width="70.91" height="18.67"/>
	<polyline class="AssetConfigurationx4" points="57.78,78.4 28.55,78.4 28.55,59.73 99.45,59.73 99.45,75.59 	"/>
	<polyline class="AssetConfigurationx4" points="49.95,101.02 28.55,101.02 28.55,83.79 55.91,83.79 	"/>
</g>
</svg>
