<?xml version="1.0" encoding="utf-8"?>
<!-- Generator: Adobe Illustrator 26.0.2, SVG Export Plug-In . SVG Version: 6.00 Build 0)  -->
<svg version="1.1" id="Layer_1" xmlns="http://www.w3.org/2000/svg" xmlns:xlink="http://www.w3.org/1999/xlink" x="0px" y="0px"
	 viewBox="0 0 128 128" style="enable-background:new 0 0 128 128;" xml:space="preserve">
<style type="text/css">
	.Attachx0{fill:none;stroke:#010101;stroke-width:5;stroke-miterlimit:10;}
	.Attachx1{fill:none;stroke:#010101;stroke-width:3;stroke-miterlimit:10;}
	.Attachx2{fill:#010101;stroke:#010101;stroke-miterlimit:10;}
	.Attachx3{fill:#010101;}
	.Attachx4{fill:#010101;stroke:#010101;stroke-width:5;stroke-miterlimit:10;}
	.Attachx5{fill:none;stroke:#010101;stroke-width:2;stroke-miterlimit:10;}
</style>
<g>
	<line class="Attachx0" x1="12.7" y1="114.67" x2="12.7" y2="114.67"/>
	<path class="Attachx0" d="M15.94,66.89l54.66-54.66c10.97-10.97,28.75-10.97,39.72,0s10.97,28.75,0,39.72L84.84,77.43l-34.98,34.98"/>
	<path class="Attachx0" d="M84.84,77.43l-34.98,34.98l-5.62,5.62c-3.98,3.98-9.2,5.97-14.41,5.97s-10.43-1.99-14.41-5.97
		c-1.04-1.04-1.95-2.17-2.72-3.36l0,0c-5.1-7.9-4.2-18.55,2.72-25.46l34.62-34.62l5.98-5.98"/>
	<path class="Attachx0" d="M50.04,54.58l5.98-5.98l15.47-15.47c4.37-4.37,11.45-4.37,15.82,0c4.37,4.37,4.37,11.45,0,15.82l-0.35,0.35
		L65.86,70.4"/>
	<line class="Attachx0" x1="86.95" y1="49.31" x2="39.14" y2="97.12"/>
</g>
</svg>
