<?xml version="1.0" encoding="utf-8"?>
<!-- Generator: Adobe Illustrator 26.0.2, SVG Export Plug-In . SVG Version: 6.00 Build 0)  -->
<svg version="1.1" id="Layer_1" xmlns="http://www.w3.org/2000/svg" xmlns:xlink="http://www.w3.org/1999/xlink" x="0px" y="0px"
	 viewBox="0 0 128 128" style="enable-background:new 0 0 128 128;" xml:space="preserve">
<style type="text/css">
	.Auditx0{fill:none;stroke:#000000;stroke-width:5;stroke-miterlimit:10;}
	.Auditx1{fill:none;stroke:#000000;stroke-width:4;stroke-miterlimit:10;}
	.Auditx2{fill:none;stroke:#000000;stroke-width:3;stroke-linecap:round;stroke-linejoin:round;stroke-miterlimit:10;}
	.Auditx3{fill:none;stroke:#000000;stroke-width:3;stroke-miterlimit:10;}
	.Auditx4{stroke:#000000;stroke-width:5;stroke-miterlimit:10;}
</style>
<path class="Auditx3" d="M60.8,71.6H37.7c-2.5,0-4.7-2.1-4.7-4.6c0-1.3,0.5-2.4,1.4-3.3c0.8-0.8,2-1.4,3.3-1.4h20.9
	C58.6,65.6,59.4,68.8,60.8,71.6z"/>
<path class="Auditx3" d="M82.2,107.3H36.5c-1.9,0-3.4-1.5-3.4-3.4v-2.5c0-1.9,1.5-3.4,3.4-3.4h45.8c1.9,0,3.4,1.5,3.4,3.4v2.5
	C85.6,105.8,84.1,107.3,82.2,107.3z"/>
<path class="Auditx3" d="M67.7,89.5H36.5c-1.9,0-3.4-1.5-3.4-3.4v-2.5c0-1.9,1.5-3.4,3.4-3.4h31.2c1.9,0,3.4,1.5,3.4,3.4v2.5
	C71.1,87.9,69.6,89.5,67.7,89.5z"/>
<path class="Auditx0" d="M101.5,42.2V17.7c0-7.6-6.2-13.7-13.7-13.7H58h-0.2H28c-6.1,0-11,4.9-11,11v34.3v1v-1v1v59.9
	c0,7.6,6.2,13.7,13.7,13.7h57.1c7.6,0,13.7-6.2,13.7-13.7V96.7"/>
<circle class="Auditx1" cx="81.7" cy="61.1" r="16.5"/>
<line class="Auditx0" x1="92.5" y1="73.2" x2="111" y2="91.7"/>
<line class="Auditx0" x1="53.1" y1="4" x2="17" y2="40.1"/>
</svg>
