<?xml version="1.0" encoding="utf-8"?>
<!-- Generator: Adobe Illustrator 26.0.2, SVG Export Plug-In . SVG Version: 6.00 Build 0)  -->
<svg version="1.1" xmlns="http://www.w3.org/2000/svg" xmlns:xlink="http://www.w3.org/1999/xlink" x="0px" y="0px"
	 viewBox="0 0 128 128" style="enable-background:new 0 0 128 128;" xml:space="preserve">
<style type="text/css">
	.AuditHistoryx0{fill:none;stroke:#000000;stroke-width:5;stroke-linejoin:round;stroke-miterlimit:10;}
	.AuditHistoryx1{fill:none;stroke:#010101;stroke-width:5;stroke-linejoin:round;stroke-miterlimit:10;}
	.AuditHistoryx2{fill:none;stroke:#010101;stroke-width:5;stroke-miterlimit:10;}
	.AuditHistoryx3{fill:none;stroke:#000000;stroke-width:4;stroke-miterlimit:10;}
	.AuditHistoryx4{fill:none;stroke:#000000;stroke-miterlimit:10;}
	.AuditHistoryx5{fill:none;stroke:#000000;stroke-width:5;stroke-miterlimit:10;}
	.AuditHistoryx6{fill:none;stroke:#000000;stroke-width:5;stroke-linecap:round;stroke-linejoin:round;stroke-miterlimit:10;}
	.AuditHistoryx7{fill:none;stroke:#020202;stroke-width:5;stroke-linecap:round;stroke-miterlimit:10;}
	.AuditHistoryx8{fill:none;stroke:#020202;stroke-width:5;stroke-miterlimit:10;}
	.AuditHistoryx9{fill:none;stroke:#020202;stroke-width:5;stroke-linecap:round;stroke-linejoin:round;stroke-miterlimit:10;}
	.AuditHistoryx10{fill:none;stroke:#010101;stroke-width:5;stroke-linecap:round;stroke-miterlimit:10;}
	.AuditHistoryx11{fill:none;stroke:#010101;stroke-miterlimit:10;}
	.AuditHistoryx12{fill:none;stroke:#000000;stroke-width:5;stroke-linecap:round;stroke-miterlimit:10;}
	.AuditHistoryx13{fill:none;stroke:#000000;stroke-width:4;stroke-linecap:round;stroke-linejoin:round;stroke-miterlimit:10;}
</style>
<g id="Layer_1">
</g>
<g id="Layer_2">
	<g>
		<g>
			<polygon class="AuditHistoryx13" points="77.71,13.41 80.46,21.81 88.03,16.69 			"/>
			<g>
				<path class="AuditHistoryx13" d="M81.82,18.72c2-6.07,7.71-10.45,14.45-10.45c8.4,0,15.21,6.81,15.21,15.21c0,8.4-6.81,15.21-15.21,15.21
					c-6.19,0-11.51-3.69-13.89-9"/>
			</g>
			<polyline class="AuditHistoryx13" points="96.3,18.09 96.3,23.17 100.98,29.28 			"/>
		</g>
		<g>
			<path class="AuditHistoryx2" d="M55.8,71.61H32.7c-2.55,0-4.65-2.09-4.65-4.64c0-1.28,0.52-2.44,1.36-3.29c0.85-0.85,2.02-1.36,3.29-1.36
				h20.86C53.6,65.65,54.4,68.81,55.8,71.61z"/>
			<path class="AuditHistoryx2" d="M77.23,107.33H31.45c-1.87,0-3.4-1.53-3.4-3.4v-2.48c0-1.87,1.53-3.4,3.4-3.4h45.77c1.87,0,3.4,1.53,3.4,3.4
				v2.48C80.63,105.81,79.1,107.33,77.23,107.33z"/>
			<path class="AuditHistoryx2" d="M62.68,89.47H31.45c-1.87,0-3.4-1.53-3.4-3.4v-2.48c0-1.87,1.53-3.4,3.4-3.4h31.23c1.87,0,3.4,1.53,3.4,3.4
				v2.48C66.09,87.94,64.56,89.47,62.68,89.47z"/>
			<path class="AuditHistoryx2" d="M77.77,4H58.01h-0.15h-29.9c-6.08,0-11,4.92-11,11v34.31v1.05v-1.05v1.05v59.9
				c0,7.57,6.16,13.73,13.73,13.73h57.08c7.57,0,13.73-6.16,13.73-13.73V96.74"/>
			<circle class="AuditHistoryx2" cx="81.66" cy="61.06" r="16.5"/>
			<line class="AuditHistoryx2" x1="92.46" y1="73.17" x2="111.05" y2="91.75"/>
			<line class="AuditHistoryx2" x1="53.09" y1="4" x2="16.95" y2="40.14"/>
		</g>
	</g>
</g>
</svg>
