<?xml version="1.0" encoding="utf-8"?>
<!-- Generator: Adobe Illustrator 26.0.2, SVG Export Plug-In . SVG Version: 6.00 Build 0)  -->
<svg version="1.1" id="Layer_1" xmlns="http://www.w3.org/2000/svg" xmlns:xlink="http://www.w3.org/1999/xlink" x="0px" y="0px"
	 viewBox="0 0 128 128" style="enable-background:new 0 0 128 128;" xml:space="preserve">
<style type="text/css">
	.AuthByEntityx0{fill:none;stroke:#000000;stroke-width:5;stroke-miterlimit:10;}
	.AuthByEntityx1{fill:none;stroke:#000000;stroke-width:4;stroke-miterlimit:10;}
	.AuthByEntityx2{fill:none;stroke:#000000;stroke-width:3;stroke-linecap:round;stroke-linejoin:round;stroke-miterlimit:10;}
	.AuthByEntityx3{fill:none;stroke:#000000;stroke-width:3;stroke-miterlimit:10;}
	.AuthByEntityx4{stroke:#000000;stroke-width:5;stroke-miterlimit:10;}
</style>
<g>
	<g>
		<path class="AuthByEntityx0" d="M24.9,32.9c0,0,38.3-35.9,77.7,0"/>
		<path class="AuthByEntityx0" d="M20.6,53.6c13.4-20.8,56-43.1,85.3,0"/>
		<path class="AuthByEntityx0" d="M63,74.3c0,0-0.7,28.4,25.5,30.9"/>
		<path class="AuthByEntityx0" d="M55.9,112.3c-30.8-29.4-16-48.7-4-56.2c9.9-6.1,36.7-5.5,37.7,27.3"/>
		<path class="AuthByEntityx0" d="M76.1,112.1c0,0-35.4-14.4-23.5-39.9c0.7-1.5,1.9-2.8,3.3-3.7c4.7-3,15.8-8.1,21.4,10.1
			c0.1,0.5,0.2,1,0.3,1.5c0.2,2.2,1.3,10,7.9,13.4c2.5,1.3,5.5,1.3,8.1,0.2c4.3-1.8,9.2-6.3,7.7-15.2c-7.9-38.7-39.2-41.2-54-34.2
			c-12.8,6-35.7,30.2-11.4,62.5"/>
	</g>
	<g>
		<path class="AuthByEntityx0" d="M4.2,44.7V12.2C4.2,7.7,7.9,4,12.5,4h31.5"/>
		<path class="AuthByEntityx0" d="M4.2,83.3v32.4c0,4.5,3.7,8.2,8.2,8.2h31.5"/>
		<path class="AuthByEntityx0" d="M123.8,44.7l0-32.4c0-4.5-3.7-8.2-8.2-8.2H84.1"/>
		<path class="AuthByEntityx0" d="M123.8,83.3v32.4c0,4.5-3.7,8.2-8.2,8.2H84.1"/>
	</g>
</g>
</svg>
