<?xml version="1.0" encoding="utf-8"?>
<!-- Generator: Adobe Illustrator 26.0.2, SVG Export Plug-In . SVG Version: 6.00 Build 0)  -->
<svg version="1.1" xmlns="http://www.w3.org/2000/svg" xmlns:xlink="http://www.w3.org/1999/xlink" x="0px" y="0px"
	 viewBox="0 0 128 128" style="enable-background:new 0 0 128 128;" xml:space="preserve">
<style type="text/css">
	.AWSCloudx0{fill:none;stroke:#000000;stroke-width:5;stroke-linecap:round;stroke-linejoin:round;stroke-miterlimit:10;}
	.AWSCloudx1{fill:none;stroke:#000000;stroke-width:2;stroke-linecap:round;stroke-miterlimit:10;}
	.AWSCloudx2{font-family:'MyriadPro-Regular';}
	.AWSCloudx3{font-size:26.3669px;}
	.AWSCloudx4{fill:#F89A1F;stroke:#F89A1F;stroke-miterlimit:10;}
	.AWSCloudx5{fill:none;stroke:#000000;stroke-width:5;stroke-linecap:round;stroke-miterlimit:10;}
	.AWSCloudx6{fill:none;stroke:#000000;stroke-width:5;stroke-miterlimit:10;}
	.AWSCloudx7{fill:none;stroke:#000000;stroke-width:2;stroke-linecap:round;stroke-linejoin:round;stroke-miterlimit:10;}
	.AWSCloudx8{fill:none;stroke:#000000;stroke-linecap:round;stroke-linejoin:round;stroke-miterlimit:10;}
	.AWSCloudx9{fill:none;stroke:#000000;stroke-width:5;stroke-linejoin:round;stroke-miterlimit:10;}
	.AWSCloudx10{fill:none;stroke:#000000;stroke-width:2;stroke-miterlimit:10;}
	.AWSCloudx11{fill:none;stroke:#000000;stroke-miterlimit:10;}
	.AWSCloudx12{fill:#F9BB16;}
	.AWSCloudx13{fill:#EA4435;}
	.AWSCloudx14{fill:#2FA952;}
	.AWSCloudx15{fill:#547DBF;}
	.AWSCloudx16{fill:none;stroke:#000000;stroke-width:3;stroke-linecap:round;stroke-linejoin:round;stroke-miterlimit:10;}
	.AWSCloudx17{stroke:#000000;stroke-miterlimit:10;}
	.AWSCloudx18{fill:none;stroke:#010101;stroke-width:5;stroke-miterlimit:10;}
	.AWSCloudx19{fill:none;stroke:#020202;stroke-width:5;stroke-miterlimit:10;}
</style>
<g id="Layer_1">
	<text transform="matrix(1 0 0 1 42.8246 70.8203)" class="AWSCloudx2 AWSCloudx3">aws</text>
	<path class="AWSCloudx4" d="M40.02,74.94c0,0,19.95,11.67,42.87,2.76C83.1,77.7,59.97,95.74,40.02,74.94z"/>
	<path class="AWSCloudx4" d="M78.22,76.21c-0.35,0.53,7,0,7,0l-1.27,6.37c0,0,2.96-3.18,3.6-7.64C87.98,74.73,80.61,72.58,78.22,76.21z"/>
	<path class="AWSCloudx5" d="M23.04,59.14C25,43.13,38.65,30.72,55.2,30.72c10.97,0,20.66,5.45,26.52,13.78l7.36,0H93
		c14.57,0,26.39,11.81,26.39,26.39v0c0,14.57-11.81,26.39-26.39,26.39H28.02c-10.72,0-19.41-8.69-19.41-19.41v0
		c0-10.72,6.02-16.19,14.85-18.87l0,0"/>
</g>
<g id="Layer_2">
</g>
</svg>
