<?xml version="1.0" encoding="utf-8"?>
<!-- Generator: Adobe Illustrator 26.0.2, SVG Export Plug-In . SVG Version: 6.00 Build 0)  -->
<svg version="1.1" xmlns="http://www.w3.org/2000/svg" xmlns:xlink="http://www.w3.org/1999/xlink" x="0px" y="0px"
	 viewBox="0 0 128 128" style="enable-background:new 0 0 128 128;" xml:space="preserve">
<style type="text/css">
	.AzureCloudx0{fill:none;stroke:#000000;stroke-width:5;stroke-linecap:round;stroke-linejoin:round;stroke-miterlimit:10;}
	.AzureCloudx1{fill:none;stroke:#000000;stroke-width:2;stroke-linecap:round;stroke-miterlimit:10;}
	.AzureCloudx2{fill:#F89A1F;stroke:#F89A1F;stroke-miterlimit:10;}
	.AzureCloudx3{fill:none;stroke:#000000;stroke-width:5;stroke-linecap:round;stroke-miterlimit:10;}
	.AzureCloudx4{fill:none;stroke:#000000;stroke-width:5;stroke-miterlimit:10;}
	.AzureCloudx5{fill:none;stroke:#000000;stroke-width:2;stroke-linecap:round;stroke-linejoin:round;stroke-miterlimit:10;}
	.AzureCloudx6{fill:none;stroke:#000000;stroke-linecap:round;stroke-linejoin:round;stroke-miterlimit:10;}
	.AzureCloudx7{fill:none;stroke:#000000;stroke-width:5;stroke-linejoin:round;stroke-miterlimit:10;}
	.AzureCloudx8{fill:none;stroke:#000000;stroke-width:2;stroke-miterlimit:10;}
	.AzureCloudx9{stroke:#000000;stroke-miterlimit:10;}
	.AzureCloudx10{font-family:'MyriadPro-Regular';}
	.AzureCloudx11{font-size:20.9614px;}
	.AzureCloudx12{fill:none;stroke:#000000;stroke-miterlimit:10;}
	.AzureCloudx13{fill:#F9BB16;}
	.AzureCloudx14{fill:#EA4435;}
	.AzureCloudx15{fill:#2FA952;}
	.AzureCloudx16{fill:#547DBF;}
	.AzureCloudx17{fill:none;stroke:#000000;stroke-width:3;stroke-linecap:round;stroke-linejoin:round;stroke-miterlimit:10;}
	.AzureCloudx18{fill:none;stroke:#010101;stroke-width:5;stroke-miterlimit:10;}
	.AzureCloudx19{fill:none;stroke:#020202;stroke-width:5;stroke-miterlimit:10;}
</style>
<g id="Layer_1">
	<path class="AzureCloudx7" d="M107.57,58.45L107.57,58.45c0.41-1.14,0.64-2.37,0.64-3.65c0-5.91-4.8-10.71-10.72-10.71
		c-2.99,0-5.68,1.22-7.62,3.19c-2.85-8.78-11.09-15.12-20.82-15.12c-10.49,0-19.24,7.36-21.38,17.2c-2.51-1.51-5.45-2.39-8.6-2.39
		c-8.91,0-16.18,7.01-16.6,15.81h-2.04c-8.8,0-15.93,7.13-15.93,15.93v1.21c0,8.8,7.13,15.93,15.93,15.93h68.33h15.46h3.35
		c8.8,0,15.93-7.13,15.93-15.93v-5.54C123.49,65.58,116.36,58.45,107.57,58.45z"/>
	<polygon class="AzureCloudx8" points="65.32,61.28 65.32,51.36 77.28,49.81 77.28,61.28 	"/>
	<polygon class="AzureCloudx8" points="62.17,51.6 52.86,52.8 52.86,61.28 62.17,61.28 	"/>
	<polygon class="AzureCloudx8" points="62.17,72.88 52.86,72.09 52.86,64.1 62.17,64.1 	"/>
	<polygon class="AzureCloudx8" points="65.32,73.04 77.28,74.06 77.28,64.1 65.32,64.1 	"/>
	<line class="AzureCloudx8" x1="77.28" y1="61.28" x2="65.32" y2="61.28"/>
	<text transform="matrix(1 0 0 1 38.2408 89.8115)" class="AzureCloudx9 AzureCloudx10 AzureCloudx11">Azure</text>
</g>
<g id="Layer_2">
</g>
</svg>
