<?xml version="1.0" encoding="utf-8"?>
<!-- Generator: Adobe Illustrator 26.0.2, SVG Export Plug-In . SVG Version: 6.00 Build 0)  -->
<svg version="1.1" xmlns="http://www.w3.org/2000/svg" xmlns:xlink="http://www.w3.org/1999/xlink" x="0px" y="0px"
	 viewBox="0 0 128 128" style="enable-background:new 0 0 128 128;" xml:space="preserve">
<style type="text/css">
	.BackgroundTaskProfilex0{fill:none;stroke:#000000;stroke-width:5;stroke-linecap:round;stroke-linejoin:round;stroke-miterlimit:10;}
	.BackgroundTaskProfilex1{fill:none;stroke:#000000;stroke-width:2;stroke-linecap:round;stroke-miterlimit:10;}
	.BackgroundTaskProfilex2{fill:#F89A1F;stroke:#F89A1F;stroke-miterlimit:10;}
	.BackgroundTaskProfilex3{fill:none;stroke:#000000;stroke-width:5;stroke-linecap:round;stroke-miterlimit:10;}
	.BackgroundTaskProfilex4{fill:none;stroke:#000000;stroke-width:5;stroke-miterlimit:10;}
	.BackgroundTaskProfilex5{fill:none;stroke:#000000;stroke-width:2;stroke-linecap:round;stroke-linejoin:round;stroke-miterlimit:10;}
	.BackgroundTaskProfilex6{fill:none;stroke:#000000;stroke-linecap:round;stroke-linejoin:round;stroke-miterlimit:10;}
	.BackgroundTaskProfilex7{fill:none;stroke:#000000;stroke-width:5;stroke-linejoin:round;stroke-miterlimit:10;}
	.BackgroundTaskProfilex8{fill:none;stroke:#000000;stroke-width:2;stroke-miterlimit:10;}
	.BackgroundTaskProfilex9{fill:none;stroke:#000000;stroke-miterlimit:10;}
	.BackgroundTaskProfilex10{fill:#F9BB16;}
	.BackgroundTaskProfilex11{fill:#EA4435;}
	.BackgroundTaskProfilex12{fill:#2FA952;}
	.BackgroundTaskProfilex13{fill:#547DBF;}
	.BackgroundTaskProfilex14{fill:none;stroke:#000000;stroke-width:3;stroke-linecap:round;stroke-linejoin:round;stroke-miterlimit:10;}
	.BackgroundTaskProfilex15{stroke:#000000;stroke-miterlimit:10;}
	.BackgroundTaskProfilex16{fill:none;stroke:#010101;stroke-width:5;stroke-miterlimit:10;}
	.BackgroundTaskProfilex17{fill:none;stroke:#020202;stroke-width:5;stroke-miterlimit:10;}
</style>
<g id="Layer_1">
	<g>
		<path class="BackgroundTaskProfilex0" d="M35.2,21.86h-3.37c-6.1,0-11.04,4.95-11.04,11.04v72.12c0,6.09,4.94,11.04,11.04,11.04h28.99"/>
		<path class="BackgroundTaskProfilex0" d="M86.23,21.86h3.58c6.1,0,11.04,4.95,11.04,11.04v41.86"/>
		<circle class="BackgroundTaskProfilex0" cx="87.59" cy="101.43" r="19.62"/>
		<path class="BackgroundTaskProfilex0" d="M75.42,15.58H73.4v-3.68c0-2.74-2.22-4.96-4.96-4.96H53.19c-2.74,0-4.96,2.22-4.96,4.96v3.68h-2.02
			c-2.99,0-5.41,2.42-5.41,5.41v5.58h40.03V21C80.83,18.01,78.41,15.58,75.42,15.58z"/>
		<line class="BackgroundTaskProfilex0" x1="33.15" y1="58.76" x2="87.59" y2="58.76"/>
		<line class="BackgroundTaskProfilex0" x1="33.15" y1="69.32" x2="87.59" y2="69.32"/>
		<line class="BackgroundTaskProfilex0" x1="33.15" y1="79.88" x2="67.97" y2="79.88"/>
		<line class="BackgroundTaskProfilex0" x1="43.6" y1="41.23" x2="78.42" y2="41.23"/>
		<line class="BackgroundTaskProfilex0" x1="33.15" y1="90.44" x2="60.37" y2="90.44"/>
		<polyline class="BackgroundTaskProfilex0" points="77.42,104.43 84.31,109.6 96.06,95.46 		"/>
	</g>
</g>
<g id="Layer_2">
</g>
</svg>
