<svg id="Layer_1" data-name="Layer 1" xmlns="http://www.w3.org/2000/svg" viewBox="0 0 128 128"><defs><style>.cls-1{fill:#fff;fill-opacity:0;stroke:#000;stroke-miterlimit:10;stroke-width:5px;}</style></defs><path class="cls-1" d="M4,41.15V31.46a8.53,8.53,0,0,1,8.53-8.52h74a8.53,8.53,0,0,1,8.52,8.52v9.69Z"/><path class="cls-1" d="M68.91,92.47H12.52A8.53,8.53,0,0,1,4,84v-37H95.05v9"/><path class="cls-1" d="M31,22.94V15.67c0-2.75,2.7-5,6-5H62.07c3.32,0,6,2.23,6,5v7.27"/><path class="cls-1" d="M120.44,81.38l-3.19-.69A3.1,3.1,0,0,1,115,78.83l-.84-2a3.13,3.13,0,0,1,.25-2.88l1.77-2.75c1-1.78,1.28-3.5,0-5l-2.4-2.4c-1.54-1.29-3.26-1-5,0L106,65.51a3.1,3.1,0,0,1-2.88.26l-2-.84a3.13,3.13,0,0,1-1.85-2.21l-.69-3.19C98.06,57.53,97,56.14,95,56H91.64c-2,.17-3,1.56-3.57,3.56l-.69,3.19a3.13,3.13,0,0,1-1.85,2.21l-2,.84a3.1,3.1,0,0,1-2.88-.26l-2.74-1.76c-1.78-1-3.5-1.29-5,0l-2.4,2.4c-1.28,1.53-1,3.25,0,5l1.77,2.75a3.13,3.13,0,0,1,.25,2.88l-.84,2a3.1,3.1,0,0,1-2.21,1.86l-3.19.69c-2,.52-3.39,1.56-3.56,3.56v3.39c.17,2,1.56,3,3.56,3.56l3.19.7a3.11,3.11,0,0,1,2.21,1.85l.84,2a3.11,3.11,0,0,1-.25,2.87l-1.77,2.75c-1,1.78-1.28,3.5,0,5l2.4,2.39c1.54,1.29,3.26,1,5,0l2.74-1.76a3.13,3.13,0,0,1,2.88-.26l2,.84a3.13,3.13,0,0,1,1.85,2.22l.69,3.19c.53,2,1.57,3.38,3.57,3.56H95c2-.18,3-1.57,3.57-3.56l.69-3.19a3.13,3.13,0,0,1,1.85-2.22l2-.84a3.13,3.13,0,0,1,2.88.26l2.74,1.76c1.78,1,3.5,1.29,5,0l2.4-2.39c1.28-1.54,1-3.26,0-5l-1.77-2.75a3.11,3.11,0,0,1-.25-2.87l.84-2a3.11,3.11,0,0,1,2.21-1.85l3.19-.7c2-.52,3.39-1.56,3.56-3.56V84.94C123.83,82.94,122.44,81.9,120.44,81.38ZM93.33,99.94a13.3,13.3,0,1,1,13.3-13.3A13.3,13.3,0,0,1,93.33,99.94Z"/></svg>