<svg id="Layer_1" data-name="Layer 1" xmlns="http://www.w3.org/2000/svg" viewBox="0 0 128 128"><defs><style>.cls-1{fill:none;stroke:#000;stroke-miterlimit:10;stroke-width:5px;}</style></defs><path class="cls-1" d="M96.25,76V46.38A18.69,18.69,0,0,0,95.12,40,18.44,18.44,0,0,0,77.87,28,18.44,18.44,0,0,0,60.63,40a18.69,18.69,0,0,0-1.13,6.38V84.63a9.38,9.38,0,0,1-18.75,0V52h-9V84.63A18.68,18.68,0,0,0,32.88,91a18.41,18.41,0,0,0,26.62,9.44,19.14,19.14,0,0,0,3.61-2.82A18.34,18.34,0,0,0,67.37,91a18.68,18.68,0,0,0,1.13-6.37V46.38a9.38,9.38,0,1,1,18.75,0V76Z"/><rect class="cls-1" x="83.5" y="83.5" width="16.5" height="25.5"/><path class="cls-1" d="M83.5,116.5H100a0,0,0,0,1,0,0v3.73A3.77,3.77,0,0,1,96.23,124h-10a2.77,2.77,0,0,1-2.77-2.77V116.5A0,0,0,0,1,83.5,116.5Z"/><rect class="cls-1" x="28" y="19" width="16.5" height="25.5" transform="translate(72.5 63.5) rotate(-180)"/><path class="cls-1" d="M28,4H44.5a0,0,0,0,1,0,0V7.73a3.77,3.77,0,0,1-3.77,3.77h-10A2.77,2.77,0,0,1,28,8.73V4A0,0,0,0,1,28,4Z" transform="translate(72.5 15.5) rotate(-180)"/></svg>