<?xml version="1.0" encoding="utf-8"?>
<!-- Generator: Adobe Illustrator 26.0.2, SVG Export Plug-In . SVG Version: 6.00 Build 0)  -->
<svg version="1.1" id="Layer_1" xmlns="http://www.w3.org/2000/svg" xmlns:xlink="http://www.w3.org/1999/xlink" x="0px" y="0px"
	 viewBox="0 0 128 128" style="enable-background:new 0 0 128 128;" xml:space="preserve">
<style type="text/css">
	.CeilingFloorx0{fill:none;stroke:#000000;stroke-width:5;stroke-miterlimit:10;}
	.CeilingFloorx1{fill:none;stroke:#000000;stroke-width:3;stroke-miterlimit:10;}
</style>
<rect x="4" y="4" class="CeilingFloorx0" width="120" height="120"/>
<g>
	<path class="CeilingFloorx1" d="M65.6,89.1c-2.5,1.3-7.6,2.5-14.2,2.5c-15.1,0-26.5-9.6-26.5-27.1c0-16.8,11.4-28.2,28-28.2
		c6.7,0,10.9,1.4,12.7,2.4L64,44.4c-2.6-1.3-6.4-2.2-10.8-2.2c-12.6,0-20.9,8-20.9,22.1c0,13.1,7.6,21.6,20.6,21.6
		c4.2,0,8.5-0.9,11.3-2.2L65.6,89.1z"/>
	<path class="CeilingFloorx1" d="M74.2,37.2h28.9V43h-22v17.8h20.3v5.7H81.2v24.3h-6.9V37.2z"/>
</g>
<line class="CeilingFloorx0" x1="29.1" y1="20" x2="98.9" y2="20"/>
</svg>
