<?xml version="1.0" encoding="utf-8"?>
<!-- Generator: Adobe Illustrator 26.0.2, SVG Export Plug-In . SVG Version: 6.00 Build 0)  -->
<svg version="1.1" id="Layer_1" xmlns="http://www.w3.org/2000/svg" xmlns:xlink="http://www.w3.org/1999/xlink" x="0px" y="0px"
	 viewBox="0 0 128 128" style="enable-background:new 0 0 128 128;" xml:space="preserve">
<style type="text/css">
	.ClearWatermarkforsubnodesx0{fill:none;stroke:#010101;stroke-width:5;stroke-miterlimit:10;}
	.ClearWatermarkforsubnodesx1{fill:none;stroke:#010101;stroke-width:3;stroke-miterlimit:10;}
	.ClearWatermarkforsubnodesx2{fill:#010101;stroke:#010101;stroke-miterlimit:10;}
	.ClearWatermarkforsubnodesx3{fill:#010101;}
	.ClearWatermarkforsubnodesx4{fill:#010101;stroke:#010101;stroke-width:5;stroke-miterlimit:10;}
	.ClearWatermarkforsubnodesx5{fill:none;stroke:#010101;stroke-width:2;stroke-miterlimit:10;}
</style>
<g>
	<g>
		<line class="ClearWatermarkforsubnodesx1" x1="104.61" y1="63.06" x2="117.76" y2="76.22"/>
		<line class="ClearWatermarkforsubnodesx1" x1="117.76" y1="63.06" x2="104.61" y2="76.22"/>
	</g>
	<line class="ClearWatermarkforsubnodesx1" x1="76.8" y1="71.37" x2="98.12" y2="71.37"/>
	<path class="ClearWatermarkforsubnodesx1" d="M89.44,68.01l2.18-7.39c0,0,1.18-4.53-3.86-5.21h-0.55c-5.04,0.67-3.86,5.21-3.86,5.21l2.18,7.39H89.44z"/>
	<path class="ClearWatermarkforsubnodesx0" d="M100.9,76.21H73.78c-2.41,0-4.37-1.96-4.37-4.37V53.15c0-2.43,1.96-4.39,4.37-4.39h39.6
		c2.41,0,4.39,1.96,4.39,4.39v5.82"/>
	<g>
		<line class="ClearWatermarkforsubnodesx1" x1="104.61" y1="110.85" x2="117.76" y2="124"/>
		<line class="ClearWatermarkforsubnodesx1" x1="117.76" y1="110.85" x2="104.61" y2="124"/>
	</g>
	<line class="ClearWatermarkforsubnodesx1" x1="76.8" y1="119.15" x2="98.12" y2="119.15"/>
	<path class="ClearWatermarkforsubnodesx1" d="M89.44,115.8l2.18-7.39c0,0,1.18-4.53-3.86-5.21h-0.55c-5.04,0.67-3.86,5.21-3.86,5.21l2.18,7.39H89.44z"/>
	<path class="ClearWatermarkforsubnodesx0" d="M100.9,123.99H73.78c-2.41,0-4.37-1.96-4.37-4.37v-18.68c0-2.43,1.96-4.39,4.37-4.39h39.6
		c2.41,0,4.39,1.96,4.39,4.39v5.82"/>
	<path class="ClearWatermarkforsubnodesx0" d="M55.01,31.45h-41.2c-1.97,0-3.58-1.6-3.58-3.58V7.58c0-1.97,1.6-3.58,3.58-3.58h41.2
		c1.97,0,3.58,1.6,3.58,3.58v20.29C58.59,29.84,56.99,31.45,55.01,31.45z"/>
	<polyline class="ClearWatermarkforsubnodesx0" points="34.35,38.63 34.35,62.97 34.35,110.02 64.08,110.02 	"/>
	<line class="ClearWatermarkforsubnodesx0" x1="63.81" y1="62.97" x2="33.76" y2="62.97"/>
</g>
</svg>
