<?xml version="1.0" encoding="utf-8"?>
<!-- Generator: Adobe Illustrator 26.0.2, SVG Export Plug-In . SVG Version: 6.00 Build 0)  -->
<svg version="1.1" id="Layer_1" xmlns="http://www.w3.org/2000/svg" xmlns:xlink="http://www.w3.org/1999/xlink" x="0px" y="0px"
	 viewBox="0 0 128 128" style="enable-background:new 0 0 128 128;" xml:space="preserve">
<style type="text/css">
	.ClearWatermarkx0{fill:none;stroke:#010101;stroke-width:5;stroke-miterlimit:10;}
	.ClearWatermarkx1{fill:none;stroke:#010101;stroke-width:3;stroke-miterlimit:10;}
	.ClearWatermarkx2{fill:none;stroke:#010101;stroke-width:2;stroke-miterlimit:10;}
	.ClearWatermarkx3{fill:none;stroke:#010101;stroke-width:5;stroke-linecap:round;stroke-linejoin:round;stroke-miterlimit:10;}
	.ClearWatermarkx4{fill:#010101;}
	.ClearWatermarkx5{fill:#010101;stroke:#010101;stroke-width:5;stroke-miterlimit:10;}
</style>
<g>
	<line class="ClearWatermarkx0" x1="103.32" y1="11.25" x2="85.4" y2="29.17"/>
	<line class="ClearWatermarkx0" x1="19.3" y1="95.26" x2="6.95" y2="107.61"/>
	<line class="ClearWatermarkx0" x1="111.96" y1="27.28" x2="95.12" y2="44.11"/>
	<line class="ClearWatermarkx0" x1="43.97" y1="95.26" x2="22.44" y2="116.8"/>
	<line class="ClearWatermarkx0" x1="121.05" y1="43.65" x2="95.12" y2="69.62"/>
	<line class="ClearWatermarkx0" x1="69.51" y1="95.26" x2="40.82" y2="124"/>
	<path class="ClearWatermarkx0" d="M64.1,29.17h21.3h3.61c3.38,0,6.11,2.73,6.11,6.11v8.84v25.5v25.65H69.51H43.97H19.3h-0.91V35.28
		c0-3.38,2.74-6.11,6.11-6.11h23.41"/>
	<line class="ClearWatermarkx0" x1="26.76" y1="47.64" x2="85.11" y2="47.64"/>
	<line class="ClearWatermarkx0" x1="26.76" y1="59.13" x2="85.11" y2="59.13"/>
	<path class="ClearWatermarkx3" d="M61.35,38.46l5.97-20.21c0,0,3.22-12.4-10.57-14.24h-1.51C41.47,5.84,44.68,18.24,44.68,18.24l5.97,20.21
		H61.35z"/>
	<circle class="ClearWatermarkx0" cx="87.18" cy="86.47" r="3.41"/>
	<circle class="ClearWatermarkx0" cx="75.59" cy="86.47" r="3.41"/>
	<circle class="ClearWatermarkx0" cx="64" cy="86.47" r="3.41"/>
</g>
</svg>
