<?xml version="1.0" encoding="utf-8"?>
<!-- Generator: Adobe Illustrator 26.0.2, SVG Export Plug-In . SVG Version: 6.00 Build 0)  -->
<svg version="1.1" id="Layer_1" xmlns="http://www.w3.org/2000/svg" xmlns:xlink="http://www.w3.org/1999/xlink" x="0px" y="0px"
	 viewBox="0 0 128 128" style="enable-background:new 0 0 128 128;" xml:space="preserve">
<style type="text/css">
	.CloudRawDatax0{fill:none;stroke:#000000;stroke-width:5;stroke-miterlimit:10;}
	.CloudRawDatax1{fill:none;stroke:#000000;stroke-width:5;stroke-linecap:round;stroke-miterlimit:10;}
	.CloudRawDatax2{fill:none;stroke:#000000;stroke-width:5;stroke-linecap:round;stroke-linejoin:round;stroke-miterlimit:21.3333;}
	.CloudRawDatax3{fill:#FFFFFF;fill-opacity:0;stroke:#000000;stroke-width:5;stroke-linecap:round;stroke-miterlimit:10;}
	.CloudRawDatax4{fill:none;stroke:#000000;stroke-width:4;stroke-linecap:round;stroke-miterlimit:10;}
	.CloudRawDatax5{fill:none;stroke:#010101;stroke-width:5;stroke-miterlimit:10;}
	.CloudRawDatax6{fill:none;stroke:#010101;stroke-width:3;stroke-miterlimit:10;}
</style>
<g>
	<line class="CloudRawDatax0" x1="36" y1="82.7" x2="34.4" y2="82.7"/>
	<path class="CloudRawDatax0" d="M96.8,82.7h4.1c6.4,0,12.1-2.6,16.3-6.8c4.2-4.2,6.8-9.9,6.8-16.3c0-12.7-10.3-23.1-23.1-23.1h-9.6
		c0.1-1.1,0.2-2.1,0.2-3.2C91.5,16.6,76.9,2.9,59,2.9c-18,0-32.5,13.6-32.5,30.4c0,1.1,0.1,2.2,0.2,3.3c-6.2,0.1-11.8,2.7-15.9,6.8
		C6.6,47.5,4,53.3,4,59.7c0,12.7,10.3,23.1,23.1,23.1h5"/>
	<line class="CloudRawDatax0" x1="94.5" y1="82.7" x2="92.9" y2="82.7"/>
	<path class="CloudRawDatax0" d="M92.9,82.7c-2.9,3.1-7.2,5.6-12.5,7.3c-4.7,1.5-10.1,2.4-15.9,2.4c-5.8,0-11.2-0.9-15.9-2.4
		c-5.2-1.7-9.6-4.3-12.5-7.3"/>
	<path class="CloudRawDatax0" d="M93.7,81.7c2-2.4,3.1-5.1,3.1-8c0-10.3-14.5-18.7-32.4-18.7c-17.9,0-32.4,8.4-32.4,18.7c0,2.8,1.1,5.6,3.1,8"
		/>
	<path class="CloudRawDatax0" d="M36,82.7c-0.3-0.3-0.6-0.7-0.9-1c-0.3,0.3-0.5,0.7-0.7,1c-1.5,2.2-2.3,4.5-2.3,7c0,3,1.2,5.8,3.4,8.3
		c5.3,6.2,16.3,10.4,29,10.4c12.7,0,23.7-4.2,29-10.4c2.2-2.5,3.4-5.3,3.4-8.3c0-2.5-0.8-4.8-2.3-7"/>
	<path class="CloudRawDatax0" d="M93.7,81.7c-0.3,0.3-0.6,0.7-0.9,1"/>
	<path class="CloudRawDatax0" d="M32.1,106.4c0,10.3,14.5,18.7,32.4,18.7c17.9,0,32.4-8.4,32.4-18.7"/>
	<line class="CloudRawDatax0" x1="32.1" y1="73.8" x2="32.1" y2="108.4"/>
	<line class="CloudRawDatax0" x1="96.8" y1="73.8" x2="96.8" y2="108.4"/>
</g>
</svg>
