<?xml version="1.0" encoding="utf-8"?>
<!-- Generator: Adobe Illustrator 26.0.2, SVG Export Plug-In . SVG Version: 6.00 Build 0)  -->
<svg version="1.1" id="Layer_1" xmlns="http://www.w3.org/2000/svg" xmlns:xlink="http://www.w3.org/1999/xlink" x="0px" y="0px"
	 viewBox="0 0 128 128" style="enable-background:new 0 0 128 128;" xml:space="preserve">
<style type="text/css">
	.Computex0{fill:none;stroke:#000000;stroke-width:5;stroke-miterlimit:10;}
	.Computex1{stroke:#000000;stroke-width:5;stroke-miterlimit:10;}
	.Computex2{fill:none;stroke:#000000;stroke-width:5;stroke-linejoin:round;stroke-miterlimit:10;}
	.Computex3{fill:none;stroke:#000000;stroke-width:4;stroke-miterlimit:10;}
	.Computex4{fill:none;stroke:#000000;stroke-width:3;stroke-miterlimit:10;}
	.Computex5{fill:none;stroke:#FF0000;stroke-width:5;stroke-miterlimit:10;}
	.Computex6{fill:none;stroke:#000000;stroke-width:2;stroke-miterlimit:10;}
	.Computex7{stroke:#000000;stroke-miterlimit:10;}
	.Computex8{fill:#FF0000;}
</style>
<g>
	<g>
		<rect x="34.41" y="34.35" class="Computex0" width="59.18" height="59.18"/>
		<rect x="50.19" y="50.13" class="Computex0" width="27.62" height="27.62"/>
		<g>
			<line class="Computex0" x1="80.44" y1="33.7" x2="80.44" y2="15.4"/>
			<line class="Computex0" x1="64" y1="33.7" x2="64" y2="15.4"/>
			<line class="Computex0" x1="47.56" y1="33.7" x2="47.56" y2="15.4"/>
		</g>
		<g>
			<line class="Computex0" x1="80.44" y1="112.6" x2="80.44" y2="92.92"/>
			<line class="Computex0" x1="64" y1="112.6" x2="64" y2="92.92"/>
			<line class="Computex0" x1="47.56" y1="112.6" x2="47.56" y2="92.92"/>
		</g>
		<g>
			<line class="Computex0" x1="35.08" y1="48.16" x2="16" y2="48.16"/>
			<line class="Computex0" x1="35.08" y1="64.6" x2="16" y2="64.6"/>
			<line class="Computex0" x1="35.08" y1="81.04" x2="16" y2="81.04"/>
		</g>
		<g>
			<line class="Computex0" x1="112" y1="48.16" x2="92.92" y2="48.16"/>
			<line class="Computex0" x1="112" y1="64.6" x2="92.92" y2="64.6"/>
			<line class="Computex0" x1="112" y1="81.04" x2="92.92" y2="81.04"/>
		</g>
	</g>
	<rect x="4" y="4" class="Computex0" width="120" height="120"/>
</g>
</svg>
