<?xml version="1.0" encoding="utf-8"?>
<!-- Generator: Adobe Illustrator 26.0.2, SVG Export Plug-In . SVG Version: 6.00 Build 0)  -->
<svg version="1.1" id="Layer_1" xmlns="http://www.w3.org/2000/svg" xmlns:xlink="http://www.w3.org/1999/xlink" x="0px" y="0px"
	 viewBox="0 0 128 128" style="enable-background:new 0 0 128 128;" xml:space="preserve">
<style type="text/css">
	.Companyx0{fill:none;stroke:#000000;stroke-width:5;stroke-miterlimit:10;}
	.Companyx1{fill:none;stroke:#000000;stroke-width:4;stroke-miterlimit:10;}
	.Companyx2{fill:none;stroke:#000000;stroke-width:3;stroke-linecap:round;stroke-linejoin:round;stroke-miterlimit:10;}
	.Companyx3{fill:none;stroke:#000000;stroke-width:3;stroke-miterlimit:10;}
	.Companyx4{stroke:#000000;stroke-width:5;stroke-miterlimit:10;}
</style>
<g>
	<line class="Companyx0" x1="54.93" y1="45.56" x2="73.07" y2="45.56"/>
	<line class="Companyx0" x1="54.93" y1="27.13" x2="73.07" y2="27.13"/>
	<line class="Companyx0" x1="54.93" y1="64" x2="73.07" y2="64"/>
	<line class="Companyx0" x1="54.93" y1="82.44" x2="73.07" y2="82.44"/>
	<g>
		<line class="Companyx0" x1="26.83" y1="45.56" x2="44.98" y2="45.56"/>
		<line class="Companyx0" x1="26.83" y1="64" x2="44.98" y2="64"/>
		<line class="Companyx0" x1="26.83" y1="27.13" x2="44.98" y2="27.13"/>
		<line class="Companyx0" x1="26.83" y1="82.44" x2="44.98" y2="82.44"/>
		<line class="Companyx0" x1="26.83" y1="100.87" x2="44.98" y2="100.87"/>
	</g>
	<g>
		<line class="Companyx0" x1="83.02" y1="45.56" x2="101.17" y2="45.56"/>
		<line class="Companyx0" x1="83.02" y1="64" x2="101.17" y2="64"/>
		<line class="Companyx0" x1="83.02" y1="27.13" x2="101.17" y2="27.13"/>
		<line class="Companyx0" x1="83.02" y1="82.44" x2="101.17" y2="82.44"/>
		<line class="Companyx0" x1="83.02" y1="100.87" x2="101.17" y2="100.87"/>
	</g>
	<path class="Companyx0" d="M119.32,124V4H8.68v120h46.74v-19.84h18.51V124H119.32z"/>
</g>
</svg>
