<?xml version="1.0" encoding="utf-8"?>
<!-- Generator: Adobe Illustrator 26.0.2, SVG Export Plug-In . SVG Version: 6.00 Build 0)  -->
<svg version="1.1" id="Layer_1" xmlns="http://www.w3.org/2000/svg" xmlns:xlink="http://www.w3.org/1999/xlink" x="0px" y="0px"
	 viewBox="0 0 128 128" style="enable-background:new 0 0 128 128;" xml:space="preserve">
<style type="text/css">
	.ConfigureDevicex0{fill:none;stroke:#000000;stroke-width:5;stroke-miterlimit:10;}
	.ConfigureDevicex1{stroke:#000000;stroke-width:5;stroke-miterlimit:10;}
	.ConfigureDevicex2{fill:none;stroke:#000000;stroke-width:5;stroke-linejoin:round;stroke-miterlimit:10;}
	.ConfigureDevicex3{fill:none;stroke:#000000;stroke-width:4;stroke-miterlimit:10;}
	.ConfigureDevicex4{fill:none;stroke:#000000;stroke-width:3;stroke-miterlimit:10;}
	.ConfigureDevicex5{fill:none;stroke:#FF0000;stroke-width:5;stroke-miterlimit:10;}
	.ConfigureDevicex6{fill:none;stroke:#000000;stroke-width:2;stroke-miterlimit:10;}
	.ConfigureDevicex7{stroke:#000000;stroke-miterlimit:10;}
	.ConfigureDevicex8{fill:#FF0000;}
</style>
<g>
	<g>
		<circle class="ConfigureDevicex0" cx="37.04" cy="63.61" r="13.56"/>
		<g>
			<path class="ConfigureDevicex0" d="M29.08,85.73c0.96,0.4,1.67,1.24,1.89,2.26l0.71,3.25c0.53,2.04,1.59,3.45,3.63,3.63h3.45
				c2.04-0.18,3.1-1.59,3.63-3.63l0.71-3.25c0.22-1.02,0.93-1.86,1.89-2.26l2.06-0.86c0.96-0.4,2.06-0.3,2.93,0.26l2.8,1.8
				c1.82,1.06,3.57,1.31,5.13,0l2.44-2.44c1.31-1.56,1.06-3.32,0-5.13l-1.8-2.8c-0.56-0.88-0.66-1.97-0.26-2.93l0.86-2.06
				c0.4-0.96,1.24-1.67,2.26-1.89l3.25-0.71c2.04-0.53,3.45-1.59,3.63-3.63v-3.45c-0.18-2.04-1.59-3.1-3.63-3.63l-3.25-0.71
				c-1.02-0.22-1.86-0.93-2.26-1.89l-0.86-2.06c-0.4-0.96-0.3-2.06,0.26-2.93l1.8-2.8c1.06-1.82,1.31-3.57,0-5.13l-2.44-2.44
				c-1.56-1.31-3.32-1.06-5.13,0l-2.8,1.8c-0.88,0.56-1.97,0.66-2.93,0.26l-2.06-0.86c-0.96-0.4-1.67-1.24-1.89-2.26l-0.71-3.25
				c-0.53-2.04-1.59-3.45-3.63-3.63h-3.45c-2.04,0.18-3.1,1.59-3.63,3.63l-0.71,3.25c-0.22,1.02-0.93,1.86-1.89,2.26l-2.06,0.86
				c-0.96,0.4-2.06,0.3-2.93-0.26l-2.8-1.8c-1.82-1.06-3.57-1.31-5.13,0l-2.44,2.44c-1.31,1.56-1.06,3.32,0,5.13l1.8,2.8
				c0.56,0.88,0.66,1.97,0.26,2.93l-0.86,2.06c-0.4,0.96-1.24,1.67-2.26,1.89l-3.25,0.71c-2.04,0.53-3.45,1.59-3.63,3.63v3.45
				c0.18,2.04,1.59,3.1,3.63,3.63l3.25,0.71c1.02,0.22,1.86,0.93,2.26,1.89l0.86,2.06c0.4,0.96,0.3,2.06-0.26,2.93l-1.8,2.8
				c-1.06,1.82-1.31,3.57,0,5.13l2.44,2.44c1.56,1.31,3.32,1.06,5.13,0l2.8-1.8c0.88-0.56,1.97-0.66,2.93-0.26L29.08,85.73z"/>
		</g>
	</g>
	<g>
		<circle class="ConfigureDevicex0" cx="99.34" cy="75.2" r="9.92"/>
		<g>
			<path class="ConfigureDevicex0" d="M93.52,91.4c0.7,0.29,1.22,0.91,1.38,1.65l0.52,2.38c0.39,1.49,1.17,2.53,2.66,2.66h2.53
				c1.49-0.13,2.27-1.17,2.66-2.66l0.52-2.38c0.16-0.74,0.68-1.36,1.38-1.65l1.51-0.63c0.7-0.29,1.51-0.22,2.15,0.19l2.05,1.31
				c1.33,0.78,2.61,0.96,3.76,0l1.79-1.79c0.96-1.15,0.78-2.43,0-3.76l-1.31-2.05c-0.41-0.64-0.48-1.44-0.19-2.15l0.63-1.51
				c0.29-0.7,0.91-1.22,1.65-1.38l2.38-0.52c1.49-0.39,2.53-1.17,2.66-2.66v-2.53c-0.13-1.49-1.17-2.27-2.66-2.66l-2.38-0.52
				c-0.74-0.16-1.36-0.68-1.65-1.38l-0.63-1.51c-0.29-0.7-0.22-1.51,0.19-2.15l1.31-2.05c0.78-1.33,0.96-2.61,0-3.76l-1.79-1.79
				c-1.15-0.96-2.43-0.78-3.76,0l-2.05,1.31c-0.64,0.41-1.44,0.48-2.15,0.19L105.16,59c-0.7-0.29-1.22-0.91-1.38-1.65l-0.52-2.38
				c-0.39-1.49-1.17-2.53-2.66-2.66h-2.53c-1.49,0.13-2.27,1.17-2.66,2.66l-0.52,2.38c-0.16,0.74-0.68,1.36-1.38,1.65L92,59.63
				c-0.7,0.29-1.51,0.22-2.15-0.19l-2.05-1.31c-1.33-0.78-2.61-0.96-3.76,0l-1.79,1.79c-0.96,1.15-0.78,2.43,0,3.76l1.31,2.05
				c0.41,0.64,0.48,1.44,0.19,2.15l-0.63,1.51c-0.29,0.7-0.91,1.22-1.65,1.38l-2.38,0.52c-1.49,0.39-2.53,1.17-2.66,2.66v2.53
				c0.13,1.49,1.17,2.27,2.66,2.66l2.38,0.52c0.74,0.16,1.36,0.68,1.65,1.38l0.63,1.51c0.29,0.7,0.22,1.51-0.19,2.15l-1.31,2.05
				c-0.78,1.33-0.96,2.61,0,3.76l1.79,1.79c1.15,0.96,2.43,0.78,3.76,0l2.05-1.31c0.64-0.41,1.44-0.48,2.15-0.19L93.52,91.4z"/>
		</g>
	</g>
	<path class="ConfigureDevicex0" d="M37.08,100.14v13.15c0,5.92,4.8,10.72,10.72,10.72h41.09c5.93,0,10.73-4.8,10.73-10.72v-4.49v-5.93"/>
	<path class="ConfigureDevicex0" d="M37.08,26.5v-6.16v-5.62C37.08,8.8,41.88,4,47.8,4h41.09c5.93,0,10.73,4.8,10.73,10.72v30.87"/>
	<line class="ConfigureDevicex0" x1="37.08" y1="20.34" x2="90.6" y2="20.34"/>
	<line class="ConfigureDevicex0" x1="59.61" y1="11.89" x2="78.21" y2="11.89"/>
	<line class="ConfigureDevicex0" x1="45.53" y1="108.79" x2="99.61" y2="108.79"/>
</g>
</svg>
