<?xml version="1.0" encoding="utf-8"?>
<!-- Generator: Adobe Illustrator 26.0.2, SVG Export Plug-In . SVG Version: 6.00 Build 0)  -->
<svg version="1.1" id="Layer_1" xmlns="http://www.w3.org/2000/svg" xmlns:xlink="http://www.w3.org/1999/xlink" x="0px" y="0px"
	 viewBox="0 0 128 128" style="enable-background:new 0 0 128 128;" xml:space="preserve">
<style type="text/css">
	.ContainedByx0{fill:none;stroke:#010101;stroke-width:5;stroke-miterlimit:10;}
	.ContainedByx1{fill:none;stroke:#010101;stroke-width:5;stroke-linecap:round;stroke-linejoin:bevel;stroke-miterlimit:10;}
	.ContainedByx2{fill:none;stroke:#010101;stroke-width:5;stroke-linecap:round;stroke-miterlimit:10;}
	.ContainedByx3{fill:none;stroke:#010101;stroke-width:3;stroke-miterlimit:10;}
	.ContainedByx4{fill:none;stroke:#010101;stroke-width:5;stroke-linecap:square;stroke-linejoin:round;stroke-miterlimit:10;}
	.ContainedByx5{fill:none;stroke:#010101;stroke-width:5;stroke-linecap:round;stroke-linejoin:round;stroke-miterlimit:10;}
	.ContainedByx6{fill:none;stroke:#010101;stroke-width:5;stroke-linejoin:round;stroke-miterlimit:10;}
	.ContainedByx7{fill:none;stroke:#000000;stroke-width:5;stroke-miterlimit:10;}
	.ContainedByx8{fill:none;stroke:#000000;stroke-width:5;stroke-linecap:round;stroke-linejoin:round;stroke-miterlimit:10;}
	.ContainedByx9{fill:none;stroke:#010101;stroke-width:4;stroke-miterlimit:10;}
</style>
<g>
	<path class="ContainedByx0" d="M99.58,124H28.42c-5.91,0-10.71-4.79-10.71-10.71V14.71C17.71,8.79,22.51,4,28.42,4h71.16
		c5.91,0,10.71,4.79,10.71,10.71v98.59C110.29,119.21,105.49,124,99.58,124z"/>
	<path class="ContainedByx2" d="M56.15,25.14c0.09,0.65,0.14,1.32,0.14,2.01c0,7.58-6.14,13.71-13.71,13.71s-13.71-6.14-13.71-13.71
		s6.14-13.71,13.71-13.71c2.23,0,4.32,0.53,6.17,1.47"/>
	<polyline class="ContainedByx2" points="35.71,25.43 40.86,30.57 54.57,18.57 	"/>
	<path class="ContainedByx2" d="M56.15,61.14c0.09,0.65,0.14,1.32,0.14,2.01c0,7.58-6.14,13.71-13.71,13.71s-13.71-6.14-13.71-13.71
		s6.14-13.71,13.71-13.71c2.23,0,4.32,0.53,6.17,1.47"/>
	<polyline class="ContainedByx2" points="35.71,61.43 40.86,66.57 54.57,54.57 	"/>
	<path class="ContainedByx2" d="M56.15,97.14c0.09,0.65,0.14,1.32,0.14,2.01c0,7.58-6.14,13.71-13.71,13.71s-13.71-6.14-13.71-13.71
		s6.14-13.71,13.71-13.71c2.23,0,4.32,0.53,6.17,1.47"/>
	<polyline class="ContainedByx2" points="35.71,97.43 40.86,102.57 54.57,90.57 	"/>
	<line class="ContainedByx2" x1="65.71" y1="22" x2="101.71" y2="22"/>
	<line class="ContainedByx2" x1="65.71" y1="32.29" x2="86.06" y2="32.29"/>
	<g>
		<path class="ContainedByx3" d="M80.38,92.73L80.3,91c0-3.11,0.66-5.71,1.98-7.81c0.92-1.46,2.84-3.44,5.78-5.94
			c1.99-1.69,3.3-3.07,3.92-4.13c0.62-1.06,0.93-2.21,0.93-3.45c0-2.36-0.95-4.36-2.84-6.01c-1.89-1.65-4.06-2.47-6.52-2.47
			c-2.51,0-4.64,0.76-6.38,2.27c-1.74,1.52-2.86,3.93-3.38,7.24l-6.1-0.67c0.59-4.54,2.29-7.94,5.08-10.2
			c2.78-2.26,6.38-3.39,10.77-3.39c4.42,0,8.1,1.2,11.05,3.61c2.95,2.41,4.42,5.49,4.42,9.24c0,2.06-0.48,3.94-1.45,5.65
			c-0.97,1.71-2.91,3.83-5.82,6.36c-2.48,2.12-4.02,3.8-4.63,5.03c-0.61,1.23-0.95,3.37-1.03,6.41H80.38z M79.98,104.33v-6.59h6.79
			v6.59H79.98z"/>
	</g>
</g>
</svg>
