<?xml version="1.0" encoding="utf-8"?>
<!-- Generator: Adobe Illustrator 26.0.2, SVG Export Plug-In . SVG Version: 6.00 Build 0)  -->
<svg version="1.1" id="Layer_1" xmlns="http://www.w3.org/2000/svg" xmlns:xlink="http://www.w3.org/1999/xlink" x="0px" y="0px"
	 viewBox="0 0 128 128" style="enable-background:new 0 0 128 128;" xml:space="preserve">
<style type="text/css">
	.Coolingx0{fill:none;stroke:#010101;stroke-width:5;stroke-miterlimit:10;}
</style>
<g>
	<g>
		<path class="Coolingx0" d="M106.7,70.1c-13.4-18.3-29.3-10.6-33.9-7.8c-2-2-4.9-3.3-8-3.3c0,0-0.1,0-0.1,0l0,0
			C63,51.3,70,46.6,73.6,44.5c1.3-0.8,2.8-1.2,4.3-1.3c17.1-1.3,10.4-11.7,8.7-14.3c-0.2-0.4-0.5-0.7-0.8-1
			C67.3,10.1,49,29.7,49,30.3C34.5,52,53.4,65,54.5,65.7l0,0c-0.7,1.4-1,3-1,4.7c0,1.6,0.3,3.2,1,4.5c-6.6,3.7-13.6-1.3-16.4-3.5
			c-0.8-0.6-1.5-1.4-2-2.4c-8.1-15.8-15-5.7-16.8-3c-0.3,0.4-0.5,0.9-0.7,1.3c-8.9,24,16.3,33,16.8,32.7
			c23.6,4.3,29.2-14.3,30.2-18.4l0,0c4.3-0.2,7.9-2.8,9.6-6.5C83,76.8,84.5,86,85,89.4c0.1,0.9,0.1,1.7-0.2,2.6
			c-5.3,17.5,7.2,14.6,10.2,14c0.4-0.1,0.8-0.2,1.2-0.4C119.4,94.3,107.3,70.4,106.7,70.1z"/>
		<circle class="Coolingx0" cx="64.8" cy="70.4" r="11.3"/>
	</g>
	<path class="Coolingx0" d="M102.6,124H25.4C13.6,124,4,114.4,4,102.6V25.4C4,13.6,13.6,4,25.4,4h77.1c11.8,0,21.4,9.6,21.4,21.4v77.1
		C124,114.4,114.4,124,102.6,124z"/>
</g>
</svg>
