<?xml version="1.0" encoding="utf-8"?>
<!-- Generator: Adobe Illustrator 26.0.2, SVG Export Plug-In . SVG Version: 6.00 Build 0)  -->
<svg version="1.1" id="Layer_1" xmlns="http://www.w3.org/2000/svg" xmlns:xlink="http://www.w3.org/1999/xlink" x="0px" y="0px"
	 viewBox="0 0 128 128" style="enable-background:new 0 0 128 128;" xml:space="preserve">
<style type="text/css">
	.Copyx0{fill:none;stroke:#010101;stroke-width:5;stroke-miterlimit:10;}
	.Copyx1{fill:none;stroke:#010101;stroke-width:3;stroke-miterlimit:10;}
	.Copyx2{fill:#010101;stroke:#010101;stroke-miterlimit:10;}
	.Copyx3{fill:#010101;}
	.Copyx4{fill:#010101;stroke:#010101;stroke-width:5;stroke-miterlimit:10;}
	.Copyx5{fill:none;stroke:#010101;stroke-width:2;stroke-miterlimit:10;}
</style>
<g>
	<g>
		<path class="Copyx0" d="M119.06,42.12v74.82c0,3.9-3.16,7.06-7.06,7.06H47.06c-3.9,0-7.06-3.16-7.06-7.06v-96
			c0-3.9,3.16-7.06,7.06-7.06h43.76L119.06,42.12z"/>
		<line class="Copyx0" x1="53.41" y1="62.59" x2="107.06" y2="62.59"/>
		<line class="Copyx0" x1="53.41" y1="83.76" x2="107.06" y2="83.76"/>
		<line class="Copyx0" x1="53.41" y1="104.94" x2="107.06" y2="104.94"/>
	</g>
	<g>
		<path class="Copyx0" d="M40,114.12H16c-3.9,0-7.06-3.16-7.06-7.06v-96C8.94,7.16,12.1,4,16,4h43.76l9.88,9.88"/>
		<line class="Copyx0" x1="40" y1="52.71" x2="22.35" y2="52.71"/>
		<line class="Copyx0" x1="40" y1="73.88" x2="22.35" y2="73.88"/>
		<line class="Copyx0" x1="40" y1="95.06" x2="22.35" y2="95.06"/>
	</g>
	<polyline class="Copyx0" points="90.82,13.88 90.82,42.32 119.06,42.32 	"/>
	<line class="Copyx0" x1="59.76" y1="13.88" x2="59.76" y2="4"/>
</g>
</svg>
