<?xml version="1.0" encoding="utf-8"?>
<!-- Generator: Adobe Illustrator 26.0.2, SVG Export Plug-In . SVG Version: 6.00 Build 0)  -->
<svg version="1.1" xmlns="http://www.w3.org/2000/svg" xmlns:xlink="http://www.w3.org/1999/xlink" x="0px" y="0px"
	 viewBox="0 0 128 128" style="enable-background:new 0 0 128 128;" xml:space="preserve">
<style type="text/css">
	.CustomAutoIDx0{fill:none;stroke:#000000;stroke-width:5;stroke-linecap:round;stroke-linejoin:round;stroke-miterlimit:10;}
	.CustomAutoIDx1{fill:none;stroke:#000000;stroke-width:2;stroke-linecap:round;stroke-miterlimit:10;}
	.CustomAutoIDx2{fill:#F89A1F;stroke:#F89A1F;stroke-miterlimit:10;}
	.CustomAutoIDx3{fill:none;stroke:#000000;stroke-width:5;stroke-linecap:round;stroke-miterlimit:10;}
	.CustomAutoIDx4{fill:none;stroke:#000000;stroke-width:5;stroke-miterlimit:10;}
	.CustomAutoIDx5{fill:none;stroke:#000000;stroke-width:2;stroke-linecap:round;stroke-linejoin:round;stroke-miterlimit:10;}
	.CustomAutoIDx6{fill:none;stroke:#000000;stroke-linecap:round;stroke-linejoin:round;stroke-miterlimit:10;}
	.CustomAutoIDx7{fill:none;stroke:#000000;stroke-width:5;stroke-linejoin:round;stroke-miterlimit:10;}
	.CustomAutoIDx8{fill:none;stroke:#000000;stroke-width:2;stroke-miterlimit:10;}
	.CustomAutoIDx9{fill:none;stroke:#000000;stroke-miterlimit:10;}
	.CustomAutoIDx10{fill:#F9BB16;}
	.CustomAutoIDx11{fill:#EA4435;}
	.CustomAutoIDx12{fill:#2FA952;}
	.CustomAutoIDx13{fill:#547DBF;}
	.CustomAutoIDx14{fill:none;stroke:#000000;stroke-width:3;stroke-linecap:round;stroke-linejoin:round;stroke-miterlimit:10;}
	.CustomAutoIDx15{stroke:#000000;stroke-miterlimit:10;}
	.CustomAutoIDx16{fill:none;stroke:#010101;stroke-width:5;stroke-miterlimit:10;}
	.CustomAutoIDx17{fill:none;stroke:#020202;stroke-width:5;stroke-miterlimit:10;}
</style>
<g id="Layer_1">
	<g>
		<path class="CustomAutoIDx4" d="M86.91,23.22c-2.86,10.05-12.12,17.41-23.1,17.41c-10.97,0-20.23-7.36-23.09-17.41H29.14
			c-9.06,0-16.42,7.36-16.42,16.42v65.83c0,9.06,7.36,16.41,16.42,16.41h69.72c9.07,0,16.42-7.35,16.42-16.41V39.64
			c0-9.06-7.35-16.42-16.42-16.42H86.91z"/>
		<line class="CustomAutoIDx0" x1="64" y1="6.12" x2="64" y2="28.03"/>
		<circle class="CustomAutoIDx4" cx="64" cy="63.87" r="14.8"/>
		<path class="CustomAutoIDx4" d="M50.18,83.08H49.2c0,0-21.8,23.04,0,28.04h29.59c21.82-5,0-28.04,0-28.04h-0.97c-2.13,4.68-7.51,8-13.82,8
			S52.3,87.76,50.18,83.08z"/>
	</g>
</g>
<g id="Layer_2">
</g>
</svg>
