<?xml version="1.0" encoding="utf-8"?>
<!-- Generator: Adobe Illustrator 26.0.2, SVG Export Plug-In . SVG Version: 6.00 Build 0)  -->
<svg version="1.1" id="Layer_1" xmlns="http://www.w3.org/2000/svg" xmlns:xlink="http://www.w3.org/1999/xlink" x="0px" y="0px"
	 viewBox="0 0 128 128" style="enable-background:new 0 0 128 128;" xml:space="preserve">
<style type="text/css">
	.DataCenterHierarchyx0{fill:none;stroke:#000000;stroke-width:5;stroke-miterlimit:10;}
</style>
<rect x="25" y="15" class="DataCenterHierarchyx0" width="77.9" height="109"/>
<rect x="46.8" y="111.7" class="DataCenterHierarchyx0" width="34.3" height="12.3"/>
<line class="DataCenterHierarchyx0" x1="25" y1="111.7" x2="103" y2="111.7"/>
<line class="DataCenterHierarchyx0" x1="12" y1="124" x2="116" y2="124"/>
<path class="DataCenterHierarchyx0" d="M91.4,15H36.6V7.1C36.6,5.4,38,4,39.8,4h48.5c1.7,0,3.1,1.4,3.1,3.1V15z"/>
<g>
	<circle class="DataCenterHierarchyx0" cx="64.1" cy="63.9" r="3.3"/>
	<path class="DataCenterHierarchyx0" d="M47.2,73v-4.9c0-2.4,1.9-4.3,4.3-4.3h9.3"/>
	<path class="DataCenterHierarchyx0" d="M67.4,63.9h9.3c2.4,0,4.3,1.9,4.3,4.3V73"/>
	<line class="DataCenterHierarchyx0" x1="64.1" y1="55" x2="64.1" y2="60.6"/>
	<path class="DataCenterHierarchyx0" d="M76.3,50.8H51.7c-1.2,0-2.1-0.9-2.1-2.1v-14c0-1.2,0.9-2.1,2.1-2.1h24.6c1.2,0,2.1,0.9,2.1,2.1v14
		C78.4,49.9,77.4,50.8,76.3,50.8z"/>
	<g>
		<line class="DataCenterHierarchyx0" x1="60" y1="50.7" x2="60" y2="55"/>
		<line class="DataCenterHierarchyx0" x1="68" y1="50.7" x2="68" y2="55"/>
	</g>
	<path class="DataCenterHierarchyx0" d="M93.2,91.2H68.6c-1.2,0-2.1-0.9-2.1-2.1v-14c0-1.2,0.9-2.1,2.1-2.1h24.6c1.2,0,2.1,0.9,2.1,2.1v14
		C95.3,90.3,94.3,91.2,93.2,91.2z"/>
	<g>
		<line class="DataCenterHierarchyx0" x1="76.9" y1="91.1" x2="76.9" y2="95.4"/>
		<line class="DataCenterHierarchyx0" x1="84.9" y1="91.1" x2="84.9" y2="95.4"/>
	</g>
	<path class="DataCenterHierarchyx0" d="M59.4,91.2H34.8c-1.2,0-2.1-0.9-2.1-2.1v-14c0-1.2,0.9-2.1,2.1-2.1h24.6c1.2,0,2.1,0.9,2.1,2.1v14
		C61.5,90.3,60.6,91.2,59.4,91.2z"/>
	<g>
		<line class="DataCenterHierarchyx0" x1="43.1" y1="91.1" x2="43.1" y2="95.4"/>
		<line class="DataCenterHierarchyx0" x1="51.1" y1="91.1" x2="51.1" y2="95.4"/>
	</g>
	<line class="DataCenterHierarchyx0" x1="39.5" y1="95.3" x2="54.7" y2="95.3"/>
	<line class="DataCenterHierarchyx0" x1="73.3" y1="95.3" x2="88.5" y2="95.3"/>
	<line class="DataCenterHierarchyx0" x1="56.4" y1="55" x2="71.6" y2="55"/>
</g>
</svg>
