<?xml version="1.0" encoding="UTF-8"?>
<svg xmlns="http://www.w3.org/2000/svg" xmlns:xlink="http://www.w3.org/1999/xlink" width="128px" height="128px" viewBox="0 0 128 128" version="1.1">
<g id="surface1">
<path style=" stroke:none;fill-rule:nonzero;fill:rgb(0%,0%,0%);fill-opacity:1;" d="M 92 36.019531 L 116 36.019531 C 120.417969 36.019531 124 32.4375 124 28.019531 L 124 12.019531 C 124 7.601562 120.417969 4.019531 116 4.019531 L 92 4.019531 C 87.582031 4.019531 84 7.601562 84 12.019531 L 84 16.019531 L 44 16.019531 L 44 12.019531 C 44 7.601562 40.417969 4.019531 36 4.019531 L 12 4.019531 C 7.582031 4.019531 4 7.601562 4 12.019531 L 4 28.019531 C 4 32.4375 7.582031 36.019531 12 36.019531 L 36 36.019531 C 40.417969 36.019531 44 32.4375 44 28.019531 L 44 24.019531 L 60 24.019531 L 60 104.019531 C 60.003906 108.4375 63.582031 112.015625 68 112.019531 L 84 112.019531 L 84 116.019531 C 84 120.4375 87.582031 124.019531 92 124.019531 L 116 124.019531 C 120.417969 124.019531 124 120.4375 124 116.019531 L 124 100.019531 C 124 95.601562 120.417969 92.019531 116 92.019531 L 92 92.019531 C 87.582031 92.019531 84 95.601562 84 100.019531 L 84 104.019531 L 68 104.019531 L 68 68.019531 L 84 68.019531 L 84 72.019531 C 84 76.4375 87.582031 80.019531 92 80.019531 L 116 80.019531 C 120.417969 80.019531 124 76.4375 124 72.019531 L 124 56.019531 C 124 51.601562 120.417969 48.019531 116 48.019531 L 92 48.019531 C 87.582031 48.019531 84 51.601562 84 56.019531 L 84 60.019531 L 68 60.019531 L 68 24.019531 L 84 24.019531 L 84 28.019531 C 84 32.4375 87.582031 36.019531 92 36.019531 Z M 92 12.019531 L 116 12.019531 L 116 28.019531 L 92 28.019531 Z M 36 28.019531 L 12 28.019531 L 12 12.019531 L 36 12.019531 Z M 92 100.019531 L 116 100.019531 L 116 116.019531 L 92 116.019531 Z M 92 56.019531 L 116 56.019531 L 116 72.019531 L 92 72.019531 Z M 92 56.019531 "/>
</g>
</svg>
