<?xml version="1.0" encoding="utf-8"?>
<!-- Generator: Adobe Illustrator 26.0.2, SVG Export Plug-In . SVG Version: 6.00 Build 0)  -->
<svg version="1.1" xmlns="http://www.w3.org/2000/svg" xmlns:xlink="http://www.w3.org/1999/xlink" x="0px" y="0px"
	 viewBox="0 0 128 128" style="enable-background:new 0 0 128 128;" xml:space="preserve">
<style type="text/css">
	.DCipathx0{fill:none;stroke:#000000;stroke-width:5;stroke-linecap:round;stroke-linejoin:round;stroke-miterlimit:10;}
	.DCipathx1{fill:none;stroke:#000000;stroke-width:2;stroke-linecap:round;stroke-miterlimit:10;}
	.DCipathx2{fill:#F89A1F;stroke:#F89A1F;stroke-miterlimit:10;}
	.DCipathx3{fill:none;stroke:#000000;stroke-width:5;stroke-linecap:round;stroke-miterlimit:10;}
	.DCipathx4{fill:none;stroke:#000000;stroke-width:5;stroke-miterlimit:10;}
	.DCipathx5{fill:none;stroke:#000000;stroke-width:2;stroke-linecap:round;stroke-linejoin:round;stroke-miterlimit:10;}
	.DCipathx6{fill:none;stroke:#000000;stroke-linecap:round;stroke-linejoin:round;stroke-miterlimit:10;}
	.DCipathx7{fill:none;stroke:#000000;stroke-width:5;stroke-linejoin:round;stroke-miterlimit:10;}
	.DCipathx8{fill:none;stroke:#000000;stroke-width:2;stroke-miterlimit:10;}
	.DCipathx9{fill:none;stroke:#000000;stroke-miterlimit:10;}
	.DCipathx10{fill:#F9BB16;}
	.DCipathx11{fill:#EA4435;}
	.DCipathx12{fill:#2FA952;}
	.DCipathx13{fill:#547DBF;}
	.DCipathx14{fill:none;stroke:#000000;stroke-width:3;stroke-linecap:round;stroke-linejoin:round;stroke-miterlimit:10;}
	.DCipathx15{stroke:#000000;stroke-miterlimit:10;}
	.DCipathx16{fill:none;stroke:#010101;stroke-width:5;stroke-miterlimit:10;}
	.DCipathx17{fill:none;stroke:#020202;stroke-width:5;stroke-miterlimit:10;}
</style>
<g id="Layer_1">
	<g>
		<path class="DCipathx0" d="M112.18,32.48c-3.43-5.24-7.7-9.89-12.61-13.75c-0.01,0-0.01-0.01-0.01-0.01C89.77,11.02,77.42,6.43,64,6.43
			c-4.22,0-8.33,0.45-12.29,1.32C30.76,12.3,14.08,28.24,8.47,48.77C7.14,53.62,6.43,58.73,6.43,64c0,10.1,2.6,19.6,7.18,27.85v0.01
			c7.01,12.66,18.64,22.38,32.62,26.91c5.6,1.82,11.57,2.8,17.77,2.8c24.77,0,45.88-15.63,54-37.57c2.31-6.23,3.57-12.97,3.57-20
			C121.57,52.36,118.12,41.53,112.18,32.48z M78.24,40.27c2.96,0,5.57,1.51,7.09,3.8c0.9,1.34,1.42,2.96,1.42,4.7
			c0,1.74-0.52,3.35-1.41,4.7c-1.53,2.3-4.14,3.81-7.1,3.81c-2.47,0-4.7-1.06-6.25-2.75c-1.4-1.51-2.25-3.54-2.25-5.76
			c0-0.69,0.08-1.36,0.24-2C70.88,43.04,74.24,40.27,78.24,40.27z M62.86,77.16c0,3.88-2.6,7.15-6.16,8.17
			c-0.74,0.22-1.53,0.33-2.34,0.33c-0.78,0-1.54-0.11-2.26-0.31c-3.6-0.98-6.24-4.27-6.24-8.19c0-3.84,2.54-7.08,6.04-8.14
			c0.78-0.23,1.6-0.36,2.46-0.36c1.87,0,3.61,0.61,5.02,1.65C61.49,71.85,62.86,74.35,62.86,77.16z M70.67,107.26
			c-1.12,1.11-2.64,1.84-4.34,1.97c-3.63,0.27-6.81-2.34-7.32-5.88c-0.03-0.16-0.05-0.32-0.06-0.49c-0.19-2.66,1.16-5.08,3.28-6.39
			c0.91-0.55,1.96-0.91,3.09-0.99c3.66-0.27,6.86,2.38,7.33,5.97c0.03,0.13,0.04,0.26,0.05,0.4
			C72.85,103.95,72.06,105.89,70.67,107.26z M103.06,74.34c-1.1,0.08-2.15-0.1-3.1-0.49c-2.35-0.96-4.08-3.18-4.27-5.88
			c-0.17-2.29,0.8-4.39,2.42-5.76c1.07-0.92,2.44-1.51,3.95-1.62c0.41-0.03,0.82-0.02,1.21,0.02c3.26,0.33,5.92,2.97,6.16,6.35
			c0.13,1.73-0.4,3.36-1.37,4.64C106.91,73.14,105.13,74.19,103.06,74.34z M85.33,44.07c0.9,1.34,1.42,2.96,1.42,4.7
			c0,1.74-0.52,3.35-1.41,4.7c-1.53,2.3-4.14,3.81-7.1,3.81c-2.47,0-4.7-1.06-6.25-2.75"/>
		<path class="DCipathx0" d="M85.33,44.07c5.39-3.4,11.53-6.43,18.52-8.95c2.65-0.96,5.43-1.84,8.33-2.64"/>
		<path class="DCipathx0" d="M52.1,85.35c-2.3,6.22-3.72,12.1-4.58,17.15c-1.65,9.66-1.29,16.27-1.29,16.27"/>
		<path class="DCipathx0" d="M59.38,70.31c3.31-5.42,7.44-10.78,12.61-15.78"/>
		<path class="DCipathx0" d="M69.98,46.77c-4.09-1.32-8.13-2.27-12.06-2.93"/>
		<path class="DCipathx0" d="M118,84c-3.21-4.6-6.54-8.72-9.94-12.4"/>
		<path class="DCipathx0" d="M98.11,62.21c-4.21-3.46-8.48-6.34-12.77-8.74"/>
		<path class="DCipathx0" d="M8.47,48.77c0,0,13.58-5.81,32.53-6.15"/>
		<path class="DCipathx0" d="M51.9,69.02c-1.24-6.01-2-12.07-2.4-17.92"/>
		<path class="DCipathx0" d="M62.23,96.47c-2.16-3.53-3.99-7.27-5.53-11.14"/>
		<path class="DCipathx0" d="M84.56,117.24c-5.38-2.67-9.97-6.06-13.89-9.98"/>
		<path class="DCipathx0" d="M49.16,34.11c0.42-15.3,2.55-26.36,2.55-26.36"/>
		<path class="DCipathx0" d="M72.65,101.45c14.5-4.24,22.85-15.08,27.31-27.6"/>
		<path class="DCipathx0" d="M59.01,103.35c-3.56,0.04-7.39-0.24-11.49-0.85c-9.68-1.47-20.91-4.85-33.91-10.64v-0.01H13.6"/>
		<path class="DCipathx0" d="M99.56,18.72c0,0,0,0.01,0.01,0.01c1.67,2.1,3.42,8.27,4.28,16.39c0.8,7.41,0.86,16.45-0.58,25.49"/>
		<circle class="DCipathx0" cx="49.51" cy="42.6" r="8.5"/>
		<path class="DCipathx0" d="M71.99,54.53c-1.4-1.51-2.25-3.54-2.25-5.76c0-0.69,0.08-1.36,0.24-2c0.9-3.73,4.26-6.5,8.26-6.5
			c2.96,0,5.57,1.51,7.09,3.8"/>
	</g>
</g>
<g id="Layer_2">
</g>
</svg>
