<?xml version="1.0" encoding="utf-8"?>
<!-- Generator: Adobe Illustrator 26.0.2, SVG Export Plug-In . SVG Version: 6.00 Build 0)  -->
<svg version="1.1" id="Layer_1" xmlns="http://www.w3.org/2000/svg" xmlns:xlink="http://www.w3.org/1999/xlink" x="0px" y="0px"
	 viewBox="0 0 128 128" style="enable-background:new 0 0 128 128;" xml:space="preserve">
<style type="text/css">
	.Defaultx0{fill:#010101;}
	.Defaultx1{fill:#FFFFFF;}
</style>
<path class="Defaultx0" d="M63.8,3.8l-60,60l60,60l60-60L63.8,3.8z M9,63.8L63.8,9l54.8,54.8l-54.8,54.8L9,63.8z"/>
<path class="Defaultx0" d="M63.8,9L9,63.8l54.8,54.8l54.8-54.8L63.8,9z M49.2,57.8v33.1h-8.9V36.7L77,68.9V36.7h10.2v54.2L49.2,57.8z"/>
<polygon class="Defaultx1" points="87.2,36.7 87.2,90.9 49.2,57.8 49.2,90.9 40.3,90.9 40.3,36.7 77,68.9 77,36.7 "/>
</svg>
