<?xml version="1.0" encoding="utf-8"?>
<!-- Generator: Adobe Illustrator 26.0.2, SVG Export Plug-In . SVG Version: 6.00 Build 0)  -->
<svg version="1.1" id="Layer_1" xmlns="http://www.w3.org/2000/svg" xmlns:xlink="http://www.w3.org/1999/xlink" x="0px" y="0px"
	 viewBox="0 0 128 128" style="enable-background:new 0 0 128 128;" xml:space="preserve">
<style type="text/css">
	.DeleteBusinessServicex0{fill:#FFFFFF;fill-opacity:0;stroke:#000000;stroke-width:5;stroke-miterlimit:10;}
	.DeleteBusinessServicex1{fill:none;stroke:#000000;stroke-width:5;stroke-miterlimit:10;}
</style>
<path class="DeleteBusinessServicex0" d="M4,41.2v-9.7c0-4.7,3.8-8.5,8.5-8.5h74c4.7,0,8.5,3.8,8.5,8.5v9.7H4z"/>
<path class="DeleteBusinessServicex0" d="M68.9,92.5H12.5C7.8,92.5,4,88.7,4,84V47h91.1v9"/>
<path class="DeleteBusinessServicex0" d="M31,22.9v-7.3c0-2.8,2.7-5,6-5h25.1c3.3,0,6,2.2,6,5v7.3"/>
<path class="DeleteBusinessServicex0" d="M120.4,81.4l-3.2-0.7c-1-0.2-1.9-0.9-2.2-1.9l-0.8-2c-0.4-0.9-0.3-2,0.2-2.9l1.8-2.8c1-1.8,1.3-3.5,0-5
	l-2.4-2.4c-1.5-1.3-3.3-1-5,0l-2.8,1.7c-0.9,0.6-1.9,0.7-2.9,0.3l-2-0.8c-0.9-0.4-1.6-1.2-1.8-2.2l-0.7-3.2c-0.5-2-1.6-3.4-3.6-3.5
	h-3.4c-2,0.2-3,1.6-3.6,3.6l-0.7,3.2c-0.2,1-0.9,1.8-1.8,2.2l-2,0.8c-0.9,0.4-2,0.3-2.9-0.3l-2.7-1.8c-1.8-1-3.5-1.3-5,0l-2.4,2.4
	c-1.3,1.5-1,3.2,0,5l1.8,2.8c0.5,0.9,0.6,1.9,0.2,2.9l-0.8,2c-0.4,0.9-1.2,1.6-2.2,1.9l-3.2,0.7c-2,0.5-3.4,1.6-3.6,3.6v3.4
	c0.2,2,1.6,3,3.6,3.6l3.2,0.7c1,0.2,1.8,0.9,2.2,1.8l0.8,2c0.4,0.9,0.3,2-0.2,2.9l-1.8,2.8c-1,1.8-1.3,3.5,0,5l2.4,2.4
	c1.5,1.3,3.3,1,5,0l2.7-1.8c0.9-0.6,1.9-0.6,2.9-0.3l2,0.8c0.9,0.4,1.6,1.2,1.8,2.2l0.7,3.2c0.5,2,1.6,3.4,3.6,3.6H95
	c2-0.2,3-1.6,3.6-3.6l0.7-3.2c0.2-1,0.9-1.8,1.8-2.2l2-0.8c0.9-0.4,2-0.3,2.9,0.3l2.7,1.8c1.8,1,3.5,1.3,5,0l2.4-2.4
	c1.3-1.5,1-3.3,0-5l-1.8-2.8c-0.5-0.9-0.6-1.9-0.2-2.9l0.8-2c0.4-0.9,1.2-1.6,2.2-1.8l3.2-0.7c2-0.5,3.4-1.6,3.6-3.6V85
	C123.8,82.9,122.4,81.9,120.4,81.4z M93.3,99.9C86,99.9,80,94,80,86.6s6-13.3,13.3-13.3s13.3,6,13.3,13.3
	C106.6,94,100.7,99.9,93.3,99.9L93.3,99.9z"/>
<g>
	<line class="DeleteBusinessServicex1" x1="21.2" y1="80.5" x2="43.4" y2="58.3"/>
	<line class="DeleteBusinessServicex1" x1="43.4" y1="80.4" x2="21.2" y2="58.2"/>
</g>
</svg>
