<?xml version="1.0" encoding="utf-8"?>
<!-- Generator: Adobe Illustrator 26.0.2, SVG Export Plug-In . SVG Version: 6.00 Build 0)  -->
<svg version="1.1" xmlns="http://www.w3.org/2000/svg" xmlns:xlink="http://www.w3.org/1999/xlink" x="0px" y="0px"
	 viewBox="0 0 128 128" style="enable-background:new 0 0 128 128;" xml:space="preserve">
<style type="text/css">
	.Delegatex0{fill:none;stroke:#000000;stroke-width:5;stroke-linecap:round;stroke-linejoin:round;stroke-miterlimit:10;}
	.Delegatex1{fill:none;stroke:#000000;stroke-width:2;stroke-linecap:round;stroke-miterlimit:10;}
	.Delegatex2{fill:#F89A1F;stroke:#F89A1F;stroke-miterlimit:10;}
	.Delegatex3{fill:none;stroke:#000000;stroke-width:5;stroke-linecap:round;stroke-miterlimit:10;}
	.Delegatex4{fill:none;stroke:#000000;stroke-width:5;stroke-miterlimit:10;}
	.Delegatex5{fill:none;stroke:#000000;stroke-width:2;stroke-linecap:round;stroke-linejoin:round;stroke-miterlimit:10;}
	.Delegatex6{fill:none;stroke:#000000;stroke-linecap:round;stroke-linejoin:round;stroke-miterlimit:10;}
	.Delegatex7{fill:none;stroke:#000000;stroke-width:5;stroke-linejoin:round;stroke-miterlimit:10;}
	.Delegatex8{fill:none;stroke:#000000;stroke-width:2;stroke-miterlimit:10;}
	.Delegatex9{fill:none;stroke:#000000;stroke-miterlimit:10;}
	.Delegatex10{fill:#F9BB16;}
	.Delegatex11{fill:#EA4435;}
	.Delegatex12{fill:#2FA952;}
	.Delegatex13{fill:#547DBF;}
	.Delegatex14{fill:none;stroke:#000000;stroke-width:3;stroke-linecap:round;stroke-linejoin:round;stroke-miterlimit:10;}
	.Delegatex15{stroke:#000000;stroke-miterlimit:10;}
	.Delegatex16{fill:none;stroke:#010101;stroke-width:5;stroke-miterlimit:10;}
	.Delegatex17{fill:none;stroke:#020202;stroke-width:5;stroke-miterlimit:10;}
</style>
<g id="Layer_1">
	<g>
		<g>
			<circle class="Delegatex0" cx="33.33" cy="55.78" r="12.9"/>
			<path class="Delegatex0" d="M45.32,68.68H21.34c-4.99,0-9.04,4.05-9.04,9.04v9.85h42.06v-9.85C54.36,72.73,50.31,68.68,45.32,68.68z"/>
		</g>
		<g>
			<circle class="Delegatex0" cx="102.56" cy="59.89" r="8.06"/>
			<path class="Delegatex0" d="M106.66,67.95h-8.2c-4.99,0-9.04,4.05-9.04,9.04v2.76h26.28v-2.76C115.7,71.99,111.65,67.95,106.66,67.95z"
				/>
		</g>
		<g>
			<circle class="Delegatex0" cx="76.51" cy="14.74" r="8.06"/>
			<path class="Delegatex0" d="M80.6,22.8h-8.2c-4.99,0-9.04,4.05-9.04,9.04v2.76h26.28v-2.76C89.64,26.85,85.6,22.8,80.6,22.8z"/>
		</g>
		<g>
			<circle class="Delegatex0" cx="76.51" cy="101.46" r="8.06"/>
			<path class="Delegatex0" d="M80.6,109.51h-8.2c-4.99,0-9.04,4.05-9.04,9.04v2.76h26.28v-2.76C89.64,113.56,85.6,109.51,80.6,109.51z"/>
		</g>
		<g>
			<polyline class="Delegatex0" points="32.72,36.53 32.72,20.64 54.36,20.64 			"/>
			<polyline class="Delegatex0" points="50.51,14.95 56.38,20.64 50.51,26.29 			"/>
		</g>
		<g>
			<polyline class="Delegatex0" points="32.72,94.95 32.72,110.84 54.36,110.84 			"/>
			<polyline class="Delegatex0" points="50.51,116.53 56.38,110.84 50.51,105.19 			"/>
		</g>
		<line class="Delegatex0" x1="58.72" y1="65.84" x2="80.36" y2="65.84"/>
		<polyline class="Delegatex0" points="76.51,71.53 82.38,65.84 76.51,60.19 		"/>
	</g>
</g>
<g id="Layer_2">
</g>
</svg>
