<?xml version="1.0" encoding="utf-8"?>
<!-- Generator: Adobe Illustrator 26.0.2, SVG Export Plug-In . SVG Version: 6.00 Build 0)  -->
<svg version="1.1" id="Layer_1" xmlns="http://www.w3.org/2000/svg" xmlns:xlink="http://www.w3.org/1999/xlink" x="0px" y="0px"
	 viewBox="0 0 128 128" style="enable-background:new 0 0 128 128;" xml:space="preserve">
<style type="text/css">
	.DeviceRUx0{fill:none;stroke:#000000;stroke-width:5;stroke-miterlimit:10;}
	.DeviceRUx1{fill:none;stroke:#000000;stroke-width:5;stroke-linecap:round;stroke-miterlimit:10;}
	.DeviceRUx2{fill:none;stroke:#000000;stroke-width:5;stroke-linecap:round;stroke-linejoin:round;stroke-miterlimit:21.3333;}
	.DeviceRUx3{fill:#FFFFFF;fill-opacity:0;stroke:#000000;stroke-width:5;stroke-linecap:round;stroke-miterlimit:10;}
	.DeviceRUx4{fill:none;stroke:#000000;stroke-width:4;stroke-linecap:round;stroke-miterlimit:10;}
	.DeviceRUx5{fill:none;stroke:#010101;stroke-width:5;stroke-miterlimit:10;}
	.DeviceRUx6{fill:none;stroke:#010101;stroke-width:3;stroke-miterlimit:10;}
	.DeviceRUx7{fill:none;stroke:#010101;stroke-width:5;stroke-linecap:round;stroke-miterlimit:10;}
	.DeviceRUx8{fill:none;stroke:#010101;stroke-width:4;stroke-miterlimit:10;}
	.DeviceRUx9{fill:none;stroke:#010101;stroke-width:5;stroke-linecap:round;stroke-linejoin:round;stroke-miterlimit:10;}
	.DeviceRUx10{fill:none;stroke:#020202;stroke-width:5;stroke-miterlimit:10;}
</style>
<g>
	<path class="DeviceRUx10" d="M80.6,92.3H11.7c-3.4,0-6.2-2.8-6.2-6.2v-63c0-3.4,2.8-6.2,6.2-6.2h90.8c3.4,0,6.2,2.8,6.2,6.2v14.2"/>
	<g>
		<line class="DeviceRUx10" x1="35.6" y1="111" x2="77.2" y2="111"/>
	</g>
	<line class="DeviceRUx10" x1="56.7" y1="92.2" x2="56.7" y2="111"/>
	<rect x="93.3" y="53.8" class="DeviceRUx10" width="29.2" height="57.2"/>
</g>
<g>
	<path d="M18.3,71.2v-35h14.9c3.7,0,6.5,0.3,8.2,0.9c1.7,0.6,3.1,1.7,4.1,3.4c1,1.6,1.5,3.4,1.5,5.5c0,2.6-0.8,4.8-2.3,6.5
		c-1.5,1.7-3.9,2.8-6.9,3.2c1.5,0.9,2.8,1.9,3.8,2.9c1,1.1,2.3,3,4,5.7l4.3,6.8h-8.5l-5.1-7.6c-1.8-2.7-3.1-4.4-3.7-5.1
		s-1.4-1.2-2.1-1.5c-0.7-0.3-1.9-0.4-3.6-0.4h-1.4v14.6H18.3z M25.4,51h5.2c3.4,0,5.5-0.1,6.3-0.4c0.8-0.3,1.5-0.8,2-1.5
		s0.7-1.6,0.7-2.6c0-1.2-0.3-2.1-0.9-2.9c-0.6-0.7-1.5-1.2-2.7-1.4c-0.6-0.1-2.3-0.1-5.2-0.1h-5.5V51z"/>
	<path d="M53.5,36.2h7.1v19c0,3,0.1,5,0.3,5.8c0.3,1.4,1,2.6,2.2,3.5c1.1,0.9,2.7,1.3,4.7,1.3c2,0,3.5-0.4,4.5-1.2
		c1-0.8,1.6-1.8,1.8-3c0.2-1.2,0.3-3.2,0.3-5.9V36.2h7.1v18.4c0,4.2-0.2,7.2-0.6,8.9c-0.4,1.7-1.1,3.2-2.1,4.4s-2.4,2.1-4.1,2.9
		s-4,1.1-6.7,1.1c-3.3,0-5.9-0.4-7.6-1.2c-1.7-0.8-3.1-1.8-4.1-3s-1.7-2.5-2-3.9c-0.5-2-0.7-5-0.7-8.9V36.2z"/>
</g>
</svg>
