<?xml version="1.0" encoding="utf-8"?>
<!-- Generator: Adobe Illustrator 26.0.2, SVG Export Plug-In . SVG Version: 6.00 Build 0)  -->
<svg version="1.1" id="Layer_1" xmlns="http://www.w3.org/2000/svg" xmlns:xlink="http://www.w3.org/1999/xlink" x="0px" y="0px"
	 viewBox="0 0 128 128" style="enable-background:new 0 0 128 128;" xml:space="preserve">
<style type="text/css">
	.DisconnectCablex0{fill:none;stroke:#000000;stroke-width:5;stroke-miterlimit:10;}
	.DisconnectCablex1{fill:none;stroke:#000000;stroke-width:5;stroke-linecap:round;stroke-miterlimit:10;}
	.DisconnectCablex2{fill:none;stroke:#000000;stroke-width:5;stroke-linecap:round;stroke-linejoin:round;stroke-miterlimit:10;}
	.DisconnectCablex3{fill:none;stroke:#010101;stroke-width:5;stroke-miterlimit:10;}
</style>
<g>
	<g>
		<line class="DisconnectCablex1" x1="68.38" y1="80.38" x2="106.35" y2="118.35"/>
		<line class="DisconnectCablex1" x1="68.38" y1="118.35" x2="106.35" y2="80.38"/>
	</g>
	<path class="DisconnectCablex3" d="M89.9,81.65V52.02c0-2.24-0.41-4.4-1.12-6.38c-0.93-2.5-2.4-4.75-4.26-6.62c-3.31-3.33-7.9-5.38-12.99-5.38
		c-3.43,0-6.63,0.93-9.38,2.58c-3.6,2.11-6.41,5.44-7.88,9.42c-0.72,1.98-1.12,4.14-1.12,6.38v38.25c0,5.18-4.2,9.38-9.38,9.38
		s-9.38-4.2-9.38-9.38V57.65h-9v32.62c0,2.24,0.41,4.4,1.12,6.38c2.59,7,9.33,12,17.25,12c3.43,0,6.64-0.93,9.38-2.56
		c1.32-0.8,2.54-1.74,3.61-2.82c1.86-1.86,3.33-4.11,4.26-6.62c0.72-1.98,1.12-4.14,1.12-6.38V52.02c0-5.18,4.2-9.38,9.38-9.38
		s9.38,4.2,9.38,9.38v29.62H89.9z"/>
	
		<rect x="21.65" y="24.65" transform="matrix(-1 -8.973679e-11 8.973679e-11 -1 59.7981 74.7994)" class="DisconnectCablex3" width="16.5" height="25.5"/>
	<path class="DisconnectCablex3" d="M21.65,17.15h16.5v-4.73c0-1.53-1.24-2.77-2.77-2.77h-9.96c-2.08,0-3.77,1.69-3.77,3.77V17.15z"/>
</g>
</svg>
