<?xml version="1.0" encoding="utf-8"?>
<!-- Generator: Adobe Illustrator 26.0.2, SVG Export Plug-In . SVG Version: 6.00 Build 0)  -->
<svg version="1.1" xmlns="http://www.w3.org/2000/svg" xmlns:xlink="http://www.w3.org/1999/xlink" x="0px" y="0px"
	 viewBox="0 0 128 128" style="enable-background:new 0 0 128 128;" xml:space="preserve">
<style type="text/css">
	.DiskArrayx0{fill:none;stroke:#000000;stroke-width:5;stroke-linecap:round;stroke-linejoin:round;stroke-miterlimit:10;}
	.DiskArrayx1{fill:none;stroke:#000000;stroke-width:2;stroke-linecap:round;stroke-miterlimit:10;}
	.DiskArrayx2{fill:#F89A1F;stroke:#F89A1F;stroke-miterlimit:10;}
	.DiskArrayx3{fill:none;stroke:#000000;stroke-width:5;stroke-linecap:round;stroke-miterlimit:10;}
	.DiskArrayx4{fill:none;stroke:#000000;stroke-width:5;stroke-miterlimit:10;}
	.DiskArrayx5{fill:none;stroke:#000000;stroke-width:2;stroke-linecap:round;stroke-linejoin:round;stroke-miterlimit:10;}
	.DiskArrayx6{fill:none;stroke:#000000;stroke-linecap:round;stroke-linejoin:round;stroke-miterlimit:10;}
	.DiskArrayx7{fill:none;stroke:#000000;stroke-width:5;stroke-linejoin:round;stroke-miterlimit:10;}
	.DiskArrayx8{fill:none;stroke:#000000;stroke-width:2;stroke-miterlimit:10;}
	.DiskArrayx9{fill:none;stroke:#000000;stroke-miterlimit:10;}
	.DiskArrayx10{fill:#F9BB16;}
	.DiskArrayx11{fill:#EA4435;}
	.DiskArrayx12{fill:#2FA952;}
	.DiskArrayx13{fill:#547DBF;}
	.DiskArrayx14{fill:none;stroke:#000000;stroke-width:3;stroke-linecap:round;stroke-linejoin:round;stroke-miterlimit:10;}
	.DiskArrayx15{stroke:#000000;stroke-miterlimit:10;}
	.DiskArrayx16{fill:none;stroke:#010101;stroke-width:5;stroke-miterlimit:10;}
	.DiskArrayx17{fill:none;stroke:#020202;stroke-width:5;stroke-miterlimit:10;}
</style>
<g id="Layer_1">
	<g>
		<rect x="10" y="17.84" class="DiskArrayx0" width="108" height="21.6"/>
		<rect x="22.34" y="23.4" class="DiskArrayx5" width="35.79" height="10.49"/>
		<rect x="77.89" y="22.32" class="DiskArrayx5" width="3.09" height="12.64"/>
		<rect x="85.92" y="22.32" class="DiskArrayx5" width="3.09" height="12.64"/>
		<rect x="93.96" y="22.32" class="DiskArrayx5" width="3.09" height="12.64"/>
		<rect x="102" y="22.32" class="DiskArrayx5" width="3.09" height="12.64"/>
		<rect x="10" y="40.42" class="DiskArrayx0" width="108" height="21.6"/>
		<rect x="22.34" y="45.97" class="DiskArrayx5" width="35.79" height="10.49"/>
		<rect x="77.89" y="44.89" class="DiskArrayx5" width="3.09" height="12.64"/>
		<rect x="85.92" y="44.89" class="DiskArrayx5" width="3.09" height="12.64"/>
		<rect x="93.96" y="44.89" class="DiskArrayx5" width="3.09" height="12.64"/>
		<rect x="102" y="44.89" class="DiskArrayx5" width="3.09" height="12.64"/>
		<rect x="10" y="62.99" class="DiskArrayx0" width="108" height="21.6"/>
		<rect x="22.34" y="68.54" class="DiskArrayx5" width="35.79" height="10.49"/>
		<rect x="77.89" y="67.47" class="DiskArrayx5" width="3.09" height="12.64"/>
		<rect x="85.92" y="67.47" class="DiskArrayx5" width="3.09" height="12.64"/>
		<rect x="93.96" y="67.47" class="DiskArrayx5" width="3.09" height="12.64"/>
		<rect x="102" y="67.47" class="DiskArrayx5" width="3.09" height="12.64"/>
		<rect x="10" y="85.56" class="DiskArrayx0" width="108" height="21.6"/>
		<rect x="22.34" y="91.12" class="DiskArrayx5" width="35.79" height="10.49"/>
		<rect x="77.89" y="90.04" class="DiskArrayx5" width="3.09" height="12.64"/>
		<rect x="85.92" y="90.04" class="DiskArrayx5" width="3.09" height="12.64"/>
		<rect x="93.96" y="90.04" class="DiskArrayx5" width="3.09" height="12.64"/>
		<rect x="102" y="90.04" class="DiskArrayx5" width="3.09" height="12.64"/>
	</g>
</g>
<g id="Layer_2">
</g>
</svg>
