<?xml version="1.0" encoding="utf-8"?>
<!-- Generator: Adobe Illustrator 26.0.2, SVG Export Plug-In . SVG Version: 6.00 Build 0)  -->
<svg version="1.1" xmlns="http://www.w3.org/2000/svg" xmlns:xlink="http://www.w3.org/1999/xlink" x="0px" y="0px"
	 viewBox="0 0 128 128" style="enable-background:new 0 0 128 128;" xml:space="preserve">
<style type="text/css">
	.Donotordersubnodesx0{fill:none;stroke:#000000;stroke-width:5;stroke-linejoin:round;stroke-miterlimit:10;}
	.Donotordersubnodesx1{fill:none;stroke:#010101;stroke-width:5;stroke-linejoin:round;stroke-miterlimit:10;}
	.Donotordersubnodesx2{fill:none;stroke:#010101;stroke-width:5;stroke-miterlimit:10;}
	.Donotordersubnodesx3{fill:none;stroke:#000000;stroke-width:4;stroke-miterlimit:10;}
	.Donotordersubnodesx4{fill:none;stroke:#000000;stroke-miterlimit:10;}
	.Donotordersubnodesx5{fill:none;stroke:#000000;stroke-width:5;stroke-miterlimit:10;}
	.Donotordersubnodesx6{fill:none;stroke:#000000;stroke-width:5;stroke-linecap:round;stroke-linejoin:round;stroke-miterlimit:10;}
	.Donotordersubnodesx7{fill:none;stroke:#020202;stroke-width:5;stroke-linecap:round;stroke-miterlimit:10;}
	.Donotordersubnodesx8{fill:none;stroke:#020202;stroke-width:5;stroke-miterlimit:10;}
	.Donotordersubnodesx9{fill:none;stroke:#020202;stroke-width:5;stroke-linecap:round;stroke-linejoin:round;stroke-miterlimit:10;}
	.Donotordersubnodesx10{fill:none;stroke:#010101;stroke-width:5;stroke-linecap:round;stroke-miterlimit:10;}
	.Donotordersubnodesx11{fill:none;stroke:#010101;stroke-miterlimit:10;}
	.Donotordersubnodesx12{fill:none;stroke:#000000;stroke-width:5;stroke-linecap:round;stroke-miterlimit:10;}
	.Donotordersubnodesx13{fill:none;stroke:#000000;stroke-width:4;stroke-linecap:round;stroke-linejoin:round;stroke-miterlimit:10;}
</style>
<g id="Layer_1">
</g>
<g id="Layer_2">
	<g>
		<polyline class="Donotordersubnodesx0" points="61.44,119.06 54.31,119.06 54.31,37.71 32.33,46.3 63.65,4.87 93.72,45.29 71.99,37.96 71.99,90.77 
					"/>
		<path d="M100.09,69h-5.13l-2.04-4.44h-9.34L81.65,69h-5.01l9.1-19.54h4.99L100.09,69z M91.4,61.26l-3.22-7.25l-3.16,7.25H91.4z"/>
		<path d="M76.99,90.77v-3.56l12.28-12.68H78.38v-3.31h17.11v3.07l-12.8,13.18h13.3v3.29H76.99z"/>
		<g>
			<path class="Donotordersubnodesx4" d="M60.19,114.07l8.69-11.1L61.01,92.8h6l5.1,6.83l5-6.83h5.95l-7.91,10.33l8.69,10.94h-6.19l-5.64-7.35
				l-5.66,7.35H60.19z"/>
		</g>
	</g>
</g>
</svg>
