<?xml version="1.0" encoding="utf-8"?>
<!-- Generator: Adobe Illustrator 26.0.2, SVG Export Plug-In . SVG Version: 6.00 Build 0)  -->
<svg version="1.1" xmlns="http://www.w3.org/2000/svg" xmlns:xlink="http://www.w3.org/1999/xlink" x="0px" y="0px"
	 viewBox="0 0 128 128" style="enable-background:new 0 0 128 128;" xml:space="preserve">
<style type="text/css">
	.EmptyStoreBinxcopy0{fill:none;stroke:#000000;stroke-width:5;stroke-linejoin:round;stroke-miterlimit:10;}
	.EmptyStoreBinxcopy1{fill:none;stroke:#010101;stroke-width:5;stroke-linejoin:round;stroke-miterlimit:10;}
	.EmptyStoreBinxcopy2{fill:none;stroke:#010101;stroke-width:5;stroke-miterlimit:10;}
	.EmptyStoreBinxcopy3{fill:none;stroke:#000000;stroke-width:4;stroke-miterlimit:10;}
	.EmptyStoreBinxcopy4{fill:none;stroke:#000000;stroke-miterlimit:10;}
	.EmptyStoreBinxcopy5{fill:none;stroke:#000000;stroke-width:5;stroke-miterlimit:10;}
	.EmptyStoreBinxcopy6{fill:none;stroke:#000000;stroke-width:5;stroke-linecap:round;stroke-linejoin:round;stroke-miterlimit:10;}
	.EmptyStoreBinxcopy7{fill:none;stroke:#020202;stroke-width:5;stroke-linecap:round;stroke-miterlimit:10;}
	.EmptyStoreBinxcopy8{fill:none;stroke:#020202;stroke-width:5;stroke-miterlimit:10;}
	.EmptyStoreBinxcopy9{fill:none;stroke:#020202;stroke-width:5;stroke-linecap:round;stroke-linejoin:round;stroke-miterlimit:10;}
	.EmptyStoreBinxcopy10{fill:none;stroke:#010101;stroke-width:5;stroke-linecap:round;stroke-miterlimit:10;}
	.EmptyStoreBinxcopy11{fill:none;stroke:#010101;stroke-miterlimit:10;}
	.EmptyStoreBinxcopy12{fill:none;stroke:#000000;stroke-width:5;stroke-linecap:round;stroke-miterlimit:10;}
	.EmptyStoreBinxcopy13{fill:none;stroke:#000000;stroke-width:4;stroke-linecap:round;stroke-linejoin:round;stroke-miterlimit:10;}
</style>
<g id="Layer_1">
</g>
<g id="Layer_2">
	<g>
		<g>
			<path d="M87.92,124.14l12.84-16.4L89.12,92.72h8.87l7.54,10.1l7.38-10.1h8.79l-11.69,15.26l12.84,16.16h-9.15l-8.33-10.87
				l-8.36,10.87H87.92z"/>
		</g>
		<path class="EmptyStoreBinxcopy5" d="M102.29,78.22l4.85-57.92H84.59H43.4H20.85l7.87,93.96c0.47,5.51,5.07,9.74,10.59,9.74h37.04"/>
		<g>
			<line class="EmptyStoreBinxcopy6" x1="51.65" y1="34.62" x2="51.65" y2="112.64"/>
			<line class="EmptyStoreBinxcopy6" x1="76.35" y1="34.62" x2="76.35" y2="112.64"/>
		</g>
		<line class="EmptyStoreBinxcopy6" x1="9.04" y1="20.3" x2="118.96" y2="20.3"/>
		<path class="EmptyStoreBinxcopy5" d="M84.6,20.3H43.4v-6.27C43.4,8.49,47.89,4,53.43,4h21.14C80.11,4,84.6,8.49,84.6,14.02V20.3z"/>
	</g>
</g>
</svg>
