<?xml version="1.0" encoding="utf-8"?>
<!-- Generator: Adobe Illustrator 26.0.2, SVG Export Plug-In . SVG Version: 6.00 Build 0)  -->
<svg version="1.1" id="Layer_1" xmlns="http://www.w3.org/2000/svg" xmlns:xlink="http://www.w3.org/1999/xlink" x="0px" y="0px"
	 viewBox="0 0 128 128" style="enable-background:new 0 0 128 128;" xml:space="preserve">
<style type="text/css">
	.Entityx0{fill:none;stroke:#000000;stroke-width:5;stroke-miterlimit:10;}
	.Entityx1{fill:none;stroke:#000000;stroke-width:5;stroke-linecap:round;stroke-miterlimit:10;}
	.Entityx2{fill:none;stroke:#000000;stroke-width:5;stroke-linecap:round;stroke-linejoin:round;stroke-miterlimit:21.3333;}
	.Entityx3{fill:#FFFFFF;fill-opacity:0;stroke:#000000;stroke-width:5;stroke-linecap:round;stroke-miterlimit:10;}
	.Entityx4{fill:none;stroke:#000000;stroke-width:4;stroke-linecap:round;stroke-miterlimit:10;}
	.Entityx5{fill:none;stroke:#010101;stroke-width:5;stroke-miterlimit:10;}
	.Entityx6{fill:none;stroke:#010101;stroke-width:3;stroke-miterlimit:10;}
	.Entityx7{fill:none;stroke:#010101;stroke-width:5;stroke-linecap:round;stroke-miterlimit:10;}
	.Entityx8{fill:none;stroke:#010101;stroke-width:4;stroke-miterlimit:10;}
	.Entityx9{fill:none;stroke:#010101;stroke-width:5;stroke-linecap:round;stroke-linejoin:round;stroke-miterlimit:10;}
	.Entityx10{fill:none;stroke:#020202;stroke-width:5;stroke-miterlimit:10;}
	.Entityx11{fill:none;stroke:#000000;stroke-width:5;stroke-linecap:round;stroke-linejoin:round;stroke-miterlimit:10;}
	.Entityx12{fill:none;stroke:#000000;stroke-width:5;stroke-linejoin:round;stroke-miterlimit:10;}
</style>
<g>
	<path class="Entityx11" d="M41,101.7l-6.1,6.1c-2.1,2.1-5.5,2.1-7.6,0l-8.9-8.9c-2.1-2.1-2.1-5.5,0-7.6l6.1-6.1c-2-3.5-3.6-7.3-4.7-11.3
		h-8.6c-3,0-5.4-2.4-5.4-5.4V55.9c0-3,2.4-5.4,5.4-5.4h8.6c1.1-4,2.6-7.8,4.7-11.3l-6.1-6.1c-2.1-2.1-2.1-5.5,0-7.6l8.9-8.9
		c2.1-2.1,5.5-2.1,7.6,0l6.1,6.1c3.5-2,7.3-3.6,11.3-4.7V9.4c0-3,2.4-5.4,5.4-5.4h12.6c3,0,5.4,2.4,5.4,5.4V18
		c4,1.1,7.8,2.6,11.3,4.7l6.1-6.1c2.1-2.1,5.5-2.1,7.6,0l8.9,8.9c2.1,2.1,2.1,5.5,0,7.6l-6.1,6.1c2,3.5,3.6,7.3,4.7,11.3h8.6
		c3,0,5.4,2.4,5.4,5.4v12.6c0,3-2.4,5.4-5.4,5.4h-8.6c-1.1,4-2.6,7.8-4.7,11.3l6.1,6.1c2.1,2.1,2.1,5.5,0,7.6l-8.9,8.9
		c-2.1,2.1-5.5,2.1-7.6,0l-6.1-6.1l-2.7-18.1c5.7-5.4,9.2-13,9.2-21.4c0-16.3-13.2-29.5-29.5-29.5c-16.3,0-29.5,13.2-29.5,29.5
		c0,8.4,3.5,16,9.2,21.4L41,101.7z"/>
	<path class="Entityx12" d="M55.8,45.3c-6.3,3.1-10.6,9.5-10.6,17c0,6.9,3.7,12.9,9.2,16.2v35.9c0,5.3,4.3,9.6,9.6,9.6
		c2.7,0,5.1-1.1,6.8-2.8c1.7-1.7,2.8-4.2,2.8-6.8V78.5c5.5-3.3,9.2-9.3,9.2-16.2c0-7.7-4.6-14.3-11.2-17.2v9.3
		c0,4.4-3.6,7.9-7.9,7.9s-7.9-3.5-7.9-7.9V45.3z"/>
</g>
</svg>
