<?xml version="1.0" encoding="utf-8"?>
<!-- Generator: Adobe Illustrator 26.0.2, SVG Export Plug-In . SVG Version: 6.00 Build 0)  -->
<svg version="1.1" xmlns="http://www.w3.org/2000/svg" xmlns:xlink="http://www.w3.org/1999/xlink" x="0px" y="0px"
	 viewBox="0 0 128 128" style="enable-background:new 0 0 128 128;" xml:space="preserve">
<style type="text/css">
	.ExportPropertiesx0{fill:none;stroke:#000000;stroke-width:5;stroke-linejoin:round;stroke-miterlimit:10;}
	.ExportPropertiesx1{fill:none;stroke:#010101;stroke-width:5;stroke-linejoin:round;stroke-miterlimit:10;}
	.ExportPropertiesx2{fill:none;stroke:#010101;stroke-width:5;stroke-miterlimit:10;}
	.ExportPropertiesx3{fill:none;stroke:#000000;stroke-width:4;stroke-miterlimit:10;}
	.ExportPropertiesx4{fill:none;stroke:#000000;stroke-miterlimit:10;}
	.ExportPropertiesx5{fill:none;stroke:#000000;stroke-width:5;stroke-miterlimit:10;}
	.ExportPropertiesx6{fill:none;stroke:#000000;stroke-width:5;stroke-linecap:round;stroke-linejoin:round;stroke-miterlimit:10;}
	.ExportPropertiesx7{fill:none;stroke:#020202;stroke-width:5;stroke-linecap:round;stroke-miterlimit:10;}
	.ExportPropertiesx8{fill:none;stroke:#020202;stroke-width:5;stroke-miterlimit:10;}
	.ExportPropertiesx9{fill:none;stroke:#020202;stroke-width:5;stroke-linecap:round;stroke-linejoin:round;stroke-miterlimit:10;}
	.ExportPropertiesx10{fill:none;stroke:#010101;stroke-width:5;stroke-linecap:round;stroke-miterlimit:10;}
	.ExportPropertiesx11{fill:none;stroke:#010101;stroke-miterlimit:10;}
	.ExportPropertiesx12{fill:none;stroke:#000000;stroke-width:5;stroke-linecap:round;stroke-miterlimit:10;}
	.ExportPropertiesx13{fill:none;stroke:#000000;stroke-width:4;stroke-linecap:round;stroke-linejoin:round;stroke-miterlimit:10;}
</style>
<g id="Layer_1">
</g>
<g id="Layer_2">
	<g>
		<g>
			<polyline class="ExportPropertiesx1" points="88.97,33.87 63.79,9.61 39.03,33.59 			"/>
			<line class="ExportPropertiesx1" x1="63.79" y1="10.2" x2="63.79" y2="100.37"/>
		</g>
		<path class="ExportPropertiesx2" d="M124,104.45c0,7.7-6.24,13.94-13.94,13.94H17.94c-7.7,0-13.94-6.24-13.94-13.94"/>
		<path class="ExportPropertiesx3" d="M113.31,78.43L93.64,58.76c1.31-4.22,0.3-9-3.04-12.34c-2.97-2.97-7.09-4.1-10.93-3.39l8.29,8.29l-9.82,9.82
			l-8.29-8.29c-0.72,3.84,0.41,7.96,3.39,10.93c3.34,3.34,8.13,4.35,12.34,3.04l19.67,19.67c-0.38,2.81,0.51,5.77,2.67,7.93
			c2.28,2.28,5.44,3.15,8.38,2.6l-6.36-6.36l7.53-7.53l6.36,6.36c0.55-2.95-0.32-6.1-2.6-8.38
			C119.08,78.94,116.13,78.05,113.31,78.43z"/>
	</g>
</g>
</svg>
