<?xml version="1.0" encoding="utf-8"?>
<!-- Generator: Adobe Illustrator 26.0.2, SVG Export Plug-In . SVG Version: 6.00 Build 0)  -->
<svg version="1.1" xmlns="http://www.w3.org/2000/svg" xmlns:xlink="http://www.w3.org/1999/xlink" x="0px" y="0px"
	 viewBox="0 0 128 128" style="enable-background:new 0 0 128 128;" xml:space="preserve">
<style type="text/css">
	.FeatureHelpx0{fill:none;stroke:#000000;stroke-width:5;stroke-linejoin:round;stroke-miterlimit:10;}
	.FeatureHelpx1{fill:none;stroke:#010101;stroke-width:5;stroke-linejoin:round;stroke-miterlimit:10;}
	.FeatureHelpx2{fill:none;stroke:#010101;stroke-width:5;stroke-miterlimit:10;}
	.FeatureHelpx3{fill:none;stroke:#000000;stroke-width:4;stroke-miterlimit:10;}
	.FeatureHelpx4{fill:none;stroke:#000000;stroke-miterlimit:10;}
	.FeatureHelpx5{fill:none;stroke:#000000;stroke-width:5;stroke-miterlimit:10;}
	.FeatureHelpx6{fill:none;stroke:#000000;stroke-width:5;stroke-linecap:round;stroke-linejoin:round;stroke-miterlimit:10;}
	.FeatureHelpx7{fill:none;stroke:#020202;stroke-width:5;stroke-linecap:round;stroke-miterlimit:10;}
	.FeatureHelpx8{fill:none;stroke:#020202;stroke-width:5;stroke-miterlimit:10;}
	.FeatureHelpx9{fill:none;stroke:#020202;stroke-width:5;stroke-linecap:round;stroke-linejoin:round;stroke-miterlimit:10;}
	.FeatureHelpx10{fill:none;stroke:#010101;stroke-width:5;stroke-linecap:round;stroke-miterlimit:10;}
	.FeatureHelpx11{fill:none;stroke:#010101;stroke-miterlimit:10;}
	.FeatureHelpx12{fill:none;stroke:#000000;stroke-width:5;stroke-linecap:round;stroke-miterlimit:10;}
	.FeatureHelpx13{fill:none;stroke:#000000;stroke-width:4;stroke-linecap:round;stroke-linejoin:round;stroke-miterlimit:10;}
</style>
<g id="Layer_1">
</g>
<g id="Layer_2">
	<circle class="FeatureHelpx5" cx="67.41" cy="61.08" r="33.35"/>
	<path class="FeatureHelpx0" d="M67.41,13.66c-26.19,0-47.42,21.23-47.42,47.42c0,5.84,1.06,11.43,2.99,16.6l-4.83,18.03l-4.99,18.62
		l18.62-4.99l17.13-4.59c5.68,2.41,11.93,3.74,18.49,3.74c26.19,0,47.42-21.23,47.42-47.42S93.6,13.66,67.41,13.66z"/>
	<g>
		<path d="M71.59,70.99h-7.52c-0.02-1.08-0.03-1.74-0.03-1.98c0-2.44,0.4-4.44,1.21-6.02s2.42-3.34,4.84-5.31
			c2.42-1.97,3.86-3.25,4.33-3.86c0.73-0.96,1.09-2.02,1.09-3.18c0-1.61-0.64-2.99-1.93-4.14c-1.29-1.15-3.02-1.72-5.2-1.72
			c-2.1,0-3.86,0.6-5.28,1.8c-1.42,1.2-2.39,3.03-2.92,5.48l-7.61-0.94c0.22-3.52,1.71-6.51,4.5-8.96
			c2.78-2.46,6.43-3.69,10.95-3.69c4.76,0,8.54,1.24,11.35,3.73s4.22,5.38,4.22,8.68c0,1.83-0.52,3.56-1.55,5.19
			s-3.24,3.85-6.62,6.66c-1.75,1.46-2.84,2.62-3.26,3.51C71.75,67.13,71.55,68.71,71.59,70.99z M64.07,82.14v-8.29h8.29v8.29H64.07z
			"/>
	</g>
</g>
</svg>
