<?xml version="1.0" encoding="utf-8"?>
<!-- Generator: Adobe Illustrator 26.0.2, SVG Export Plug-In . SVG Version: 6.00 Build 0)  -->
<svg version="1.1" id="Layer_1" xmlns="http://www.w3.org/2000/svg" xmlns:xlink="http://www.w3.org/1999/xlink" x="0px" y="0px"
	 viewBox="0 0 128 128" style="enable-background:new 0 0 128 128;" xml:space="preserve">
<style type="text/css">
	.FeatureTipsx0{fill:none;stroke:#000000;stroke-width:5;stroke-miterlimit:10;}
	.FeatureTipsx1{fill:none;stroke:#000000;stroke-width:5;stroke-linecap:round;stroke-miterlimit:10;}
	.FeatureTipsx2{fill:none;stroke:#000000;stroke-width:5;stroke-linecap:round;stroke-linejoin:round;stroke-miterlimit:21.3333;}
	.FeatureTipsx3{fill:#FFFFFF;fill-opacity:0;stroke:#000000;stroke-width:5;stroke-linecap:round;stroke-miterlimit:10;}
	.FeatureTipsx4{fill:none;stroke:#000000;stroke-width:4;stroke-linecap:round;stroke-miterlimit:10;}
	.FeatureTipsx5{fill:none;stroke:#010101;stroke-width:5;stroke-miterlimit:10;}
	.FeatureTipsx6{fill:none;stroke:#010101;stroke-width:3;stroke-miterlimit:10;}
</style>
<g>
	<path class="FeatureTipsx0" d="M94.6,55.2c0-17.2-13.9-31.1-31.1-31.1c-17.2,0-31.1,13.9-31.1,31.1c0,12.4,7.2,23.1,17.7,28.1h0v17.8h25.8
		V83.7C86.9,78.9,94.6,67.9,94.6,55.2z"/>
	<polyline class="FeatureTipsx0" points="50.1,116.6 50.1,110.4 56.3,110.4 69.7,110.4 75.9,110.4 75.9,116.6 	"/>
	<line class="FeatureTipsx0" x1="69.7" y1="122.8" x2="56.3" y2="122.8"/>
	<line class="FeatureTipsx0" x1="69.7" y1="110.4" x2="56.3" y2="110.4"/>
	<path class="FeatureTipsx0" d="M75.9,116.6c0,1.7-0.7,3.3-1.8,4.4c-1.1,1.1-2.7,1.8-4.4,1.8H56.3c-3.4,0-6.2-2.8-6.2-6.2"/>
	<line class="FeatureTipsx1" x1="63.5" y1="16.9" x2="63.5" y2="5.2"/>
	<line class="FeatureTipsx1" x1="44.4" y1="20.9" x2="38.2" y2="11.1"/>
	<line class="FeatureTipsx1" x1="29.8" y1="35.9" x2="21" y2="30.1"/>
	<line class="FeatureTipsx1" x1="82.8" y1="22" x2="88" y2="11.1"/>
	<line class="FeatureTipsx1" x1="97.1" y1="35.6" x2="107" y2="31.2"/>
	<path class="FeatureTipsx1" d="M63,77.7c0,0,12.5,0,19.1-8.8"/>
	<path class="FeatureTipsx1" d="M85.4,53.9c0,0,2.6,6.2,0,9.1"/>
</g>
</svg>
