<?xml version="1.0" encoding="utf-8"?>
<!-- Generator: Adobe Illustrator 26.0.2, SVG Export Plug-In . SVG Version: 6.00 Build 0)  -->
<svg version="1.1" xmlns="http://www.w3.org/2000/svg" xmlns:xlink="http://www.w3.org/1999/xlink" x="0px" y="0px"
	 viewBox="0 0 128 128" style="enable-background:new 0 0 128 128;" xml:space="preserve">
<style type="text/css">
	.Featuresx0{fill:none;stroke:#000000;stroke-width:5;stroke-linecap:round;stroke-linejoin:round;stroke-miterlimit:10;}
	.Featuresx1{fill:none;stroke:#000000;stroke-width:2;stroke-linecap:round;stroke-miterlimit:10;}
	.Featuresx2{fill:#F89A1F;stroke:#F89A1F;stroke-miterlimit:10;}
	.Featuresx3{fill:none;stroke:#000000;stroke-width:5;stroke-linecap:round;stroke-miterlimit:10;}
	.Featuresx4{fill:none;stroke:#000000;stroke-width:5;stroke-miterlimit:10;}
	.Featuresx5{fill:none;stroke:#000000;stroke-width:2;stroke-linecap:round;stroke-linejoin:round;stroke-miterlimit:10;}
	.Featuresx6{fill:none;stroke:#000000;stroke-linecap:round;stroke-linejoin:round;stroke-miterlimit:10;}
	.Featuresx7{fill:none;stroke:#000000;stroke-width:5;stroke-linejoin:round;stroke-miterlimit:10;}
	.Featuresx8{fill:none;stroke:#000000;stroke-width:2;stroke-miterlimit:10;}
	.Featuresx9{fill:none;stroke:#000000;stroke-miterlimit:10;}
	.Featuresx10{fill:#F9BB16;}
	.Featuresx11{fill:#EA4435;}
	.Featuresx12{fill:#2FA952;}
	.Featuresx13{fill:#547DBF;}
	.Featuresx14{fill:none;stroke:#000000;stroke-width:3;stroke-linecap:round;stroke-linejoin:round;stroke-miterlimit:10;}
	.Featuresx15{stroke:#000000;stroke-miterlimit:10;}
	.Featuresx16{fill:none;stroke:#010101;stroke-width:5;stroke-miterlimit:10;}
	.Featuresx17{fill:none;stroke:#020202;stroke-width:5;stroke-miterlimit:10;}
</style>
<g id="Layer_1">
	<g>
		<path class="Featuresx0" d="M67.59,42.71c1.65-2.75,2.6-5.96,2.6-9.4C70.19,23.2,61.99,15,51.87,15c-10.11,0-18.31,8.2-18.31,18.31
			c0,10.12,8.2,18.32,18.31,18.32c2.98,0,5.79-0.71,8.28-1.98"/>
		<path class="Featuresx0" d="M67.59,42.71l29.94,29.94c1.98,1.99,1.98,5.2,0,7.19c-1.98,1.98-5.2,1.98-7.19,0L60.15,49.65"/>
		<path class="Featuresx0" d="M56.98,27.7l2.37,0.21c2.41,0.21,3.52,3.1,1.89,4.88l-1.61,1.75c-0.65,0.71-0.91,1.69-0.69,2.62l0.53,2.32
			c0.54,2.36-1.86,4.31-4.05,3.3l-2.17-0.99c-0.87-0.4-1.89-0.34-2.71,0.15l-2.04,1.22c-2.07,1.24-4.67-0.43-4.39-2.84l0.27-2.37
			c0.11-0.95-0.26-1.9-0.98-2.53l-1.79-1.57c-1.82-1.59-1.03-4.58,1.34-5.06l2.33-0.47c0.94-0.19,1.73-0.83,2.1-1.71l0.93-2.19
			c0.95-2.22,4.03-2.39,5.22-0.29l1.17,2.07C55.17,27.07,56.02,27.62,56.98,27.7z"/>
		<path class="Featuresx0" d="M35.2,60.34h12.09c3.78,0,7.5,0.85,10.91,2.47l1.69,0.81c1.41,0.67,2.7,1.56,3.82,2.64l20.5,19.6
			c0,0,6.06,13.89-9.69,9.6c-0.41-0.51-16.84-16.42-16.84-16.42"/>
		<path class="Featuresx0" d="M31.54,94.7h9.06l31.49,15.16h35.15c3.75,0,6.79-3.04,6.79-6.79v0c0-3.75-3.04-6.79-6.79-6.79H78.4"/>
		<polygon class="Featuresx0" points="22.82,108 13.98,113 13.98,60.34 22.82,60.34 		"/>
		<polygon class="Featuresx0" points="22.82,102 29.64,99 29.64,60.34 22.82,60.34 		"/>
		<polygon class="Featuresx0" points="81.24,56.36 90.4,48.72 105.18,64.64 97.53,72.65 		"/>
	</g>
</g>
<g id="Layer_2">
</g>
</svg>
