<?xml version="1.0" encoding="utf-8"?>
<!-- Generator: Adobe Illustrator 26.0.2, SVG Export Plug-In . SVG Version: 6.00 Build 0)  -->
<svg version="1.1" id="Layer_1" xmlns="http://www.w3.org/2000/svg" xmlns:xlink="http://www.w3.org/1999/xlink" x="0px" y="0px"
	 viewBox="0 0 128 128" style="enable-background:new 0 0 128 128;" xml:space="preserve">
<style type="text/css">
	.CloudComputex0{fill:none;stroke:#000000;stroke-width:5;stroke-miterlimit:10;}
	.CloudComputex1{stroke:#000000;stroke-width:5;stroke-miterlimit:10;}
	.CloudComputex2{fill:none;stroke:#000000;stroke-width:5;stroke-linejoin:round;stroke-miterlimit:10;}
	.CloudComputex3{fill:none;stroke:#000000;stroke-width:4;stroke-miterlimit:10;}
	.CloudComputex4{fill:none;stroke:#000000;stroke-width:3;stroke-miterlimit:10;}
	.CloudComputex5{fill:none;stroke:#FF0000;stroke-width:5;stroke-miterlimit:10;}
	.CloudComputex6{fill:none;stroke:#000000;stroke-width:2;stroke-miterlimit:10;}
	.CloudComputex7{stroke:#000000;stroke-miterlimit:10;}
	.CloudComputex8{fill:#FF0000;}
</style>
<g>
	<path class="CloudComputex0" d="M23.52,96.5C12.19,92.84,4,82.21,4,69.67c0-7.79,3.15-14.83,8.26-19.94s12.15-8.26,19.94-8.26h0
		c2.99,0,5.57-2.01,6.39-4.89c4.16-14.64,17.58-25.38,33.54-25.47c19.39-0.11,35.25,16.24,35.25,35.63v1.91v5.47
		c0,0.3-0.01,0.59-0.01,0.88c2.47,0.55,4.77,1.53,6.83,2.86c5.9,3.79,9.81,10.41,9.81,17.94c0,5.88-2.39,11.22-6.25,15.08
		c-3.3,3.3-7.68,5.52-12.55,6.09"/>
	<g>
		<rect x="44.62" y="59.38" class="CloudComputex0" width="43.49" height="43.49"/>
		<rect x="56.22" y="70.98" class="CloudComputex0" width="20.3" height="20.3"/>
		<g>
			<line class="CloudComputex0" x1="78.45" y1="58.9" x2="78.45" y2="45.45"/>
			<line class="CloudComputex0" x1="66.37" y1="58.9" x2="66.37" y2="45.45"/>
			<line class="CloudComputex0" x1="54.28" y1="58.9" x2="54.28" y2="45.45"/>
		</g>
		<g>
			<line class="CloudComputex0" x1="78.45" y1="116.89" x2="78.45" y2="102.42"/>
			<line class="CloudComputex0" x1="66.37" y1="116.89" x2="66.37" y2="102.42"/>
			<line class="CloudComputex0" x1="54.28" y1="116.89" x2="54.28" y2="102.42"/>
		</g>
		<g>
			<line class="CloudComputex0" x1="45.11" y1="69.53" x2="31.09" y2="69.53"/>
			<line class="CloudComputex0" x1="45.11" y1="81.61" x2="31.09" y2="81.61"/>
			<line class="CloudComputex0" x1="45.11" y1="93.69" x2="31.09" y2="93.69"/>
		</g>
		<g>
			<line class="CloudComputex0" x1="101.64" y1="69.53" x2="87.62" y2="69.53"/>
			<line class="CloudComputex0" x1="101.64" y1="81.61" x2="87.62" y2="81.61"/>
			<line class="CloudComputex0" x1="101.64" y1="93.69" x2="87.62" y2="93.69"/>
		</g>
	</g>
</g>
</svg>
