<?xml version="1.0" encoding="utf-8"?>
<!-- Generator: Adobe Illustrator 26.0.2, SVG Export Plug-In . SVG Version: 6.00 Build 0)  -->
<svg version="1.1" id="Layer_1" xmlns="http://www.w3.org/2000/svg" xmlns:xlink="http://www.w3.org/1999/xlink" x="0px" y="0px"
	 viewBox="0 0 128 128" style="enable-background:new 0 0 128 128;" xml:space="preserve">
<style type="text/css">
	.FindinPhysicalComputex0{fill:none;stroke:#000000;stroke-width:5;stroke-miterlimit:10;}
	.FindinPhysicalComputex1{fill:none;stroke:#000000;stroke-width:5;stroke-linecap:round;stroke-linejoin:round;stroke-miterlimit:10;}
</style>
<g>
	<rect x="38.9" y="40.4" class="FindinPhysicalComputex0" width="46" height="46"/>
	<line class="FindinPhysicalComputex0" x1="74.9" y1="39.9" x2="74.9" y2="24.3"/>
	<line class="FindinPhysicalComputex0" x1="61.9" y1="39.9" x2="61.9" y2="8.2"/>
	<line class="FindinPhysicalComputex0" x1="48.8" y1="39.9" x2="48.8" y2="7.2"/>
	<line class="FindinPhysicalComputex0" x1="74.6" y1="108.6" x2="74.6" y2="85.9"/>
	<line class="FindinPhysicalComputex0" x1="61.9" y1="103.5" x2="61.9" y2="85.9"/>
	<line class="FindinPhysicalComputex0" x1="49.1" y1="119.6" x2="49.1" y2="85.9"/>
	<circle class="FindinPhysicalComputex0" cx="61.9" cy="10.2" r="3.8"/>
	<circle class="FindinPhysicalComputex0" cx="74.9" cy="26.3" r="3.8"/>
	<circle class="FindinPhysicalComputex0" cx="48.8" cy="10.2" r="3.8"/>
	<circle class="FindinPhysicalComputex0" cx="23.7" cy="21.4" r="3.8"/>
	<circle class="FindinPhysicalComputex0" cx="97.7" cy="18.6" r="3.8"/>
	<circle class="FindinPhysicalComputex0" cx="61.9" cy="101.7" r="3.8"/>
	<circle class="FindinPhysicalComputex0" cx="74.9" cy="106.8" r="3.8"/>
	<circle class="FindinPhysicalComputex0" cx="48.8" cy="117.8" r="3.8"/>
	<line class="FindinPhysicalComputex0" x1="39.3" y1="49.4" x2="17.5" y2="49.4"/>
	<line class="FindinPhysicalComputex0" x1="39.3" y1="62.5" x2="5.9" y2="62.5"/>
	<line class="FindinPhysicalComputex0" x1="39.3" y1="75.6" x2="27.8" y2="75.6"/>
	<line class="FindinPhysicalComputex0" x1="122" y1="49.7" x2="85.3" y2="49.7"/>
	<line class="FindinPhysicalComputex0" x1="102.9" y1="62.5" x2="85.3" y2="62.5"/>
	<line class="FindinPhysicalComputex0" x1="122" y1="75.3" x2="85.3" y2="75.3"/>
	<circle class="FindinPhysicalComputex0" cx="7.8" cy="62.5" r="3.8"/>
	<circle class="FindinPhysicalComputex0" cx="19.4" cy="49.4" r="3.8"/>
	<circle class="FindinPhysicalComputex0" cx="29.8" cy="75.6" r="3.8"/>
	<circle class="FindinPhysicalComputex0" cx="23.7" cy="110.5" r="3.8"/>
	<circle class="FindinPhysicalComputex0" cx="105.9" cy="95.9" r="3.8"/>
	<circle class="FindinPhysicalComputex0" cx="101.1" cy="62.5" r="3.8"/>
	<circle class="FindinPhysicalComputex0" cx="120.2" cy="49.4" r="3.8"/>
	<circle class="FindinPhysicalComputex0" cx="120.2" cy="75.6" r="3.8"/>
	<polyline class="FindinPhysicalComputex0" points="38.9,86.4 23.8,101.4 23.8,112.5 	"/>
	<polyline class="FindinPhysicalComputex0" points="84.8,40.4 97.2,28.1 97.2,16.7 	"/>
	<polyline class="FindinPhysicalComputex0" points="84.8,86.4 97.2,96 107.9,96 	"/>
	<line class="FindinPhysicalComputex0" x1="38.9" y1="40.4" x2="22.2" y2="19.4"/>
	<g>
		<circle class="FindinPhysicalComputex1" cx="58" cy="58.4" r="10.2"/>
		<line class="FindinPhysicalComputex1" x1="76.2" y1="77.3" x2="64.7" y2="65.9"/>
	</g>
</g>
</svg>
