<?xml version="1.0" encoding="utf-8"?>
<!-- Generator: Adobe Illustrator 26.0.2, SVG Export Plug-In . SVG Version: 6.00 Build 0)  -->
<svg version="1.1" id="Layer_1" xmlns="http://www.w3.org/2000/svg" xmlns:xlink="http://www.w3.org/1999/xlink" x="0px" y="0px"
	 viewBox="0 0 128 128" style="enable-background:new 0 0 128 128;" xml:space="preserve">
<style type="text/css">
	.ForensicLogx0{fill:none;stroke:#000000;stroke-width:5;stroke-miterlimit:10;}
	.ForensicLogx1{fill:none;stroke:#000000;stroke-width:4;stroke-miterlimit:10;}
	.ForensicLogx2{fill:none;stroke:#000000;stroke-width:3;stroke-linecap:round;stroke-linejoin:round;stroke-miterlimit:10;}
	.ForensicLogx3{fill:none;stroke:#000000;stroke-width:3;stroke-miterlimit:10;}
	.ForensicLogx4{stroke:#000000;stroke-width:5;stroke-miterlimit:10;}
</style>
<g>
	<g>
		<path class="ForensicLogx0" d="M69.44,121.13h-56.7c-4.8,0-8.69-3.9-8.69-8.7V17.65c0-4.8,3.89-8.7,8.69-8.7h102.63c4.8,0,8.69,3.9,8.69,8.7
			v47.11"/>
	</g>
	<line class="ForensicLogx0" x1="41.67" y1="53.19" x2="107.62" y2="53.19"/>
	<line class="ForensicLogx0" x1="20.16" y1="53.19" x2="33.85" y2="53.19"/>
	<line class="ForensicLogx0" x1="41.67" y1="67.73" x2="99.16" y2="67.73"/>
	<line class="ForensicLogx0" x1="20.16" y1="67.73" x2="33.85" y2="67.73"/>
	<line class="ForensicLogx0" x1="41.67" y1="82.28" x2="86.94" y2="82.28"/>
	<line class="ForensicLogx0" x1="20.16" y1="82.28" x2="33.85" y2="82.28"/>
	<line class="ForensicLogx0" x1="41.67" y1="96.82" x2="73.3" y2="96.82"/>
	<line class="ForensicLogx0" x1="20.16" y1="96.82" x2="33.85" y2="96.82"/>
	<line class="ForensicLogx0" x1="4.33" y1="31.26" x2="124.05" y2="31.26"/>
	<g>
		<path class="ForensicLogx0" d="M84.41,121.13l5.01-16.79l20.41-20.41c1.57-1.57,3.66-2.44,5.89-2.44c2.23,0,4.32,0.87,5.89,2.44
			c3.25,3.25,3.25,8.53,0,11.78l-20.41,20.41L84.41,121.13z"/>
	</g>
</g>
</svg>
