<?xml version="1.0" encoding="UTF-8"?>
<svg xmlns="http://www.w3.org/2000/svg" xmlns:xlink="http://www.w3.org/1999/xlink" width="128px" height="128px" viewBox="0 0 128 128" version="1.1">
<g id="surface1">
<path style=" stroke:none;fill-rule:nonzero;fill:rgb(80%,80%,80%);fill-opacity:1;" d="M 112.953125 59.886719 L 112.953125 114.300781 L 95.851562 111.132812 L 88.3125 102.089844 L 56.546875 66.777344 L 83.515625 47.613281 C 97.027344 65.445312 97.453125 61.097656 97.453125 61.097656 C 97.453125 61.097656 104.125 51.136719 112.6875 59.695312 Z M 112.953125 59.886719 "/>
<path style=" stroke:none;fill-rule:nonzero;fill:rgb(31.764706%,55.686275%,97.254902%);fill-opacity:1;" d="M 47.675781 55.777344 L 103.753906 127.949219 C 103.425781 127.984375 103.09375 128 102.765625 128 L 11.085938 128 Z M 47.675781 55.777344 "/>
<path style=" stroke:none;fill-rule:nonzero;fill:rgb(15.686275%,70.588235%,27.45098%);fill-opacity:1;" d="M 83.515625 47.613281 L 0.113281 117.8125 L 0.113281 25.347656 C 0.113281 19.71875 4.675781 15.160156 10.300781 15.160156 L 71.121094 15.160156 C 68.511719 19.648438 78.195312 22.53125 78.195312 28.097656 C 78.195312 33.699219 80.875 43.105469 83.515625 47.613281 Z M 83.515625 47.613281 "/>
<path style=" stroke:none;fill-rule:nonzero;fill:rgb(94.901961%,94.901961%,94.901961%);fill-opacity:1;" d="M 112.953125 114.300781 L 112.953125 117.8125 C 112.953125 123.101562 108.917969 127.453125 103.753906 127.949219 L 56.828125 81.640625 L 68.1875 70.128906 L 94.402344 96 L 95.851562 97.429688 Z M 112.953125 114.300781 "/>
<path style=" stroke:none;fill-rule:nonzero;fill:rgb(100%,84.705882%,21.568627%);fill-opacity:1;" d="M 80.628906 57.523438 L 68.1875 70.128906 L 56.828125 81.640625 L 11.085938 128 L 10.300781 128 C 4.675781 128 0.113281 123.4375 0.113281 117.8125 L 71.175781 45.796875 C 72.507812 48.074219 81.65625 45.769531 83.515625 47.613281 L 86.933594 52.007812 C 88.601562 53.785156 79.195312 55.632812 80.628906 57.523438 Z M 80.628906 57.523438 "/>
<path style=" stroke:none;fill-rule:nonzero;fill:rgb(100%,100%,100%);fill-opacity:1;" d="M 26.726562 56.945312 C 17.773438 56.945312 10.492188 49.660156 10.492188 40.710938 C 10.492188 31.757812 17.773438 24.472656 26.726562 24.472656 C 31.058594 24.472656 35.136719 26.164062 38.203125 29.230469 L 34.4375 32.996094 C 32.378906 30.933594 29.636719 29.796875 26.726562 29.796875 C 20.710938 29.796875 15.8125 34.691406 15.8125 40.707031 C 15.8125 46.726562 20.710938 51.621094 26.726562 51.621094 C 31.824219 51.621094 36.117188 48.105469 37.308594 43.371094 L 26.726562 43.371094 L 26.726562 38.046875 L 42.960938 38.046875 L 42.960938 40.707031 C 42.960938 49.660156 35.679688 56.945312 26.726562 56.945312 Z M 26.726562 56.945312 "/>
<path style=" stroke:none;fill-rule:nonzero;fill:rgb(94.509804%,26.27451%,21.176471%);fill-opacity:1;" d="M 71.121094 15.160156 C 76.390625 6.097656 86.210938 0 97.453125 0 C 114.261719 0 127.886719 13.625 127.886719 30.4375 C 127.886719 34.652344 127.03125 38.664062 125.480469 42.316406 C 123.941406 45.941406 121.714844 49.230469 118.921875 52.007812 C 116.613281 54.460938 114.546875 57.050781 112.6875 59.695312 C 100.503906 77.054688 97.453125 96.867188 97.453125 96.867188 C 97.453125 96.867188 94.136719 75.351562 80.628906 57.523438 C 79.195312 55.632812 77.648438 53.785156 75.980469 52.007812 L 75.984375 52.007812 C 74.117188 50.15625 72.5 48.066406 71.175781 45.796875 C 68.53125 41.289062 67.015625 36.039062 67.015625 30.4375 C 67.015625 24.867188 68.511719 19.648438 71.121094 15.160156 Z M 71.121094 15.160156 "/>
<path style=" stroke:none;fill-rule:nonzero;fill:rgb(49.411765%,17.647059%,14.509804%);fill-opacity:1;" d="M 97.453125 14.238281 C 106.398438 14.238281 113.648438 21.492188 113.648438 30.4375 C 113.648438 39.382812 106.398438 46.632812 97.453125 46.632812 C 88.507812 46.632812 81.253906 39.382812 81.253906 30.4375 C 81.253906 21.492188 88.507812 14.238281 97.453125 14.238281 Z M 97.453125 14.238281 "/>
</g>
</svg>
