<?xml version="1.0" encoding="utf-8"?>
<!-- Generator: Adobe Illustrator 26.0.2, SVG Export Plug-In . SVG Version: 6.00 Build 0)  -->
<svg version="1.1" id="Layer_1" xmlns="http://www.w3.org/2000/svg" xmlns:xlink="http://www.w3.org/1999/xlink" x="0px" y="0px"
	 viewBox="0 0 128 128" style="enable-background:new 0 0 128 128;" xml:space="preserve">
<style type="text/css">
	.Homex0{fill:none;stroke:#010101;stroke-width:5;stroke-miterlimit:10;}
	.Homex1{fill:none;stroke:#010101;stroke-width:3;stroke-miterlimit:10;}
	.Homex2{fill:none;stroke:#010101;stroke-width:2;stroke-miterlimit:10;}
	.Homex3{fill:none;stroke:#010101;stroke-width:5;stroke-linecap:round;stroke-linejoin:round;stroke-miterlimit:10;}
	.Homex4{fill:#010101;stroke:#010101;stroke-width:5;stroke-miterlimit:10;}
	.Homex5{fill:#010101;}
	.Homex6{fill:none;stroke:#000000;stroke-width:5;stroke-linecap:round;stroke-miterlimit:10;}
	.Homex7{fill:none;stroke:#000000;stroke-width:5;stroke-miterlimit:10;}
	.Homex8{fill:none;stroke:#000000;stroke-width:5;stroke-linecap:round;stroke-linejoin:round;stroke-miterlimit:10;}
</style>
<g>
	<path class="Homex6" d="M112.46,45.24L112.46,45.24c0.03,0.18,0.04,0.33,0.04,0.5v72.24c0,2.07-1.67,3.73-3.73,3.73H19.51
		c-2.06,0-3.73-1.66-3.73-3.73v-52.2"/>
	<path class="Homex7" d="M82.26,121.72H46.24v-49.1c0-2.93,2.38-5.31,5.31-5.31h25.41c2.93,0,5.31,2.38,5.31,5.31V121.72z"/>
	<path class="Homex8" d="M4.14,55.7l55.31-45.48c2.8-2.31,6.84-2.32,9.67-0.04l55.03,44.52"/>
	<circle class="Homex8" cx="58.38" cy="98.17" r="4.68"/>
</g>
</svg>
