<?xml version="1.0" encoding="utf-8"?>
<!-- Generator: Adobe Illustrator 26.0.2, SVG Export Plug-In . SVG Version: 6.00 Build 0)  -->
<svg version="1.1" id="Layer_1" xmlns="http://www.w3.org/2000/svg" xmlns:xlink="http://www.w3.org/1999/xlink" x="0px" y="0px"
	 viewBox="0 0 128 128" style="enable-background:new 0 0 128 128;" xml:space="preserve">
<style type="text/css">
	.ImportDevicesToSitex0{fill:none;stroke:#000000;stroke-width:5;stroke-miterlimit:10;}
</style>
<g>
	<g>
		<polyline class="ImportDevicesToSitex0" points="80.7,12.6 119.8,37.1 102,48.2 83.2,60.1 80.7,61.6 64.8,71.6 64,72 47.3,61.6 44.8,60.1 26,48.2 
			8.2,37.1 47.3,12.6 		"/>
		<polyline class="ImportDevicesToSitex0" points="80.7,34.9 102,48.2 119.8,59.4 100.9,71.2 80.7,83.9 64,94.3 47.3,83.9 27.1,71.2 8.2,59.4 26,48.2 
			47.3,34.9 		"/>
		<polyline class="ImportDevicesToSitex0" points="100.9,71.2 119.8,83 64,117.9 8.2,83 27.1,71.2 		"/>
	</g>
	<g>
		<polyline class="ImportDevicesToSitex0" points="77,44.8 64.4,56.7 51,44.6 		"/>
		<line class="ImportDevicesToSitex0" x1="64.4" y1="56.3" x2="64.4" y2="10.1"/>
	</g>
</g>
</svg>
