<?xml version="1.0" encoding="utf-8"?>
<!-- Generator: Adobe Illustrator 26.0.2, SVG Export Plug-In . SVG Version: 6.00 Build 0)  -->
<svg version="1.1" xmlns="http://www.w3.org/2000/svg" xmlns:xlink="http://www.w3.org/1999/xlink" x="0px" y="0px"
	 viewBox="0 0 128 128" style="enable-background:new 0 0 128 128;" xml:space="preserve">
<style type="text/css">
	.ImportPowerCablesx0{fill:none;stroke:#000000;stroke-width:5;stroke-linejoin:round;stroke-miterlimit:10;}
	.ImportPowerCablesx1{fill:none;stroke:#010101;stroke-width:5;stroke-linejoin:round;stroke-miterlimit:10;}
	.ImportPowerCablesx2{fill:none;stroke:#010101;stroke-width:5;stroke-miterlimit:10;}
	.ImportPowerCablesx3{fill:none;stroke:#000000;stroke-width:4;stroke-miterlimit:10;}
	.ImportPowerCablesx4{fill:none;stroke:#000000;stroke-miterlimit:10;}
	.ImportPowerCablesx5{fill:none;stroke:#000000;stroke-width:5;stroke-miterlimit:10;}
	.ImportPowerCablesx6{fill:none;stroke:#000000;stroke-width:5;stroke-linecap:round;stroke-linejoin:round;stroke-miterlimit:10;}
	.ImportPowerCablesx7{fill:none;stroke:#020202;stroke-width:5;stroke-linecap:round;stroke-miterlimit:10;}
	.ImportPowerCablesx8{fill:none;stroke:#020202;stroke-width:5;stroke-miterlimit:10;}
	.ImportPowerCablesx9{fill:none;stroke:#020202;stroke-width:5;stroke-linecap:round;stroke-linejoin:round;stroke-miterlimit:10;}
	.ImportPowerCablesx10{fill:none;stroke:#010101;stroke-width:5;stroke-linecap:round;stroke-miterlimit:10;}
	.ImportPowerCablesx11{fill:none;stroke:#010101;stroke-miterlimit:10;}
	.ImportPowerCablesx12{fill:none;stroke:#000000;stroke-width:5;stroke-linecap:round;stroke-miterlimit:10;}
	.ImportPowerCablesx13{fill:none;stroke:#000000;stroke-width:4;stroke-linecap:round;stroke-linejoin:round;stroke-miterlimit:10;}
</style>
<g id="Layer_1">
</g>
<g id="Layer_2">
	<g>
		<g>
			<g>
				<polyline class="ImportPowerCablesx1" points="39.03,76.11 64.21,100.37 88.97,76.39 				"/>
				<line class="ImportPowerCablesx1" x1="64.21" y1="99.78" x2="64.21" y2="9.61"/>
			</g>
			<path class="ImportPowerCablesx2" d="M124,104.45c0,7.7-6.24,13.94-13.94,13.94H17.94c-7.7,0-13.94-6.24-13.94-13.94"/>
		</g>
		<g>
			<line class="ImportPowerCablesx2" x1="102.3" y1="91.34" x2="102.3" y2="25.23"/>
			<g>
				<path class="ImportPowerCablesx2" d="M96.46,12.66h11.68v8.27c0,2.3-1.86,4.16-4.16,4.16h-3.35c-2.3,0-4.16-1.86-4.16-4.16L96.46,12.66
					L96.46,12.66z"/>
				<line class="ImportPowerCablesx2" x1="111" y1="12.66" x2="93.6" y2="12.66"/>
				<g>
					<line class="ImportPowerCablesx2" x1="105.15" y1="12.7" x2="105.15" y2="8.14"/>
					<line class="ImportPowerCablesx2" x1="99.45" y1="12.7" x2="99.45" y2="8.14"/>
				</g>
			</g>
			<g>
				<path class="ImportPowerCablesx2" d="M108.14,103.91H96.46v-8.27c0-2.3,1.86-4.16,4.16-4.16h3.35c2.3,0,4.16,1.86,4.16,4.16L108.14,103.91
					L108.14,103.91z"/>
				<line class="ImportPowerCablesx2" x1="93.6" y1="103.91" x2="111" y2="103.91"/>
				<g>
					<line class="ImportPowerCablesx2" x1="99.45" y1="103.87" x2="99.45" y2="108.43"/>
					<line class="ImportPowerCablesx2" x1="105.15" y1="103.87" x2="105.15" y2="108.43"/>
				</g>
			</g>
		</g>
	</g>
</g>
</svg>
