<svg id="Layer_1" data-name="Layer 1" xmlns="http://www.w3.org/2000/svg" viewBox="0 0 128 128"><defs><style>.cls-1{fill:none;stroke:#000;stroke-miterlimit:10;stroke-width:5px;}</style></defs><rect class="cls-1" x="25.03" y="14.97" width="77.95" height="109.03"/><rect class="cls-1" x="46.83" y="111.66" width="34.33" height="12.34"/><line class="cls-1" x1="25.03" y1="111.66" x2="102.97" y2="111.66"/><line class="cls-1" x1="38.48" y1="35.89" x2="90.45" y2="35.89"/><line class="cls-1" x1="38.02" y1="57.83" x2="89.98" y2="57.83"/><line class="cls-1" x1="37.55" y1="79.77" x2="89.52" y2="79.77"/><line class="cls-1" x1="12.03" y1="124" x2="115.97" y2="124"/><path class="cls-1" d="M39.76,4H88.24a3.14,3.14,0,0,1,3.14,3.14V15a0,0,0,0,1,0,0H36.62a0,0,0,0,1,0,0V7.14A3.14,3.14,0,0,1,39.76,4Z"/></svg>