<?xml version="1.0" encoding="utf-8"?>
<!-- Generator: Adobe Illustrator 26.0.2, SVG Export Plug-In . SVG Version: 6.00 Build 0)  -->
<svg version="1.1" id="Layer_1" xmlns="http://www.w3.org/2000/svg" xmlns:xlink="http://www.w3.org/1999/xlink" x="0px" y="0px"
	 viewBox="0 0 128 128" style="enable-background:new 0 0 128 128;" xml:space="preserve">
<style type="text/css">
	.InstanceConfigurationx0{fill:none;stroke:#000000;stroke-width:5;stroke-miterlimit:10;}
	.InstanceConfigurationx1{fill:none;stroke:#000000;stroke-width:5;stroke-linecap:round;stroke-miterlimit:10;}
	.InstanceConfigurationx2{fill:none;stroke:#000000;stroke-width:5;stroke-linecap:round;stroke-linejoin:round;stroke-miterlimit:21.3333;}
	.InstanceConfigurationx3{fill:#FFFFFF;fill-opacity:0;stroke:#000000;stroke-width:5;stroke-linecap:round;stroke-miterlimit:10;}
	.InstanceConfigurationx4{fill:none;stroke:#000000;stroke-width:4;stroke-linecap:round;stroke-miterlimit:10;}
	.InstanceConfigurationx5{fill:none;stroke:#010101;stroke-width:5;stroke-miterlimit:10;}
	.InstanceConfigurationx6{fill:none;stroke:#010101;stroke-width:3;stroke-miterlimit:10;}
</style>
<g>
	<path class="InstanceConfigurationx3" d="M48.5,71.3c-4.1-4-6.6-9.6-6.6-15.8c0-12.2,9.9-22.2,22.2-22.2s22.2,9.9,22.2,22.2c0,6.2-2.5,11.8-6.6,15.8
		 M48.5,90.6l-0.8-0.3c-1.6-0.7-3.4-0.5-4.8,0.4l-4.6,2.9c-3,1.7-5.8,2.1-8.4,0l-4-4c-2.1-2.6-1.7-5.4,0-8.4l2.9-4.6
		c0.9-1.4,1.1-3.2,0.4-4.8l-1.4-3.4c-0.6-1.6-2-2.7-3.7-3.1l-5.3-1.2c-3.3-0.9-5.6-2.6-5.9-5.9v-5.6c0.3-3.3,2.6-5.1,5.9-5.9
		l5.3-1.2c1.7-0.4,3-1.5,3.7-3.1l1.4-3.4c0.7-1.6,0.5-3.4-0.4-4.8l-2.9-4.6c-1.7-3-2.1-5.8,0-8.4l4-4c2.6-2.2,5.4-1.7,8.4,0l4.6,2.9
		c1.4,0.9,3.2,1.1,4.8,0.4l3.4-1.4c1.6-0.6,2.7-2,3.1-3.7l1.2-5.3c0.9-3.3,2.6-5.6,5.9-5.9h5.6c3.3,0.3,5.1,2.6,5.9,5.9l1.2,5.3
		c0.4,1.7,1.5,3,3.1,3.7l3.4,1.4c1.6,0.6,3.4,0.5,4.8-0.4l4.6-2.9c3-1.7,5.8-2.2,8.4,0l4,4c2.1,2.6,1.7,5.4,0,8.4l-2.9,4.6
		c-0.9,1.4-1.1,3.2-0.4,4.8l1.4,3.4c0.7,1.6,2,2.7,3.7,3.1l5.3,1.2c3.3,0.9,5.6,2.6,5.9,5.9v5.6c-0.3,3.3-2.6,5.1-5.9,5.9l-5.3,1.2
		c-1.7,0.4-3,1.5-3.7,3.1l-1.4,3.4c-0.7,1.6-0.5,3.4,0.4,4.8l2.9,4.6c1.7,3,2.1,5.8,0,8.4l-4,4c-2.6,2.1-5.4,1.7-8.4,0l-4.6-2.9
		c-1.4-0.9-3.2-1.1-4.8-0.4l-0.8,0.3"/>
	<path class="InstanceConfigurationx4" d="M68.3,106.3c2.6,1.7,4.4,4.6,4.4,7.9c0,5.2-4.2,9.4-9.4,9.4c-5.2,0-9.4-4.2-9.4-9.4c0-3.4,1.8-6.3,4.4-7.9
		V62.8c-3.1-1.9-5.1-5.3-5.1-9.1c0-3.9,2-7.2,5.1-9.1l2,10.8l3.6,1.6l4-0.8l1-11.9c3.4,1.8,5.7,5.4,5.7,9.5c0,4.4-2.6,8.1-6.4,9.8
		V106.3z"/>
</g>
</svg>
