<?xml version="1.0" encoding="utf-8"?>
<!-- Generator: Adobe Illustrator 26.0.2, SVG Export Plug-In . SVG Version: 6.00 Build 0)  -->
<svg version="1.1" id="Layer_1" xmlns="http://www.w3.org/2000/svg" xmlns:xlink="http://www.w3.org/1999/xlink" x="0px" y="0px"
	 viewBox="0 0 128 128" style="enable-background:new 0 0 128 128;" xml:space="preserve">
<style type="text/css">
	.InventoryStoreHierarchyx0{fill:none;stroke:#000000;stroke-width:5;stroke-miterlimit:10;}
</style>
<g>
	<circle class="InventoryStoreHierarchyx0" cx="64.1" cy="71.9" r="3.3"/>
	<path class="InventoryStoreHierarchyx0" d="M47.2,81v-4.9c0-2.4,1.9-4.3,4.3-4.3h9.3"/>
	<path class="InventoryStoreHierarchyx0" d="M67.4,71.9h9.3c2.4,0,4.3,1.9,4.3,4.3V81"/>
	<line class="InventoryStoreHierarchyx0" x1="64.1" y1="63" x2="64.1" y2="68.6"/>
	<path class="InventoryStoreHierarchyx0" d="M76.3,58.8H51.7c-1.2,0-2.1-0.9-2.1-2.1v-14c0-1.2,0.9-2.1,2.1-2.1h24.6c1.2,0,2.1,0.9,2.1,2.1v14
		C78.4,57.9,77.4,58.8,76.3,58.8z"/>
	<g>
		<line class="InventoryStoreHierarchyx0" x1="60" y1="58.7" x2="60" y2="63"/>
		<line class="InventoryStoreHierarchyx0" x1="68" y1="58.7" x2="68" y2="63"/>
	</g>
	<path class="InventoryStoreHierarchyx0" d="M93.2,99.2H68.6c-1.2,0-2.1-0.9-2.1-2.1v-14c0-1.2,0.9-2.1,2.1-2.1h24.6c1.2,0,2.1,0.9,2.1,2.1v14
		C95.3,98.3,94.3,99.2,93.2,99.2z"/>
	<g>
		<line class="InventoryStoreHierarchyx0" x1="76.9" y1="99.1" x2="76.9" y2="103.4"/>
		<line class="InventoryStoreHierarchyx0" x1="84.9" y1="99.1" x2="84.9" y2="103.4"/>
	</g>
	<path class="InventoryStoreHierarchyx0" d="M59.4,99.2H34.8c-1.2,0-2.1-0.9-2.1-2.1v-14c0-1.2,0.9-2.1,2.1-2.1h24.6c1.2,0,2.1,0.9,2.1,2.1v14
		C61.5,98.3,60.6,99.2,59.4,99.2z"/>
	<g>
		<line class="InventoryStoreHierarchyx0" x1="43.1" y1="99.1" x2="43.1" y2="103.4"/>
		<line class="InventoryStoreHierarchyx0" x1="51.1" y1="99.1" x2="51.1" y2="103.4"/>
	</g>
	<line class="InventoryStoreHierarchyx0" x1="39.5" y1="103.3" x2="54.7" y2="103.3"/>
	<line class="InventoryStoreHierarchyx0" x1="73.3" y1="103.3" x2="88.5" y2="103.3"/>
	<line class="InventoryStoreHierarchyx0" x1="56.4" y1="63" x2="71.6" y2="63"/>
</g>
<g>
	<rect x="4" y="8.3" class="InventoryStoreHierarchyx0" width="120" height="19.5"/>
	<rect x="6.4" y="27.8" class="InventoryStoreHierarchyx0" width="115.2" height="91.8"/>
</g>
</svg>
