<?xml version="1.0" encoding="utf-8"?>
<!-- Generator: Adobe Illustrator 26.0.2, SVG Export Plug-In . SVG Version: 6.00 Build 0)  -->
<svg version="1.1" id="Layer_1" xmlns="http://www.w3.org/2000/svg" xmlns:xlink="http://www.w3.org/1999/xlink" x="0px" y="0px"
	 viewBox="0 0 128 128" style="enable-background:new 0 0 128 128;" xml:space="preserve">
<style type="text/css">
	.ITServicex0{fill:none;stroke:#000000;stroke-width:5;stroke-miterlimit:10;}
	.ITServicex1{stroke:#000000;stroke-width:5;stroke-miterlimit:10;}
	.ITServicex2{fill:none;stroke:#000000;stroke-width:5;stroke-linejoin:round;stroke-miterlimit:10;}
	.ITServicex3{fill:none;stroke:#000000;stroke-width:4;stroke-miterlimit:10;}
	.ITServicex4{fill:none;stroke:#000000;stroke-width:3;stroke-miterlimit:10;}
	.ITServicex5{fill:none;stroke:#FF0000;stroke-width:5;stroke-miterlimit:10;}
	.ITServicex6{fill:none;stroke:#000000;stroke-width:2;stroke-miterlimit:10;}
	.ITServicex7{stroke:#000000;stroke-miterlimit:10;}
	.ITServicex8{fill:#FF0000;}
</style>
<g>
	<g>
		<path class="ITServicex0" d="M79.13,75.96c0.54-1.59,0.84-3.31,0.84-5.09c0-8.82-7.15-15.98-15.97-15.98s-15.97,7.16-15.97,15.98
			c0,1.77,0.3,3.5,0.84,5.09"/>
		<g>
			<path class="ITServicex0" d="M28.82,75.96c-0.94-0.7-1.52-1.69-1.64-3.06v-4.07c0.2-2.39,1.87-3.65,4.27-4.27l3.83-0.84
				c1.2-0.27,2.19-1.1,2.66-2.23l1-2.44c0.47-1.12,0.35-2.41-0.3-3.45l-2.13-3.3c-1.24-2.14-1.54-4.2,0-6.04l2.88-2.88
				c1.84-1.56,3.92-1.26,6.06,0l3.3,2.11c1.02,0.67,2.31,0.79,3.45,0.32l2.43-1c1.14-0.47,1.96-1.47,2.23-2.66l0.84-3.83
				c0.62-2.39,1.87-4.07,4.27-4.27h4.08c2.39,0.2,3.65,1.87,4.27,4.27l0.84,3.83c0.27,1.19,1.09,2.19,2.23,2.66l2.43,1
				c1.14,0.47,2.43,0.35,3.45-0.32l3.3-2.11c2.14-1.26,4.22-1.56,6.06,0l2.88,2.88c1.54,1.84,1.24,3.9,0,6.04l-2.13,3.3
				c-0.65,1.04-0.77,2.33-0.3,3.45l1,2.44c0.47,1.12,1.46,1.96,2.66,2.23l3.83,0.84c2.39,0.62,4.07,1.87,4.27,4.27v4.07
				c-0.12,1.37-0.7,2.36-1.64,3.06"/>
		</g>
	</g>
	<path class="ITServicex0" d="M112.41,24.82h1.72c5.44,0,9.87,3.72,9.87,8.29v33.12v0.18v22.02c0,4.58-4.43,8.3-9.87,8.3H69.48h-5.47H64
		h-0.01h-5.47H13.87c-5.44,0-9.87-3.72-9.87-8.3V66.41v-0.18V33.11c0-4.57,4.43-8.29,9.87-8.29h1.72"/>
	<line class="ITServicex0" x1="63.99" y1="122.95" x2="63.99" y2="96.75"/>
	<line class="ITServicex0" x1="25.38" y1="122.95" x2="102.61" y2="122.95"/>
	<path class="ITServicex0" d="M104.23,75.96H23.77c-4.52,0-8.18-3.66-8.18-8.18V13.23c0-4.52,3.66-8.18,8.18-8.18h80.46
		c4.52,0,8.18,3.66,8.18,8.18v54.55C112.41,72.3,108.75,75.96,104.23,75.96z"/>
</g>
</svg>
