<svg id="Layer_1" data-name="Layer 1" xmlns="http://www.w3.org/2000/svg" viewBox="0 0 128 128"><defs><style>.cls-1{fill:none;stroke:#000;stroke-miterlimit:10;stroke-width:5px;}</style></defs><path class="cls-1" d="M79.13,76A16.16,16.16,0,0,0,80,70.87a16,16,0,1,0-31.94,0A16.16,16.16,0,0,0,48.87,76"/><path class="cls-1" d="M28.82,76a4.05,4.05,0,0,1-1.64-3.06V68.83c.2-2.39,1.88-3.65,4.27-4.27l3.83-.84a3.74,3.74,0,0,0,2.66-2.22l1-2.44a3.77,3.77,0,0,0-.3-3.45l-2.13-3.3c-1.24-2.14-1.54-4.2,0-6l2.88-2.88c1.84-1.56,3.91-1.25,6.06,0l3.29,2.11a3.71,3.71,0,0,0,3.45.32l2.43-1a3.73,3.73,0,0,0,2.22-2.66l.84-3.83c.62-2.39,1.88-4.07,4.27-4.27H66c2.39.2,3.65,1.88,4.27,4.27l.84,3.83a3.73,3.73,0,0,0,2.22,2.66l2.43,1a3.71,3.71,0,0,0,3.45-.32l3.29-2.11c2.15-1.25,4.22-1.56,6.06,0l2.88,2.88c1.54,1.84,1.24,3.9,0,6l-2.13,3.3a3.77,3.77,0,0,0-.3,3.45l1,2.44a3.74,3.74,0,0,0,2.66,2.22l3.83.84c2.39.62,4.07,1.88,4.27,4.27V72.9A4.05,4.05,0,0,1,99.18,76"/><path class="cls-1" d="M112.41,24.82h1.72c5.44,0,9.87,3.73,9.87,8.29V88.44c0,4.58-4.43,8.3-9.87,8.3H13.87C8.43,96.74,4,93,4,88.44V33.11c0-4.56,4.43-8.29,9.87-8.29h1.72"/><line class="cls-1" x1="63.99" y1="122.95" x2="63.99" y2="96.75"/><line class="cls-1" x1="25.38" y1="122.95" x2="102.61" y2="122.95"/><rect class="cls-1" x="15.59" y="5.05" width="96.82" height="70.91" rx="8.18"/></svg>