<?xml version="1.0" encoding="utf-8"?>
<!-- Generator: Adobe Illustrator 26.0.2, SVG Export Plug-In . SVG Version: 6.00 Build 0)  -->
<svg version="1.1" xmlns="http://www.w3.org/2000/svg" xmlns:xlink="http://www.w3.org/1999/xlink" x="0px" y="0px"
	 viewBox="0 0 128 128" style="enable-background:new 0 0 128 128;" xml:space="preserve">
<style type="text/css">
	.LaborChargex0{fill:none;stroke:#000000;stroke-width:5;stroke-linecap:round;stroke-linejoin:round;stroke-miterlimit:10;}
	.LaborChargex1{fill:none;stroke:#000000;stroke-width:2;stroke-linecap:round;stroke-miterlimit:10;}
	.LaborChargex2{fill:#F89A1F;stroke:#F89A1F;stroke-miterlimit:10;}
	.LaborChargex3{fill:none;stroke:#000000;stroke-width:5;stroke-linecap:round;stroke-miterlimit:10;}
	.LaborChargex4{fill:none;stroke:#000000;stroke-width:5;stroke-miterlimit:10;}
	.LaborChargex5{fill:none;stroke:#000000;stroke-width:2;stroke-linecap:round;stroke-linejoin:round;stroke-miterlimit:10;}
	.LaborChargex6{fill:none;stroke:#000000;stroke-linecap:round;stroke-linejoin:round;stroke-miterlimit:10;}
	.LaborChargex7{fill:none;stroke:#000000;stroke-width:5;stroke-linejoin:round;stroke-miterlimit:10;}
	.LaborChargex8{fill:none;stroke:#000000;stroke-width:2;stroke-miterlimit:10;}
	.LaborChargex9{fill:none;stroke:#000000;stroke-miterlimit:10;}
	.LaborChargex10{fill:#F9BB16;}
	.LaborChargex11{fill:#EA4435;}
	.LaborChargex12{fill:#2FA952;}
	.LaborChargex13{fill:#547DBF;}
	.LaborChargex14{fill:none;stroke:#000000;stroke-width:3;stroke-linecap:round;stroke-linejoin:round;stroke-miterlimit:10;}
	.LaborChargex15{stroke:#000000;stroke-miterlimit:10;}
	.LaborChargex16{fill:none;stroke:#010101;stroke-width:5;stroke-miterlimit:10;}
	.LaborChargex17{fill:none;stroke:#020202;stroke-width:5;stroke-miterlimit:10;}
	.LaborChargex18{fill:none;stroke:#020202;stroke-width:5;stroke-linecap:round;stroke-linejoin:round;stroke-miterlimit:10;}
	.LaborChargex19{fill:none;stroke:#000000;stroke-width:3;stroke-linecap:round;stroke-miterlimit:10;}
	.LaborChargex20{fill:none;stroke:#000000;stroke-width:3;stroke-miterlimit:10;}
</style>
<g id="Layer_1">
</g>
<g id="Layer_2">
	<g>
		<g>
			<circle class="LaborChargex4" cx="64" cy="25.93" r="12.73"/>
			<path class="LaborChargex4" d="M87.4,63.1v-9.98c0-8.21-6.66-14.87-14.87-14.87H55.47c-8.21,0-14.87,6.66-14.87,14.87v9.98"/>
		</g>
		<g>
			<circle class="LaborChargex4" cx="28.07" cy="35.79" r="12.73"/>
			<path class="LaborChargex4" d="M4.66,72.97v-9.98c0-8.21,6.66-14.87,14.87-14.87h5.29h6.49h5.29c1.61,0,3.17,0.26,4.62,0.73"/>
		</g>
		<g>
			<circle class="LaborChargex4" cx="99.93" cy="35.79" r="12.73"/>
			<path class="LaborChargex4" d="M86.78,48.84c1.46-0.47,3.01-0.73,4.62-0.73h5.29h6.49h5.29c8.21,0,14.87,6.66,14.87,14.87v9.98"/>
		</g>
		<g>
			<circle class="LaborChargex20" cx="63.99" cy="88.01" r="26.79"/>
			<path class="LaborChargex20" d="M66.4,85.54c-0.21-0.03-0.36-0.21-0.36-0.44v-7.62c0-0.3,0.3-0.52,0.6-0.42c1.12,0.42,3.6,1.45,5.32,3.01
				c0.18,0.17,0.47,0.15,0.63-0.04c0.64-0.77,2.02-2.68,2.58-3.47c0.13-0.19,0.1-0.46-0.09-0.61c-1.11-0.85-4.87-3.51-9.08-4.14
				v-2.14c0-0.25-0.2-0.44-0.44-0.44h-3.18c-0.25,0-0.44,0.2-0.44,0.44v2.27c-0.22,0.06-0.46,0.12-0.69,0.19
				c-0.04,0.01-0.08,0.02-0.12,0.02c-0.66,0.04-8.41,1.83-8.55,8.53l0.01,0.12c0.07,0.44-1.22,6.7,8.94,9.26
				c0.18,0.04,0.31,0.21,0.33,0.4c0.08,1.31,0,6.13-0.03,7.8c0,0.29-0.29,0.51-0.57,0.42c-1.16-0.37-3.91-1.38-6.29-3.39
				c-0.18-0.15-0.45-0.13-0.61,0.03c-0.67,0.73-2.08,2.72-2.62,3.48c-0.12,0.18-0.1,0.42,0.06,0.57c0.95,0.91,4.42,3.85,9.57,4.47
				c0.21,0.02,0.38,0.2,0.38,0.43c0.01,0.53-0.01,1.48-0.02,2.04c-0.01,0.25,0.19,0.45,0.44,0.45h3.37c0.25,0,0.44-0.2,0.44-0.44
				v-1.82c0-0.24,0.19-0.44,0.43-0.44c1.81-0.03,8.74-0.69,9.83-8.75C77.36,87.85,68.35,85.87,66.4,85.54z M62.13,84.11
				c0,0.27-0.25,0.48-0.52,0.44c-2.47-0.43-3.25-2.75-3.4-3.1c-0.01-0.03-0.03-0.07-0.03-0.1c-0.48-2.64,2.13-4,3.36-4.48
				c0.29-0.11,0.61,0.1,0.61,0.42v6.83H62.13z M70.67,95.84c-0.01,0.04-0.02,0.08-0.04,0.12c-0.19,0.35-1.12,2.72-4.1,3.11
				c-0.27,0.03-0.51-0.17-0.51-0.44v-6.88c0-0.3,0.29-0.52,0.57-0.42C67.96,91.78,71.23,93.14,70.67,95.84z"/>
		</g>
	</g>
</g>
</svg>
