<?xml version="1.0" encoding="utf-8"?>
<!-- Generator: Adobe Illustrator 26.0.2, SVG Export Plug-In . SVG Version: 6.00 Build 0)  -->
<svg version="1.1" xmlns="http://www.w3.org/2000/svg" xmlns:xlink="http://www.w3.org/1999/xlink" x="0px" y="0px"
	 viewBox="0 0 128 128" style="enable-background:new 0 0 128 128;" xml:space="preserve">
<style type="text/css">
	.LastCommandLogx0{fill:none;stroke:#000000;stroke-width:5;stroke-linejoin:round;stroke-miterlimit:10;}
	.LastCommandLogx1{fill:none;stroke:#010101;stroke-width:5;stroke-linejoin:round;stroke-miterlimit:10;}
	.LastCommandLogx2{fill:none;stroke:#010101;stroke-width:5;stroke-miterlimit:10;}
	.LastCommandLogx3{fill:none;stroke:#000000;stroke-width:4;stroke-miterlimit:10;}
	.LastCommandLogx4{fill:none;stroke:#000000;stroke-miterlimit:10;}
	.LastCommandLogx5{fill:none;stroke:#000000;stroke-width:5;stroke-miterlimit:10;}
	.LastCommandLogx6{fill:none;stroke:#000000;stroke-width:5;stroke-linecap:round;stroke-linejoin:round;stroke-miterlimit:10;}
	.LastCommandLogx7{fill:none;stroke:#020202;stroke-width:5;stroke-linecap:round;stroke-miterlimit:10;}
	.LastCommandLogx8{fill:none;stroke:#020202;stroke-width:5;stroke-miterlimit:10;}
	.LastCommandLogx9{fill:none;stroke:#020202;stroke-width:5;stroke-linecap:round;stroke-linejoin:round;stroke-miterlimit:10;}
	.LastCommandLogx10{fill:none;stroke:#010101;stroke-width:5;stroke-linecap:round;stroke-miterlimit:10;}
	.LastCommandLogx11{fill:none;stroke:#010101;stroke-miterlimit:10;}
	.LastCommandLogx12{fill:none;stroke:#000000;stroke-width:5;stroke-linecap:round;stroke-miterlimit:10;}
	.LastCommandLogx13{fill:none;stroke:#000000;stroke-width:4;stroke-linecap:round;stroke-linejoin:round;stroke-miterlimit:10;}
</style>
<g id="Layer_1">
</g>
<g id="Layer_2">
	<g>
		<line class="LastCommandLogx7" x1="52.29" y1="56.9" x2="74.72" y2="56.9"/>
		<g>
			<path class="LastCommandLogx8" d="M66.14,12.48l-0.06-0.07L66.14,12.48v23.1c0,5.76,4.67,10.42,10.42,10.42h18.86"/>
			<polyline class="LastCommandLogx8" points="72.55,10.88 95.34,36.98 95.34,37.17 95.34,46 95.34,74.18 			"/>
			<path class="LastCommandLogx8" d="M95.34,109.04v2.07c0,3.35-2.71,6.06-6.06,6.06H22.95c-3.35,0-6.06-2.71-6.06-6.06V16.89
				c0-3.35,2.71-6.06,6.06-6.06h48.91h0.47h0.05l0.17,0.18v-0.13l-0.05-0.05"/>
		</g>
		<polyline class="LastCommandLogx9" points="29.32,31 41.24,37.88 53.15,44.76 41.24,51.64 29.32,58.52 		"/>
		<path class="LastCommandLogx7" d="M103.2,109.04H41.24c-4.35,0-7.92-3.56-7.92-7.92V82.1c0-4.35,3.56-7.92,7.92-7.92h61.96
			c4.35,0,7.92,3.56,7.92,7.92v19.03C111.11,105.48,107.55,109.04,103.2,109.04z"/>
		<g>
			<path d="M45.04,101.58V82.43h3.9v15.9h9.69v3.25H45.04z"/>
			<path d="M60.62,92.05c0-1.97,0.29-3.62,0.88-4.95c0.44-0.98,1.04-1.87,1.8-2.65c0.76-0.78,1.59-1.36,2.5-1.74
				c1.2-0.51,2.59-0.76,4.16-0.76c2.84,0,5.12,0.88,6.83,2.65c1.71,1.76,2.56,4.22,2.56,7.36c0,3.12-0.85,5.56-2.54,7.32
				c-1.7,1.76-3.96,2.64-6.8,2.64c-2.87,0-5.15-0.88-6.85-2.63C61.47,97.53,60.62,95.12,60.62,92.05z M64.63,91.92
				c0,2.19,0.5,3.84,1.51,4.97c1.01,1.13,2.29,1.69,3.85,1.69c1.55,0,2.83-0.56,3.83-1.68c1-1.12,1.5-2.8,1.5-5.04
				c0-2.21-0.49-3.86-1.46-4.95c-0.97-1.09-2.26-1.63-3.87-1.63c-1.61,0-2.9,0.55-3.88,1.65S64.63,89.69,64.63,91.92z"/>
			<path d="M91.37,94.48v-3.25h8.4v7.69c-0.82,0.79-2,1.49-3.55,2.09c-1.55,0.6-3.12,0.9-4.71,0.9c-2.02,0-3.78-0.42-5.28-1.27
				c-1.5-0.85-2.63-2.06-3.38-3.63c-0.75-1.58-1.13-3.29-1.13-5.14c0-2.01,0.42-3.8,1.26-5.36c0.84-1.56,2.08-2.76,3.7-3.59
				c1.24-0.64,2.78-0.96,4.62-0.96c2.4,0,4.27,0.5,5.62,1.51c1.35,1.01,2.21,2.4,2.6,4.17l-3.87,0.72c-0.27-0.95-0.78-1.7-1.53-2.25
				c-0.75-0.55-1.69-0.82-2.81-0.82c-1.7,0-3.06,0.54-4.06,1.62c-1.01,1.08-1.51,2.68-1.51,4.81c0,2.29,0.51,4.01,1.53,5.16
				c1.02,1.15,2.35,1.72,4,1.72c0.82,0,1.63-0.16,2.46-0.48s1.53-0.71,2.11-1.17v-2.45H91.37z"/>
		</g>
	</g>
</g>
</svg>
