<?xml version="1.0" encoding="utf-8"?>
<!-- Generator: Adobe Illustrator 26.0.2, SVG Export Plug-In . SVG Version: 6.00 Build 0)  -->
<svg version="1.1" xmlns="http://www.w3.org/2000/svg" xmlns:xlink="http://www.w3.org/1999/xlink" x="0px" y="0px"
	 viewBox="0 0 128 128" style="enable-background:new 0 0 128 128;" xml:space="preserve">
<style type="text/css">
	.LocationContactsx0{fill:none;stroke:#000000;stroke-width:5;stroke-linejoin:round;stroke-miterlimit:10;}
	.LocationContactsx1{fill:none;stroke:#010101;stroke-width:5;stroke-linejoin:round;stroke-miterlimit:10;}
	.LocationContactsx2{fill:none;stroke:#010101;stroke-width:5;stroke-miterlimit:10;}
	.LocationContactsx3{fill:none;stroke:#000000;stroke-width:4;stroke-miterlimit:10;}
	.LocationContactsx4{fill:none;stroke:#000000;stroke-miterlimit:10;}
	.LocationContactsx5{fill:none;stroke:#000000;stroke-width:5;stroke-miterlimit:10;}
	.LocationContactsx6{fill:none;stroke:#000000;stroke-width:5;stroke-linecap:round;stroke-linejoin:round;stroke-miterlimit:10;}
	.LocationContactsx7{fill:none;stroke:#020202;stroke-width:5;stroke-linecap:round;stroke-miterlimit:10;}
	.LocationContactsx8{fill:none;stroke:#020202;stroke-width:5;stroke-miterlimit:10;}
	.LocationContactsx9{fill:none;stroke:#020202;stroke-width:5;stroke-linecap:round;stroke-linejoin:round;stroke-miterlimit:10;}
	.LocationContactsx10{fill:none;stroke:#010101;stroke-width:5;stroke-linecap:round;stroke-miterlimit:10;}
	.LocationContactsx11{fill:none;stroke:#010101;stroke-miterlimit:10;}
	.LocationContactsx12{fill:none;stroke:#000000;stroke-width:5;stroke-linecap:round;stroke-miterlimit:10;}
	.LocationContactsx13{fill:none;stroke:#000000;stroke-width:4;stroke-linecap:round;stroke-linejoin:round;stroke-miterlimit:10;}
</style>
<g id="Layer_1">
</g>
<g id="Layer_2">
	<g>
		<g>
			<path class="LocationContactsx5" d="M64,16.57c-2.46-0.02-4.91,0.22-7.33,0.72c-12.2,2.56-22.71,11.96-26.66,23.77
				c-1.97,5.87-2.38,12.31-0.84,18.31c1.88,7.35,6.48,13.66,10.99,19.76c7.94,10.77,15.9,21.53,23.84,32.29
				c7.94-10.77,15.9-21.53,23.84-32.29c4.5-6.1,9.11-12.41,10.99-19.76c1.54-6.01,1.13-12.44-0.84-18.31
				c-3.95-11.82-14.46-21.21-26.66-23.77C68.91,16.78,66.46,16.55,64,16.57z"/>
			<circle class="LocationContactsx5" cx="64" cy="50.81" r="26.31"/>
		</g>
		<g>
			<circle class="LocationContactsx5" cx="104.96" cy="84.17" r="9.88"/>
			<path class="LocationContactsx5" d="M95.73,98.99h-0.65c0,0-14.56,15.39,0,18.72h19.76c14.57-3.34,0-18.72,0-18.72h-0.65
				c-1.42,3.13-5.02,5.34-9.23,5.34S97.14,102.12,95.73,98.99z"/>
		</g>
	</g>
</g>
</svg>
