<?xml version="1.0" encoding="utf-8"?>
<!-- Generator: Adobe Illustrator 26.0.2, SVG Export Plug-In . SVG Version: 6.00 Build 0)  -->
<svg version="1.1" id="Layer_1" xmlns="http://www.w3.org/2000/svg" xmlns:xlink="http://www.w3.org/1999/xlink" x="0px" y="0px"
	 viewBox="0 0 128 128" style="enable-background:new 0 0 128 128;" xml:space="preserve">
<style type="text/css">
	.Logx0{fill:none;stroke:#000000;stroke-width:5;stroke-miterlimit:10;}
	.Logx1{fill:none;stroke:#000000;stroke-width:4;stroke-miterlimit:10;}
	.Logx2{fill:none;stroke:#000000;stroke-width:3;stroke-linecap:round;stroke-linejoin:round;stroke-miterlimit:10;}
	.Logx3{fill:none;stroke:#000000;stroke-width:3;stroke-miterlimit:10;}
	.Logx4{stroke:#000000;stroke-width:5;stroke-miterlimit:10;}
</style>
<g>
	<g>
		<path class="Logx0" d="M69.4,121.1H12.7c-4.8,0-8.7-3.9-8.7-8.7V17.7C4,12.9,7.9,9,12.7,9h102.6c4.8,0,8.7,3.9,8.7,8.7v47.1"/>
	</g>
	<line class="Logx0" x1="41.7" y1="53.2" x2="107.6" y2="53.2"/>
	<line class="Logx0" x1="20.2" y1="53.2" x2="33.8" y2="53.2"/>
	<line class="Logx0" x1="41.7" y1="67.7" x2="99.2" y2="67.7"/>
	<line class="Logx0" x1="20.2" y1="67.7" x2="33.8" y2="67.7"/>
	<line class="Logx0" x1="41.7" y1="82.3" x2="86.9" y2="82.3"/>
	<line class="Logx0" x1="20.2" y1="82.3" x2="33.8" y2="82.3"/>
	<line class="Logx0" x1="41.7" y1="96.8" x2="73.3" y2="96.8"/>
	<line class="Logx0" x1="20.2" y1="96.8" x2="33.8" y2="96.8"/>
	<line class="Logx0" x1="4.3" y1="31.3" x2="124" y2="31.3"/>
	<g>
		<path class="Logx0" d="M84.4,121.1l5-16.8l20.4-20.4c1.6-1.6,3.7-2.4,5.9-2.4c2.2,0,4.3,0.9,5.9,2.4c3.2,3.2,3.2,8.5,0,11.8
			l-20.4,20.4L84.4,121.1z"/>
	</g>
</g>
</svg>
