<?xml version="1.0" encoding="utf-8"?>
<!-- Generator: Adobe Illustrator 26.0.2, SVG Export Plug-In . SVG Version: 6.00 Build 0)  -->
<svg version="1.1" id="Layer_1" xmlns="http://www.w3.org/2000/svg" xmlns:xlink="http://www.w3.org/1999/xlink" x="0px" y="0px"
	 viewBox="0 0 128 128" style="enable-background:new 0 0 128 128;" xml:space="preserve">
<style type="text/css">
	.LowerPriorityx0{fill:none;stroke:#000000;stroke-width:5;stroke-miterlimit:10;}
	.LowerPriorityx1{fill:none;stroke:#000000;stroke-width:5;stroke-linecap:round;stroke-miterlimit:10;}
	.LowerPriorityx2{fill:none;stroke:#000000;stroke-width:5;stroke-linecap:round;stroke-linejoin:round;stroke-miterlimit:10;}
	.LowerPriorityx3{fill:none;stroke:#010101;stroke-width:5;stroke-miterlimit:10;}
</style>
<polygon class="LowerPriorityx1" points="64,8.49 15.93,36.24 15.93,91.76 64,119.51 112.07,91.76 112.07,36.24 "/>
<g>
	<path class="LowerPriorityx0" d="M59.27,68.26l-1.38-20.6c-0.26-4.01-0.39-6.9-0.39-8.65c0-2.38,0.62-4.24,1.87-5.57c1.25-1.33,2.89-2,4.92-2
		c2.47,0,4.11,0.85,4.95,2.56c0.83,1.71,1.25,4.17,1.25,7.38c0,1.89-0.1,3.81-0.3,5.76l-1.85,21.2c-0.2,2.52-0.63,4.46-1.29,5.81
		c-0.66,1.35-1.75,2.02-3.27,2.02c-1.55,0-2.62-0.65-3.23-1.96C59.96,72.91,59.53,70.92,59.27,68.26z M64.04,96.56
		c-1.75,0-3.28-0.57-4.58-1.7c-1.3-1.13-1.96-2.72-1.96-4.75c0-1.78,0.62-3.29,1.87-4.54c1.25-1.25,2.78-1.87,4.58-1.87
		s3.35,0.62,4.62,1.87c1.28,1.25,1.91,2.76,1.91,4.54c0,2.01-0.65,3.58-1.94,4.73C67.27,95.99,65.76,96.56,64.04,96.56z"/>
</g>
</svg>
