<?xml version="1.0" encoding="utf-8"?>
<!-- Generator: Adobe Illustrator 26.0.2, SVG Export Plug-In . SVG Version: 6.00 Build 0)  -->
<svg version="1.1" id="Layer_1" xmlns="http://www.w3.org/2000/svg" xmlns:xlink="http://www.w3.org/1999/xlink" x="0px" y="0px"
	 viewBox="0 0 128 128" style="enable-background:new 0 0 128 128;" xml:space="preserve">
<style type="text/css">
	.ManageBusinessServicex0{fill:none;stroke:#000000;stroke-width:5;stroke-miterlimit:10;}
	.ManageBusinessServicex1{stroke:#000000;stroke-width:5;stroke-miterlimit:10;}
	.ManageBusinessServicex2{fill:none;stroke:#000000;stroke-width:5;stroke-linejoin:round;stroke-miterlimit:10;}
	.ManageBusinessServicex3{fill:none;stroke:#000000;stroke-width:4;stroke-miterlimit:10;}
	.ManageBusinessServicex4{fill:none;stroke:#000000;stroke-width:3;stroke-miterlimit:10;}
	.ManageBusinessServicex5{fill:none;stroke:#FF0000;stroke-width:5;stroke-miterlimit:10;}
	.ManageBusinessServicex6{fill:none;stroke:#000000;stroke-width:2;stroke-miterlimit:10;}
	.ManageBusinessServicex7{stroke:#000000;stroke-miterlimit:10;}
	.ManageBusinessServicex8{fill:#FF0000;}
</style>
<g>
	<g>
		<circle class="ManageBusinessServicex0" cx="37.77" cy="37.44" r="13.66"/>
	</g>
	<g>
		<path class="ManageBusinessServicex0" d="M20,53.09c0.65,0.82,0.87,1.91,0.57,2.91l-0.95,3.21c-0.52,2.05-0.27,3.82,1.44,4.97l3.05,1.68
			c1.88,0.83,3.51,0.1,4.97-1.44l2.2-2.52c0.69-0.79,1.72-1.19,2.76-1.07l2.24,0.25c1.04,0.12,1.96,0.73,2.46,1.66l1.6,2.95
			c1.08,1.82,2.51,2.89,4.53,2.5l3.34-0.97c1.92-0.74,2.55-2.41,2.5-4.53l-0.22-3.34c-0.07-1.05,0.38-2.06,1.19-2.71l1.76-1.41
			c0.82-0.65,1.91-0.87,2.91-0.57l3.21,0.95c2.05,0.52,3.82,0.27,4.97-1.44l1.68-3.05c0.83-1.88,0.1-3.51-1.44-4.97l-2.52-2.2
			c-0.79-0.69-1.19-1.72-1.07-2.76l0.25-2.24c0.12-1.04,0.73-1.96,1.66-2.46l2.95-1.6c1.82-1.08,2.89-2.51,2.5-4.53l-0.97-3.34
			c-0.74-1.92-2.41-2.55-4.53-2.5l-3.34,0.22c-1.05,0.07-2.06-0.38-2.71-1.19l-1.41-1.76c-0.65-0.82-0.87-1.91-0.57-2.91l0.95-3.21
			c0.52-2.05,0.27-3.82-1.44-4.97l-3.05-1.68c-1.88-0.83-3.51-0.1-4.97,1.44l-2.2,2.52c-0.69,0.79-1.72,1.19-2.76,1.07l-2.24-0.25
			c-1.04-0.12-1.96-0.73-2.46-1.66l-1.6-2.95c-1.08-1.82-2.51-2.89-4.53-2.5l-3.34,0.97c-1.92,0.74-2.55,2.41-2.5,4.53l0.22,3.34
			c0.07,1.05-0.38,2.06-1.19,2.71l-1.76,1.41c-0.82,0.65-1.91,0.87-2.91,0.57L16,19.28c-2.05-0.52-3.82-0.27-4.97,1.44l-1.68,3.05
			c-0.83,1.88-0.1,3.51,1.44,4.97l2.52,2.2c0.79,0.69,1.19,1.72,1.07,2.76l-0.25,2.24c-0.12,1.04-0.73,1.96-1.66,2.46L9.54,40
			c-1.82,1.08-2.89,2.51-2.5,4.53l0.97,3.34c0.74,1.92,2.41,2.55,4.53,2.5l3.34-0.22c1.05-0.07,2.06,0.38,2.71,1.19L20,53.09z"/>
	</g>
	<line class="ManageBusinessServicex0" x1="32.59" y1="8.2" x2="32.59" y2="8.2"/>
</g>
<rect x="41.87" y="93.5" class="ManageBusinessServicex0" width="18.65" height="30.5"/>
<rect x="82.2" y="29.5" transform="matrix(-1 -1.224647e-16 1.224647e-16 -1 182.9214 153.5)" class="ManageBusinessServicex0" width="18.51" height="94.5"/>
<rect x="61.87" y="68.5" class="ManageBusinessServicex0" width="18.91" height="55.5"/>
<rect x="102.41" y="4" transform="matrix(-1 -1.224647e-16 1.224647e-16 -1 223.1922 128)" class="ManageBusinessServicex0" width="18.38" height="120"/>
</svg>
