<?xml version="1.0" encoding="utf-8"?>
<!-- Generator: Adobe Illustrator 26.0.2, SVG Export Plug-In . SVG Version: 6.00 Build 0)  -->
<svg version="1.1" id="Layer_1" xmlns="http://www.w3.org/2000/svg" xmlns:xlink="http://www.w3.org/1999/xlink" x="0px" y="0px"
	 viewBox="0 0 128 128" style="enable-background:new 0 0 128 128;" xml:space="preserve">
<style type="text/css">
	.Monitorx0{fill:none;stroke:#000000;stroke-width:5;stroke-miterlimit:10;}
	.Monitorx1{stroke:#000000;stroke-width:5;stroke-miterlimit:10;}
	.Monitorx2{fill:none;stroke:#000000;stroke-width:5;stroke-linejoin:round;stroke-miterlimit:10;}
	.Monitorx3{fill:none;stroke:#000000;stroke-width:4;stroke-miterlimit:10;}
	.Monitorx4{fill:none;stroke:#000000;stroke-width:3;stroke-miterlimit:10;}
	.Monitorx5{fill:none;stroke:#FF0000;stroke-width:5;stroke-miterlimit:10;}
	.Monitorx6{fill:none;stroke:#000000;stroke-width:2;stroke-miterlimit:10;}
	.Monitorx7{stroke:#000000;stroke-miterlimit:10;}
	.Monitorx8{fill:#FF0000;}
</style>
<g>
	<g>
		<circle class="Monitorx0" cx="87.18" cy="68" r="20.15"/>
		<line class="Monitorx0" x1="101.06" y1="82.63" x2="119.81" y2="102.13"/>
	</g>
	<g>
		<path class="Monitorx0" d="M114.12,8.14H83.37h-1.35H45.98h-1.35H13.88C8.43,8.14,4,12.57,4,18v39.38v0.21v26.18
			c0,5.45,4.43,9.88,9.88,9.88h50.12h0.01h50.12c5.45,0,9.88-4.43,9.88-9.88V57.59v-0.21V18C124,12.57,119.57,8.14,114.12,8.14z"/>
		<line class="Monitorx0" x1="63.99" y1="119.86" x2="63.99" y2="93.65"/>
		<line class="Monitorx0" x1="25.38" y1="119.86" x2="102.61" y2="119.86"/>
	</g>
	<path class="Monitorx4" d="M11.73,45.8h23.13c0.18,0,0.35-0.1,0.44-0.26l4.73-8.33c0.22-0.39,0.8-0.32,0.92,0.11l6.17,21.37
		c0.14,0.5,0.86,0.48,0.98-0.03l7.88-35.53c0.12-0.52,0.85-0.53,0.98-0.01l5.31,21.24c0.12,0.47,0.76,0.52,0.95,0.08l5.14-11.98
		c0.17-0.41,0.75-0.41,0.93,0l4.67,10.99c0.08,0.19,0.26,0.31,0.46,0.31h4.54c0.2,0,0.39-0.12,0.47-0.31l4.7-11.5
		c0.18-0.43,0.8-0.41,0.94,0.03l3.89,11.68c0.15,0.46,0.81,0.46,0.96-0.01l6.49-20.65c0.16-0.5,0.88-0.46,0.98,0.06l4.37,23.73
		c0.04,0.24,0.25,0.41,0.5,0.41h14.02"/>
</g>
</svg>
