<?xml version="1.0" encoding="utf-8"?>
<!-- Generator: Adobe Illustrator 26.0.2, SVG Export Plug-In . SVG Version: 6.00 Build 0)  -->
<svg version="1.1" id="Layer_1" xmlns="http://www.w3.org/2000/svg" xmlns:xlink="http://www.w3.org/1999/xlink" x="0px" y="0px"
	 viewBox="0 0 128 128" style="enable-background:new 0 0 128 128;" xml:space="preserve">
<style type="text/css">
	.MoveDownx0{fill:none;stroke:#010101;stroke-width:5;stroke-miterlimit:10;}
	.MoveDownx1{fill:none;stroke:#010101;stroke-width:3;stroke-miterlimit:10;}
	.MoveDownx2{fill:#010101;stroke:#010101;stroke-miterlimit:10;}
	.MoveDownx3{fill:#010101;}
	.MoveDownx4{fill:#010101;stroke:#010101;stroke-width:5;stroke-miterlimit:10;}
	.MoveDownx5{fill:none;stroke:#010101;stroke-width:2;stroke-miterlimit:10;}
</style>
<g>
	<g>
		<line class="MoveDownx0" x1="63.2" y1="69.41" x2="63.2" y2="35.36"/>
		<polyline class="MoveDownx0" points="76.04,58.63 63.2,69.41 51.96,59.12 		"/>
	</g>
	<path class="MoveDownx0" d="M120.01,124H7.99c-2.2,0-3.99-1.79-3.99-3.99V7.99C4,5.79,5.79,4,7.99,4h112.02c2.2,0,3.99,1.79,3.99,3.99
		v112.02C124,122.21,122.21,124,120.01,124z"/>
	<path class="MoveDownx0" d="M105.75,107.98h-83.5c-1.77,0-3.21-1.44-3.21-3.21V80.13c0-1.77,1.44-3.21,3.21-3.21h83.5
		c1.77,0,3.21,1.44,3.21,3.21v24.64C108.96,106.54,107.52,107.98,105.75,107.98z"/>
</g>
</svg>
