<?xml version="1.0" encoding="utf-8"?>
<!-- Generator: Adobe Illustrator 26.0.2, SVG Export Plug-In . SVG Version: 6.00 Build 0)  -->
<svg version="1.1" id="Layer_1" xmlns="http://www.w3.org/2000/svg" xmlns:xlink="http://www.w3.org/1999/xlink" x="0px" y="0px"
	 viewBox="0 0 128 128" style="enable-background:new 0 0 128 128;" xml:space="preserve">
<style type="text/css">
	.MoveAddChangeDevicex0{fill:none;stroke:#000000;stroke-width:5;stroke-miterlimit:10;}
	.MoveAddChangeDevicex1{stroke:#000000;stroke-width:5;stroke-miterlimit:10;}
	.MoveAddChangeDevicex2{fill:none;stroke:#000000;stroke-width:5;stroke-linejoin:round;stroke-miterlimit:10;}
	.MoveAddChangeDevicex3{fill:none;stroke:#000000;stroke-width:4;stroke-miterlimit:10;}
	.MoveAddChangeDevicex4{fill:none;stroke:#000000;stroke-width:3;stroke-miterlimit:10;}
	.MoveAddChangeDevicex5{fill:none;stroke:#FF0000;stroke-width:5;stroke-miterlimit:10;}
	.MoveAddChangeDevicex6{fill:none;stroke:#000000;stroke-width:2;stroke-miterlimit:10;}
	.MoveAddChangeDevicex7{stroke:#000000;stroke-miterlimit:10;}
	.MoveAddChangeDevicex8{fill:#FF0000;}
</style>
<g>
	<path class="MoveAddChangeDevicex0" d="M115.5,96.41h-103c-4.68,0-8.5-3.82-8.5-8.5v-70c0-4.68,3.82-8.5,8.5-8.5h103c4.68,0,8.5,3.82,8.5,8.5v70
		C124,92.59,120.18,96.41,115.5,96.41z"/>
	<polyline class="MoveAddChangeDevicex0" points="80.47,63.59 95.96,46.66 80.47,30.33 	"/>
	<polyline class="MoveAddChangeDevicex0" points="47.53,39.33 32.04,56.25 47.53,72.59 	"/>
	<line class="MoveAddChangeDevicex0" x1="52.04" y1="46.66" x2="95.44" y2="46.66"/>
	<line class="MoveAddChangeDevicex0" x1="75.96" y1="56.25" x2="32.56" y2="56.25"/>
	<g>
		<line class="MoveAddChangeDevicex0" x1="39.37" y1="118.59" x2="87.83" y2="118.59"/>
	</g>
	<line class="MoveAddChangeDevicex0" x1="63.6" y1="96.66" x2="63.6" y2="118.59"/>
</g>
</svg>
