<?xml version="1.0" encoding="utf-8"?>
<!-- Generator: Adobe Illustrator 26.0.2, SVG Export Plug-In . SVG Version: 6.00 Build 0)  -->
<svg version="1.1" id="Layer_1" xmlns="http://www.w3.org/2000/svg" xmlns:xlink="http://www.w3.org/1999/xlink" x="0px" y="0px"
	 viewBox="0 0 128 128" style="enable-background:new 0 0 128 128;" xml:space="preserve">
<style type="text/css">
	.Movex0{fill:none;stroke:#010101;stroke-width:5;stroke-miterlimit:10;}
</style>
<path class="Movex0" d="M8,4h112c2.2,0,4,1.8,4,4v112c0,2.2-1.8,4-4,4H8c-2.2,0-4-1.8-4-4V8C4,5.8,5.8,4,8,4z"/>
<g>
	<g>
		<line class="Movex0" x1="37.6" y1="32.3" x2="37.6" y2="95.7"/>
		<polyline class="Movex0" points="13.6,52.4 37.6,32.3 58.5,51.5 		"/>
	</g>
	<g>
		<line class="Movex0" x1="90.4" y1="95.7" x2="90.4" y2="32.3"/>
		<polyline class="Movex0" points="114.4,75.6 90.4,95.7 69.5,76.5 		"/>
	</g>
</g>
<path class="Movex0" d="M120,124H8c-2.2,0-4-1.8-4-4V8c0-2.2,1.8-4,4-4h112c2.2,0,4,1.8,4,4v112C124,122.2,122.2,124,120,124z"/>
</svg>
