<?xml version="1.0" encoding="utf-8"?>
<!-- Generator: Adobe Illustrator 26.0.2, SVG Export Plug-In . SVG Version: 6.00 Build 0)  -->
<svg version="1.1" id="Layer_1" xmlns="http://www.w3.org/2000/svg" xmlns:xlink="http://www.w3.org/1999/xlink" x="0px" y="0px"
	 viewBox="0 0 128 128" style="enable-background:new 0 0 128 128;" xml:space="preserve">
<style type="text/css">
	.NavigateNetworkx0{fill:none;stroke:#010101;stroke-width:5;stroke-miterlimit:10;}
	.NavigateNetworkx1{fill:none;stroke:#020202;stroke-width:5;stroke-miterlimit:10;}
	.NavigateNetworkx2{fill:none;stroke:#020202;stroke-width:3;stroke-miterlimit:10;}
	.NavigateNetworkx3{fill:none;stroke:#010101;stroke-width:3;stroke-miterlimit:10;}
	.NavigateNetworkx4{fill:#010101;stroke:#010101;stroke-width:5;stroke-miterlimit:10;}
	.NavigateNetworkx5{fill:none;stroke:#020202;stroke-width:5;stroke-linecap:round;stroke-linejoin:round;stroke-miterlimit:10;}
	.NavigateNetworkx6{fill:none;stroke:#020202;stroke-width:2;stroke-miterlimit:10;}
	.NavigateNetworkx7{fill:none;stroke:#010101;stroke-width:5;stroke-linejoin:round;stroke-miterlimit:10;}
	.NavigateNetworkx8{fill:none;stroke:#010101;stroke-width:5;stroke-linecap:round;stroke-miterlimit:10;}
	.NavigateNetworkx9{fill:none;stroke:#010101;stroke-width:5;stroke-linecap:round;stroke-linejoin:round;stroke-miterlimit:10;}
	.NavigateNetworkx10{fill:none;stroke:#000000;stroke-width:5;stroke-miterlimit:10;}
	.NavigateNetworkx11{fill:none;stroke:#010101;stroke-width:2;stroke-miterlimit:10;}
	.NavigateNetworkx12{fill:#020202;stroke:#020202;stroke-width:5;stroke-miterlimit:10;}
</style>
<g>
	<circle class="NavigateNetworkx0" cx="45.03" cy="55.34" r="5.84"/>
	<circle class="NavigateNetworkx0" cx="64.48" cy="30.7" r="5.84"/>
	<circle class="NavigateNetworkx0" cx="83.93" cy="46.26" r="5.84"/>
	<polyline class="NavigateNetworkx0" points="69.39,33.84 79.5,42.48 79.51,42.48 	"/>
	<line class="NavigateNetworkx0" x1="48.31" y1="50.51" x2="60.59" y2="35.05"/>
</g>
<g>
	<path class="NavigateNetworkx10" d="M64,4c-3.11-0.03-6.22,0.27-9.27,0.91C39.3,8.16,26.01,20.04,21.01,34.99c-2.49,7.43-3.01,15.57-1.06,23.17
		c2.37,9.29,8.2,17.28,13.9,25C43.89,96.77,53.95,110.38,64,124c10.05-13.62,20.11-27.23,30.16-40.85c5.7-7.72,11.53-15.7,13.9-25
		c1.94-7.6,1.42-15.74-1.06-23.17c-5-14.95-18.3-26.83-33.73-30.07C70.22,4.27,67.11,3.98,64,4z"/>
	<circle class="NavigateNetworkx10" cx="64" cy="47.31" r="33.29"/>
</g>
</svg>
