<?xml version="1.0" encoding="utf-8"?>
<!-- Generator: Adobe Illustrator 26.0.2, SVG Export Plug-In . SVG Version: 6.00 Build 0)  -->
<svg version="1.1" id="Layer_1" xmlns="http://www.w3.org/2000/svg" xmlns:xlink="http://www.w3.org/1999/xlink" x="0px" y="0px"
	 viewBox="0 0 128 128" style="enable-background:new 0 0 128 128;" xml:space="preserve">
<style type="text/css">
	.NavigatePowerx0{fill:none;stroke:#010101;stroke-width:5;stroke-miterlimit:10;}
	.NavigatePowerx1{fill:none;stroke:#020202;stroke-width:5;stroke-miterlimit:10;}
	.NavigatePowerx2{fill:none;stroke:#020202;stroke-width:3;stroke-miterlimit:10;}
	.NavigatePowerx3{fill:none;stroke:#010101;stroke-width:3;stroke-miterlimit:10;}
	.NavigatePowerx4{fill:#010101;stroke:#010101;stroke-width:5;stroke-miterlimit:10;}
	.NavigatePowerx5{fill:none;stroke:#020202;stroke-width:5;stroke-linecap:round;stroke-linejoin:round;stroke-miterlimit:10;}
	.NavigatePowerx6{fill:none;stroke:#020202;stroke-width:2;stroke-miterlimit:10;}
	.NavigatePowerx7{fill:none;stroke:#010101;stroke-width:5;stroke-linejoin:round;stroke-miterlimit:10;}
	.NavigatePowerx8{fill:none;stroke:#010101;stroke-width:5;stroke-linecap:round;stroke-miterlimit:10;}
	.NavigatePowerx9{fill:none;stroke:#010101;stroke-width:5;stroke-linecap:round;stroke-linejoin:round;stroke-miterlimit:10;}
	.NavigatePowerx10{fill:none;stroke:#000000;stroke-width:5;stroke-miterlimit:10;}
	.NavigatePowerx11{fill:none;stroke:#010101;stroke-width:2;stroke-miterlimit:10;}
	.NavigatePowerx12{fill:#020202;stroke:#020202;stroke-width:5;stroke-miterlimit:10;}
</style>
<path class="NavigatePowerx1" d="M68.17,23.86l10.84,3.87c1.05,0.37,1.4,1.68,0.69,2.53L66.75,45.74l10.68,3.81c1.3,0.46,1.63,2.14,0.6,3.06
	L56.34,72.04c-1.06,0.94-3.31-0.72-2.71-2l9.28-17.76l-9.61-3.43c-1.51-0.54-2.11-2.35-1.23-3.68l13.46-20.43
	C66.09,23.87,67.19,23.5,68.17,23.86z"/>
<g>
	<path class="NavigatePowerx10" d="M64,4c-3.11-0.03-6.22,0.27-9.27,0.91C39.3,8.16,26.01,20.04,21.01,34.99c-2.49,7.43-3.01,15.57-1.06,23.17
		c2.37,9.29,8.2,17.28,13.9,25C43.89,96.77,53.95,110.38,64,124c10.05-13.62,20.11-27.23,30.16-40.85c5.7-7.72,11.53-15.7,13.9-25
		c1.94-7.6,1.42-15.74-1.06-23.17c-5-14.95-18.3-26.83-33.73-30.07C70.22,4.27,67.11,3.98,64,4z"/>
	<circle class="NavigatePowerx10" cx="64" cy="47.31" r="33.29"/>
</g>
</svg>
