<?xml version="1.0" encoding="utf-8"?>
<!-- Generator: Adobe Illustrator 26.0.2, SVG Export Plug-In . SVG Version: 6.00 Build 0)  -->
<svg version="1.1" id="Layer_1" xmlns="http://www.w3.org/2000/svg" xmlns:xlink="http://www.w3.org/1999/xlink" x="0px" y="0px"
	 viewBox="0 0 128 128" style="enable-background:new 0 0 128 128;" xml:space="preserve">
<style type="text/css">
	.NetZoomSettingsx0{fill:none;stroke:#000000;stroke-width:5;stroke-miterlimit:10;}
	.NetZoomSettingsx1{stroke:#000000;stroke-width:5;stroke-miterlimit:10;}
	.NetZoomSettingsx2{fill:none;stroke:#000000;stroke-width:5;stroke-linejoin:round;stroke-miterlimit:10;}
	.NetZoomSettingsx3{fill:none;stroke:#000000;stroke-width:4;stroke-miterlimit:10;}
	.NetZoomSettingsx4{fill:none;stroke:#000000;stroke-width:3;stroke-miterlimit:10;}
	.NetZoomSettingsx5{fill:none;stroke:#FF0000;stroke-width:5;stroke-miterlimit:10;}
	.NetZoomSettingsx6{fill:none;stroke:#000000;stroke-width:2;stroke-miterlimit:10;}
	.NetZoomSettingsx7{stroke:#000000;stroke-miterlimit:10;}
	.NetZoomSettingsx8{fill:#FF0000;}
</style>
<g>
	<g>
		<circle class="NetZoomSettingsx0" cx="64" cy="64" r="26.02"/>
	</g>
	<g>
		<path class="NetZoomSettingsx0" d="M48.73,106.46c1.84,0.76,3.2,2.38,3.62,4.33l1.36,6.24c1.02,3.91,3.06,6.63,6.97,6.97h6.63
			c3.91-0.34,5.95-3.06,6.97-6.97l1.36-6.24c0.43-1.95,1.78-3.57,3.62-4.33l3.96-1.64c1.84-0.76,3.95-0.58,5.63,0.5l5.37,3.45
			c3.48,2.04,6.85,2.52,9.85,0l4.69-4.69c2.52-3,2.04-6.37,0-9.85l-3.45-5.37c-1.08-1.68-1.27-3.78-0.5-5.63l1.64-3.96
			c0.76-1.84,2.38-3.2,4.33-3.62l6.24-1.36c3.91-1.02,6.63-3.06,6.97-6.97v-6.63c-0.34-3.91-3.06-5.95-6.97-6.97l-6.24-1.36
			c-1.95-0.43-3.57-1.78-4.33-3.62l-1.64-3.96c-0.76-1.84-0.58-3.95,0.5-5.63l3.45-5.37c2.04-3.48,2.52-6.85,0-9.85l-4.69-4.69
			c-3-2.52-6.37-2.04-9.85,0l-5.37,3.45c-1.68,1.08-3.78,1.27-5.63,0.5l-3.96-1.64c-1.84-0.76-3.2-2.38-3.62-4.33l-1.36-6.24
			C73.26,7.06,71.22,4.34,67.32,4h-6.63c-3.91,0.34-5.95,3.06-6.97,6.97l-1.36,6.24c-0.43,1.95-1.78,3.57-3.62,4.33l-3.96,1.64
			c-1.84,0.76-3.95,0.58-5.63-0.5l-5.37-3.45c-3.48-2.04-6.85-2.52-9.85,0l-4.69,4.69c-2.52,3-2.04,6.37,0,9.85l3.45,5.37
			c1.08,1.68,1.27,3.78,0.5,5.63l-1.64,3.96c-0.76,1.84-2.38,3.2-4.33,3.62l-6.24,1.36C7.06,54.74,4.34,56.78,4,60.68v6.63
			c0.34,3.91,3.06,5.95,6.97,6.97l6.24,1.36c1.95,0.43,3.57,1.78,4.33,3.62l1.64,3.96c0.76,1.84,0.58,3.95-0.5,5.63l-3.45,5.37
			c-2.04,3.48-2.52,6.85,0,9.85l4.69,4.69c3,2.52,6.37,2.04,9.85,0l5.37-3.45c1.68-1.08,3.78-1.27,5.63-0.5L48.73,106.46z"/>
	</g>
	<line class="NetZoomSettingsx0" x1="28.46" y1="19.96" x2="28.45" y2="19.96"/>
</g>
</svg>
