<?xml version="1.0" encoding="utf-8"?>
<!-- Generator: Adobe Illustrator 26.0.2, SVG Export Plug-In . SVG Version: 6.00 Build 0)  -->
<svg version="1.1" id="Layer_1" xmlns="http://www.w3.org/2000/svg" xmlns:xlink="http://www.w3.org/1999/xlink" x="0px" y="0px"
	 viewBox="0 0 128 128" style="enable-background:new 0 0 128 128;" xml:space="preserve">
<style type="text/css">
	.NewEntityx0{fill:none;stroke:#000000;stroke-width:5;stroke-miterlimit:10;}
	.NewEntityx1{fill:none;stroke:#000000;stroke-width:5;stroke-linecap:round;stroke-miterlimit:10;}
	.NewEntityx2{fill:none;stroke:#000000;stroke-width:5;stroke-linecap:round;stroke-linejoin:round;stroke-miterlimit:21.3333;}
	.NewEntityx3{fill:#FFFFFF;fill-opacity:0;stroke:#000000;stroke-width:5;stroke-linecap:round;stroke-miterlimit:10;}
	.NewEntityx4{fill:none;stroke:#000000;stroke-width:4;stroke-linecap:round;stroke-miterlimit:10;}
	.NewEntityx5{fill:none;stroke:#010101;stroke-width:5;stroke-miterlimit:10;}
	.NewEntityx6{fill:none;stroke:#010101;stroke-width:3;stroke-miterlimit:10;}
	.NewEntityx7{fill:none;stroke:#010101;stroke-width:5;stroke-linecap:round;stroke-miterlimit:10;}
	.NewEntityx8{fill:none;stroke:#010101;stroke-width:4;stroke-miterlimit:10;}
	.NewEntityx9{fill:none;stroke:#010101;stroke-width:5;stroke-linecap:round;stroke-linejoin:round;stroke-miterlimit:10;}
	.NewEntityx10{fill:none;stroke:#020202;stroke-width:5;stroke-miterlimit:10;}
	.NewEntityx11{fill:none;stroke:#000000;stroke-width:5;stroke-linecap:round;stroke-linejoin:round;stroke-miterlimit:10;}
	.NewEntityx12{fill:none;stroke:#000000;stroke-width:5;stroke-linejoin:round;stroke-miterlimit:10;}
</style>
<g>
	<path class="NewEntityx11" d="M108.2,73.9h8.6c3,0,5.4-2.4,5.4-5.4V55.9c0-3-2.4-5.4-5.4-5.4h-8.6c-1.1-4-2.6-7.8-4.7-11.3l6.1-6.1
		c2.1-2.1,2.1-5.5,0-7.6l-8.9-8.9c-2.1-2.1-5.5-2.1-7.6,0L87,22.7c-3.5-2-7.2-3.6-11.3-4.7V9.4c0-3-2.4-5.4-5.4-5.4H57.7
		c-3,0-5.4,2.4-5.4,5.4V18c-4,1.1-7.8,2.7-11.3,4.7L35,16.6c-2.1-2.1-5.5-2.1-7.6,0l-8.9,8.9c-2.1,2.1-2.1,5.5,0,7.6l6.1,6.1
		c-2,3.5-3.6,7.3-4.7,11.3h-8.6c-3,0-5.4,2.4-5.4,5.4v12.6c0,3,2.4,5.4,5.4,5.4h8.6c1.1,4,2.6,7.8,4.7,11.3l-6.1,6.1
		c-2.1,2.1-2.1,5.5,0,7.6l8.9,8.9c2.1,2.1,5.5,2.1,7.6,0l6.1-6.1l2.7-18.1c-5.7-5.4-9.2-13-9.2-21.4c0-16.3,13.2-29.5,29.5-29.5
		c16.3,0,29.5,13.2,29.5,29.5c0,2.2-0.2,4.4-0.7,6.5L108.2,73.9z"/>
	<path class="NewEntityx12" d="M55.8,45.3c-6.3,3.1-10.6,9.5-10.6,17c0,6.9,3.7,12.9,9.2,16.2v35.9c0,5.3,4.3,9.6,9.6,9.6
		c2.7,0,5.1-1.1,6.8-2.8c1.7-1.7,2.8-4.2,2.8-6.8V78.5c5.5-3.3,9.2-9.3,9.2-16.2c0-7.7-4.6-14.3-11.2-17.2v9.3
		c0,4.4-3.6,7.9-7.9,7.9s-7.9-3.5-7.9-7.9V45.3z"/>
	<g>
		<line class="NewEntityx11" x1="82.8" y1="104.3" x2="122.2" y2="104.3"/>
		<line class="NewEntityx11" x1="102.5" y1="124" x2="102.5" y2="84.7"/>
	</g>
</g>
</svg>
