<?xml version="1.0" encoding="utf-8"?>
<!-- Generator: Adobe Illustrator 26.0.2, SVG Export Plug-In . SVG Version: 6.00 Build 0)  -->
<svg version="1.1" id="Layer_1" xmlns="http://www.w3.org/2000/svg" xmlns:xlink="http://www.w3.org/1999/xlink" x="0px" y="0px"
	 viewBox="0 0 128 128" style="enable-background:new 0 0 128 128;" xml:space="preserve">
<style type="text/css">
	.Notesx0{fill:none;stroke:#010101;stroke-width:5;stroke-miterlimit:10;}
	.Notesx1{fill:none;stroke:#010101;stroke-width:3;stroke-miterlimit:10;}
	.Notesx2{fill:#010101;}
	.Notesx3{fill:#010101;stroke:#010101;stroke-width:5;stroke-miterlimit:10;}
	.Notesx4{fill:none;stroke:#010101;stroke-width:2;stroke-miterlimit:10;}
</style>
<line class="Notesx0" x1="58.18" y1="15.42" x2="41.57" y2="15.42"/>
<path class="Notesx0" d="M98.07,15.42h9.19c1.8,0,3.28,1.47,3.28,3.28v102.02c0,1.82-1.47,3.29-3.28,3.29H20.74
	c-1.8,0-3.28-1.47-3.28-3.29V18.69c0-1.8,1.47-3.28,3.28-3.28h9.19"/>
<line class="Notesx0" x1="86.43" y1="15.42" x2="69.82" y2="15.42"/>
<path class="Notesx0" d="M68.95,26.83h-9.9c-0.48,0-0.86-0.39-0.86-0.86V4.86c0-0.48,0.39-0.86,0.86-0.86h9.9
	c0.48,0,0.86,0.39,0.86,0.86v21.1C69.82,26.44,69.43,26.83,68.95,26.83z"/>
<path class="Notesx0" d="M97.2,26.83h-9.9c-0.48,0-0.86-0.39-0.86-0.86V4.86C86.43,4.39,86.82,4,87.3,4h9.9c0.48,0,0.86,0.39,0.86,0.86
	v21.1C98.07,26.44,97.68,26.83,97.2,26.83z"/>
<path class="Notesx0" d="M40.7,26.83h-9.9c-0.48,0-0.86-0.39-0.86-0.86V4.86C29.93,4.39,30.32,4,30.8,4h9.9c0.48,0,0.86,0.39,0.86,0.86
	v21.1C41.57,26.44,41.18,26.83,40.7,26.83z"/>
<line class="Notesx0" x1="37.95" y1="47.28" x2="90.38" y2="47.28"/>
<line class="Notesx0" x1="37.95" y1="64.08" x2="90.38" y2="64.08"/>
<line class="Notesx0" x1="37.95" y1="80.89" x2="90.38" y2="80.89"/>
<line class="Notesx0" x1="37.95" y1="97.69" x2="90.38" y2="97.69"/>
</svg>
