<?xml version="1.0" encoding="utf-8"?>
<!-- Generator: Adobe Illustrator 26.0.2, SVG Export Plug-In . SVG Version: 6.00 Build 0)  -->
<svg version="1.1" id="Layer_1" xmlns="http://www.w3.org/2000/svg" xmlns:xlink="http://www.w3.org/1999/xlink" x="0px" y="0px"
	 viewBox="0 0 128 128" style="enable-background:new 0 0 128 128;" xml:space="preserve">
<style type="text/css">
	.NZLicenseKeyx0{fill:none;stroke:#000000;stroke-width:5;stroke-miterlimit:10;}
	.NZLicenseKeyx1{fill:none;stroke:#000000;stroke-width:4;stroke-miterlimit:10;}
	.NZLicenseKeyx2{fill:none;stroke:#000000;stroke-width:3;stroke-linecap:round;stroke-linejoin:round;stroke-miterlimit:10;}
	.NZLicenseKeyx3{fill:none;stroke:#000000;stroke-width:3;stroke-miterlimit:10;}
	.NZLicenseKeyx4{stroke:#000000;stroke-width:5;stroke-miterlimit:10;}
</style>
<g>
	<circle class="NZLicenseKeyx0" cx="103.29" cy="81.93" r="20.71"/>
	<circle class="NZLicenseKeyx0" cx="103.29" cy="81.93" r="9.36"/>
	<polyline class="NZLicenseKeyx0" points="94.26,100.58 94.26,123.66 103.29,119.9 112.66,123.66 112.66,100.4 	"/>
	<circle class="NZLicenseKeyx0" cx="58.53" cy="58.87" r="10.36"/>
	<path class="NZLicenseKeyx0" d="M91.69,97.99c-0.01,0.01-0.01,0.02-0.02,0.02"/>
	<path class="NZLicenseKeyx0" d="M111.63,46.41C105.72,21.13,83.1,3.63,56.95,4.36c-28.41,0.8-51.73,23.81-52.9,52.2
		C2.76,87.68,27.7,113.4,58.53,113.4c6.75,0,13.34-1.22,19.59-3.63l0,0c1.69-0.74,2.44-2.71,1.67-4.38l-0.31-0.67
		c-4.81-5.99-7.35-13.23-7.35-20.94c0-18.47,15.03-33.5,33.5-33.5c0.61,0,1.2,0.02,1.78,0.05c0.54,0.03,1.06-0.09,1.52-0.36h0
		C110.27,49.19,111.24,47.91,111.63,46.41L111.63,46.41z"/>
	<path class="NZLicenseKeyx0" d="M27.89,35.88l9.6,10.59c1.51,1.66,4.1,1.73,5.69,0.14l2.36-2.35c1.48-1.47,1.55-3.85,0.16-5.4l-9.46-10.6
		c-1.48-1.66-4.03-1.76-5.64-0.23l-2.49,2.36C26.55,31.85,26.46,34.29,27.89,35.88z"/>
</g>
</svg>
