<?xml version="1.0" encoding="utf-8"?>
<!-- Generator: Adobe Illustrator 26.0.2, SVG Export Plug-In . SVG Version: 6.00 Build 0)  -->
<svg version="1.1" id="Layer_1" xmlns="http://www.w3.org/2000/svg" xmlns:xlink="http://www.w3.org/1999/xlink" x="0px" y="0px"
	 viewBox="0 0 128 128" style="enable-background:new 0 0 128 128;" xml:space="preserve">
<style type="text/css">
	.NZSecureIconx0{stroke:#000000;stroke-miterlimit:10;}
	.NZSecureIconx1{fill:none;stroke:#000000;stroke-miterlimit:10;}
	.NZSecureIconx2{fill:none;stroke:#000000;stroke-width:5;stroke-miterlimit:10;}
	.NZSecureIconx3{fill:none;stroke:#000000;stroke-width:2;stroke-miterlimit:10;}
</style>
<polygon class="NZSecureIconx0" points="12.6,88.2 12.6,41.4 18.1,41.4 50.9,69.1 50.9,39.8 62.6,39.8 62.6,88.2 57.5,88.2 24.3,58.6 
	24.3,88.2 "/>
<polygon class="NZSecureIconx0" points="90.5,88.2 66.6,88.2 66.6,85.2 96.8,47.8 66.6,47.8 66.6,39.8 114.5,39.8 114.5,42.5 83.7,80.6 
	90.5,80.6 "/>
<rect x="107.6" y="80.6" class="NZSecureIconx0" width="7.8" height="7.6"/>
<g>
	<path class="NZSecureIconx1" d="M94.7,79.5V77c0-2.4,2-4.4,4.4-4.4c1.2,0,2.3,0.5,3.1,1.3c0.8,0.8,1.3,1.9,1.3,3.1v2.6"/>
	<path class="NZSecureIconx1" d="M103.8,89.5h-9.5c-1.3,0-2.3-1-2.3-2.3v-5.4c0-1.3,1-2.3,2.3-2.3h9.5c1.3,0,2.3,1,2.3,2.3v5.4
		C106.1,88.5,105.1,89.5,103.8,89.5z"/>
	<path class="NZSecureIconx1" d="M98.5,84.6v3.1h1.2v-3.1c0.5-0.2,0.8-0.7,0.8-1.3c0-0.8-0.6-1.4-1.4-1.4c-0.8,0-1.4,0.6-1.4,1.4
		C97.7,83.9,98,84.4,98.5,84.6z"/>
</g>
</svg>
