<?xml version="1.0" encoding="utf-8"?>
<!-- Generator: Adobe Illustrator 26.0.2, SVG Export Plug-In . SVG Version: 6.00 Build 0)  -->
<svg version="1.1" id="Layer_1" xmlns="http://www.w3.org/2000/svg" xmlns:xlink="http://www.w3.org/1999/xlink" x="0px" y="0px"
	 viewBox="0 0 128 128" style="enable-background:new 0 0 128 128;" xml:space="preserve">
<style type="text/css">
	.Locationx0{fill:none;stroke:#000000;stroke-width:5;stroke-miterlimit:10;}
	.Locationx1{fill:#5469B0;stroke:#000000;stroke-width:5;stroke-miterlimit:10;}
	.Locationx2{fill:none;stroke:#000000;stroke-width:5;stroke-linecap:round;stroke-miterlimit:10;}
</style>
<path class="Locationx1" d="M81.14,32.04c-1.99-5.96-7.29-10.69-13.44-11.98c-1.22-0.26-2.45-0.38-3.69-0.36
	c-1.24-0.01-2.48,0.11-3.69,0.36c-6.15,1.29-11.45,6.03-13.44,11.98c-0.99,2.96-1.2,6.21-0.42,9.23c0.95,3.7,3.27,6.89,5.54,9.96
	c4.01,5.43,8.01,10.85,12.02,16.28c4.01-5.43,8.01-10.85,12.02-16.28c2.27-3.08,4.59-6.26,5.54-9.96
	C82.33,38.25,82.13,35,81.14,32.04z M64,45.96c-4.97,0-9-4.03-9-9s4.03-9,9-9s9,4.03,9,9S68.97,45.96,64,45.96z"/>
<polyline class="Locationx2" points="85.71,52.04 119.81,73.38 64,108.31 8.19,73.38 42.29,52.04 "/>
</svg>
