<?xml version="1.0" encoding="utf-8"?>
<!-- Generator: Adobe Illustrator 26.0.2, SVG Export Plug-In . SVG Version: 6.00 Build 0)  -->
<svg version="1.1" id="Layer_1" xmlns="http://www.w3.org/2000/svg" xmlns:xlink="http://www.w3.org/1999/xlink" x="0px" y="0px"
	 viewBox="0 0 128 128" style="enable-background:new 0 0 128 128;" xml:space="preserve">
<style type="text/css">
	.OptimizeCapacityx0{fill:none;stroke:#000000;stroke-width:5;stroke-miterlimit:10;}
	.OptimizeCapacityx1{stroke:#000000;stroke-width:5;stroke-miterlimit:10;}
	.OptimizeCapacityx2{fill:none;stroke:#000000;stroke-width:5;stroke-linejoin:round;stroke-miterlimit:10;}
	.OptimizeCapacityx3{fill:none;stroke:#FF0000;stroke-width:5;stroke-miterlimit:10;}
	.OptimizeCapacityx4{fill:none;stroke:#000000;stroke-width:2;stroke-miterlimit:10;}
	.OptimizeCapacityx5{fill:none;stroke:#000000;stroke-width:3;stroke-miterlimit:10;}
</style>
<g>
	<path class="OptimizeCapacityx0" d="M18.45,34.19C12.73,42.71,9.4,52.96,9.4,64c0,29.61,24,53.61,53.61,53.61c4.7,0,9.26-0.6,13.59-1.74"/>
	<path class="OptimizeCapacityx0" d="M50.38,11.89c4.05-0.99,8.28-1.5,12.63-1.5c29.61,0,53.61,24,53.61,53.61c0,9.96-2.71,19.28-7.45,27.27"/>
	<polygon class="OptimizeCapacityx0" points="6.5,21.8 29.94,21.8 29.94,46.12 	"/>
	<polygon class="OptimizeCapacityx0" points="121.5,104.06 98.06,104.06 98.06,79.74 	"/>
	<line class="OptimizeCapacityx0" x1="29.94" y1="21.8" x2="29.93" y2="21.8"/>
	<circle class="OptimizeCapacityx0" cx="82.55" cy="54.29" r="8.96"/>
	<g>
		<path class="OptimizeCapacityx0" d="M77.3,68.91c0.64,0.26,1.1,0.82,1.25,1.49l0.47,2.15c0.35,1.35,1.05,2.28,2.4,2.4h2.28
			c1.35-0.12,2.05-1.05,2.4-2.4l0.47-2.15c0.15-0.67,0.61-1.23,1.25-1.49l1.36-0.57c0.64-0.26,1.36-0.2,1.94,0.17l1.85,1.19
			c1.2,0.7,2.36,0.87,3.39,0l1.61-1.61c0.87-1.03,0.7-2.19,0-3.39l-1.19-1.85c-0.37-0.58-0.44-1.3-0.17-1.94l0.57-1.36
			c0.26-0.64,0.82-1.1,1.49-1.25l2.15-0.47c1.35-0.35,2.28-1.05,2.4-2.4v-2.28c-0.12-1.35-1.05-2.05-2.4-2.4l-2.15-0.47
			c-0.67-0.15-1.23-0.61-1.49-1.25l-0.57-1.36c-0.26-0.64-0.2-1.36,0.17-1.94l1.19-1.85c0.7-1.2,0.87-2.36,0-3.39l-1.61-1.61
			c-1.03-0.87-2.19-0.7-3.39,0l-1.85,1.19c-0.58,0.37-1.3,0.44-1.94,0.17l-1.36-0.57c-0.64-0.26-1.1-0.82-1.25-1.49l-0.47-2.15
			c-0.35-1.35-1.05-2.28-2.4-2.4h-2.28c-1.35,0.12-2.05,1.05-2.4,2.4l-0.47,2.15c-0.15,0.67-0.61,1.23-1.25,1.49l-1.36,0.57
			c-0.64,0.26-1.36,0.2-1.94-0.17l-1.85-1.19c-1.2-0.7-2.36-0.87-3.39,0l-1.61,1.61c-0.87,1.03-0.7,2.19,0,3.39l1.19,1.85
			c0.37,0.58,0.44,1.3,0.17,1.94l-0.57,1.36c-0.26,0.64-0.82,1.1-1.49,1.25l-2.15,0.47c-1.35,0.35-2.28,1.05-2.4,2.4v2.28
			c0.12,1.35,1.05,2.05,2.4,2.4l2.15,0.47c0.67,0.15,1.23,0.61,1.49,1.25l0.57,1.36c0.26,0.64,0.2,1.36-0.17,1.94l-1.19,1.85
			c-0.7,1.2-0.87,2.36,0,3.39l1.61,1.61c1.03,0.87,2.19,0.7,3.39,0l1.85-1.19c0.58-0.37,1.3-0.44,1.94-0.17L77.3,68.91z"/>
	</g>
	<line class="OptimizeCapacityx0" x1="51.59" y1="90.79" x2="51.59" y2="39.42"/>
	<line class="OptimizeCapacityx0" x1="41.13" y1="90.79" x2="41.13" y2="54.99"/>
	<line class="OptimizeCapacityx0" x1="30.68" y1="90.79" x2="30.68" y2="70.55"/>
	<line class="OptimizeCapacityx0" x1="28.06" y1="94.71" x2="55.51" y2="94.71"/>
</g>
</svg>
