<?xml version="1.0" encoding="utf-8"?>
<!-- Generator: Adobe Illustrator 26.0.2, SVG Export Plug-In . SVG Version: 6.00 Build 0)  -->
<svg version="1.1" id="Layer_1" xmlns="http://www.w3.org/2000/svg" xmlns:xlink="http://www.w3.org/1999/xlink" x="0px" y="0px"
	 viewBox="0 0 128 128" style="enable-background:new 0 0 128 128;" xml:space="preserve">
<style type="text/css">
	.OptimizeNetZoomx0{fill:none;stroke:#000000;stroke-width:5;stroke-miterlimit:10;}
	.OptimizeNetZoomx1{stroke:#000000;stroke-width:5;stroke-miterlimit:10;}
	.OptimizeNetZoomx2{fill:none;stroke:#000000;stroke-width:5;stroke-linejoin:round;stroke-miterlimit:10;}
	.OptimizeNetZoomx3{fill:none;stroke:#FF0000;stroke-width:5;stroke-miterlimit:10;}
	.OptimizeNetZoomx4{fill:none;stroke:#000000;stroke-width:2;stroke-miterlimit:10;}
	.OptimizeNetZoomx5{fill:none;stroke:#000000;stroke-width:3;stroke-miterlimit:10;}
</style>
<g>
	<g>
		<circle class="OptimizeNetZoomx0" cx="62.9" cy="63.41" r="13.04"/>
		<g>
			<path class="OptimizeNetZoomx0" d="M55.25,84.69c0.92,0.38,1.6,1.19,1.82,2.17l0.68,3.13c0.51,1.96,1.53,3.32,3.49,3.49h3.32
				c1.96-0.17,2.98-1.53,3.49-3.49l0.68-3.13c0.21-0.98,0.89-1.79,1.82-2.17l1.99-0.82c0.92-0.38,1.98-0.29,2.82,0.25l2.69,1.73
				c1.75,1.02,3.43,1.26,4.94,0l2.35-2.35c1.26-1.51,1.02-3.19,0-4.94l-1.73-2.69c-0.54-0.84-0.63-1.9-0.25-2.82l0.82-1.99
				c0.38-0.92,1.19-1.6,2.17-1.82l3.13-0.68c1.96-0.51,3.32-1.53,3.49-3.49v-3.32c-0.17-1.96-1.53-2.98-3.49-3.49l-3.13-0.68
				c-0.98-0.21-1.79-0.89-2.17-1.82l-0.82-1.99c-0.38-0.92-0.29-1.98,0.25-2.82l1.73-2.69c1.02-1.75,1.26-3.43,0-4.94l-2.35-2.35
				c-1.51-1.26-3.19-1.02-4.94,0l-2.69,1.73c-0.84,0.54-1.9,0.63-2.82,0.25l-1.99-0.82c-0.92-0.38-1.6-1.19-1.82-2.17l-0.68-3.13
				c-0.51-1.96-1.53-3.32-3.49-3.49h-3.32c-1.96,0.17-2.98,1.53-3.49,3.49l-0.68,3.13c-0.21,0.98-0.89,1.79-1.82,2.17l-1.99,0.82
				c-0.92,0.38-1.98,0.29-2.82-0.25l-2.69-1.73c-1.75-1.02-3.43-1.26-4.94,0l-2.35,2.35c-1.26,1.51-1.02,3.19,0,4.94l1.73,2.69
				c0.54,0.84,0.63,1.9,0.25,2.82l-0.82,1.99c-0.38,0.92-1.19,1.6-2.17,1.82l-3.13,0.68c-1.96,0.51-3.32,1.53-3.49,3.49v3.32
				c0.17,1.96,1.53,2.98,3.49,3.49l3.13,0.68c0.98,0.21,1.79,0.89,2.17,1.82l0.82,1.99c0.38,0.92,0.29,1.98-0.25,2.82l-1.73,2.69
				c-1.02,1.75-1.26,3.43,0,4.94l2.35,2.35c1.51,1.26,3.19,1.02,4.94,0l2.69-1.73c0.84-0.54,1.9-0.63,2.82-0.25L55.25,84.69z"/>
		</g>
	</g>
	<line class="OptimizeNetZoomx0" x1="28.46" y1="19.96" x2="28.45" y2="19.96"/>
	<path class="OptimizeNetZoomx0" d="M16.47,32.89C10.5,41.79,7.02,52.48,7.02,64c0,30.9,25.04,55.94,55.94,55.94c4.9,0,9.66-0.63,14.18-1.81"/>
	<path class="OptimizeNetZoomx0" d="M49.79,9.62c4.22-1.03,8.64-1.57,13.18-1.57c30.9,0,55.94,25.04,55.94,55.94c0,10.39-2.83,20.12-7.77,28.45"/>
	<polygon class="OptimizeNetZoomx0" points="4,19.96 28.46,19.96 28.46,45.34 	"/>
	<polygon class="OptimizeNetZoomx0" points="124,105.8 99.54,105.8 99.54,80.42 	"/>
</g>
</svg>
