<?xml version="1.0" encoding="utf-8"?>
<!-- Generator: Adobe Illustrator 26.0.2, SVG Export Plug-In . SVG Version: 6.00 Build 0)  -->
<svg version="1.1" id="Layer_1" xmlns="http://www.w3.org/2000/svg" xmlns:xlink="http://www.w3.org/1999/xlink" x="0px" y="0px"
	 viewBox="0 0 128 128" style="enable-background:new 0 0 128 128;" xml:space="preserve">
<style type="text/css">
	.PhysicalComputex0{fill:none;stroke:#000000;stroke-width:5;stroke-miterlimit:10;}
	.PhysicalComputex1{stroke:#000000;stroke-width:5;stroke-miterlimit:10;}
	.PhysicalComputex2{fill:none;stroke:#000000;stroke-width:5;stroke-linejoin:round;stroke-miterlimit:10;}
	.PhysicalComputex3{fill:none;stroke:#000000;stroke-width:4;stroke-miterlimit:10;}
	.PhysicalComputex4{fill:none;stroke:#000000;stroke-width:3;stroke-miterlimit:10;}
	.PhysicalComputex5{fill:none;stroke:#FF0000;stroke-width:5;stroke-miterlimit:10;}
	.PhysicalComputex6{fill:none;stroke:#000000;stroke-width:2;stroke-miterlimit:10;}
	.PhysicalComputex7{stroke:#000000;stroke-miterlimit:10;}
	.PhysicalComputex8{fill:#FF0000;}
</style>
<rect x="38.86" y="40.41" class="PhysicalComputex0" width="46" height="46"/>
<rect x="51.12" y="52.68" class="PhysicalComputex0" width="21.46" height="21.46"/>
<g>
</g>
<g>
</g>
<line class="PhysicalComputex0" x1="74.93" y1="39.9" x2="74.93" y2="24.32"/>
<line class="PhysicalComputex0" x1="61.86" y1="39.9" x2="61.86" y2="8.22"/>
<line class="PhysicalComputex0" x1="48.79" y1="39.9" x2="48.79" y2="7.22"/>
<line class="PhysicalComputex0" x1="74.64" y1="108.57" x2="74.64" y2="85.93"/>
<line class="PhysicalComputex0" x1="61.86" y1="103.52" x2="61.86" y2="85.93"/>
<line class="PhysicalComputex0" x1="49.08" y1="119.62" x2="49.08" y2="85.93"/>
<circle class="PhysicalComputex0" cx="61.86" cy="10.18" r="3.82"/>
<circle class="PhysicalComputex0" cx="74.93" cy="26.27" r="3.82"/>
<circle class="PhysicalComputex0" cx="48.79" cy="10.18" r="3.82"/>
<circle class="PhysicalComputex0" cx="23.66" cy="21.44" r="3.82"/>
<circle class="PhysicalComputex0" cx="97.65" cy="18.63" r="3.82"/>
<circle class="PhysicalComputex0" cx="61.86" cy="101.73" r="3.82"/>
<circle class="PhysicalComputex0" cx="74.93" cy="106.78" r="3.82"/>
<circle class="PhysicalComputex0" cx="48.79" cy="117.82" r="3.82"/>
<line class="PhysicalComputex0" x1="39.26" y1="49.43" x2="17.46" y2="49.43"/>
<line class="PhysicalComputex0" x1="39.26" y1="62.5" x2="5.86" y2="62.5"/>
<line class="PhysicalComputex0" x1="39.26" y1="75.57" x2="27.81" y2="75.57"/>
<line class="PhysicalComputex0" x1="121.97" y1="49.72" x2="85.29" y2="49.72"/>
<line class="PhysicalComputex0" x1="102.88" y1="62.5" x2="85.29" y2="62.5"/>
<line class="PhysicalComputex0" x1="121.97" y1="75.27" x2="85.29" y2="75.27"/>
<circle class="PhysicalComputex0" cx="7.82" cy="62.5" r="3.82"/>
<circle class="PhysicalComputex0" cx="19.42" cy="49.43" r="3.82"/>
<circle class="PhysicalComputex0" cx="29.76" cy="75.57" r="3.82"/>
<circle class="PhysicalComputex0" cx="23.66" cy="110.46" r="3.82"/>
<circle class="PhysicalComputex0" cx="105.86" cy="95.92" r="3.82"/>
<circle class="PhysicalComputex0" cx="101.08" cy="62.5" r="3.82"/>
<circle class="PhysicalComputex0" cx="120.18" cy="49.43" r="3.82"/>
<circle class="PhysicalComputex0" cx="120.18" cy="75.57" r="3.82"/>
<polyline class="PhysicalComputex0" points="38.86,86.41 23.83,101.37 23.83,112.46 "/>
<polyline class="PhysicalComputex0" points="84.85,40.41 97.16,28.11 97.16,16.72 "/>
<polyline class="PhysicalComputex0" points="84.85,86.41 97.16,95.99 107.9,95.99 "/>
<line class="PhysicalComputex0" x1="38.86" y1="40.41" x2="22.25" y2="19.43"/>
</svg>
