<?xml version="1.0" encoding="utf-8"?>
<!-- Generator: Adobe Illustrator 26.0.2, SVG Export Plug-In . SVG Version: 6.00 Build 0)  -->
<svg version="1.1" xmlns="http://www.w3.org/2000/svg" xmlns:xlink="http://www.w3.org/1999/xlink" x="0px" y="0px"
	 viewBox="0 0 128 128" style="enable-background:new 0 0 128 128;" xml:space="preserve">
<style type="text/css">
	.NetworkPortMappingx0{fill:none;stroke:#000000;stroke-width:5;stroke-linejoin:round;stroke-miterlimit:10;}
	.NetworkPortMappingx1{fill:none;stroke:#010101;stroke-width:5;stroke-linejoin:round;stroke-miterlimit:10;}
	.NetworkPortMappingx2{fill:none;stroke:#010101;stroke-width:5;stroke-miterlimit:10;}
	.NetworkPortMappingx3{fill:none;stroke:#000000;stroke-width:4;stroke-miterlimit:10;}
	.NetworkPortMappingx4{fill:none;stroke:#000000;stroke-miterlimit:10;}
	.NetworkPortMappingx5{fill:none;stroke:#000000;stroke-width:5;stroke-miterlimit:10;}
	.NetworkPortMappingx6{fill:none;stroke:#000000;stroke-width:5;stroke-linecap:round;stroke-linejoin:round;stroke-miterlimit:10;}
	.NetworkPortMappingx7{fill:none;stroke:#020202;stroke-width:5;stroke-linecap:round;stroke-miterlimit:10;}
	.NetworkPortMappingx8{fill:none;stroke:#020202;stroke-width:5;stroke-miterlimit:10;}
	.NetworkPortMappingx9{fill:none;stroke:#020202;stroke-width:5;stroke-linecap:round;stroke-linejoin:round;stroke-miterlimit:10;}
	.NetworkPortMappingx10{fill:none;stroke:#010101;stroke-width:5;stroke-linecap:round;stroke-miterlimit:10;}
	.NetworkPortMappingx11{fill:none;stroke:#010101;stroke-miterlimit:10;}
	.NetworkPortMappingx12{fill:none;stroke:#000000;stroke-width:5;stroke-linecap:round;stroke-miterlimit:10;}
	.NetworkPortMappingx13{fill:none;stroke:#000000;stroke-width:4;stroke-linecap:round;stroke-linejoin:round;stroke-miterlimit:10;}
</style>
<g id="Layer_1">
</g>
<g id="Layer_2">
	<g>
		<rect x="13.69" y="93.72" class="NetworkPortMappingx5" width="21.19" height="21.19"/>
		<polyline class="NetworkPortMappingx5" points="53.41,93.72 64,93.72 74.59,93.72 		"/>
		<polyline class="NetworkPortMappingx5" points="93.12,93.72 103.72,93.72 103.72,78.7 64,78.7 23.85,78.7 23.85,93.72 34.88,93.72 		"/>
		<rect x="53.41" y="93.72" class="NetworkPortMappingx5" width="21.19" height="21.19"/>
		<rect x="93.12" y="93.72" class="NetworkPortMappingx5" width="21.19" height="21.19"/>
		<line class="NetworkPortMappingx5" x1="64" y1="63.97" x2="64" y2="93.72"/>
		<rect x="13.69" y="93.72" class="NetworkPortMappingx4" width="21.19" height="21.19"/>
		<g>
			<path class="NetworkPortMappingx2" d="M76.71,64.29H52.69v-7.01h-5.75v-7.57H36.3V19.64c0-3.61,2.94-6.55,6.55-6.55h42.29
				c3.61,0,6.55,2.94,6.55,6.55v30.07h-7.85v7.57h-7.15V64.29z"/>
		</g>
		<g>
			<line class="NetworkPortMappingx11" x1="46.37" y1="20.12" x2="46.37" y2="27.04"/>
			<line class="NetworkPortMappingx11" x1="51.41" y1="20.12" x2="51.41" y2="27.04"/>
			<line class="NetworkPortMappingx11" x1="56.45" y1="20.12" x2="56.45" y2="27.04"/>
			<line class="NetworkPortMappingx11" x1="61.48" y1="20.12" x2="61.48" y2="27.04"/>
			<line class="NetworkPortMappingx11" x1="66.52" y1="20.12" x2="66.52" y2="27.04"/>
			<line class="NetworkPortMappingx11" x1="71.55" y1="20.12" x2="71.55" y2="27.04"/>
			<line class="NetworkPortMappingx11" x1="76.59" y1="20.12" x2="76.59" y2="27.04"/>
			<line class="NetworkPortMappingx11" x1="81.63" y1="20.12" x2="81.63" y2="27.04"/>
		</g>
	</g>
</g>
</svg>
