<?xml version="1.0" encoding="utf-8"?>
<!-- Generator: Adobe Illustrator 26.0.2, SVG Export Plug-In . SVG Version: 6.00 Build 0)  -->
<svg version="1.1" id="Layer_1" xmlns="http://www.w3.org/2000/svg" xmlns:xlink="http://www.w3.org/1999/xlink" x="0px" y="0px"
	 viewBox="0 0 128 128" style="enable-background:new 0 0 128 128;" xml:space="preserve">
<style type="text/css">
	.PowerEfficiencyx0{fill:none;stroke:#000000;stroke-width:5;stroke-linecap:round;stroke-linejoin:round;stroke-miterlimit:10;}
</style>
<g>
	<polygon class="PowerEfficiencyx0" points="75.11,33.54 45.95,68 58.89,68 51.12,92.24 79.05,57.98 66.6,57.98 	"/>
	<path class="PowerEfficiencyx0" d="M93.36,22.54c13.03,9.2,21.51,24.36,21.51,41.5c0,28.09-22.78,50.87-50.87,50.87c-1.72,0-3.42-0.08-5.09-0.25"
		/>
	<path class="PowerEfficiencyx0" d="M33.44,104.69c-12.34-9.28-20.31-24.04-20.31-40.65c0-28.08,22.78-50.85,50.87-50.85
		c0.9,0,1.81,0.03,2.69,0.08"/>
	<polygon class="PowerEfficiencyx0" points="70.14,6.66 62.5,19.9 77.79,19.9 	"/>
	<polygon class="PowerEfficiencyx0" points="46.8,109.18 56.06,121.34 61.96,107.23 	"/>
</g>
</svg>
