<?xml version="1.0" encoding="utf-8"?>
<!-- Generator: Adobe Illustrator 26.0.2, SVG Export Plug-In . SVG Version: 6.00 Build 0)  -->
<svg version="1.1" id="Layer_1" xmlns="http://www.w3.org/2000/svg" xmlns:xlink="http://www.w3.org/1999/xlink" x="0px" y="0px"
	 viewBox="0 0 128 128" style="enable-background:new 0 0 128 128;" xml:space="preserve">
<style type="text/css">
	.PowerCablingx0{fill:none;stroke:#000000;stroke-width:5;stroke-miterlimit:10;}
	.PowerCablingx1{stroke:#000000;stroke-width:5;stroke-miterlimit:10;}
	.PowerCablingx2{fill:none;stroke:#000000;stroke-width:5;stroke-linejoin:round;stroke-miterlimit:10;}
	.PowerCablingx3{fill:none;stroke:#000000;stroke-width:4;stroke-miterlimit:10;}
	.PowerCablingx4{fill:none;stroke:#000000;stroke-width:3;stroke-miterlimit:10;}
	.PowerCablingx5{fill:none;stroke:#FF0000;stroke-width:5;stroke-miterlimit:10;}
	.PowerCablingx6{fill:none;stroke:#000000;stroke-width:2;stroke-miterlimit:10;}
	.PowerCablingx7{stroke:#000000;stroke-miterlimit:10;}
	.PowerCablingx8{fill:#FF0000;}
</style>
<g>
	<line class="PowerCablingx0" x1="24.45" y1="64" x2="103.55" y2="64"/>
	<g>
		<path class="PowerCablingx0" d="M118.59,57.01v13.98h-9.89c-2.75,0-4.98-2.23-4.98-4.98v-4.01c0-2.75,2.23-4.98,4.98-4.98H118.59z"/>
		<line class="PowerCablingx0" x1="118.59" y1="74.41" x2="118.59" y2="53.59"/>
		<g>
			<line class="PowerCablingx0" x1="118.55" y1="67.41" x2="124" y2="67.41"/>
			<line class="PowerCablingx0" x1="118.55" y1="60.59" x2="124" y2="60.59"/>
		</g>
	</g>
	<g>
		<path class="PowerCablingx0" d="M9.41,70.99V57.01h9.89c2.75,0,4.98,2.23,4.98,4.98v4.01c0,2.75-2.23,4.98-4.98,4.98H9.41z"/>
		<line class="PowerCablingx0" x1="9.41" y1="53.59" x2="9.41" y2="74.41"/>
		<g>
			<line class="PowerCablingx0" x1="9.45" y1="60.59" x2="4" y2="60.59"/>
			<line class="PowerCablingx0" x1="9.45" y1="67.41" x2="4" y2="67.41"/>
		</g>
	</g>
</g>
</svg>
