<svg id="Layer_1" data-name="Layer 1" xmlns="http://www.w3.org/2000/svg" viewBox="0 0 128 128"><defs><style>.cls-1{fill:none;stroke:red;stroke-miterlimit:10;stroke-width:5px;}.cls-2{fill:red;}</style></defs><path class="cls-1" d="M120,52.94,97.15,32.2A9.15,9.15,0,0,0,91,29.82H37a9.15,9.15,0,0,0-6.15,2.38L8.13,52.83,8,52.94a14.61,14.61,0,0,0-.43,19.65L30.74,95.53a9.08,9.08,0,0,0,6.44,2.65H90.82a9.08,9.08,0,0,0,6.44-2.65l23-22.82.11-.12A14.61,14.61,0,0,0,120,52.94Z"/><circle class="cls-2" cx="16.37" cy="62.97" r="4.09"/><path class="cls-2" d="M16.37,67.11A4.14,4.14,0,1,1,20.51,63,4.14,4.14,0,0,1,16.37,67.11Zm0-8.17a4,4,0,1,0,4,4A4,4,0,0,0,16.37,58.94Z"/><circle class="cls-2" cx="112.32" cy="62.97" r="4.09"/><path class="cls-2" d="M112.32,67.11A4.14,4.14,0,1,1,116.45,63,4.14,4.14,0,0,1,112.32,67.11Zm0-8.17a4,4,0,1,0,4,4A4,4,0,0,0,112.32,58.94Z"/><rect class="cls-1" x="36.73" y="43.89" width="54.55" height="40.23" rx="4.86"/><line class="cls-1" x1="49" y1="51.73" x2="49" y2="68.09"/><line class="cls-1" x1="79" y1="51.73" x2="79" y2="68.09"/><line class="cls-1" x1="64" y1="59.91" x2="64" y2="76.27"/></svg>