<?xml version="1.0" encoding="utf-8"?>
<!-- Generator: Adobe Illustrator 26.0.2, SVG Export Plug-In . SVG Version: 6.00 Build 0)  -->
<svg version="1.1" id="Layer_1" xmlns="http://www.w3.org/2000/svg" xmlns:xlink="http://www.w3.org/1999/xlink" x="0px" y="0px"
	 viewBox="0 0 128 128" style="enable-background:new 0 0 128 128;" xml:space="preserve">
<style type="text/css">
	.Propertyx0{fill:none;stroke:#010101;stroke-width:5;stroke-miterlimit:10;}
	.Propertyx1{fill:none;stroke:#010101;stroke-width:3;stroke-miterlimit:10;}
	.Propertyx2{fill:#010101;stroke:#010101;stroke-miterlimit:10;}
	.Propertyx3{fill:#010101;}
	.Propertyx4{fill:#010101;stroke:#010101;stroke-width:5;stroke-miterlimit:10;}
	.Propertyx5{fill:none;stroke:#010101;stroke-width:2;stroke-miterlimit:10;}
</style>
<g>
	<path class="Propertyx0" d="M124,17.02v11.52H4V17.02C4,9.82,9.82,4,17.02,4h93.95C118.18,4,124,9.82,124,17.02z"/>
	<path class="Propertyx0" d="M124,28.55v85.16c0,4.47-5.82,10.3-13.02,10.3H17.02C9.82,124,4,118.18,4,113.7V28.55H124z"/>
	<line class="Propertyx0" x1="43.55" y1="47.51" x2="103.55" y2="47.51"/>
	<line class="Propertyx0" x1="24.45" y1="47.51" x2="36.73" y2="47.51"/>
	<line class="Propertyx0" x1="43.55" y1="66.69" x2="103.55" y2="66.69"/>
	<line class="Propertyx0" x1="24.45" y1="66.69" x2="36.73" y2="66.69"/>
	<line class="Propertyx0" x1="43.55" y1="85.86" x2="103.55" y2="85.86"/>
	<line class="Propertyx0" x1="24.45" y1="85.86" x2="36.73" y2="85.86"/>
	<line class="Propertyx0" x1="43.55" y1="105.03" x2="103.55" y2="105.03"/>
	<line class="Propertyx0" x1="24.45" y1="105.03" x2="36.73" y2="105.03"/>
</g>
</svg>
