<?xml version="1.0" encoding="utf-8"?>
<!-- Generator: Adobe Illustrator 26.0.2, SVG Export Plug-In . SVG Version: 6.00 Build 0)  -->
<svg version="1.1" id="Layer_1" xmlns="http://www.w3.org/2000/svg" xmlns:xlink="http://www.w3.org/1999/xlink" x="0px" y="0px"
	 viewBox="0 0 128 128" style="enable-background:new 0 0 128 128;" xml:space="preserve">
<style type="text/css">
	.RackCapacityx0{fill:none;stroke:#000000;stroke-width:5;stroke-miterlimit:10;}
	.RackCapacityx1{fill:none;stroke:#000000;stroke-width:5;stroke-linecap:round;stroke-miterlimit:10;}
	.RackCapacityx2{fill:none;stroke:#000000;stroke-width:5;stroke-linecap:round;stroke-linejoin:round;stroke-miterlimit:21.3333;}
	.RackCapacityx3{fill:#FFFFFF;fill-opacity:0;stroke:#000000;stroke-width:5;stroke-linecap:round;stroke-miterlimit:10;}
	.RackCapacityx4{fill:none;stroke:#000000;stroke-width:4;stroke-linecap:round;stroke-miterlimit:10;}
	.RackCapacityx5{fill:none;stroke:#010101;stroke-width:5;stroke-miterlimit:10;}
	.RackCapacityx6{fill:none;stroke:#010101;stroke-width:3;stroke-miterlimit:10;}
	.RackCapacityx7{fill:none;stroke:#010101;stroke-width:5;stroke-linecap:round;stroke-miterlimit:10;}
	.RackCapacityx8{fill:none;stroke:#010101;stroke-width:4;stroke-miterlimit:10;}
	.RackCapacityx9{fill:none;stroke:#010101;stroke-width:5;stroke-linecap:round;stroke-linejoin:round;stroke-miterlimit:10;}
	.RackCapacityx10{fill:none;stroke:#020202;stroke-width:5;stroke-miterlimit:10;}
	.RackCapacityx11{fill:none;stroke:#000000;stroke-width:5;stroke-linecap:round;stroke-linejoin:round;stroke-miterlimit:10;}
	.RackCapacityx12{fill:none;stroke:#000000;stroke-width:5;stroke-linejoin:round;stroke-miterlimit:10;}
	.RackCapacityx13{fill:none;stroke:#010101;stroke-width:3;stroke-linecap:round;stroke-linejoin:round;stroke-miterlimit:10;}
</style>
<polyline class="RackCapacityx9" points="108.1,63.9 108.1,112.8 108.1,124 88.3,124 88.3,115.6 39.8,115.6 39.8,124 20,124 20,112.8 20,4 
	62,4 "/>
<polyline class="RackCapacityx13" points="98.9,63.9 98.9,71.3 98.9,78.7 98.9,86.1 98.9,93.4 98.9,100.8 98.9,107.6 29.2,107.6 29.2,100.8 
	29.2,93.4 29.2,86.1 29.2,78.7 29.2,71.3 29.2,63.9 29.2,56.6 29.2,49.2 29.2,41.9 29.2,34.5 29.2,27.1 29.2,19.7 29.2,12.9 
	62,12.9 "/>
<polyline class="RackCapacityx13" points="62,27.1 29.2,27.1 29.2,19.7 62,19.7 "/>
<polyline class="RackCapacityx6" points="62,41.9 29.2,41.9 29.2,34.5 62,34.5 "/>
<polyline class="RackCapacityx6" points="62,56.6 29.2,56.6 29.2,49.2 62,49.2 "/>
<rect x="29.2" y="63.9" class="RackCapacityx6" width="69.7" height="7.4"/>
<rect x="29.2" y="78.7" class="RackCapacityx6" width="69.7" height="7.4"/>
<rect x="29.2" y="93.4" class="RackCapacityx6" width="69.7" height="7.4"/>
<g>
	<polyline class="RackCapacityx6" points="98.9,34.5 98.9,34 98.9,27.1 98.9,26.6 98.9,25.1 	"/>
	<polyline class="RackCapacityx6" points="92.3,27.1 98.5,27.1 98.9,27.1 98.9,26.6 98.9,25.1 	"/>
	<line class="RackCapacityx6" x1="79.6" y1="19.7" x2="73.8" y2="19.7"/>
	<line class="RackCapacityx6" x1="98.9" y1="34.5" x2="96.6" y2="34.5"/>
	<path class="RackCapacityx9" d="M96.6,53c-4.5,0-8.6-1.2-12.2-3.3c-3.7-2.1-6.8-5.2-9-9c-2.1-3.6-3.3-7.8-3.3-12.3s1.2-8.7,3.3-12.3
		c2.1-3.7,5.2-6.8,9-9C88,5.2,92.2,4,96.6,4s8.7,1.2,12.2,3.3c3.7,2.1,6.8,5.2,9,9c2.1,3.6,3.3,7.8,3.3,12.3c0,4.7-1.3,9-3.6,12.8"
		/>
	<circle class="RackCapacityx9" cx="96.6" cy="29.5" r="5"/>
	<circle class="RackCapacityx9" cx="96.6" cy="29.5" r="1.2"/>
	<line class="RackCapacityx9" x1="96.6" y1="5" x2="96.6" y2="10.4"/>
	<line class="RackCapacityx9" x1="96.6" y1="29.7" x2="96.6" y2="29.5"/>
	<line class="RackCapacityx9" x1="96.6" y1="29.5" x2="105" y2="18.6"/>
	<path class="RackCapacityx9" d="M96.6,47.6V53V47.6z"/>
	<g>
		<line class="RackCapacityx9" x1="84.4" y1="8.3" x2="87.1" y2="13"/>
	</g>
	<g>
		<line class="RackCapacityx9" x1="75.4" y1="17.3" x2="80.1" y2="20"/>
	</g>
	<g>
		<line class="RackCapacityx9" x1="72.1" y1="29.5" x2="77.5" y2="29.5"/>
		<line class="RackCapacityx9" x1="115.7" y1="29.5" x2="121.1" y2="29.5"/>
	</g>
	<line class="RackCapacityx9" x1="76.4" y1="41.8" x2="81.1" y2="39.1"/>
	<line class="RackCapacityx9" x1="113.2" y1="21" x2="117.8" y2="18.3"/>
	<line class="RackCapacityx9" x1="85.4" y1="49.7" x2="88.1" y2="45.1"/>
	<line class="RackCapacityx9" x1="108.2" y1="13" x2="110.9" y2="8.3"/>
</g>
</svg>
