<?xml version="1.0" encoding="utf-8"?>
<!-- Generator: Adobe Illustrator 26.0.2, SVG Export Plug-In . SVG Version: 6.00 Build 0)  -->
<svg version="1.1" id="Layer_1" xmlns="http://www.w3.org/2000/svg" xmlns:xlink="http://www.w3.org/1999/xlink" x="0px" y="0px"
	 viewBox="0 0 128 128" style="enable-background:new 0 0 128 128;" xml:space="preserve">
<style type="text/css">
	.RaisedFloorx0{fill:none;stroke:#000000;stroke-width:5;stroke-miterlimit:10;}
	.RaisedFloorx1{fill:none;stroke:#000000;stroke-width:3;stroke-miterlimit:10;}
</style>
<rect x="4" y="4" class="RaisedFloorx0" width="120" height="120"/>
<g>
	<path class="RaisedFloorx1" d="M28.1,38.1c3.5-0.7,8.5-1.1,13.3-1.1c7.4,0,12.2,1.4,15.5,4.4c2.7,2.4,4.2,6,4.2,10.2
		c0,7.1-4.5,11.8-10.1,13.7v0.2c4.1,1.4,6.6,5.3,7.9,10.8c1.8,7.5,3,12.7,4.1,14.7h-7.2c-0.9-1.5-2.1-6.1-3.6-12.8
		c-1.6-7.4-4.5-10.2-10.7-10.4h-6.5V91h-6.9V38.1z M35.1,62.5h7.1c7.4,0,12.1-4.1,12.1-10.2c0-6.9-5-9.9-12.3-10
		c-3.3,0-5.7,0.3-6.8,0.6V62.5z"/>
	<path class="RaisedFloorx1" d="M71,37.4h28.9v5.8h-22V61h20.3v5.7H77.9V91H71V37.4z"/>
</g>
</svg>
