<?xml version="1.0" encoding="utf-8"?>
<!-- Generator: Adobe Illustrator 26.0.2, SVG Export Plug-In . SVG Version: 6.00 Build 0)  -->
<svg version="1.1" id="Layer_1" xmlns="http://www.w3.org/2000/svg" xmlns:xlink="http://www.w3.org/1999/xlink" x="0px" y="0px"
	 viewBox="0 0 128 128" style="enable-background:new 0 0 128 128;" xml:space="preserve">
<style type="text/css">
	.RawDatax0{fill:none;stroke:#000000;stroke-width:5;stroke-linecap:round;stroke-linejoin:round;stroke-miterlimit:21.3333;}
	.RawDatax1{fill:none;stroke:#000000;stroke-width:5;stroke-miterlimit:10;}
	.RawDatax2{stroke:#000000;stroke-linecap:round;stroke-linejoin:round;stroke-miterlimit:10;}
</style>
<path class="RawDatax0" d="M108.5,104.5v4.7c0,6.8-5.5,12.3-12.3,12.3H31.8c-6.8,0-12.3-5.5-12.3-12.3v-4.7"/>
<path class="RawDatax0" d="M19.5,71.3V18.8C19.5,12,25,6.5,31.8,6.5h47.9h0.2l28.5,31v0.6v33.1"/>
<polyline class="RawDatax0" points="108.1,38.7 107.5,38.7 78.8,38.7 78.8,7 78.8,6.8 "/>
<path class="RawDatax1" d="M115,104.5H13c-3.9,0-7.1-3.2-7.1-7.1v-19c0-3.9,3.2-7.1,7.1-7.1h102c3.9,0,7.1,3.2,7.1,7.1v19
	C122.1,101.3,118.9,104.5,115,104.5z"/>
<rect x="61.6" y="29.5" class="RawDatax1" width="7.3" height="41.9"/>
<rect x="44.9" y="33.4" class="RawDatax1" width="7.3" height="37.9"/>
<rect x="28.3" y="40" class="RawDatax1" width="7.3" height="31.4"/>
<g>
	<path class="RawDatax2" d="M24,96.6V78.5h11.1c2.8,0,4.8,0.2,6.1,0.5s2.3,0.9,3,1.7c0.8,0.8,1.1,1.8,1.1,2.9c0,1.4-0.6,2.5-1.7,3.4
		c-1.2,0.9-2.9,1.4-5.2,1.7c1.1,0.5,2.1,1,2.8,1.5c0.7,0.6,1.7,1.5,3,2.9l3.2,3.5h-6.3l-3.8-3.9c-1.4-1.4-2.3-2.3-2.8-2.7
		c-0.5-0.4-1-0.6-1.6-0.8c-0.6-0.1-1.4-0.2-2.7-0.2h-1.1v7.6H24z M29.3,86.1h3.9c2.5,0,4.1-0.1,4.8-0.2c0.6-0.1,1.1-0.4,1.5-0.8
		s0.5-0.8,0.5-1.4s-0.2-1.1-0.7-1.5s-1.1-0.6-2-0.7c-0.4,0-1.7-0.1-3.9-0.1h-4.1C29.3,81.4,29.3,86.1,29.3,86.1z"/>
	<path class="RawDatax2" d="M74,96.6h-5.8L66,92.5H55.5l-2.2,4.1h-5.6l10.2-18.1h5.6L74,96.6z M64.3,89.4l-3.6-6.7l-3.5,6.7H64.3z"/>
	<path class="RawDatax2" d="M78.5,96.6l-6.3-18.1h5.4l3.9,12.4l4.8-12.4h6.3l4.6,12.6l4-12.6h5.3l-6.4,18.1h-5.6l-5-13.6l-5.2,13.5
		L78.5,96.6L78.5,96.6z"/>
</g>
</svg>
