<?xml version="1.0" encoding="utf-8"?>
<!-- Generator: Adobe Illustrator 26.0.2, SVG Export Plug-In . SVG Version: 6.00 Build 0)  -->
<svg version="1.1" id="Layer_1" xmlns="http://www.w3.org/2000/svg" xmlns:xlink="http://www.w3.org/1999/xlink" x="0px" y="0px"
	 viewBox="0 0 128 128" style="enable-background:new 0 0 128 128;" xml:space="preserve">
<style type="text/css">
	.ReconfigureNetZoomx0{fill:none;stroke:#000000;stroke-width:5;stroke-miterlimit:10;}
	.ReconfigureNetZoomx1{stroke:#000000;stroke-width:5;stroke-miterlimit:10;}
	.ReconfigureNetZoomx2{fill:none;stroke:#000000;stroke-width:5;stroke-linejoin:round;stroke-miterlimit:10;}
	.ReconfigureNetZoomx3{fill:none;stroke:#000000;stroke-width:4;stroke-miterlimit:10;}
	.ReconfigureNetZoomx4{fill:none;stroke:#000000;stroke-width:3;stroke-miterlimit:10;}
	.ReconfigureNetZoomx5{fill:none;stroke:#FF0000;stroke-width:5;stroke-miterlimit:10;}
	.ReconfigureNetZoomx6{fill:none;stroke:#000000;stroke-width:2;stroke-miterlimit:10;}
	.ReconfigureNetZoomx7{stroke:#000000;stroke-miterlimit:10;}
	.ReconfigureNetZoomx8{fill:#FF0000;}
</style>
<g>
	<g>
		<circle class="ReconfigureNetZoomx0" cx="94.01" cy="39.29" r="13"/>
		<g>
			<path class="ReconfigureNetZoomx0" d="M86.38,60.51c0.92,0.38,1.6,1.19,1.81,2.17l0.68,3.12c0.51,1.95,1.53,3.31,3.48,3.48h3.31
				c1.95-0.17,2.97-1.53,3.48-3.48l0.68-3.12c0.21-0.98,0.89-1.78,1.81-2.17l1.98-0.82c0.92-0.38,1.97-0.29,2.81,0.25l2.68,1.72
				c1.74,1.02,3.42,1.26,4.92,0l2.34-2.34c1.26-1.5,1.02-3.18,0-4.92l-1.72-2.68c-0.54-0.84-0.63-1.89-0.25-2.81l0.82-1.98
				c0.38-0.92,1.19-1.6,2.17-1.81l3.12-0.68c1.95-0.51,3.31-1.53,3.48-3.48v-3.31c-0.17-1.95-1.53-2.97-3.48-3.48l-3.12-0.68
				c-0.98-0.21-1.78-0.89-2.17-1.81l-0.82-1.98c-0.38-0.92-0.29-1.97,0.25-2.81l1.72-2.68c1.02-1.74,1.26-3.42,0-4.92l-2.34-2.34
				c-1.5-1.26-3.18-1.02-4.92,0l-2.68,1.72c-0.84,0.54-1.89,0.63-2.81,0.25l-1.98-0.82c-0.92-0.38-1.6-1.19-1.81-2.17l-0.68-3.12
				c-0.51-1.95-1.53-3.31-3.48-3.48h-3.31c-1.95,0.17-2.97,1.53-3.48,3.48l-0.68,3.12c-0.21,0.98-0.89,1.78-1.81,2.17l-1.98,0.82
				c-0.92,0.38-1.97,0.29-2.81-0.25l-2.68-1.72c-1.74-1.02-3.42-1.26-4.92,0l-2.34,2.34c-1.26,1.5-1.02,3.18,0,4.92l1.72,2.68
				c0.54,0.84,0.63,1.89,0.25,2.81l-0.82,1.98c-0.38,0.92-1.19,1.6-2.17,1.81l-3.12,0.68c-1.95,0.51-3.31,1.53-3.48,3.48v3.31
				c0.17,1.95,1.53,2.97,3.48,3.48l3.12,0.68c0.98,0.21,1.78,0.89,2.17,1.81l0.82,1.98c0.38,0.92,0.29,1.97-0.25,2.81l-1.72,2.68
				c-1.02,1.74-1.26,3.42,0,4.92l2.34,2.34c1.5,1.26,3.18,1.02,4.92,0l2.68-1.72c0.84-0.54,1.89-0.63,2.81-0.25L86.38,60.51z"/>
		</g>
	</g>
	<path class="ReconfigureNetZoomx0" d="M76.89,16.11h-1.24H13.07c-5,0-9.07,4.06-9.07,9.05v60.4c0,5,4.06,9.07,9.07,9.07H59.1h46.02
		c5,0,9.07-4.06,9.07-9.07V61.52v-0.19"/>
	<line class="ReconfigureNetZoomx0" x1="59.09" y1="118.7" x2="59.09" y2="94.63"/>
	<line class="ReconfigureNetZoomx0" x1="23.63" y1="118.7" x2="94.55" y2="118.7"/>
	<rect x="19.68" y="26.5" class="ReconfigureNetZoomx0" width="27.27" height="57.27"/>
</g>
</svg>
