<?xml version="1.0" encoding="utf-8"?>
<!-- Generator: Adobe Illustrator 26.0.2, SVG Export Plug-In . SVG Version: 6.00 Build 0)  -->
<svg version="1.1" id="Layer_1" xmlns="http://www.w3.org/2000/svg" xmlns:xlink="http://www.w3.org/1999/xlink" x="0px" y="0px"
	 viewBox="0 0 128 128" style="enable-background:new 0 0 128 128;" xml:space="preserve">
<style type="text/css">
	.RecreateDeviceViewx0{fill:none;stroke:#010101;stroke-width:5;stroke-miterlimit:10;}
	.RecreateDeviceViewx1{fill:none;stroke:#010101;stroke-width:3;stroke-miterlimit:10;}
	.RecreateDeviceViewx2{fill:#010101;stroke:#010101;stroke-miterlimit:10;}
	.RecreateDeviceViewx3{fill:#010101;}
	.RecreateDeviceViewx4{fill:#010101;stroke:#010101;stroke-width:5;stroke-miterlimit:10;}
	.RecreateDeviceViewx5{fill:none;stroke:#010101;stroke-width:2;stroke-miterlimit:10;}
</style>
<g>
	<g>
		<path class="RecreateDeviceViewx0" d="M42.35,42.76v-4.27V34.6c0-4.1,3.32-7.42,7.42-7.42h28.44c4.11,0,7.43,3.32,7.43,7.42v21.37v30.21v4.11v3.11
			c0,4.1-3.32,7.42-7.43,7.42H49.77c-4.1,0-7.42-3.32-7.42-7.42v-9.1V42.76z"/>
		<line class="RecreateDeviceViewx0" x1="42.35" y1="38.49" x2="85.53" y2="38.49"/>
		<line class="RecreateDeviceViewx0" x1="57.95" y1="32.64" x2="70.82" y2="32.64"/>
		<line class="RecreateDeviceViewx0" x1="43.05" y1="90.29" x2="85.65" y2="90.29"/>
	</g>
	<g>
		<path class="RecreateDeviceViewx0" d="M75.38,8.05L75.38,8.05c22.84,4.41,40.82,22.4,45.24,45.23"/>
		<path class="RecreateDeviceViewx0" d="M8.41,75.82c4.47,21.7,21.22,38.91,42.67,44.04"/>
		<path class="RecreateDeviceViewx0" d="M8.48,52.33c4.66-22.08,22.06-39.46,44.15-44.1"/>
		<path class="RecreateDeviceViewx0" d="M75.31,120.41c21.76-4.18,39.13-20.68,44.58-41.97"/>
		<polyline class="RecreateDeviceViewx0" points="4,41.38 8.48,52.33 18.43,44.08 		"/>
		<polyline class="RecreateDeviceViewx0" points="88.29,4.23 75.38,8.05 83.64,19.24 		"/>
		<polyline class="RecreateDeviceViewx0" points="108.99,85.99 119.89,78.44 124,89.1 		"/>
		<polyline class="RecreateDeviceViewx0" points="44.31,110.32 51.08,119.87 40.68,123.77 		"/>
	</g>
</g>
</svg>
