<?xml version="1.0" encoding="utf-8"?>
<!-- Generator: Adobe Illustrator 26.0.2, SVG Export Plug-In . SVG Version: 6.00 Build 0)  -->
<svg version="1.1" id="Layer_1" xmlns="http://www.w3.org/2000/svg" xmlns:xlink="http://www.w3.org/1999/xlink" x="0px" y="0px"
	 viewBox="0 0 128 128" style="enable-background:new 0 0 128 128;" xml:space="preserve">
<style type="text/css">
	.RecreateLayoutx0{fill:none;stroke:#010101;stroke-width:5;stroke-miterlimit:10;}
	.RecreateLayoutx1{fill:none;stroke:#010101;stroke-width:3;stroke-miterlimit:10;}
	.RecreateLayoutx2{fill:#010101;stroke:#010101;stroke-miterlimit:10;}
	.RecreateLayoutx3{fill:#010101;}
	.RecreateLayoutx4{fill:#010101;stroke:#010101;stroke-width:5;stroke-miterlimit:10;}
	.RecreateLayoutx5{fill:none;stroke:#010101;stroke-width:2;stroke-miterlimit:10;}
</style>
<g>
	<polyline class="RecreateLayoutx0" points="52.65,96.79 95.53,96.79 95.53,34.06 32.81,34.06 32.81,96.79 41.13,96.79 	"/>
	<line class="RecreateLayoutx0" x1="71.21" y1="34.06" x2="71.21" y2="51.67"/>
	<line class="RecreateLayoutx0" x1="32.81" y1="63.59" x2="52.33" y2="63.59"/>
	<line class="RecreateLayoutx0" x1="52.33" y1="49.67" x2="52.33" y2="77.51"/>
	<polyline class="RecreateLayoutx0" points="70.83,63.59 70.83,76.84 95.53,76.84 	"/>
</g>
<g>
	<path class="RecreateLayoutx0" d="M75.55,9.48L75.55,9.48c22.84,4.41,40.82,22.4,45.24,45.23"/>
	<path class="RecreateLayoutx0" d="M8.58,77.25c4.47,21.7,21.22,38.91,42.67,44.04"/>
	<path class="RecreateLayoutx0" d="M8.65,53.76c4.66-22.08,22.06-39.46,44.15-44.1"/>
	<path class="RecreateLayoutx0" d="M75.48,121.83c21.76-4.18,39.13-20.68,44.58-41.97"/>
	<polyline class="RecreateLayoutx0" points="4.17,42.81 8.65,53.76 18.6,45.51 	"/>
	<polyline class="RecreateLayoutx0" points="88.46,5.66 75.55,9.48 83.81,20.67 	"/>
	<polyline class="RecreateLayoutx0" points="109.16,87.42 120.06,79.87 124.17,90.53 	"/>
	<polyline class="RecreateLayoutx0" points="44.48,111.74 51.25,121.29 40.85,125.2 	"/>
</g>
</svg>
