<?xml version="1.0" encoding="utf-8"?>
<!-- Generator: Adobe Illustrator 26.0.2, SVG Export Plug-In . SVG Version: 6.00 Build 0)  -->
<svg version="1.1" id="Layer_1" xmlns="http://www.w3.org/2000/svg" xmlns:xlink="http://www.w3.org/1999/xlink" x="0px" y="0px"
	 viewBox="0 0 128 128" style="enable-background:new 0 0 128 128;" xml:space="preserve">
<style type="text/css">
	.Reminderx0{fill:none;stroke:#000000;stroke-width:5;stroke-miterlimit:10;}
	.Reminderx1{fill:none;stroke:#000000;stroke-width:4;stroke-miterlimit:10;}
	.Reminderx2{fill:none;stroke:#000000;stroke-width:3;stroke-linecap:round;stroke-linejoin:round;stroke-miterlimit:10;}
	.Reminderx3{fill:none;stroke:#000000;stroke-width:3;stroke-miterlimit:10;}
	.Reminderx4{stroke:#000000;stroke-width:5;stroke-miterlimit:10;}
</style>
<g>
	<path class="Reminderx0" d="M20,100.7C20,100.7,20,100.7,20,100.7c-0.1-0.3,0-0.3,0-0.3c0.1,0,0.1,0,0.1-0.4c0,0,0,0,0,0s0,0,0,0
		c0-2.4,0.8-4.8,2.4-6.8c4.9-6,8.1-13.1,9.5-20.8c0.6-3.6,0.9-7.2,1.1-11c0.2-2.9,0.4-5.9,0.8-8.9c1.4-11,7.4-18.7,17.5-22.7
		c1.7-0.7,3.4-1.2,5.1-1.6v-3.9c0-4.3,3.8-7.8,8.2-7.4c3.8,0.4,6.6,3.9,6.6,7.7v3.6c1.7,0.4,3.4,0.9,5.1,1.6
		c10.2,4,16.1,11.7,17.5,22.7c0.4,3,0.6,6,0.8,8.9c0.2,3.8,0.5,7.4,1.1,11c1.4,7.6,4.7,14.8,9.5,20.8c1.6,2,2.4,4.4,2.4,6.8"/>
	<ellipse class="Reminderx0" cx="64" cy="100.8" rx="43.9" ry="10.3"/>
	<path class="Reminderx4" d="M66,98.4v-6.7h-3.2v6.7c-1.7,0.6-2.9,2.3-2.9,4.2c0,2.5,2,4.5,4.5,4.5c2.5,0,4.5-2,4.5-4.5
		C68.9,100.7,67.7,99,66,98.4z"/>
	<g>
		<g>
			<path d="M108.7,84c6,0.4,10.5,6.4,10.7,12.2c0.3,5.8-2.5,11.2-6.8,14.9c0.3-2.7,0.8-5.2,1.3-7.7C115.2,96,114.2,89.7,108.7,84
				L108.7,84z"/>
		</g>
		<g>
			<path d="M119,87.9c5.4,1.4,8.4,7.6,7.2,12.9c-0.5,2.6-2,5-4.1,6.6c-0.4,0.3-0.8,0.6-1.3,0.8c0-1.1,0.2-2,0.3-3
				c0.3-2.5,0.6-4.9,0.4-7.4C121.2,94.4,120.2,91.5,119,87.9L119,87.9z"/>
		</g>
	</g>
	<g>
		<g>
			<path d="M19.3,84c-5.5,5.7-6.5,12-5.2,19.4c0.5,2.6,1,5,1.3,7.7c-4.3-3.7-7.1-9.1-6.8-14.9C8.8,90.4,13.3,84.5,19.3,84L19.3,84z"
				/>
		</g>
		<g>
			<path d="M9,87.9c-1.2,3.6-2.2,6.5-2.4,10c-0.2,2.5,0.1,4.9,0.4,7.4c0.1,0.9,0.3,1.9,0.3,3c-0.5-0.2-0.9-0.5-1.3-0.8
				c-2.2-1.6-3.6-4-4.1-6.6C0.6,95.5,3.6,89.3,9,87.9L9,87.9z"/>
		</g>
	</g>
</g>
</svg>
