<?xml version="1.0" encoding="utf-8"?>
<!-- Generator: Adobe Illustrator 26.0.2, SVG Export Plug-In . SVG Version: 6.00 Build 0)  -->
<svg version="1.1" id="Layer_1" xmlns="http://www.w3.org/2000/svg" xmlns:xlink="http://www.w3.org/1999/xlink" x="0px" y="0px"
	 viewBox="0 0 128 128" style="enable-background:new 0 0 128 128;" xml:space="preserve">
<style type="text/css">
	.ReportBuilderx0{fill:none;stroke:#000000;stroke-width:5;stroke-miterlimit:10;}
	.ReportBuilderx1{stroke:#000000;stroke-width:5;stroke-miterlimit:10;}
	.ReportBuilderx2{fill:none;stroke:#000000;stroke-width:5;stroke-linejoin:round;stroke-miterlimit:10;}
	.ReportBuilderx3{fill:none;stroke:#000000;stroke-width:4;stroke-miterlimit:10;}
	.ReportBuilderx4{fill:none;stroke:#000000;stroke-width:3;stroke-miterlimit:10;}
	.ReportBuilderx5{fill:none;stroke:#FF0000;stroke-width:5;stroke-miterlimit:10;}
	.ReportBuilderx6{fill:none;stroke:#000000;stroke-width:2;stroke-miterlimit:10;}
	.ReportBuilderx7{stroke:#000000;stroke-miterlimit:10;}
	.ReportBuilderx8{fill:#FF0000;}
</style>
<g>
	<path class="ReportBuilderx0" d="M99.62,124H28.38c-3.24,0-5.87-2.63-5.87-5.87V20.35c0-3.24,2.63-5.87,5.87-5.87h71.24
		c3.24,0,5.87,2.63,5.87,5.87v97.78C105.49,121.37,102.87,124,99.62,124z"/>
	<path class="ReportBuilderx0" d="M86.01,14.48v9.89c0,3.23-2.61,5.85-5.85,5.85H47.83c-3.24,0-5.85-2.62-5.85-5.85v-9.89"/>
	<path class="ReportBuilderx0" d="M74.15,14.48c0.01-0.1,0.01-0.21,0.01-0.32c0-1.72-0.43-3.35-1.2-4.77c-0.47-0.9-1.08-1.71-1.78-2.41
		C69.35,5.13,66.81,4,64,4c-2.81,0-5.35,1.13-7.19,2.98c-0.7,0.7-1.31,1.52-1.78,2.41c-0.77,1.42-1.2,3.05-1.2,4.77
		c0,0.11,0,0.22,0.01,0.32"/>
	<line class="ReportBuilderx0" x1="39.44" y1="43.55" x2="88.56" y2="43.55"/>
	<line class="ReportBuilderx0" x1="39.44" y1="59.92" x2="88.56" y2="59.92"/>
	<g>
		<circle class="ReportBuilderx0" cx="39.44" cy="97.75" r="5.59"/>
		<circle class="ReportBuilderx0" cx="55.25" cy="81.94" r="5.59"/>
		<circle class="ReportBuilderx0" cx="72.75" cy="97.75" r="5.59"/>
		<circle class="ReportBuilderx0" cx="88.56" cy="81.94" r="5.59"/>
		<line class="ReportBuilderx0" x1="43.39" y1="93.8" x2="51.3" y2="85.89"/>
		<line class="ReportBuilderx0" x1="59.77" y1="85.33" x2="68.8" y2="93.8"/>
		<line class="ReportBuilderx0" x1="76.7" y1="94.36" x2="85.74" y2="86.46"/>
	</g>
</g>
</svg>
