<?xml version="1.0" encoding="utf-8"?>
<!-- Generator: Adobe Illustrator 26.0.2, SVG Export Plug-In . SVG Version: 6.00 Build 0)  -->
<svg version="1.1" id="Layer_1" xmlns="http://www.w3.org/2000/svg" xmlns:xlink="http://www.w3.org/1999/xlink" x="0px" y="0px"
	 viewBox="0 0 128 128" style="enable-background:new 0 0 128 128;" xml:space="preserve">
<style type="text/css">
	.Reportx0{fill:none;stroke:#010101;stroke-width:5;stroke-miterlimit:10;}
	.Reportx1{fill:none;stroke:#010101;stroke-width:3;stroke-miterlimit:10;}
	.Reportx2{fill:#010101;stroke:#010101;stroke-miterlimit:10;}
	.Reportx3{fill:#010101;}
	.Reportx4{fill:#010101;stroke:#010101;stroke-width:5;stroke-miterlimit:10;}
	.Reportx5{fill:none;stroke:#010101;stroke-width:2;stroke-miterlimit:10;}
</style>
<g>
	<path class="Reportx0" d="M99.62,124H28.38c-3.24,0-5.87-2.63-5.87-5.87V20.35c0-3.24,2.63-5.87,5.87-5.87h71.24
		c3.24,0,5.87,2.63,5.87,5.87v97.78C105.49,121.37,102.87,124,99.62,124z"/>
	<path class="Reportx0" d="M86.01,14.48v9.89c0,3.23-2.61,5.85-5.85,5.85H47.83c-3.24,0-5.85-2.62-5.85-5.85v-9.89"/>
	<path class="Reportx0" d="M74.15,14.48c0.01-0.1,0.01-0.21,0.01-0.32c0-1.72-0.43-3.35-1.2-4.77c-0.47-0.9-1.08-1.71-1.78-2.41
		C69.35,5.13,66.81,4,64,4c-2.81,0-5.35,1.13-7.19,2.98c-0.7,0.7-1.31,1.52-1.78,2.41c-0.77,1.42-1.2,3.05-1.2,4.77
		c0,0.11,0,0.22,0.01,0.32"/>
	<line class="Reportx0" x1="39.44" y1="43.55" x2="74.77" y2="43.55"/>
	<line class="Reportx0" x1="39.44" y1="59.92" x2="74.77" y2="59.92"/>
	<line class="Reportx0" x1="39.44" y1="75.28" x2="88.56" y2="75.28"/>
	<line class="Reportx0" x1="39.44" y1="91.65" x2="88.56" y2="91.65"/>
	<line class="Reportx0" x1="39.44" y1="108.2" x2="88.56" y2="108.2"/>
</g>
</svg>
