<?xml version="1.0" encoding="utf-8"?>
<!-- Generator: Adobe Illustrator 26.0.2, SVG Export Plug-In . SVG Version: 6.00 Build 0)  -->
<svg version="1.1" id="Layer_1" xmlns="http://www.w3.org/2000/svg" xmlns:xlink="http://www.w3.org/1999/xlink" x="0px" y="0px"
	 viewBox="0 0 128 128" style="enable-background:new 0 0 128 128;" xml:space="preserve">
<style type="text/css">
	.ResidualValuex0{fill:none;stroke:#000000;stroke-width:5;stroke-miterlimit:10;}
	.ResidualValuex1{stroke:#000000;stroke-width:5;stroke-miterlimit:10;}
	.ResidualValuex2{fill:none;stroke:#000000;stroke-width:5;stroke-linejoin:round;stroke-miterlimit:10;}
	.ResidualValuex3{fill:none;stroke:#000000;stroke-width:4;stroke-miterlimit:10;}
	.ResidualValuex4{fill:none;stroke:#000000;stroke-width:3;stroke-miterlimit:10;}
	.ResidualValuex5{fill:none;stroke:#FF0000;stroke-width:5;stroke-miterlimit:10;}
	.ResidualValuex6{fill:none;stroke:#000000;stroke-width:2;stroke-miterlimit:10;}
	.ResidualValuex7{stroke:#000000;stroke-miterlimit:10;}
	.ResidualValuex8{fill:#FF0000;}
</style>
<g>
	<path class="ResidualValuex0" d="M6.72,63.4l17.05,0l3.1,4.6c0,0,20.71-1.53,42.19,7.67c0,0.63,13.25,1.76,18.15,2.16
		c1.32,0.11,2.5,0.83,3.19,1.96c1.33,2.17,2.43,5.77-2.95,7.89c-0.49,0.19-1.02,0.27-1.54,0.27l-25.12,0c0,0-6.3,3.07,0.61,4.6
		h25.55l31.42-14.15c0.75-0.34,1.57-0.5,2.38-0.39c1.31,0.18,3.07,0.83,3.25,3.09c0.13,1.66-0.83,3.21-2.28,4.02l-35.02,19.7
		c0,0-9.2,6.14-19.94,4.6L26.87,97.91c0,0-0.64,5.12-7.77,4.25c-1.38-0.17-2.63-0.89-3.45-2.01c-2.99-4.07-10.37-15.8-11.63-33.83
		C3.9,64.75,5.14,63.4,6.72,63.4z"/>
	<circle class="ResidualValuex0" cx="84.89" cy="42.2" r="23.86"/>
	<path class="ResidualValuex6" d="M87.04,40c-0.19-0.03-0.32-0.19-0.32-0.39v-6.79c0-0.27,0.27-0.46,0.53-0.37c1,0.37,3.21,1.29,4.74,2.68
		c0.16,0.15,0.42,0.13,0.56-0.04c0.57-0.69,1.8-2.39,2.3-3.09c0.12-0.17,0.09-0.41-0.08-0.54c-0.99-0.76-4.34-3.13-8.09-3.69v-1.91
		c0-0.22-0.18-0.39-0.39-0.39h-2.83c-0.22,0-0.39,0.18-0.39,0.39v2.02c-0.2,0.05-0.41,0.11-0.61,0.17
		c-0.04,0.01-0.07,0.02-0.11,0.02c-0.59,0.04-7.49,1.63-7.61,7.6l0.01,0.11c0.06,0.39-1.09,5.97,7.96,8.25
		c0.16,0.04,0.28,0.19,0.29,0.36c0.07,1.17,0,5.46-0.03,6.95c0,0.26-0.26,0.45-0.51,0.37c-1.03-0.33-3.48-1.23-5.6-3.02
		c-0.16-0.13-0.4-0.12-0.54,0.03c-0.6,0.65-1.85,2.42-2.33,3.1c-0.11,0.16-0.09,0.37,0.05,0.51c0.85,0.81,3.94,3.43,8.52,3.98
		c0.19,0.02,0.34,0.18,0.34,0.38c0.01,0.47-0.01,1.32-0.02,1.82c-0.01,0.22,0.17,0.4,0.39,0.4h3c0.22,0,0.39-0.18,0.39-0.39v-1.62
		c0-0.21,0.17-0.39,0.38-0.39c1.61-0.03,7.78-0.61,8.75-7.79C96.8,42.06,88.77,40.3,87.04,40z M83.23,38.73
		c0,0.24-0.22,0.43-0.46,0.39c-2.2-0.38-2.89-2.45-3.03-2.76c-0.01-0.03-0.03-0.06-0.03-0.09c-0.43-2.35,1.9-3.56,2.99-3.99
		c0.26-0.1,0.54,0.09,0.54,0.37V38.73z M90.84,49.18c-0.01,0.04-0.02,0.07-0.04,0.11c-0.17,0.31-1,2.42-3.65,2.77
		c-0.24,0.03-0.45-0.15-0.45-0.39v-6.13c0-0.27,0.26-0.46,0.51-0.37C88.43,45.56,91.34,46.77,90.84,49.18z"/>
</g>
</svg>
