<?xml version="1.0" encoding="utf-8"?>
<!-- Generator: Adobe Illustrator 26.0.2, SVG Export Plug-In . SVG Version: 6.00 Build 0)  -->
<svg version="1.1" xmlns="http://www.w3.org/2000/svg" xmlns:xlink="http://www.w3.org/1999/xlink" x="0px" y="0px"
	 viewBox="0 0 128 128" style="enable-background:new 0 0 128 128;" xml:space="preserve">
<style type="text/css">
	.ResidualWarrantyx0{fill:none;stroke:#000000;stroke-width:5;stroke-linecap:round;stroke-linejoin:round;stroke-miterlimit:10;}
	.ResidualWarrantyx1{fill:none;stroke:#000000;stroke-width:2;stroke-linecap:round;stroke-miterlimit:10;}
	.ResidualWarrantyx2{fill:#F89A1F;stroke:#F89A1F;stroke-miterlimit:10;}
	.ResidualWarrantyx3{fill:none;stroke:#000000;stroke-width:5;stroke-linecap:round;stroke-miterlimit:10;}
	.ResidualWarrantyx4{fill:none;stroke:#000000;stroke-width:5;stroke-miterlimit:10;}
	.ResidualWarrantyx5{fill:none;stroke:#000000;stroke-width:2;stroke-linecap:round;stroke-linejoin:round;stroke-miterlimit:10;}
	.ResidualWarrantyx6{fill:none;stroke:#000000;stroke-linecap:round;stroke-linejoin:round;stroke-miterlimit:10;}
	.ResidualWarrantyx7{fill:none;stroke:#000000;stroke-width:5;stroke-linejoin:round;stroke-miterlimit:10;}
	.ResidualWarrantyx8{fill:none;stroke:#000000;stroke-width:2;stroke-miterlimit:10;}
	.ResidualWarrantyx9{fill:none;stroke:#000000;stroke-miterlimit:10;}
	.ResidualWarrantyx10{fill:#F9BB16;}
	.ResidualWarrantyx11{fill:#EA4435;}
	.ResidualWarrantyx12{fill:#2FA952;}
	.ResidualWarrantyx13{fill:#547DBF;}
	.ResidualWarrantyx14{fill:none;stroke:#000000;stroke-width:3;stroke-linecap:round;stroke-linejoin:round;stroke-miterlimit:10;}
	.ResidualWarrantyx15{stroke:#000000;stroke-miterlimit:10;}
	.ResidualWarrantyx16{fill:none;stroke:#010101;stroke-width:5;stroke-miterlimit:10;}
	.ResidualWarrantyx17{fill:none;stroke:#020202;stroke-width:5;stroke-miterlimit:10;}
</style>
<g id="Layer_1">
	<g>
		<ellipse class="ResidualWarrantyx0" cx="64" cy="64" rx="57.82" ry="59.24"/>
		<ellipse class="ResidualWarrantyx0" cx="63.64" cy="63.49" rx="45.47" ry="46.59"/>
		<path class="ResidualWarrantyx14" d="M40.1,68.72l15.07,11.13c0,0,22.77-18.5,46.88-18.5c1.34,0-37.95,16.9-45.54,32.22
			c-0.45,0.59-24.77-16.11-24.77-16.11L40.1,68.72z"/>
		<polygon class="ResidualWarrantyx14" points="64,33.56 69.96,30.43 68.82,37.06 73.64,41.76 66.98,42.73 64,48.77 61.02,42.73 54.36,41.76 
			59.18,37.06 58.04,30.43 		"/>
		<polygon class="ResidualWarrantyx14" points="88.92,44.01 93.63,41.53 92.73,46.77 96.54,50.48 91.27,51.25 88.92,56.02 86.57,51.25 81.31,50.48 
			85.11,46.77 84.21,41.53 		"/>
		<polygon class="ResidualWarrantyx14" points="39.36,44.01 44.06,41.53 43.17,46.77 46.97,50.48 41.71,51.25 39.36,56.02 37,51.25 31.74,50.48 
			35.55,46.77 34.65,41.53 		"/>
	</g>
</g>
<g id="Layer_2">
</g>
</svg>
