<?xml version="1.0" encoding="utf-8"?>
<!-- Generator: Adobe Illustrator 26.0.2, SVG Export Plug-In . SVG Version: 6.00 Build 0)  -->
<svg version="1.1" id="Layer_1" xmlns="http://www.w3.org/2000/svg" xmlns:xlink="http://www.w3.org/1999/xlink" x="0px" y="0px"
	 viewBox="0 0 128 128" style="enable-background:new 0 0 128 128;" xml:space="preserve">
<style type="text/css">
	.RFIDSensorx0{fill:none;stroke:#000000;stroke-width:5;stroke-miterlimit:10;}
	.RFIDSensorx1{fill:none;stroke:#000000;stroke-width:3;stroke-miterlimit:10;}
	.RFIDSensorx2{fill:none;stroke:#000000;stroke-width:2;stroke-miterlimit:10;}
	.RFIDSensorx3{stroke:#000000;stroke-width:3;stroke-miterlimit:10;}
	.RFIDSensorx4{fill:none;stroke:#000000;stroke-miterlimit:10;}
	.RFIDSensorx5{stroke:#000000;stroke-width:5;stroke-miterlimit:10;}
	.RFIDSensorx6{fill:none;stroke:#000000;stroke-width:4;stroke-miterlimit:10;}
</style>
<g>
	<path class="RFIDSensorx0" d="M40.19,36.16c-8.78,6.27-14.5,16.53-14.5,28.12c0,11.24,5.38,21.23,13.71,27.54"/>
	<path class="RFIDSensorx0" d="M52.34,50.01c-5.01,2.79-8.42,8.13-8.42,14.27c0,5.73,2.97,10.77,7.45,13.68"/>
	<circle class="RFIDSensorx5" cx="64" cy="63.34" r="8.5"/>
	<path class="RFIDSensorx0" d="M88.6,91.82c8.33-6.31,13.71-16.3,13.71-27.54c0-11.59-5.72-21.85-14.5-28.12"/>
	<path class="RFIDSensorx0" d="M76.63,77.97c4.48-2.91,7.45-7.95,7.45-13.68c0-6.14-3.41-11.48-8.42-14.27"/>
	<path class="RFIDSensorx0" d="M115.08,112.41H12.92c-4.93,0-8.92-3.99-8.92-8.92V24.51c0-4.93,3.99-8.92,8.92-8.92h102.16
		c4.93,0,8.92,3.99,8.92,8.92v78.98C124,108.42,120.01,112.41,115.08,112.41z"/>
</g>
</svg>
