<?xml version="1.0" encoding="utf-8"?>
<!-- Generator: Adobe Illustrator 26.0.2, SVG Export Plug-In . SVG Version: 6.00 Build 0)  -->
<svg version="1.1" xmlns="http://www.w3.org/2000/svg" xmlns:xlink="http://www.w3.org/1999/xlink" x="0px" y="0px"
	 viewBox="0 0 128 128" style="enable-background:new 0 0 128 128;" xml:space="preserve">
<style type="text/css">
	.RURequiredx0{fill:none;stroke:#000000;stroke-width:5;stroke-linejoin:round;stroke-miterlimit:10;}
	.RURequiredx1{fill:none;stroke:#010101;stroke-width:5;stroke-linejoin:round;stroke-miterlimit:10;}
	.RURequiredx2{fill:none;stroke:#010101;stroke-width:5;stroke-miterlimit:10;}
	.RURequiredx3{fill:none;stroke:#000000;stroke-width:4;stroke-miterlimit:10;}
	.RURequiredx4{fill:none;stroke:#000000;stroke-miterlimit:10;}
	.RURequiredx5{fill:none;stroke:#000000;stroke-width:5;stroke-miterlimit:10;}
	.RURequiredx6{fill:none;stroke:#000000;stroke-width:5;stroke-linecap:round;stroke-linejoin:round;stroke-miterlimit:10;}
	.RURequiredx7{fill:none;stroke:#020202;stroke-width:5;stroke-linecap:round;stroke-miterlimit:10;}
	.RURequiredx8{fill:none;stroke:#020202;stroke-width:5;stroke-miterlimit:10;}
	.RURequiredx9{fill:none;stroke:#020202;stroke-width:5;stroke-linecap:round;stroke-linejoin:round;stroke-miterlimit:10;}
	.RURequiredx10{fill:none;stroke:#010101;stroke-width:5;stroke-linecap:round;stroke-miterlimit:10;}
	.RURequiredx11{fill:none;stroke:#010101;stroke-miterlimit:10;}
	.RURequiredx12{fill:none;stroke:#000000;stroke-width:5;stroke-linecap:round;stroke-miterlimit:10;}
	.RURequiredx13{fill:none;stroke:#000000;stroke-width:4;stroke-linecap:round;stroke-linejoin:round;stroke-miterlimit:10;}
</style>
<g id="Layer_1">
</g>
<g id="Layer_2">
	<line class="RURequiredx6" x1="102.23" y1="10.25" x2="102.23" y2="47.34"/>
	<line class="RURequiredx6" x1="83.68" y1="28.79" x2="120.78" y2="28.79"/>
	<line class="RURequiredx6" x1="89.11" y1="15.68" x2="115.35" y2="41.91"/>
	<line class="RURequiredx6" x1="89.11" y1="41.91" x2="115.35" y2="15.68"/>
	<g>
		<path d="M29.71,45.15c2.91-0.6,7.09-0.93,11.06-0.93c6.16,0,10.13,1.13,12.92,3.64c2.25,1.99,3.51,5.03,3.51,8.48
			c0,5.9-3.71,9.8-8.41,11.39v0.2c3.44,1.19,5.5,4.37,6.56,9.01c1.46,6.23,2.52,10.53,3.44,12.25h-5.96
			c-0.73-1.26-1.72-5.1-2.98-10.66c-1.33-6.16-3.71-8.48-8.94-8.68h-5.43v19.34h-5.76V45.15z M35.47,65.48h5.9
			c6.16,0,10.07-3.38,10.07-8.48c0-5.76-4.17-8.28-10.27-8.35c-2.78,0-4.77,0.26-5.7,0.53V65.48z"/>
		<path d="M71.11,44.55v26.43c0,10,4.44,14.24,10.4,14.24c6.62,0,10.86-4.37,10.86-14.24V44.55h5.83v26.03
			c0,13.71-7.22,19.34-16.89,19.34c-9.14,0-16.03-5.23-16.03-19.08v-26.3H71.11z"/>
	</g>
</g>
</svg>
