<?xml version="1.0" encoding="utf-8"?>
<!-- Generator: Adobe Illustrator 26.0.2, SVG Export Plug-In . SVG Version: 6.00 Build 0)  -->
<svg version="1.1" id="Layer_1" xmlns="http://www.w3.org/2000/svg" xmlns:xlink="http://www.w3.org/1999/xlink" x="0px" y="0px"
	 viewBox="0 0 128 128" style="enable-background:new 0 0 128 128;" xml:space="preserve">
<style type="text/css">
	.SaveImagex0{fill:none;stroke:#000000;stroke-width:5;stroke-miterlimit:10;}
	.SaveImagex1{fill:none;stroke:#000000;stroke-width:4;stroke-miterlimit:10;}
	.SaveImagex2{stroke:#000000;stroke-width:5;stroke-miterlimit:10;}
	.SaveImagex3{fill:none;stroke:#000000;stroke-width:3;stroke-miterlimit:10;}
	.SaveImagex4{stroke:#000000;stroke-width:3;stroke-miterlimit:10;}
	.SaveImagex5{fill:none;stroke:#000000;stroke-width:5;stroke-linecap:round;stroke-linejoin:round;stroke-miterlimit:10;}
</style>
<g>
	<circle class="SaveImagex0" cx="93.6" cy="32.9" r="24.5"/>
	<circle class="SaveImagex0" cx="36" cy="52.9" r="12.5"/>
	<path class="SaveImagex0" d="M93.6,70.4C72.8,70.4,56,53.6,56,32.8c0-4.3,0.7-8.4,2.1-12.2H25.2c-8.5,0-15.3,6.8-15.3,15.3v68.4
		c0,8.5,6.8,15.3,15.3,15.3h68.4c8.5,0,15.3-6.9,15.3-15.3v-37C104.2,69.3,99,70.4,93.6,70.4z"/>
	<polygon class="SaveImagex5" points="40,85.2 52.3,94.5 75.4,74.4 99.4,108.8 21.8,108.8 	"/>
	<polyline class="SaveImagex5" points="104.6,31.9 94,21.6 94,45.5 93.6,45.5 93.6,21.6 83,31.9 	"/>
</g>
</svg>
