<?xml version="1.0" encoding="utf-8"?>
<!-- Generator: Adobe Illustrator 26.0.2, SVG Export Plug-In . SVG Version: 6.00 Build 0)  -->
<svg version="1.1" id="Layer_1" xmlns="http://www.w3.org/2000/svg" xmlns:xlink="http://www.w3.org/1999/xlink" x="0px" y="0px"
	 viewBox="0 0 128 128" style="enable-background:new 0 0 128 128;" xml:space="preserve">
<style type="text/css">
	.SecureIconx0{stroke:#000000;stroke-miterlimit:10;}
	.SecureIconx1{fill:none;stroke:#000000;stroke-miterlimit:10;}
	.SecureIconx2{fill:none;stroke:#000000;stroke-width:5;stroke-miterlimit:10;}
	.SecureIconx3{fill:none;stroke:#000000;stroke-width:2;stroke-miterlimit:10;}
</style>
<g>
	<path class="SecureIconx2" d="M35.1,53.9V36.9c0-16,13-28.9,28.9-28.9c8,0,15.2,3.2,20.5,8.5s8.5,12.5,8.5,20.5v17.1"/>
	<path class="SecureIconx2" d="M104.5,120.1h-81c-3.5,0-6.3-2.8-6.3-6.3V60.2c0-3.5,2.8-6.3,6.3-6.3h81c3.5,0,6.3,2.8,6.3,6.3v53.6
		C110.8,117.3,108,120.1,104.5,120.1z"/>
	<path class="SecureIconx3" d="M60.1,87.3v20.3h7.8V87.3c3.2-1.5,5.5-4.7,5.5-8.5c0-5.2-4.2-9.4-9.4-9.4c-5.2,0-9.4,4.2-9.4,9.4
		C54.6,82.5,56.8,85.8,60.1,87.3z"/>
</g>
</svg>
