<?xml version="1.0" encoding="utf-8"?>
<!-- Generator: Adobe Illustrator 26.0.2, SVG Export Plug-In . SVG Version: 6.00 Build 0)  -->
<svg version="1.1" xmlns="http://www.w3.org/2000/svg" xmlns:xlink="http://www.w3.org/1999/xlink" x="0px" y="0px"
	 viewBox="0 0 128 128" style="enable-background:new 0 0 128 128;" xml:space="preserve">
<style type="text/css">
	.Storex0{fill:none;stroke:#000000;stroke-width:5;stroke-linecap:round;stroke-linejoin:round;stroke-miterlimit:10;}
	.Storex1{fill:none;stroke:#000000;stroke-width:2;stroke-linecap:round;stroke-miterlimit:10;}
	.Storex2{fill:#F89A1F;stroke:#F89A1F;stroke-miterlimit:10;}
	.Storex3{fill:none;stroke:#000000;stroke-width:5;stroke-linecap:round;stroke-miterlimit:10;}
	.Storex4{fill:none;stroke:#000000;stroke-width:5;stroke-miterlimit:10;}
	.Storex5{fill:none;stroke:#000000;stroke-width:2;stroke-linecap:round;stroke-linejoin:round;stroke-miterlimit:10;}
	.Storex6{fill:none;stroke:#000000;stroke-linecap:round;stroke-linejoin:round;stroke-miterlimit:10;}
	.Storex7{fill:none;stroke:#000000;stroke-width:5;stroke-linejoin:round;stroke-miterlimit:10;}
	.Storex8{fill:none;stroke:#000000;stroke-width:2;stroke-miterlimit:10;}
	.Storex9{fill:none;stroke:#000000;stroke-miterlimit:10;}
	.Storex10{fill:#F9BB16;}
	.Storex11{fill:#EA4435;}
	.Storex12{fill:#2FA952;}
	.Storex13{fill:#547DBF;}
	.Storex14{fill:none;stroke:#000000;stroke-width:3;stroke-linecap:round;stroke-linejoin:round;stroke-miterlimit:10;}
	.Storex15{stroke:#000000;stroke-miterlimit:10;}
	.Storex16{fill:none;stroke:#010101;stroke-width:5;stroke-miterlimit:10;}
	.Storex17{fill:none;stroke:#020202;stroke-width:5;stroke-miterlimit:10;}
</style>
<g id="Layer_1">
	<g>
		<polygon class="Storex14" points="110.84,17.25 17.16,17.25 7.16,36.35 120.84,36.35 		"/>
		<polyline class="Storex14" points="18.14,48.98 18.14,110.75 73.09,110.75 97.34,110.75 109.47,110.75 109.47,48.99 		"/>
		<rect x="29.89" y="63.76" class="Storex14" width="32.86" height="32.86"/>
		<path class="Storex14" d="M85.22,63.76L85.22,63.76c-6.7,0-12.13,5.43-12.13,12.13v34.86h24.25V75.88
			C97.35,69.19,91.92,63.76,85.22,63.76z"/>
		<path class="Storex14" d="M18.53,48.99L18.53,48.99c-6.28,0-11.37-5.09-11.37-11.37v-1.28h22.74v1.28
			C29.89,43.9,24.8,48.99,18.53,48.99z"/>
		<path class="Storex14" d="M41.26,48.99L41.26,48.99c-6.28,0-11.37-5.09-11.37-11.37v-1.28h22.74v1.28
			C52.63,43.9,47.54,48.99,41.26,48.99z"/>
		<path class="Storex14" d="M64,48.99L64,48.99c-6.28,0-11.37-5.09-11.37-11.37v-1.28h22.74v1.28C75.37,43.9,70.28,48.99,64,48.99z"/>
		<path class="Storex14" d="M86.74,48.99L86.74,48.99c-6.28,0-11.37-5.09-11.37-11.37v-1.28h22.74v1.28
			C98.11,43.9,93.02,48.99,86.74,48.99z"/>
		<path class="Storex14" d="M109.47,48.99L109.47,48.99c-6.28,0-11.37-5.09-11.37-11.37v-1.28h22.74v1.28
			C120.84,43.9,115.75,48.99,109.47,48.99z"/>
	</g>
</g>
<g id="Layer_2">
</g>
</svg>
