<?xml version="1.0" encoding="utf-8"?>
<!-- Generator: Adobe Illustrator 26.0.2, SVG Export Plug-In . SVG Version: 6.00 Build 0)  -->
<svg version="1.1" id="Layer_1" xmlns="http://www.w3.org/2000/svg" xmlns:xlink="http://www.w3.org/1999/xlink" x="0px" y="0px"
	 viewBox="0 0 128 128" style="enable-background:new 0 0 128 128;" xml:space="preserve">
<style type="text/css">
	.SubFloorx0{fill:none;stroke:#000000;stroke-width:5;stroke-miterlimit:10;}
	.SubFloorx1{fill:none;stroke:#000000;stroke-width:3;stroke-miterlimit:10;}
</style>
<rect x="4" y="4" class="SubFloorx0" width="120" height="120"/>
<g>
	<path class="SubFloorx1" d="M30.3,82.4c3.1,1.9,7.6,3.5,12.4,3.5c7.1,0,11.2-3.7,11.2-9.2c0-5-2.9-7.9-10.1-10.7
		c-8.8-3.1-14.2-7.6-14.2-15.2c0-8.4,6.9-14.6,17.3-14.6c5.5,0,9.5,1.3,11.9,2.6L57,44.6c-1.8-1-5.3-2.5-10.2-2.5
		c-7.3,0-10.1,4.4-10.1,8c0,5,3.3,7.5,10.7,10.3c9.1,3.5,13.7,7.9,13.7,15.8c0,8.3-6.1,15.4-18.8,15.4c-5.2,0-10.8-1.5-13.7-3.4
		L30.3,82.4z"/>
	<path class="SubFloorx1" d="M70.5,37.2h28.9V43h-22v17.8h20.3v5.7H77.4v24.3h-6.9V37.2z"/>
</g>
<line class="SubFloorx0" x1="29.1" y1="102.4" x2="98.9" y2="102.4"/>
</svg>
