<?xml version="1.0" encoding="utf-8"?>
<!-- Generator: Adobe Illustrator 26.0.2, SVG Export Plug-In . SVG Version: 6.00 Build 0)  -->
<svg version="1.1" xmlns="http://www.w3.org/2000/svg" xmlns:xlink="http://www.w3.org/1999/xlink" x="0px" y="0px"
	 viewBox="0 0 128 128" style="enable-background:new 0 0 128 128;" xml:space="preserve">
<style type="text/css">
	.Teamx0{fill:none;stroke:#000000;stroke-width:5;stroke-linecap:round;stroke-linejoin:round;stroke-miterlimit:10;}
	.Teamx1{fill:none;stroke:#000000;stroke-width:2;stroke-linecap:round;stroke-miterlimit:10;}
	.Teamx2{fill:#F89A1F;stroke:#F89A1F;stroke-miterlimit:10;}
	.Teamx3{fill:none;stroke:#000000;stroke-width:5;stroke-linecap:round;stroke-miterlimit:10;}
	.Teamx4{fill:none;stroke:#000000;stroke-width:5;stroke-miterlimit:10;}
	.Teamx5{fill:none;stroke:#000000;stroke-width:2;stroke-linecap:round;stroke-linejoin:round;stroke-miterlimit:10;}
	.Teamx6{fill:none;stroke:#000000;stroke-linecap:round;stroke-linejoin:round;stroke-miterlimit:10;}
	.Teamx7{fill:none;stroke:#000000;stroke-width:5;stroke-linejoin:round;stroke-miterlimit:10;}
	.Teamx8{fill:none;stroke:#000000;stroke-width:2;stroke-miterlimit:10;}
	.Teamx9{fill:none;stroke:#000000;stroke-miterlimit:10;}
	.Teamx10{fill:#F9BB16;}
	.Teamx11{fill:#EA4435;}
	.Teamx12{fill:#2FA952;}
	.Teamx13{fill:#547DBF;}
	.Teamx14{fill:none;stroke:#000000;stroke-width:3;stroke-linecap:round;stroke-linejoin:round;stroke-miterlimit:10;}
	.Teamx15{stroke:#000000;stroke-miterlimit:10;}
	.Teamx16{fill:none;stroke:#010101;stroke-width:5;stroke-miterlimit:10;}
	.Teamx17{fill:none;stroke:#020202;stroke-width:5;stroke-miterlimit:10;}
</style>
<g id="Layer_1">
	<g>
		<path class="Teamx0" d="M42.7,97.92v8.76H5.13v-16.4c0-8.02,6.5-14.51,14.51-14.51h8.56c6.63,0,12.23,4.46,13.95,10.56"/>
		<path class="Teamx0" d="M85.92,86.02c1.83-5.93,7.35-10.25,13.88-10.25h8.56c8.02,0,14.51,6.5,14.51,14.51v16.4H85.29v-9.01"/>
		<circle class="Teamx0" cx="23.91" cy="51.54" r="15.87"/>
		<circle class="Teamx0" cx="104.08" cy="51.54" r="15.87"/>
		<circle class="Teamx0" cx="63.37" cy="37.18" r="15.87"/>
		<path class="Teamx0" d="M64.01,61.94c0,0-14.79-1.68-21.84,6.05c-0.34,0.34,13.11,13.78,21.84,13.78h-0.57
			c8.74,0,22.18-13.44,21.84-13.78c-7.06-7.73-21.84-6.05-21.84-6.05H64.01z"/>
		<path class="Teamx0" d="M42.15,86.34c6.13,3.09,13.55,4.89,21.57,4.89c8.3,0,15.95-1.93,22.2-5.21"/>
		<path class="Teamx0" d="M42.7,97.92c6.02,2.68,13.26,4.23,21.02,4.23c8.02,0,15.44-1.65,21.57-4.48"/>
	</g>
</g>
<g id="Layer_2">
</g>
</svg>
