<?xml version="1.0" encoding="utf-8"?>
<!-- Generator: Adobe Illustrator 26.0.2, SVG Export Plug-In . SVG Version: 6.00 Build 0)  -->
<svg version="1.1" id="Layer_1" xmlns="http://www.w3.org/2000/svg" xmlns:xlink="http://www.w3.org/1999/xlink" x="0px" y="0px"
	 viewBox="0 0 128 128" style="enable-background:new 0 0 128 128;" xml:space="preserve">
<style type="text/css">
	.Templatesx0{fill:none;stroke:#000000;stroke-width:5;stroke-miterlimit:10;}
	.Templatesx1{fill:none;stroke:#000000;stroke-width:5;stroke-linecap:round;stroke-miterlimit:10;}
	.Templatesx2{fill:none;stroke:#000000;stroke-width:5;stroke-linecap:round;stroke-linejoin:round;stroke-miterlimit:21.3333;}
	.Templatesx3{fill:#FFFFFF;fill-opacity:0;stroke:#000000;stroke-width:5;stroke-linecap:round;stroke-miterlimit:10;}
	.Templatesx4{fill:none;stroke:#000000;stroke-width:4;stroke-linecap:round;stroke-miterlimit:10;}
	.Templatesx5{fill:none;stroke:#010101;stroke-width:5;stroke-miterlimit:10;}
	.Templatesx6{fill:none;stroke:#010101;stroke-width:3;stroke-miterlimit:10;}
</style>
<g>
	<path class="Templatesx0" d="M105.4,124H22.6c-8.8,0-16-7.2-16-16V20c0-8.8,7.2-16,16-16h82.9c8.8,0,16,7.2,16,16v88
		C121.5,116.8,114.3,124,105.4,124z"/>
	<line class="Templatesx1" x1="12.7" y1="104.7" x2="115.3" y2="104.7"/>
	<line class="Templatesx0" x1="6.5" y1="27.2" x2="121.5" y2="27.2"/>
	<rect x="15.6" y="46.7" class="Templatesx0" width="16.4" height="16.4"/>
	<rect x="43.4" y="46.7" class="Templatesx0" width="16.4" height="16.4"/>
	<rect x="15.6" y="72.9" class="Templatesx0" width="44.2" height="16.4"/>
	<rect x="15.6" y="72.9" class="Templatesx0" width="44.2" height="16.4"/>
	<rect x="71.1" y="46.7" class="Templatesx0" width="43.6" height="42.5"/>
	<circle class="Templatesx0" cx="18.8" cy="16" r="3.3"/>
	<circle class="Templatesx0" cx="33" cy="16" r="3.3"/>
	<circle class="Templatesx0" cx="45.7" cy="16" r="3.3"/>
</g>
</svg>
