<?xml version="1.0" encoding="utf-8"?>
<!-- Generator: Adobe Illustrator 26.0.2, SVG Export Plug-In . SVG Version: 6.00 Build 0)  -->
<svg version="1.1" id="Layer_1" xmlns="http://www.w3.org/2000/svg" xmlns:xlink="http://www.w3.org/1999/xlink" x="0px" y="0px"
	 viewBox="0 0 128 128" style="enable-background:new 0 0 128 128;" xml:space="preserve">
<style type="text/css">
	.Temperaturex0{fill:none;stroke:#000000;stroke-width:5;stroke-miterlimit:10;}
	.Temperaturex1{fill:none;stroke:#000000;stroke-width:5;stroke-linecap:round;stroke-miterlimit:10;}
	.Temperaturex2{fill:none;stroke:#000000;stroke-width:5;stroke-linecap:round;stroke-linejoin:round;stroke-miterlimit:10;}
	.Temperaturex3{fill:none;stroke:#010101;stroke-width:5;stroke-miterlimit:10;}
</style>
<g>
	<path class="Temperaturex2" d="M70.2,79.1V22.53c0-3.93-1.6-7.49-4.19-10.07c-2.59-2.59-6.15-4.19-10.07-4.19c-7.85,0-14.26,6.42-14.26,14.27
		V79.1c-5.22,4.18-8.56,10.61-8.56,17.82c0,12.61,10.21,22.82,22.82,22.82c12.6,0,22.82-10.21,22.82-22.82
		C78.76,89.71,75.41,83.28,70.2,79.1z"/>
	<g>
		<path class="Temperaturex2" d="M45.99,99.43c1.12,4.45,5.15,7.75,9.95,7.75c4.79,0,8.82-3.29,9.94-7.74"/>
		<path class="Temperaturex2" d="M65.88,99.43c0.2-0.8,0.31-1.65,0.31-2.52c0-5.66-4.59-10.26-10.25-10.26c-5.67,0-10.26,4.6-10.26,10.26
			c0,0.87,0.11,1.71,0.31,2.51"/>
	</g>
	<polyline class="Temperaturex2" points="55.94,86.65 55.94,74.1 55.94,21.87 	"/>
	<line class="Temperaturex2" x1="76.89" y1="16.61" x2="94.88" y2="16.61"/>
	<line class="Temperaturex2" x1="76.89" y1="30.3" x2="88.74" y2="30.3"/>
	<line class="Temperaturex2" x1="76.89" y1="43.98" x2="94.88" y2="43.98"/>
	<line class="Temperaturex2" x1="76.89" y1="57.67" x2="88.74" y2="57.67"/>
	<line class="Temperaturex2" x1="76.89" y1="71.36" x2="92.69" y2="71.36"/>
</g>
</svg>
