<?xml version="1.0" encoding="utf-8"?>
<!-- Generator: Adobe Illustrator 26.0.2, SVG Export Plug-In . SVG Version: 6.00 Build 0)  -->
<svg version="1.1" id="Layer_1" xmlns="http://www.w3.org/2000/svg" xmlns:xlink="http://www.w3.org/1999/xlink" x="0px" y="0px"
	 viewBox="0 0 128 128" style="enable-background:new 0 0 128 128;" xml:space="preserve">
<style type="text/css">
	.Themex0{fill:none;stroke:#000000;stroke-width:5;stroke-linecap:round;stroke-miterlimit:10;}
	.Themex1{fill:none;stroke:#000000;stroke-width:5;stroke-miterlimit:10;}
</style>
<path class="Themex0" d="M121.93,36.66v77.97c0,4.03-3.27,7.3-7.3,7.3H13.37c-4.03,0-7.3-3.27-7.3-7.3V13.37c0-4.03,3.27-7.3,7.3-7.3
	h89.65"/>
<line class="Themex0" x1="12.79" y1="31.99" x2="72.62" y2="31.99"/>
<circle class="Themex1" cx="18.52" cy="18.85" r="4.03"/>
<circle class="Themex1" cx="39.55" cy="18.85" r="4.03"/>
<circle class="Themex1" cx="60.59" cy="18.85" r="4.03"/>
<path class="Themex1" d="M76.2,44.65c2.83-2.83,39.82-35.23,42.66-32.4c2.83,2.83-29.57,39.82-32.4,42.66
	c-2.83,2.83-8.98,4.39-11.82,1.56C71.81,53.63,73.37,47.48,76.2,44.65z"/>
<path class="Themex1" d="M68.58,66.84c0,4.19-10.91,7.59-15.1,7.59s-0.08-3.4-0.08-7.59s3.4-7.59,7.59-7.59S68.58,62.65,68.58,66.84z"/>
</svg>
