<?xml version="1.0" encoding="utf-8"?>
<!-- Generator: Adobe Illustrator 26.0.2, SVG Export Plug-In . SVG Version: 6.00 Build 0)  -->
<svg version="1.1" id="Layer_1" xmlns="http://www.w3.org/2000/svg" xmlns:xlink="http://www.w3.org/1999/xlink" x="0px" y="0px"
	 viewBox="0 0 128 128" style="enable-background:new 0 0 128 128;" xml:space="preserve">
<style type="text/css">
	.Trendsandforecastx0{fill:none;stroke:#000000;stroke-width:5;stroke-miterlimit:10;}
	.Trendsandforecastx1{stroke:#000000;stroke-width:5;stroke-miterlimit:10;}
	.Trendsandforecastx2{fill:none;stroke:#000000;stroke-width:5;stroke-linejoin:round;stroke-miterlimit:10;}
	.Trendsandforecastx3{fill:none;stroke:#000000;stroke-width:4;stroke-miterlimit:10;}
	.Trendsandforecastx4{fill:none;stroke:#000000;stroke-width:3;stroke-miterlimit:10;}
	.Trendsandforecastx5{fill:none;stroke:#FF0000;stroke-width:5;stroke-miterlimit:10;}
	.Trendsandforecastx6{fill:none;stroke:#000000;stroke-width:2;stroke-miterlimit:10;}
	.Trendsandforecastx7{stroke:#000000;stroke-miterlimit:10;}
	.Trendsandforecastx8{fill:#FF0000;}
</style>
<g>
	<rect x="7.94" y="100.44" class="Trendsandforecastx0" width="29.07" height="21.18"/>
	
		<rect x="37.01" y="75.32" transform="matrix(-1 -1.224647e-16 1.224647e-16 -1 102.8789 196.9285)" class="Trendsandforecastx0" width="28.86" height="46.3"/>
	<rect x="65.87" y="91.92" class="Trendsandforecastx0" width="29.48" height="29.69"/>
	
		<rect x="95.35" y="67.43" transform="matrix(-1 -1.224647e-16 1.224647e-16 -1 219.3495 189.0392)" class="Trendsandforecastx0" width="28.65" height="54.19"/>
	<polyline class="Trendsandforecastx0" points="4,92.75 52.58,45.83 80.61,73.32 124,30.11 	"/>
	<polyline class="Trendsandforecastx0" points="109.67,30.11 124,30.11 124,44.59 	"/>
	<line class="Trendsandforecastx0" x1="45.52" y1="52.67" x2="45.51" y2="52.67"/>
	<path class="Trendsandforecastx0" d="M34.31,55.38c-4.46,0-8.65-1.19-12.25-3.29c-3.72-2.14-6.83-5.24-8.97-8.96c-2.1-3.6-3.29-7.79-3.29-12.25
		s1.2-8.66,3.29-12.26c2.15-3.72,5.25-6.82,8.97-8.96c3.6-2.1,7.79-3.29,12.25-3.29s8.65,1.19,12.25,3.29
		c3.72,2.14,6.82,5.24,8.96,8.96c2.09,3.6,3.29,7.8,3.29,12.26c0,4.68-1.31,9.04-3.59,12.75"/>
	<circle class="Trendsandforecastx0" cx="34.31" cy="30.89" r="4.98"/>
	<circle class="Trendsandforecastx0" cx="34.31" cy="30.89" r="1.25"/>
	<line class="Trendsandforecastx0" x1="34.31" y1="6.39" x2="34.31" y2="11.79"/>
	<line class="Trendsandforecastx0" x1="34.31" y1="31.09" x2="34.31" y2="30.89"/>
	<line class="Trendsandforecastx0" x1="34.31" y1="25.9" x2="34.31" y2="18.84"/>
	<line class="Trendsandforecastx0" x1="31.84" y1="35.21" x2="26.01" y2="45.42"/>
	<path class="Trendsandforecastx0" d="M34.31,49.99v5.4V49.99z"/>
	<g>
		<line class="Trendsandforecastx0" x1="22.06" y1="9.67" x2="24.76" y2="14.34"/>
	</g>
	<g>
		<line class="Trendsandforecastx0" x1="13.1" y1="18.64" x2="17.77" y2="21.34"/>
	</g>
	<g>
		<line class="Trendsandforecastx0" x1="9.81" y1="30.89" x2="15.21" y2="30.89"/>
		<line class="Trendsandforecastx0" x1="53.41" y1="30.89" x2="58.81" y2="30.89"/>
	</g>
	<g>
		<line class="Trendsandforecastx0" x1="13.1" y1="43.14" x2="17.77" y2="40.44"/>
		<line class="Trendsandforecastx0" x1="50.85" y1="21.34" x2="55.53" y2="18.64"/>
	</g>
	<g>
		<line class="Trendsandforecastx0" x1="22.06" y1="52.1" x2="24.76" y2="47.43"/>
		<line class="Trendsandforecastx0" x1="43.86" y1="14.34" x2="46.56" y2="9.67"/>
	</g>
</g>
</svg>
