<?xml version="1.0" encoding="utf-8"?>
<!-- Generator: Adobe Illustrator 26.0.2, SVG Export Plug-In . SVG Version: 6.00 Build 0)  -->
<svg version="1.1" id="Layer_1" xmlns="http://www.w3.org/2000/svg" xmlns:xlink="http://www.w3.org/1999/xlink" x="0px" y="0px"
	 viewBox="0 0 128 128" style="enable-background:new 0 0 128 128;" xml:space="preserve">
<style type="text/css">
	.UserSettingx0{fill:none;stroke:#000000;stroke-width:5;stroke-miterlimit:10;}
</style>
<circle class="UserSettingx0" cx="64" cy="39.94" r="23.48"/>
<path class="UserSettingx0" d="M25.6,112.33c0-16.23,17.21-29.39,38.4-29.39"/>
<g>
	<g>
		<circle class="UserSettingx0" cx="92.19" cy="90.67" r="9.39"/>
	</g>
	<g>
		<path class="UserSettingx0" d="M86.68,106c0.66,0.27,1.15,0.86,1.31,1.56l0.49,2.25c0.37,1.41,1.1,2.39,2.52,2.52h2.39
			c1.41-0.12,2.15-1.1,2.52-2.52l0.49-2.25c0.16-0.7,0.64-1.29,1.31-1.56l1.43-0.59c0.66-0.27,1.43-0.21,2.03,0.18l1.94,1.25
			c1.26,0.74,2.47,0.91,3.56,0l1.69-1.69c0.91-1.08,0.74-2.3,0-3.56l-1.25-1.94c-0.39-0.61-0.46-1.36-0.18-2.03l0.59-1.43
			c0.27-0.66,0.86-1.15,1.56-1.31l2.25-0.49c1.41-0.37,2.39-1.1,2.52-2.52v-2.39c-0.12-1.41-1.1-2.15-2.52-2.52l-2.25-0.49
			c-0.7-0.16-1.29-0.64-1.56-1.31l-0.59-1.43c-0.27-0.66-0.21-1.43,0.18-2.03l1.25-1.94c0.74-1.26,0.91-2.47,0-3.56l-1.69-1.69
			c-1.08-0.91-2.3-0.74-3.56,0l-1.94,1.25c-0.61,0.39-1.36,0.46-2.03,0.18l-1.43-0.59c-0.66-0.27-1.15-0.86-1.31-1.56l-0.49-2.25
			c-0.37-1.41-1.1-2.4-2.51-2.52H91c-1.41,0.12-2.15,1.1-2.52,2.52l-0.49,2.25c-0.16,0.7-0.64,1.29-1.31,1.56l-1.43,0.59
			c-0.66,0.27-1.43,0.21-2.03-0.18l-1.94-1.25c-1.26-0.74-2.47-0.91-3.56,0l-1.69,1.69c-0.91,1.08-0.74,2.3,0,3.56l1.25,1.94
			c0.39,0.61,0.46,1.36,0.18,2.03l-0.59,1.43c-0.27,0.66-0.86,1.15-1.56,1.31l-2.25,0.49c-1.41,0.37-2.4,1.11-2.52,2.52v2.39
			c0.12,1.41,1.1,2.15,2.52,2.52l2.25,0.49c0.7,0.16,1.29,0.64,1.56,1.31l0.59,1.43c0.27,0.66,0.21,1.43-0.18,2.03l-1.25,1.94
			c-0.74,1.26-0.91,2.47,0,3.56l1.69,1.69c1.08,0.91,2.3,0.74,3.56,0l1.94-1.25c0.61-0.39,1.36-0.46,2.03-0.18L86.68,106z"/>
	</g>
	<line class="UserSettingx0" x1="79.36" y1="74.78" x2="79.36" y2="74.78"/>
</g>
</svg>
