<?xml version="1.0" encoding="utf-8"?>
<!-- Generator: Adobe Illustrator 26.0.2, SVG Export Plug-In . SVG Version: 6.00 Build 0)  -->
<svg version="1.1" xmlns="http://www.w3.org/2000/svg" xmlns:xlink="http://www.w3.org/1999/xlink" x="0px" y="0px"
	 viewBox="0 0 128 128" style="enable-background:new 0 0 128 128;" xml:space="preserve">
<style type="text/css">
	.vCenterHypervisorx0{fill:none;stroke:#000000;stroke-width:5;stroke-linecap:round;stroke-linejoin:round;stroke-miterlimit:10;}
	.vCenterHypervisorx1{fill:none;stroke:#000000;stroke-width:2;stroke-linecap:round;stroke-miterlimit:10;}
	.vCenterHypervisorx2{fill:#F89A1F;stroke:#F89A1F;stroke-miterlimit:10;}
	.vCenterHypervisorx3{fill:none;stroke:#000000;stroke-width:5;stroke-linecap:round;stroke-miterlimit:10;}
	.vCenterHypervisorx4{fill:none;stroke:#000000;stroke-width:5;stroke-miterlimit:10;}
	.vCenterHypervisorx5{fill:none;stroke:#000000;stroke-width:2;stroke-linecap:round;stroke-linejoin:round;stroke-miterlimit:10;}
	.vCenterHypervisorx6{fill:none;stroke:#000000;stroke-linecap:round;stroke-linejoin:round;stroke-miterlimit:10;}
	.vCenterHypervisorx7{fill:none;stroke:#000000;stroke-width:5;stroke-linejoin:round;stroke-miterlimit:10;}
	.vCenterHypervisorx8{fill:none;stroke:#000000;stroke-width:2;stroke-miterlimit:10;}
	.vCenterHypervisorx9{fill:none;stroke:#000000;stroke-miterlimit:10;}
	.vCenterHypervisorx10{fill:#F9BB16;}
	.vCenterHypervisorx11{fill:#EA4435;}
	.vCenterHypervisorx12{fill:#2FA952;}
	.vCenterHypervisorx13{fill:#547DBF;}
	.vCenterHypervisorx14{fill:none;stroke:#000000;stroke-width:3;stroke-linecap:round;stroke-linejoin:round;stroke-miterlimit:10;}
	.vCenterHypervisorx15{stroke:#000000;stroke-miterlimit:10;}
	.vCenterHypervisorx16{fill:none;stroke:#010101;stroke-width:5;stroke-miterlimit:10;}
	.vCenterHypervisorx17{fill:none;stroke:#020202;stroke-width:5;stroke-miterlimit:10;}
</style>
<g id="Layer_1">
	<path class="vCenterHypervisorx15" d="M120.07,46.83c-1.2-2.45-3-4.33-5.42-5.65c-2.42-1.31-5.3-1.97-8.65-1.97c-2.87,0-5.48,0.6-7.84,1.82
		c-2.36,1.21-4.57,3.07-6.63,5.58c-1.43-2.48-3.26-4.33-5.47-5.56c-2.21-1.23-4.86-1.84-7.93-1.84c-2.96,0-5.65,0.6-8.07,1.79
		c-2.32,1.15-4.5,2.92-6.55,5.3c0.01-0.03,0.03-0.07,0.04-0.1c0.25-0.72,0.37-1.34,0.37-1.88c0-1.37-0.7-2.58-2.1-3.63
		c-0.55-0.41-1.16-0.71-1.8-0.96c-0.79-0.39-1.67-0.61-2.65-0.61c-0.1,0-0.18,0.02-0.28,0.03c-0.12,0-0.24-0.03-0.37-0.03
		c-2.11,0-3.68,0.49-4.72,1.46c-1.04,0.97-2.09,2.62-3.16,4.95l-13.7,29L22.42,46.74c-1.19-2.75-2.27-4.71-3.25-5.87
		c-0.98-1.17-2.77-1.75-5.38-1.75c-1.34,0-2.59,0.26-3.74,0.78c-1.15,0.52-2.05,1.2-2.71,2.02c-0.65,0.82-0.98,1.65-0.98,2.49
		c0,0.54,0.12,1.18,0.37,1.93c0.25,0.75,0.56,1.48,0.92,2.2c0.36,0.72,0.72,1.43,1.06,2.15l14.96,28.82
		c1.5,2.78,2.56,4.64,3.19,5.58c0.63,0.94,1.61,1.81,2.93,2.6c1.32,0.79,3.1,1.19,5.32,1.19c1.73,0,3.19-0.25,4.4-0.76
		s2.23-1.22,3.05-2.13c0.82-0.91,1.57-2.01,2.24-3.29c0.67-1.28,1.22-2.35,1.64-3.18l5.11-9.87v11.52c0,2.54,0.59,4.46,1.77,5.76
		c1.18,1.3,2.7,1.95,4.55,1.95c1.88,0,3.4-0.65,4.55-1.95c1.15-1.3,1.73-3.22,1.73-5.76V64.63c0-5.14,0.63-9.08,1.91-11.83
		c1.27-2.75,3.91-4.12,7.91-4.12c2,0,3.47,0.55,4.39,1.64c0.93,1.09,1.49,2.49,1.7,4.19c0.21,1.7,0.31,4.09,0.31,7.17v19.5
		c0,2.57,0.58,4.5,1.73,5.78c1.15,1.28,2.65,1.93,4.51,1.93c1.91,0,3.45-0.64,4.62-1.93c1.17-1.28,1.75-3.21,1.75-5.78V64.9
		c0-5.23,0.45-8.88,1.34-10.94c0.81-1.61,1.93-2.9,3.38-3.85c1.45-0.96,2.98-1.43,4.59-1.43c2,0,3.5,0.54,4.48,1.61
		c0.99,1.08,1.59,2.41,1.82,3.99c0.22,1.58,0.34,3.69,0.34,6.32v20.58c0,2.54,0.59,4.46,1.77,5.76c1.18,1.3,2.7,1.95,4.55,1.95
		c1.91,0,3.45-0.64,4.62-1.93c1.17-1.28,1.75-3.21,1.75-5.78V57.28C121.64,52.52,121.12,49.04,120.07,46.83z"/>
</g>
<g id="Layer_2">
</g>
</svg>
