<?xml version="1.0" encoding="utf-8"?>
<!-- Generator: Adobe Illustrator 26.0.2, SVG Export Plug-In . SVG Version: 6.00 Build 0)  -->
<svg version="1.1" id="Layer_1" xmlns="http://www.w3.org/2000/svg" xmlns:xlink="http://www.w3.org/1999/xlink" x="0px" y="0px"
	 viewBox="0 0 128 128" style="enable-background:new 0 0 128 128;" xml:space="preserve">
<style type="text/css">
	.VirtualComputex0{fill:none;stroke:#000000;stroke-width:5;stroke-miterlimit:10;}
	.VirtualComputex1{stroke:#000000;stroke-width:5;stroke-miterlimit:10;}
	.VirtualComputex2{fill:none;stroke:#000000;stroke-width:5;stroke-linejoin:round;stroke-miterlimit:10;}
	.VirtualComputex3{fill:none;stroke:#000000;stroke-width:4;stroke-miterlimit:10;}
	.VirtualComputex4{fill:none;stroke:#000000;stroke-width:3;stroke-miterlimit:10;}
	.VirtualComputex5{fill:none;stroke:#FF0000;stroke-width:5;stroke-miterlimit:10;}
	.VirtualComputex6{fill:none;stroke:#000000;stroke-width:2;stroke-miterlimit:10;}
	.VirtualComputex7{stroke:#000000;stroke-miterlimit:10;}
	.VirtualComputex8{fill:#FF0000;}
</style>
<g>
	<line class="VirtualComputex0" x1="25.38" y1="119.86" x2="102.62" y2="119.86"/>
	<line class="VirtualComputex0" x1="64" y1="119.86" x2="64" y2="93.65"/>
	<path class="VirtualComputex0" d="M114.12,8.14H83.37h-1.35H45.98h-1.35H13.88C8.43,8.14,4,12.57,4,18v39.38v0.21v26.18
		c0,5.45,4.43,9.88,9.88,9.88h50.12h0.01h50.12c5.45,0,9.88-4.43,9.88-9.88V57.59v-0.21V18C124,12.57,119.57,8.14,114.12,8.14z"/>
	<rect x="11.5" y="15.59" class="VirtualComputex4" width="105" height="70.91"/>
	<g>
		<rect x="47.58" y="35.27" class="VirtualComputex4" width="32.85" height="32.85"/>
		<rect x="56.34" y="44.03" class="VirtualComputex4" width="15.33" height="15.33"/>
		<g>
			<line class="VirtualComputex4" x1="73.12" y1="34.91" x2="73.12" y2="24.75"/>
			<line class="VirtualComputex4" x1="64" y1="34.91" x2="64" y2="24.75"/>
			<line class="VirtualComputex4" x1="54.88" y1="34.91" x2="54.88" y2="24.75"/>
		</g>
		<g>
			<line class="VirtualComputex4" x1="73.12" y1="78.7" x2="73.12" y2="67.78"/>
			<line class="VirtualComputex4" x1="64" y1="78.7" x2="64" y2="67.78"/>
			<line class="VirtualComputex4" x1="54.88" y1="78.7" x2="54.88" y2="67.78"/>
		</g>
		<g>
			<line class="VirtualComputex4" x1="47.95" y1="42.94" x2="37.36" y2="42.94"/>
			<line class="VirtualComputex4" x1="47.95" y1="52.06" x2="37.36" y2="52.06"/>
			<line class="VirtualComputex4" x1="47.95" y1="61.18" x2="37.36" y2="61.18"/>
		</g>
		<g>
			<line class="VirtualComputex4" x1="90.64" y1="42.94" x2="80.05" y2="42.94"/>
			<line class="VirtualComputex4" x1="90.64" y1="52.06" x2="80.05" y2="52.06"/>
			<line class="VirtualComputex4" x1="90.64" y1="61.18" x2="80.05" y2="61.18"/>
		</g>
	</g>
</g>
</svg>
