<?xml version="1.0" encoding="utf-8"?>
<!-- Generator: Adobe Illustrator 26.0.2, SVG Export Plug-In . SVG Version: 6.00 Build 0)  -->
<svg version="1.1" id="Layer_1" xmlns="http://www.w3.org/2000/svg" xmlns:xlink="http://www.w3.org/1999/xlink" x="0px" y="0px"
	 viewBox="0 0 128 128" style="enable-background:new 0 0 128 128;" xml:space="preserve">
<style type="text/css">
	.Wallx0{fill:none;stroke:#000000;stroke-width:5;stroke-miterlimit:10;}
	.Wallx1{fill:none;stroke:#000000;stroke-width:3;stroke-miterlimit:10;}
</style>
<g>
	<path class="Wallx0" d="M124,124V4H4v120H124z"/>
	<line class="Wallx0" x1="4" y1="34" x2="123.1" y2="34"/>
	<line class="Wallx0" x1="4.4" y1="64" x2="123.6" y2="64"/>
	<line class="Wallx0" x1="4.9" y1="94" x2="124" y2="94"/>
	<g>
		<line class="Wallx0" x1="100.8" y1="4" x2="100.8" y2="34"/>
		<line class="Wallx0" x1="64" y1="4" x2="64" y2="34"/>
		<line class="Wallx0" x1="27.2" y1="4" x2="27.2" y2="34"/>
		<line class="Wallx0" x1="100.8" y1="64" x2="100.8" y2="94"/>
		<line class="Wallx0" x1="64" y1="64" x2="64" y2="94"/>
		<line class="Wallx0" x1="27.2" y1="64" x2="27.2" y2="94"/>
	</g>
	<line class="Wallx0" x1="84" y1="34" x2="84" y2="64"/>
	<line class="Wallx0" x1="44" y1="34" x2="44" y2="64"/>
	<line class="Wallx0" x1="84" y1="94" x2="84" y2="124"/>
	<line class="Wallx0" x1="44" y1="94" x2="44" y2="124"/>
</g>
</svg>
