<?xml version="1.0" encoding="utf-8"?>
<!-- Generator: Adobe Illustrator 26.0.2, SVG Export Plug-In . SVG Version: 6.00 Build 0)  -->
<svg version="1.1" xmlns="http://www.w3.org/2000/svg" xmlns:xlink="http://www.w3.org/1999/xlink" x="0px" y="0px"
	 viewBox="0 0 128 128" style="enable-background:new 0 0 128 128;" xml:space="preserve">
<style type="text/css">
	.Weightx0{fill:none;stroke:#000000;stroke-width:5;stroke-linejoin:round;stroke-miterlimit:10;}
	.Weightx1{fill:none;stroke:#010101;stroke-width:5;stroke-linejoin:round;stroke-miterlimit:10;}
	.Weightx2{fill:none;stroke:#010101;stroke-width:5;stroke-miterlimit:10;}
	.Weightx3{fill:none;stroke:#000000;stroke-width:4;stroke-miterlimit:10;}
	.Weightx4{fill:none;stroke:#000000;stroke-miterlimit:10;}
	.Weightx5{fill:none;stroke:#000000;stroke-width:5;stroke-miterlimit:10;}
	.Weightx6{fill:none;stroke:#000000;stroke-width:5;stroke-linecap:round;stroke-linejoin:round;stroke-miterlimit:10;}
	.Weightx7{fill:none;stroke:#020202;stroke-width:5;stroke-linecap:round;stroke-miterlimit:10;}
	.Weightx8{fill:none;stroke:#020202;stroke-width:5;stroke-miterlimit:10;}
	.Weightx9{fill:none;stroke:#020202;stroke-width:5;stroke-linecap:round;stroke-linejoin:round;stroke-miterlimit:10;}
	.Weightx10{fill:none;stroke:#010101;stroke-width:5;stroke-linecap:round;stroke-miterlimit:10;}
	.Weightx11{fill:none;stroke:#010101;stroke-miterlimit:10;}
	.Weightx12{fill:none;stroke:#000000;stroke-width:5;stroke-linecap:round;stroke-miterlimit:10;}
	.Weightx13{fill:none;stroke:#000000;stroke-width:4;stroke-linecap:round;stroke-linejoin:round;stroke-miterlimit:10;}
</style>
<g id="Layer_1">
</g>
<g id="Layer_2">
	<g>
		<path class="Weightx3" d="M115,32.05H13c-3.07,0-5.56-2.49-5.56-5.56V14.46h113.12v12.03C120.56,29.56,118.07,32.05,115,32.05z"/>
		<rect x="37.9" y="32.05" class="Weightx3" width="52.21" height="14.06"/>
		<path class="Weightx13" d="M100.43,113.54H27.57c-5.43,0-9.53-4.94-8.52-10.28l9.49-50.17c0.77-4.05,4.31-6.99,8.43-6.99h54.05
			c4.12,0,7.66,2.93,8.43,6.99l9.49,50.17C109.96,108.6,105.86,113.54,100.43,113.54z"/>
		<path class="Weightx13" d="M77.23,98.37H50.77c-3.37,0-6.11-2.74-6.11-6.11V65.81c0-3.37,2.74-6.11,6.11-6.11h26.45
			c3.37,0,6.11,2.74,6.11,6.11v26.45C83.34,95.64,80.6,98.37,77.23,98.37z"/>
		<line class="Weightx13" x1="64" y1="79.04" x2="72.22" y2="68.34"/>
	</g>
</g>
</svg>
