<?xml version="1.0" encoding="utf-8"?>
<!-- Generator: Adobe Illustrator 26.0.2, SVG Export Plug-In . SVG Version: 6.00 Build 0)  -->
<svg version="1.1" id="Layer_1" xmlns="http://www.w3.org/2000/svg" xmlns:xlink="http://www.w3.org/1999/xlink" x="0px" y="0px"
	 viewBox="0 0 128 128" style="enable-background:new 0 0 128 128;" xml:space="preserve">
<style type="text/css">
	.Accessoryx0{fill:none;stroke:#000000;stroke-width:5;stroke-miterlimit:10;}
	.Accessoryx1{fill:none;stroke:#000000;stroke-width:3;stroke-miterlimit:10;}
	.Accessoryx2{fill:none;stroke:#000000;stroke-width:2;stroke-miterlimit:10;}
	.Accessoryx3{stroke:#000000;stroke-width:3;stroke-miterlimit:10;}
	.Accessoryx4{fill:none;stroke:#000000;stroke-miterlimit:10;}
	.Accessoryx5{stroke:#000000;stroke-width:5;stroke-miterlimit:10;}
	.Accessoryx6{fill:none;stroke:#000000;stroke-width:4;stroke-miterlimit:10;}
</style>
<path class="Accessoryx0" d="M120,65H8c-2.2,0-4-1.8-4-4V12.5c0-2.2,1.8-4,4-4h112c2.2,0,4,1.8,4,4V61C124,63.2,122.2,65,120,65z"/>
<g>
	<path class="Accessoryx1" d="M21,25.9h-5.8c-0.7,0-1.3-0.6-1.3-1.3v-5.8c0-0.7,0.6-1.3,1.3-1.3H21c0.7,0,1.3,0.6,1.3,1.3v5.8
		C22.4,25.3,21.8,25.9,21,25.9z"/>
	<path class="Accessoryx1" d="M36.3,25.9h-5.8c-0.7,0-1.3-0.6-1.3-1.3v-5.8c0-0.7,0.6-1.3,1.3-1.3h5.8c0.7,0,1.3,0.6,1.3,1.3v5.8
		C37.6,25.3,37,25.9,36.3,25.9z"/>
	<path class="Accessoryx1" d="M51.6,25.9h-5.8c-0.7,0-1.3-0.6-1.3-1.3v-5.8c0-0.7,0.6-1.3,1.3-1.3h5.8c0.7,0,1.3,0.6,1.3,1.3v5.8
		C52.9,25.3,52.3,25.9,51.6,25.9z"/>
	<path class="Accessoryx1" d="M66.9,25.9h-5.8c-0.7,0-1.3-0.6-1.3-1.3v-5.8c0-0.7,0.6-1.3,1.3-1.3h5.8c0.7,0,1.3,0.6,1.3,1.3v5.8
		C68.2,25.3,67.6,25.9,66.9,25.9z"/>
	<path class="Accessoryx1" d="M82.2,25.9h-5.8c-0.7,0-1.3-0.6-1.3-1.3v-5.8c0-0.7,0.6-1.3,1.3-1.3h5.8c0.7,0,1.3,0.6,1.3,1.3v5.8
		C83.5,25.3,82.9,25.9,82.2,25.9z"/>
	<path class="Accessoryx1" d="M112.8,25.9H107c-0.7,0-1.3-0.6-1.3-1.3v-5.8c0-0.7,0.6-1.3,1.3-1.3h5.8c0.7,0,1.3,0.6,1.3,1.3v5.8
		C114.1,25.3,113.5,25.9,112.8,25.9z"/>
	<path class="Accessoryx1" d="M97.5,25.9h-5.8c-0.7,0-1.3-0.6-1.3-1.3v-5.8c0-0.7,0.6-1.3,1.3-1.3h5.8c0.7,0,1.3,0.6,1.3,1.3v5.8
		C98.8,25.3,98.2,25.9,97.5,25.9z"/>
	<path class="Accessoryx1" d="M29.1,41H15.2c-0.7,0-1.3-0.6-1.3-1.3v-5.8c0-0.7,0.6-1.3,1.3-1.3h13.9c0.7,0,1.3,0.6,1.3,1.3v5.8
		C30.5,40.4,29.9,41,29.1,41z"/>
	<path class="Accessoryx1" d="M112.8,41H98.9c-0.7,0-1.3-0.6-1.3-1.3v-5.8c0-0.7,0.6-1.3,1.3-1.3h13.9c0.7,0,1.3,0.6,1.3,1.3v5.8
		C114.1,40.4,113.5,41,112.8,41z"/>
	<path class="Accessoryx1" d="M44,41h-5.8c-0.7,0-1.3-0.6-1.3-1.3v-5.8c0-0.7,0.6-1.3,1.3-1.3H44c0.7,0,1.3,0.6,1.3,1.3v5.8
		C45.3,40.4,44.7,41,44,41z"/>
	<path class="Accessoryx1" d="M74.5,41h-5.8c-0.7,0-1.3-0.6-1.3-1.3v-5.8c0-0.7,0.6-1.3,1.3-1.3h5.8c0.7,0,1.3,0.6,1.3,1.3v5.8
		C75.9,40.4,75.3,41,74.5,41z"/>
	<path class="Accessoryx1" d="M59.2,41h-5.8c-0.7,0-1.3-0.6-1.3-1.3v-5.8c0-0.7,0.6-1.3,1.3-1.3h5.8c0.7,0,1.3,0.6,1.3,1.3v5.8
		C60.6,40.4,60,41,59.2,41z"/>
	<path class="Accessoryx1" d="M89.8,41H84c-0.7,0-1.3-0.6-1.3-1.3v-5.8c0-0.7,0.6-1.3,1.3-1.3h5.8c0.7,0,1.3,0.6,1.3,1.3v5.8
		C91.2,40.4,90.6,41,89.8,41z"/>
	<path class="Accessoryx1" d="M23.5,56.2h-8.3c-0.7,0-1.3-0.6-1.3-1.3v-5.8c0-0.7,0.6-1.3,1.3-1.3h8.3c0.7,0,1.3,0.6,1.3,1.3v5.8
		C24.8,55.6,24.2,56.2,23.5,56.2z"/>
	<path class="Accessoryx1" d="M112.8,56.2h-8.3c-0.7,0-1.3-0.6-1.3-1.3v-5.8c0-0.7,0.6-1.3,1.3-1.3h8.3c0.7,0,1.3,0.6,1.3,1.3v5.8
		C114.1,55.6,113.5,56.2,112.8,56.2z"/>
	<path class="Accessoryx1" d="M37.7,56.2h-5.8c-0.7,0-1.3-0.6-1.3-1.3v-5.8c0-0.7,0.6-1.3,1.3-1.3h5.8c0.7,0,1.3,0.6,1.3,1.3v5.8
		C39,55.6,38.4,56.2,37.7,56.2z"/>
	<path class="Accessoryx1" d="M82.8,56.2h-37c-0.7,0-1.3-0.6-1.3-1.3v-5.8c0-0.7,0.6-1.3,1.3-1.3h37c0.7,0,1.3,0.6,1.3,1.3v5.8
		C84.1,55.6,83.5,56.2,82.8,56.2z"/>
	<path class="Accessoryx1" d="M96.1,56.2h-5.8c-0.7,0-1.3-0.6-1.3-1.3v-5.8c0-0.7,0.6-1.3,1.3-1.3h5.8c0.7,0,1.3,0.6,1.3,1.3v5.8
		C97.4,55.6,96.8,56.2,96.1,56.2z"/>
</g>
<g>
	<path class="Accessoryx0" d="M100.7,100.4L100.7,100.4c0,10.5-8.5,19.1-19.1,19.1H58c-6.8,0-12.3-5.5-12.3-12.3V93.7
		c0-6.8,5.5-12.3,12.3-12.3h23.7C92.2,81.3,100.7,89.9,100.7,100.4z"/>
	<line class="Accessoryx0" x1="65.4" y1="119.4" x2="65.4" y2="81.3"/>
	<line class="Accessoryx0" x1="27.3" y1="100.4" x2="65.4" y2="100.4"/>
</g>
</svg>
