<?xml version="1.0" encoding="utf-8"?>
<!-- Generator: Adobe Illustrator 26.0.2, SVG Export Plug-In . SVG Version: 6.00 Build 0)  -->
<svg version="1.1" id="Layer_1" xmlns="http://www.w3.org/2000/svg" xmlns:xlink="http://www.w3.org/1999/xlink" x="0px" y="0px"
	 viewBox="0 0 128 128" style="enable-background:new 0 0 128 128;" xml:space="preserve">
<style type="text/css">
	.Appliancex0{fill:none;stroke:#000000;stroke-width:5;stroke-miterlimit:10;}
	.Appliancex1{fill:none;stroke:#000000;stroke-width:3;stroke-miterlimit:10;}
	.Appliancex2{fill:none;stroke:#000000;stroke-width:2;stroke-miterlimit:10;}
	.Appliancex3{stroke:#000000;stroke-width:3;stroke-miterlimit:10;}
	.Appliancex4{fill:none;stroke:#000000;stroke-miterlimit:10;}
	.Appliancex5{stroke:#000000;stroke-width:5;stroke-miterlimit:10;}
	.Appliancex6{fill:none;stroke:#000000;stroke-width:4;stroke-miterlimit:10;}
</style>
<g>
	<path class="Appliancex0" d="M114.3,105.6H13.7c-5.4,0-9.7-4.3-9.7-9.7V32.1c0-5.4,4.3-9.7,9.7-9.7h100.6c5.4,0,9.7,4.3,9.7,9.7v63.8
		C124,101.2,119.7,105.6,114.3,105.6z"/>
	<path class="Appliancex0" d="M27.6,48.3H16.7c-0.7,0-1.3-0.6-1.3-1.3V36c0-0.7,0.6-1.3,1.3-1.3h10.9c0.7,0,1.3,0.6,1.3,1.3V47
		C29,47.7,28.4,48.3,27.6,48.3z"/>
	<path class="Appliancex0" d="M41.9,62H31c-0.7,0-1.3-0.6-1.3-1.3V49.7c0-0.7,0.6-1.3,1.3-1.3h10.9c0.7,0,1.3,0.6,1.3,1.3v10.9
		C43.3,61.4,42.7,62,41.9,62z"/>
	<path class="Appliancex0" d="M56.3,48.3H45.3c-0.7,0-1.3-0.6-1.3-1.3V36c0-0.7,0.6-1.3,1.3-1.3h10.9c0.7,0,1.3,0.6,1.3,1.3V47
		C57.6,47.7,57,48.3,56.3,48.3z"/>
	<path class="Appliancex0" d="M70.6,62H59.6c-0.7,0-1.3-0.6-1.3-1.3V49.7c0-0.7,0.6-1.3,1.3-1.3h10.9c0.7,0,1.3,0.6,1.3,1.3v10.9
		C71.9,61.4,71.3,62,70.6,62z"/>
	<path class="Appliancex0" d="M84.9,48.3H73.9c-0.7,0-1.3-0.6-1.3-1.3V36c0-0.7,0.6-1.3,1.3-1.3h10.9c0.7,0,1.3,0.6,1.3,1.3V47
		C86.2,47.7,85.6,48.3,84.9,48.3z"/>
	<path class="Appliancex0" d="M99.2,62H88.3c-0.7,0-1.3-0.6-1.3-1.3V49.7c0-0.7,0.6-1.3,1.3-1.3h10.9c0.7,0,1.3,0.6,1.3,1.3v10.9
		C100.6,61.4,100,62,99.2,62z"/>
	<path class="Appliancex0" d="M113.5,48.3h-10.9c-0.7,0-1.3-0.6-1.3-1.3V36c0-0.7,0.6-1.3,1.3-1.3h10.9c0.7,0,1.3,0.6,1.3,1.3V47
		C114.9,47.7,114.3,48.3,113.5,48.3z"/>
	<path class="Appliancex0" d="M27.6,75.6H16.7c-0.7,0-1.3-0.6-1.3-1.3V63.3c0-0.7,0.6-1.3,1.3-1.3h10.9c0.7,0,1.3,0.6,1.3,1.3v10.9
		C29,75,28.4,75.6,27.6,75.6z"/>
	<path class="Appliancex0" d="M56.3,75.6H45.3c-0.7,0-1.3-0.6-1.3-1.3V63.3c0-0.7,0.6-1.3,1.3-1.3h10.9c0.7,0,1.3,0.6,1.3,1.3v10.9
		C57.6,75,57,75.6,56.3,75.6z"/>
	<path class="Appliancex0" d="M84.9,75.6H73.9c-0.7,0-1.3-0.6-1.3-1.3V63.3c0-0.7,0.6-1.3,1.3-1.3h10.9c0.7,0,1.3,0.6,1.3,1.3v10.9
		C86.2,75,85.6,75.6,84.9,75.6z"/>
	<path class="Appliancex0" d="M113.5,75.6h-10.9c-0.7,0-1.3-0.6-1.3-1.3V63.3c0-0.7,0.6-1.3,1.3-1.3h10.9c0.7,0,1.3,0.6,1.3,1.3v10.9
		C114.9,75,114.3,75.6,113.5,75.6z"/>
	<line class="Appliancex5" x1="15.3" y1="89.2" x2="114.9" y2="89.2"/>
</g>
</svg>
