<?xml version="1.0" encoding="utf-8"?>
<!-- Generator: Adobe Illustrator 26.0.2, SVG Export Plug-In . SVG Version: 6.00 Build 0)  -->
<svg version="1.1" id="Layer_1" xmlns="http://www.w3.org/2000/svg" xmlns:xlink="http://www.w3.org/1999/xlink" x="0px" y="0px"
	 viewBox="0 0 128 128" style="enable-background:new 0 0 128 128;" xml:space="preserve">
<style type="text/css">
	.BladeFiberx0{fill:none;stroke:#000000;stroke-width:5;stroke-miterlimit:10;}
	.BladeFiberx1{fill:none;stroke:#000000;stroke-width:3;stroke-miterlimit:10;}
	.BladeFiberx2{fill:none;stroke:#000000;stroke-width:2;stroke-miterlimit:10;}
	.BladeFiberx3{stroke:#000000;stroke-width:3;stroke-miterlimit:10;}
	.BladeFiberx4{fill:none;stroke:#000000;stroke-miterlimit:10;}
	.BladeFiberx5{stroke:#000000;stroke-width:5;stroke-miterlimit:10;}
	.BladeFiberx6{fill:none;stroke:#000000;stroke-width:4;stroke-miterlimit:10;}
</style>
<path class="BladeFiberx0" d="M41.5,120.7V7.3C41.5,5.5,43,4,44.8,4h38.4c1.8,0,3.3,1.5,3.3,3.3v113.4c0,1.8-1.5,3.3-3.3,3.3H44.8
	C43,124,41.5,122.5,41.5,120.7z"/>
<rect x="63.8" y="17.8" transform="matrix(-1.347919e-10 1 -1 -1.347919e-10 93.0545 -45.8546)" class="BladeFiberx1" width="11.3" height="11.5"/>
<rect x="63.8" y="38.3" transform="matrix(-1.347919e-10 1 -1 -1.347919e-10 113.509 -25.4001)" class="BladeFiberx1" width="11.3" height="11.5"/>
<rect x="63.8" y="58.8" transform="matrix(-1.346303e-10 1 -1 -1.346303e-10 133.9636 -4.9455)" class="BladeFiberx1" width="11.3" height="11.5"/>
<rect x="63.8" y="79.2" transform="matrix(-1.346303e-10 1 -1 -1.346303e-10 154.4182 15.5091)" class="BladeFiberx1" width="11.3" height="11.5"/>
<rect x="63.8" y="99.7" transform="matrix(-1.346303e-10 1 -1 -1.346303e-10 174.8727 35.9636)" class="BladeFiberx1" width="11.3" height="11.5"/>
<rect x="6.4" y="61.4" transform="matrix(-1.346560e-10 1 -1 -1.346560e-10 117.4907 11.5274)" class="BladeFiberx1" width="93.1" height="6.3"/>
</svg>
