<?xml version="1.0" encoding="utf-8"?>
<!-- Generator: Adobe Illustrator 26.0.2, SVG Export Plug-In . SVG Version: 6.00 Build 0)  -->
<svg version="1.1" id="Layer_1" xmlns="http://www.w3.org/2000/svg" xmlns:xlink="http://www.w3.org/1999/xlink" x="0px" y="0px"
	 viewBox="0 0 128 128" style="enable-background:new 0 0 128 128;" xml:space="preserve">
<style type="text/css">
	.BladeStoragex0{fill:none;stroke:#000000;stroke-width:5;stroke-miterlimit:10;}
	.BladeStoragex1{fill:none;stroke:#000000;stroke-width:3;stroke-miterlimit:10;}
	.BladeStoragex2{fill:none;stroke:#000000;stroke-width:2;stroke-miterlimit:10;}
	.BladeStoragex3{stroke:#000000;stroke-width:3;stroke-miterlimit:10;}
	.BladeStoragex4{fill:none;stroke:#000000;stroke-miterlimit:10;}
	.BladeStoragex5{stroke:#000000;stroke-width:5;stroke-miterlimit:10;}
	.BladeStoragex6{fill:none;stroke:#000000;stroke-width:4;stroke-miterlimit:10;}
</style>
<path class="BladeStoragex0" d="M6.1,64h115.8c1.1,0,2.1,0.9,2.1,2.1v25.6c0,1.1-0.9,2.1-2.1,2.1H6.1c-1.1,0-2.1-0.9-2.1-2.1V66.1
	C4,64.9,4.9,64,6.1,64z"/>
<path class="BladeStoragex1" d="M111,70.7h1.5c1.1,0,2.1,0.9,2.1,2.1v12.3c0,1.1-0.9,2.1-2.1,2.1H111c-1.1,0-2.1-0.9-2.1-2.1V72.8
	C108.9,71.7,109.8,70.7,111,70.7z"/>
<path class="BladeStoragex1" d="M99.7,70.7h1.5c1.1,0,2.1,0.9,2.1,2.1v12.3c0,1.1-0.9,2.1-2.1,2.1h-1.5c-1.1,0-2.1-0.9-2.1-2.1V72.8
	C97.6,71.6,98.6,70.7,99.7,70.7z"/>
<path class="BladeStoragex1" d="M88.4,70.7H90c1.1,0,2.1,0.9,2.1,2.1V85c0,1.1-0.9,2.1-2.1,2.1h-1.5c-1.1,0-2.1-0.9-2.1-2.1V72.8
	C86.4,71.6,87.3,70.7,88.4,70.7z"/>
<path class="BladeStoragex1" d="M77.2,70.8h1.5c1.1,0,2.1,0.9,2.1,2.1v12.3c0,1.1-0.9,2.1-2.1,2.1h-1.5c-1.1,0-2.1-0.9-2.1-2.1V72.9
	C75.1,71.7,76,70.8,77.2,70.8z"/>
<circle class="BladeStoragex3" cx="34.9" cy="79" r="2.1"/>
<circle class="BladeStoragex3" cx="21" cy="79" r="2.1"/>
<path class="BladeStoragex0" d="M6.1,34.2h115.8c1.1,0,2.1,0.9,2.1,2.1v25.6c0,1.1-0.9,2.1-2.1,2.1H6.1C4.9,64,4,63.1,4,61.9V36.3
	C4,35.2,4.9,34.2,6.1,34.2z"/>
<path class="BladeStoragex1" d="M111,41h1.5c1.1,0,2.1,0.9,2.1,2.1v12.3c0,1.1-0.9,2.1-2.1,2.1H111c-1.1,0-2.1-0.9-2.1-2.1V43
	C108.9,41.9,109.8,41,111,41z"/>
<path class="BladeStoragex1" d="M99.7,41h1.5c1.1,0,2.1,0.9,2.1,2.1v12.3c0,1.1-0.9,2.1-2.1,2.1h-1.5c-1.1,0-2.1-0.9-2.1-2.1V43
	C97.6,41.9,98.6,41,99.7,41z"/>
<path class="BladeStoragex1" d="M88.4,40.9H90c1.1,0,2.1,0.9,2.1,2.1v12.3c0,1.1-0.9,2.1-2.1,2.1h-1.5c-1.1,0-2.1-0.9-2.1-2.1V43
	C86.4,41.9,87.3,40.9,88.4,40.9z"/>
<path class="BladeStoragex1" d="M77.2,41h1.5c1.1,0,2.1,0.9,2.1,2.1v12.3c0,1.1-0.9,2.1-2.1,2.1h-1.5c-1.1,0-2.1-0.9-2.1-2.1V43.1
	C75.1,41.9,76,41,77.2,41z"/>
<circle class="BladeStoragex3" cx="34.9" cy="49.2" r="2.1"/>
<circle class="BladeStoragex3" cx="21" cy="49.2" r="2.1"/>
</svg>
