<?xml version="1.0" encoding="utf-8"?>
<!-- Generator: Adobe Illustrator 26.0.2, SVG Export Plug-In . SVG Version: 6.00 Build 0)  -->
<svg version="1.1" id="Layer_1" xmlns="http://www.w3.org/2000/svg" xmlns:xlink="http://www.w3.org/1999/xlink" x="0px" y="0px"
	 viewBox="0 0 128 128" style="enable-background:new 0 0 128 128;" xml:space="preserve">
<style type="text/css">
	.Chassisx0{fill:none;stroke:#000000;stroke-width:5;stroke-miterlimit:10;}
	.Chassisx1{fill:none;stroke:#000000;stroke-width:3;stroke-miterlimit:10;}
	.Chassisx2{fill:none;stroke:#000000;stroke-width:2;stroke-miterlimit:10;}
	.Chassisx3{stroke:#000000;stroke-width:3;stroke-miterlimit:10;}
	.Chassisx4{fill:none;stroke:#000000;stroke-miterlimit:10;}
	.Chassisx5{stroke:#000000;stroke-width:5;stroke-miterlimit:10;}
	.Chassisx6{fill:none;stroke:#000000;stroke-width:4;stroke-miterlimit:10;}
</style>
<g>
	<path class="Chassisx0" d="M120.9,49.6H7.1C5.4,49.6,4,51,4,52.7v22.7c0,1.7,1.4,3.1,3.1,3.1h113.9c1.7,0,3.1-1.4,3.1-3.1V52.7
		C124,51,122.6,49.6,120.9,49.6z"/>
	<circle class="Chassisx1" cx="104.8" cy="63.9" r="5.7"/>
	<g>
		<path class="Chassisx1" d="M89.8,67.3H77.4c-1.9,0-3.4-1.5-3.4-3.4v0c0-1.9,1.5-3.4,3.4-3.4h12.4c1.9,0,3.4,1.5,3.4,3.4v0
			C93.2,65.8,91.7,67.3,89.8,67.3z"/>
	</g>
	<g>
		<path class="Chassisx1" d="M66.4,68h-2.3c-1.3,0-2.3-1-2.3-2.3v-3.6c0-1.3,1-2.3,2.3-2.3h2.3c1.3,0,2.3,1,2.3,2.3v3.6
			C68.6,67,67.6,68,66.4,68z"/>
	</g>
	<g>
		<path class="Chassisx1" d="M54.3,68H52c-1.3,0-2.3-1-2.3-2.3v-3.6c0-1.3,1-2.3,2.3-2.3h2.3c1.3,0,2.3,1,2.3,2.3v3.6
			C56.6,67,55.5,68,54.3,68z"/>
	</g>
	<g>
		<path class="Chassisx1" d="M42.2,68h-2.3c-1.3,0-2.3-1-2.3-2.3v-3.6c0-1.3,1-2.3,2.3-2.3h2.3c1.3,0,2.3,1,2.3,2.3v3.6
			C44.5,67,43.5,68,42.2,68z"/>
	</g>
	<g>
		<path class="Chassisx1" d="M30.1,68h-2.3c-1.3,0-2.3-1-2.3-2.3v-3.6c0-1.3,1-2.3,2.3-2.3h2.3c1.3,0,2.3,1,2.3,2.3v3.6
			C32.4,67,31.4,68,30.1,68z"/>
	</g>
</g>
</svg>
