<?xml version="1.0" encoding="utf-8"?>
<!-- Generator: Adobe Illustrator 26.0.2, SVG Export Plug-In . SVG Version: 6.00 Build 0)  -->
<svg version="1.1" id="Layer_1" xmlns="http://www.w3.org/2000/svg" xmlns:xlink="http://www.w3.org/1999/xlink" x="0px" y="0px"
	 viewBox="0 0 128 128" style="enable-background:new 0 0 128 128;" xml:space="preserve">
<style type="text/css">
	.Connectorx0{fill:none;stroke:#000000;stroke-width:5;stroke-miterlimit:10;}
	.Connectorx1{fill:none;stroke:#000000;stroke-width:3;stroke-miterlimit:10;}
	.Connectorx2{fill:none;stroke:#000000;stroke-width:2;stroke-miterlimit:10;}
	.Connectorx3{stroke:#000000;stroke-width:3;stroke-miterlimit:10;}
	.Connectorx4{fill:none;stroke:#000000;stroke-miterlimit:10;}
	.Connectorx5{stroke:#000000;stroke-width:5;stroke-miterlimit:10;}
	.Connectorx6{fill:none;stroke:#000000;stroke-width:4;stroke-miterlimit:10;}
</style>
<path class="Connectorx0" d="M42.9,50.9l34.2,34.2l-19.3,19.3c-9.4,9.4-24.7,9.4-34.2,0l0,0c-9.4-9.4-9.4-24.7,0-34.2L42.9,50.9z"/>
<line class="Connectorx0" x1="85.5" y1="93.5" x2="34.5" y2="42.5"/>
<line class="Connectorx0" x1="22.9" y1="105.1" x2="4" y2="124"/>
<path class="Connectorx0" d="M50.9,42.9l34.2,34.2l19.3-19.3c9.4-9.4,9.4-24.7,0-34.2l0,0c-9.4-9.4-24.7-9.4-34.2,0L50.9,42.9z"/>
<line class="Connectorx0" x1="93.5" y1="85.5" x2="42.5" y2="34.5"/>
<line class="Connectorx0" x1="105.1" y1="22.9" x2="124" y2="4"/>
</svg>
