<?xml version="1.0" encoding="utf-8"?>
<!-- Generator: Adobe Illustrator 26.0.2, SVG Export Plug-In . SVG Version: 6.00 Build 0)  -->
<svg version="1.1" id="Layer_1" xmlns="http://www.w3.org/2000/svg" xmlns:xlink="http://www.w3.org/1999/xlink" x="0px" y="0px"
	 viewBox="0 0 128 128" style="enable-background:new 0 0 128 128;" xml:space="preserve">
<style type="text/css">
	.Coolingx0{fill:none;stroke:#000000;stroke-width:5;stroke-miterlimit:10;}
	.Coolingx1{fill:none;stroke:#000000;stroke-width:3;stroke-miterlimit:10;}
	.Coolingx2{fill:none;stroke:#000000;stroke-width:2;stroke-miterlimit:10;}
	.Coolingx3{stroke:#000000;stroke-width:3;stroke-miterlimit:10;}
	.Coolingx4{fill:none;stroke:#000000;stroke-miterlimit:10;}
	.Coolingx5{stroke:#000000;stroke-width:5;stroke-miterlimit:10;}
	.Coolingx6{fill:none;stroke:#000000;stroke-width:4;stroke-miterlimit:10;}
</style>
<g>
	<path class="Coolingx0" d="M107.2,70.6C93.8,52.3,77.9,60,73.3,62.8c-2-2-4.9-3.3-8-3.3c0,0-0.1,0-0.1,0l0,0c-1.7-7.7,5.3-12.5,8.9-14.5
		c1.3-0.8,2.8-1.2,4.3-1.3c17.1-1.3,10.4-11.7,8.7-14.3c-0.2-0.4-0.5-0.7-0.8-1c-18.5-17.8-36.8,1.7-36.8,2.4
		C35,52.5,53.9,65.5,55,66.2l0,0c-0.7,1.4-1,3-1,4.7c0,1.6,0.3,3.2,1,4.5c-6.6,3.7-13.6-1.3-16.4-3.5c-0.8-0.6-1.5-1.4-2-2.4
		c-8.1-15.8-15-5.7-16.8-3c-0.3,0.4-0.5,0.9-0.7,1.3c-8.9,24,16.3,33,16.8,32.7c23.6,4.3,29.2-14.3,30.2-18.4l0,0
		c4.3-0.2,7.9-2.8,9.6-6.5c7.9,1.6,9.4,10.8,9.9,14.2c0.1,0.9,0.1,1.7-0.2,2.6c-5.3,17.5,7.2,14.6,10.2,14c0.4-0.1,0.8-0.2,1.2-0.4
		C119.9,94.8,107.8,70.9,107.2,70.6z"/>
	<circle class="Coolingx0" cx="65.3" cy="70.9" r="11.3"/>
</g>
<path class="Coolingx0" d="M103.1,124.5H25.9c-11.8,0-21.4-9.6-21.4-21.4V25.9c0-11.8,9.6-21.4,21.4-21.4h77.1c11.8,0,21.4,9.6,21.4,21.4
	v77.1C124.5,114.9,114.9,124.5,103.1,124.5z"/>
</svg>
