<?xml version="1.0" encoding="utf-8"?>
<!-- Generator: Adobe Illustrator 26.0.2, SVG Export Plug-In . SVG Version: 6.00 Build 0)  -->
<svg version="1.1" id="Layer_1" xmlns="http://www.w3.org/2000/svg" xmlns:xlink="http://www.w3.org/1999/xlink" x="0px" y="0px"
	 viewBox="0 0 128 128" style="enable-background:new 0 0 128 128;" xml:space="preserve">
<style type="text/css">
	.Copperx0{fill:none;stroke:#010101;stroke-width:5;stroke-miterlimit:10;}
</style>
<g>
	<g>
		<path class="Copperx0" d="M91.5,119.4h-52v-15.2H27.1V87.9H4V22.7c0-7.8,6.4-14.2,14.2-14.2h91.6c7.8,0,14.2,6.4,14.2,14.2v65.1h-17
			v16.4H91.5V119.4z"/>
	</g>
	<g>
		<line class="Copperx0" x1="25.8" y1="23.8" x2="25.8" y2="38.8"/>
		<line class="Copperx0" x1="36.7" y1="23.8" x2="36.7" y2="38.8"/>
		<line class="Copperx0" x1="47.6" y1="23.8" x2="47.6" y2="38.8"/>
		<line class="Copperx0" x1="58.5" y1="23.8" x2="58.5" y2="38.8"/>
		<line class="Copperx0" x1="69.5" y1="23.8" x2="69.5" y2="38.8"/>
		<line class="Copperx0" x1="80.4" y1="23.8" x2="80.4" y2="38.8"/>
		<line class="Copperx0" x1="91.3" y1="23.8" x2="91.3" y2="38.8"/>
		<line class="Copperx0" x1="102.2" y1="23.8" x2="102.2" y2="38.8"/>
	</g>
</g>
</svg>
