<?xml version="1.0" encoding="utf-8"?>
<!-- Generator: Adobe Illustrator 26.0.2, SVG Export Plug-In . SVG Version: 6.00 Build 0)  -->
<svg version="1.1" id="Layer_1" xmlns="http://www.w3.org/2000/svg" xmlns:xlink="http://www.w3.org/1999/xlink" x="0px" y="0px"
	 viewBox="0 0 128 128" style="enable-background:new 0 0 128 128;" xml:space="preserve">
<style type="text/css">
	.Enclosurex0{fill:none;stroke:#000000;stroke-width:5;stroke-miterlimit:10;}
	.Enclosurex1{fill:none;stroke:#000000;stroke-width:3;stroke-miterlimit:10;}
	.Enclosurex2{fill:none;stroke:#000000;stroke-width:2;stroke-miterlimit:10;}
	.Enclosurex3{stroke:#000000;stroke-width:3;stroke-miterlimit:10;}
	.Enclosurex4{fill:none;stroke:#000000;stroke-miterlimit:10;}
	.Enclosurex5{stroke:#000000;stroke-width:5;stroke-miterlimit:10;}
	.Enclosurex6{fill:none;stroke:#000000;stroke-width:4;stroke-miterlimit:10;}
</style>
<path class="Enclosurex0" d="M98.9,110.1H29.1c-1.8,0-3.3-1.5-3.3-3.3V89.4c0-1.8,1.5-3.3,3.3-3.3h69.7c1.8,0,3.3,1.5,3.3,3.3v17.4
	C102.2,108.6,100.7,110.1,98.9,110.1z"/>
<rect x="34.7" y="94.4" class="Enclosurex1" width="28.2" height="7.3"/>
<rect x="73.4" y="96.5" class="Enclosurex4" width="5.2" height="3.1"/>
<rect x="81.8" y="96.5" class="Enclosurex4" width="5.2" height="3.1"/>
<rect x="90.2" y="96.5" class="Enclosurex4" width="5.2" height="3.1"/>
<path class="Enclosurex0" d="M98.9,76H29.1c-1.8,0-3.3-1.5-3.3-3.3V55.3c0-1.8,1.5-3.3,3.3-3.3h69.7c1.8,0,3.3,1.5,3.3,3.3v17.4
	C102.2,74.5,100.7,76,98.9,76z"/>
<rect x="34.7" y="60.3" class="Enclosurex1" width="28.2" height="7.3"/>
<rect x="73.4" y="62.4" class="Enclosurex4" width="5.2" height="3.1"/>
<rect x="81.8" y="62.4" class="Enclosurex4" width="5.2" height="3.1"/>
<rect x="90.2" y="62.4" class="Enclosurex4" width="5.2" height="3.1"/>
<path class="Enclosurex0" d="M98.9,41.9H29.1c-1.8,0-3.3-1.5-3.3-3.3V21.2c0-1.8,1.5-3.3,3.3-3.3h69.7c1.8,0,3.3,1.5,3.3,3.3v17.4
	C102.2,40.5,100.7,41.9,98.9,41.9z"/>
<rect x="34.7" y="26.2" class="Enclosurex1" width="28.2" height="7.3"/>
<rect x="73.4" y="28.3" class="Enclosurex4" width="5.2" height="3.1"/>
<rect x="81.8" y="28.3" class="Enclosurex4" width="5.2" height="3.1"/>
<rect x="90.2" y="28.3" class="Enclosurex4" width="5.2" height="3.1"/>
<rect x="14.2" y="4" class="Enclosurex0" width="99.5" height="120"/>
</svg>
