<?xml version="1.0" encoding="utf-8"?>
<!-- Generator: Adobe Illustrator 26.0.2, SVG Export Plug-In . SVG Version: 6.00 Build 0)  -->
<svg version="1.1" id="Layer_1" xmlns="http://www.w3.org/2000/svg" xmlns:xlink="http://www.w3.org/1999/xlink" x="0px" y="0px"
	 viewBox="0 0 128 128" style="enable-background:new 0 0 128 128;" xml:space="preserve">
<style type="text/css">
	.Hutx0{fill:none;stroke:#000000;stroke-width:5;stroke-miterlimit:10;}
	.Hutx1{fill:none;stroke:#000000;stroke-width:4;stroke-miterlimit:10;}
	.Hutx2{stroke:#000000;stroke-width:5;stroke-miterlimit:10;}
	.Hutx3{fill:none;stroke:#000000;stroke-width:3;stroke-miterlimit:10;}
	.Hutx4{stroke:#000000;stroke-width:3;stroke-miterlimit:10;}
</style>
<rect x="45.9" y="100.9" class="Hutx3" width="47.6" height="7"/>
<path class="Hutx3" d="M97.8,114.2H30.7c-1.8,0-3.3-1.5-3.3-3.3V97.8c0-1.8,1.5-3.3,3.3-3.3h67.1c1.8,0,3.3,1.5,3.3,3.3V111
	C101,112.8,99.6,114.2,97.8,114.2z"/>
<circle class="Hutx4" cx="36.9" cy="104.4" r="2.5"/>
<rect x="20.5" y="58.7" class="Hutx0" width="87.5" height="65.3"/>
<rect x="45.9" y="73.6" class="Hutx3" width="47.6" height="7"/>
<path class="Hutx3" d="M97.8,86.9H30.7c-1.8,0-3.3-1.5-3.3-3.3V70.5c0-1.8,1.5-3.3,3.3-3.3h67.1c1.8,0,3.3,1.5,3.3,3.3v13.1
	C101,85.5,99.6,86.9,97.8,86.9z"/>
<circle class="Hutx4" cx="36.9" cy="77.1" r="2.5"/>
<polygon class="Hutx0" points="20.2,58.7 18.1,58.7 7.8,58.7 63.3,4 119,58.7 106,58.7 63.3,15.4 "/>
</svg>
