<?xml version="1.0" encoding="utf-8"?>
<!-- Generator: Adobe Illustrator 26.0.2, SVG Export Plug-In . SVG Version: 6.00 Build 0)  -->
<svg version="1.1" id="Layer_1" xmlns="http://www.w3.org/2000/svg" xmlns:xlink="http://www.w3.org/1999/xlink" x="0px" y="0px"
	 viewBox="0 0 128 128" style="enable-background:new 0 0 128 128;" xml:space="preserve">
<style type="text/css">
	.Logicalx0{fill:none;stroke:#000000;stroke-width:5;stroke-miterlimit:10;}
	.Logicalx1{fill:none;stroke:#000000;stroke-width:3;stroke-miterlimit:10;}
	.Logicalx2{fill:none;stroke:#000000;stroke-width:2;stroke-miterlimit:10;}
	.Logicalx3{stroke:#000000;stroke-width:3;stroke-miterlimit:10;}
	.Logicalx4{fill:none;stroke:#000000;stroke-miterlimit:10;}
	.Logicalx5{stroke:#000000;stroke-width:5;stroke-miterlimit:10;}
	.Logicalx6{fill:none;stroke:#000000;stroke-width:4;stroke-miterlimit:10;}
</style>
<g>
	<path class="Logicalx0" d="M4,16.1h26.6c4.4,0,8.4,2.6,10.1,6.7l18.6,33.5l4.4,8l0.1,0.3l-0.1,0.2l-4.5,7.8l-18.6,32.7
		c-1.7,4-5.7,6.6-10.1,6.6H4"/>
	<path class="Logicalx0" d="M4,16.1h26.6c4.4,0,8.4,2.6,10.1,6.7l18.6,33.5l4.4,8l0.1,0.3l-0.1,0.2l-4.5,7.8l-18.6,32.7
		c-1.7,4-5.7,6.6-10.1,6.6H4"/>
	<path class="Logicalx0" d="M124,16.1H97.4c-4.4,0-8.4,2.6-10.1,6.7L68.7,56.3l-4.4,8l-0.1,0.3l0.1,0.2l4.5,7.8l18.6,32.7
		c1.7,4,5.7,6.6,10.1,6.6H124"/>
	<path class="Logicalx0" d="M124,16.1H97.4c-4.4,0-8.4,2.6-10.1,6.7L68.7,56.3l-4.4,8l-0.1,0.3l0.1,0.2l4.5,7.8l18.6,32.7
		c1.7,4,5.7,6.6,10.1,6.6H124"/>
</g>
</svg>
