<?xml version="1.0" encoding="utf-8"?>
<!-- Generator: Adobe Illustrator 26.0.2, SVG Export Plug-In . SVG Version: 6.00 Build 0)  -->
<svg version="1.1" id="Layer_1" xmlns="http://www.w3.org/2000/svg" xmlns:xlink="http://www.w3.org/1999/xlink" x="0px" y="0px"
	 viewBox="0 0 128 128" style="enable-background:new 0 0 128 128;" xml:space="preserve">
<style type="text/css">
	.Microwavex0{fill:none;stroke:#000000;stroke-width:5;stroke-miterlimit:10;}
	.Microwavex1{fill:none;stroke:#000000;stroke-width:4;stroke-miterlimit:10;}
	.Microwavex2{stroke:#000000;stroke-width:5;stroke-miterlimit:10;}
	.Microwavex3{fill:none;stroke:#000000;stroke-width:3;stroke-miterlimit:10;}
	.Microwavex4{stroke:#000000;stroke-width:3;stroke-miterlimit:10;}
</style>
<path class="Microwavex0" d="M115.6,102.1H12.4c-4.7,0-8.4-3.8-8.4-8.4V34.3c0-4.7,3.8-8.4,8.4-8.4h103.1c4.7,0,8.4,3.8,8.4,8.4v59.4
	C124,98.4,120.2,102.1,115.6,102.1z"/>
<rect x="16.1" y="39.7" class="Microwavex1" width="62.2" height="48.7"/>
<line class="Microwavex0" x1="88.1" y1="26" x2="88.1" y2="102"/>
<rect x="96.2" y="40.1" class="Microwavex1" width="20.3" height="21.6"/>
<rect x="96.2" y="40.1" class="Microwavex1" width="20.3" height="11"/>
<circle class="Microwavex1" cx="106.3" cy="79.9" r="8.7"/>
<g>
	<line class="Microwavex1" x1="34.4" y1="74.4" x2="60" y2="74.4"/>
	<line class="Microwavex1" x1="27.4" y1="64" x2="67" y2="64"/>
	<line class="Microwavex1" x1="34.4" y1="53.6" x2="60" y2="53.6"/>
</g>
</svg>
