<?xml version="1.0" encoding="utf-8"?>
<!-- Generator: Adobe Illustrator 26.0.2, SVG Export Plug-In . SVG Version: 6.00 Build 0)  -->
<svg version="1.1" id="Layer_1" xmlns="http://www.w3.org/2000/svg" xmlns:xlink="http://www.w3.org/1999/xlink" x="0px" y="0px"
	 viewBox="0 0 128 128" style="enable-background:new 0 0 128 128;" xml:space="preserve">
<style type="text/css">
	.Modulex0{fill:none;stroke:#000000;stroke-width:5;stroke-miterlimit:10;}
	.Modulex1{fill:none;stroke:#000000;stroke-width:3;stroke-miterlimit:10;}
	.Modulex2{fill:none;stroke:#000000;stroke-width:2;stroke-miterlimit:10;}
	.Modulex3{stroke:#000000;stroke-width:3;stroke-miterlimit:10;}
	.Modulex4{fill:none;stroke:#000000;stroke-miterlimit:10;}
	.Modulex5{stroke:#000000;stroke-width:5;stroke-miterlimit:10;}
	.Modulex6{fill:none;stroke:#000000;stroke-width:4;stroke-miterlimit:10;}
</style>
<rect x="4" y="10.3" transform="matrix(-1 -3.324198e-11 3.324198e-11 -1 128 128)" class="Modulex0" width="120" height="107.5"/>
<path class="Modulex6" d="M43.1,58.9H25c-1,0-1.9-0.8-1.9-1.9V26.8c0-1,0.8-1.9,1.9-1.9h18.1c1,0,1.9,0.8,1.9,1.9V57
	C45,58,44.2,58.9,43.1,58.9z"/>
<path class="Modulex6" d="M73,58.9H55c-1,0-1.9-0.8-1.9-1.9V26.8c0-1,0.8-1.9,1.9-1.9H73c1,0,1.9,0.8,1.9,1.9V57
	C74.9,58,74.1,58.9,73,58.9z"/>
<path class="Modulex6" d="M103,58.9H84.9c-1,0-1.9-0.8-1.9-1.9V26.8c0-1,0.8-1.9,1.9-1.9H103c1,0,1.9,0.8,1.9,1.9V57
	C104.8,58,104,58.9,103,58.9z"/>
<path class="Modulex6" d="M43.1,103.1H25c-1,0-1.9-0.8-1.9-1.9V71c0-1,0.8-1.9,1.9-1.9h18.1c1,0,1.9,0.8,1.9,1.9v30.3
	C45,102.3,44.2,103.1,43.1,103.1z"/>
<path class="Modulex6" d="M73,103.1H55c-1,0-1.9-0.8-1.9-1.9V71c0-1,0.8-1.9,1.9-1.9H73c1,0,1.9,0.8,1.9,1.9v30.3
	C74.9,102.3,74.1,103.1,73,103.1z"/>
<path class="Modulex6" d="M103,103.1H84.9c-1,0-1.9-0.8-1.9-1.9V71c0-1,0.8-1.9,1.9-1.9H103c1,0,1.9,0.8,1.9,1.9v30.3
	C104.8,102.3,104,103.1,103,103.1z"/>
</svg>
