<?xml version="1.0" encoding="utf-8"?>
<!-- Generator: Adobe Illustrator 26.0.2, SVG Export Plug-In . SVG Version: 6.00 Build 0)  -->
<svg version="1.1" id="Layer_1" xmlns="http://www.w3.org/2000/svg" xmlns:xlink="http://www.w3.org/1999/xlink" x="0px" y="0px"
	 viewBox="0 0 128 128" style="enable-background:new 0 0 128 128;" xml:space="preserve">
<style type="text/css">
	.Networkingx0{fill:#424242;stroke:#FFFFFF;stroke-width:5;stroke-miterlimit:10;}
	.Networkingx1{fill:#0871B8;stroke:#FFFFFF;stroke-width:5;stroke-miterlimit:10;}
	.Networkingx2{fill:#424242;}
	.Networkingx3{fill:#424242;stroke:#424242;stroke-width:5;stroke-miterlimit:10;}
	.Networkingx4{fill:#0871B8;stroke:#FFFFFF;stroke-width:3;stroke-miterlimit:10;}
	.Networkingx5{fill:#424242;stroke:#FFFFFF;stroke-width:3;stroke-miterlimit:10;}
	.Networkingx6{fill:none;stroke:#000000;stroke-width:5;stroke-miterlimit:10;}
	.Networkingx7{fill:none;stroke:#424242;stroke-width:5;stroke-miterlimit:10;}
	.Networkingx8{stroke:#000000;stroke-width:5;stroke-miterlimit:10;}
	.Networkingx9{fill:none;stroke:#FFFFFF;stroke-width:5;stroke-miterlimit:10;}
	.Networkingx10{stroke:#FFFFFF;stroke-width:5;stroke-miterlimit:10;}
	.Networkingx11{fill:none;stroke:#000000;stroke-width:3;stroke-miterlimit:10;}
	.Networkingx12{fill:#0871B8;stroke:#424242;stroke-width:5;stroke-miterlimit:10;}
	.Networkingx13{fill:none;stroke:#424242;stroke-width:5;stroke-linejoin:round;stroke-miterlimit:10;}
	.Networkingx14{fill:none;stroke:#000000;stroke-width:5;stroke-linejoin:round;stroke-miterlimit:10;}
	.Networkingx15{fill:none;stroke:#000000;stroke-width:4;stroke-miterlimit:10;}
	.Networkingx16{fill:none;stroke:#0871B8;stroke-width:5;stroke-miterlimit:10;}
	.Networkingx17{fill:#0871B8;stroke:#0871B8;stroke-width:5;stroke-miterlimit:10;}
	.Networkingx18{fill:none;stroke:#FF0000;stroke-width:5;stroke-miterlimit:10;}
	.Networkingx19{fill:none;stroke:#FFFFFF;stroke-width:2;stroke-miterlimit:10;}
	.Networkingx20{fill:none;stroke:#000000;stroke-width:2;stroke-miterlimit:10;}
	.Networkingx21{fill:#FFFFFF;stroke:#424242;stroke-width:5;stroke-miterlimit:10;}
	.Networkingx22{fill:#424242;stroke:#FFFFFF;stroke-width:4;stroke-miterlimit:10;}
	.Networkingx23{fill:none;stroke:#FFFFFF;stroke-width:3;stroke-miterlimit:10;}
	.Networkingx24{fill:#FFFFFF;stroke:#0871B8;stroke-width:5;stroke-miterlimit:10;}
	.Networkingx25{fill:none;stroke:#0871B8;stroke-width:3;stroke-miterlimit:10;}
	.Networkingx26{fill:none;stroke:#424242;stroke-width:3;stroke-miterlimit:10;}
	.Networkingx27{fill:#0871B8;stroke:#FFFFFF;stroke-miterlimit:10;}
	.Networkingx28{fill:#FFFFFF;stroke:#0871B8;stroke-width:3;stroke-miterlimit:10;}
	.Networkingx29{fill:#FFFFFF;stroke:#424242;stroke-width:2;stroke-miterlimit:10;}
	.Networkingx30{fill:#424242;stroke:#FFFFFF;stroke-width:2;stroke-miterlimit:10;}
	.Networkingx31{fill:#0871B8;stroke:#FFFFFF;stroke-width:2;stroke-miterlimit:10;}
	.Networkingx32{stroke:#0871B8;stroke-width:5;stroke-miterlimit:10;}
	.Networkingx33{fill:none;stroke:#00B050;stroke-width:5;stroke-miterlimit:10;}
	.Networkingx34{fill:none;stroke:#0070C0;stroke-width:5;stroke-miterlimit:10;}
	.Networkingx35{fill:#0871B8;stroke:#0871B8;stroke-miterlimit:10;}
	.Networkingx36{fill:#0871B8;stroke:#FFFFFF;stroke-width:4;stroke-miterlimit:10;}
	.Networkingx37{fill:#FFFFFF;}
	.Networkingx38{stroke:#000000;stroke-miterlimit:10;}
</style>
<g>
	<circle class="Networkingx6" cx="64.2" cy="63.8" r="6.3"/>
	<path class="Networkingx6" d="M31.9,81.3V72c0-4.5,3.7-8.2,8.2-8.2h17.8"/>
	<path class="Networkingx6" d="M70.5,63.8h17.8c4.5,0,8.2,3.7,8.2,8.2v9.3"/>
	<line class="Networkingx6" x1="64.2" y1="46.7" x2="64.2" y2="57.5"/>
	<path class="Networkingx6" d="M87.5,38.8h-47c-2.2,0-4-1.8-4-4V8c0-2.2,1.8-4,4-4h47c2.2,0,4,1.8,4,4v26.7C91.5,37,89.7,38.8,87.5,38.8z"/>
	<g>
		<line class="Networkingx6" x1="56.4" y1="38.5" x2="56.4" y2="46.7"/>
		<line class="Networkingx6" x1="71.6" y1="38.5" x2="71.6" y2="46.7"/>
	</g>
	<path class="Networkingx6" d="M119.8,116.1h-47c-2.2,0-4-1.8-4-4V85.3c0-2.2,1.8-4,4-4h47c2.2,0,4,1.8,4,4V112
		C123.8,114.3,122,116.1,119.8,116.1z"/>
	<g>
		<line class="Networkingx6" x1="88.7" y1="115.8" x2="88.7" y2="124"/>
		<line class="Networkingx6" x1="103.9" y1="115.8" x2="103.9" y2="124"/>
	</g>
	<path class="Networkingx6" d="M55.2,116.1h-47c-2.2,0-4-1.8-4-4V85.3c0-2.2,1.8-4,4-4h47c2.2,0,4,1.8,4,4V112
		C59.3,114.3,57.5,116.1,55.2,116.1z"/>
	<g>
		<line class="Networkingx6" x1="24.1" y1="115.8" x2="24.1" y2="124"/>
		<line class="Networkingx6" x1="39.3" y1="115.8" x2="39.3" y2="124"/>
	</g>
	<line class="Networkingx6" x1="17.1" y1="123.8" x2="46.3" y2="123.8"/>
	<line class="Networkingx6" x1="81.7" y1="123.8" x2="110.9" y2="123.8"/>
	<line class="Networkingx6" x1="49.4" y1="46.7" x2="78.6" y2="46.7"/>
</g>
</svg>
