<?xml version="1.0" encoding="utf-8"?>
<!-- Generator: Adobe Illustrator 26.0.2, SVG Export Plug-In . SVG Version: 6.00 Build 0)  -->
<svg version="1.1" id="Layer_1" xmlns="http://www.w3.org/2000/svg" xmlns:xlink="http://www.w3.org/1999/xlink" x="0px" y="0px"
	 viewBox="0 0 128 128" style="enable-background:new 0 0 128 128;" xml:space="preserve">
<style type="text/css">
	.PatchPanelx0{fill:none;stroke:#000000;stroke-width:5;stroke-miterlimit:10;}
	.PatchPanelx1{fill:none;stroke:#000000;stroke-width:3;stroke-miterlimit:10;}
	.PatchPanelx2{fill:none;stroke:#000000;stroke-width:2;stroke-miterlimit:10;}
	.PatchPanelx3{stroke:#000000;stroke-width:3;stroke-miterlimit:10;}
	.PatchPanelx4{fill:none;stroke:#000000;stroke-miterlimit:10;}
	.PatchPanelx5{stroke:#000000;stroke-width:5;stroke-miterlimit:10;}
	.PatchPanelx6{fill:none;stroke:#000000;stroke-width:4;stroke-miterlimit:10;}
</style>
<rect x="4.7" y="38.8" class="PatchPanelx0" width="120" height="45.3"/>
<g>
	<g>
		<rect x="18" y="64.4" class="PatchPanelx2" width="13.6" height="11.3"/>
		<rect x="21.4" y="67.3" class="PatchPanelx2" width="6.8" height="5.7"/>
		<rect x="41.3" y="67.3" class="PatchPanelx2" width="6.8" height="5.7"/>
		<rect x="61.3" y="67.3" class="PatchPanelx2" width="6.8" height="5.7"/>
		<rect x="81.2" y="67.3" class="PatchPanelx2" width="6.8" height="5.7"/>
		<rect x="101.2" y="67.3" class="PatchPanelx2" width="6.8" height="5.7"/>
		<rect x="38" y="64.4" class="PatchPanelx2" width="13.6" height="11.3"/>
		<rect x="57.9" y="64.4" class="PatchPanelx2" width="13.6" height="11.3"/>
		<rect x="77.9" y="64.4" class="PatchPanelx2" width="13.6" height="11.3"/>
		<rect x="97.8" y="64.4" class="PatchPanelx2" width="13.6" height="11.3"/>
	</g>
	<g>
		<rect x="18" y="47.1" class="PatchPanelx2" width="13.6" height="11.3"/>
		<rect x="21.4" y="49.9" class="PatchPanelx2" width="6.8" height="5.7"/>
		<rect x="41.3" y="49.9" class="PatchPanelx2" width="6.8" height="5.7"/>
		<rect x="61.3" y="49.9" class="PatchPanelx2" width="6.8" height="5.7"/>
		<rect x="81.2" y="49.9" class="PatchPanelx2" width="6.8" height="5.7"/>
		<rect x="101.2" y="49.9" class="PatchPanelx2" width="6.8" height="5.7"/>
		<rect x="38" y="47.1" class="PatchPanelx2" width="13.6" height="11.3"/>
		<rect x="57.9" y="47.1" class="PatchPanelx2" width="13.6" height="11.3"/>
		<rect x="77.9" y="47.1" class="PatchPanelx2" width="13.6" height="11.3"/>
		<rect x="97.8" y="47.1" class="PatchPanelx2" width="13.6" height="11.3"/>
	</g>
</g>
</svg>
