<?xml version="1.0" encoding="utf-8"?>
<!-- Generator: Adobe Illustrator 26.0.2, SVG Export Plug-In . SVG Version: 6.00 Build 0)  -->
<svg version="1.1" id="Layer_1" xmlns="http://www.w3.org/2000/svg" xmlns:xlink="http://www.w3.org/1999/xlink" x="0px" y="0px"
	 viewBox="0 0 128 128" style="enable-background:new 0 0 128 128;" xml:space="preserve">
<style type="text/css">
	.Powerx0{fill:none;stroke:#000000;stroke-width:5;stroke-miterlimit:10;}
	.Powerx1{stroke:#000000;stroke-width:5;stroke-miterlimit:10;}
	.Powerx2{fill:none;stroke:#000000;stroke-width:3;stroke-miterlimit:10;}
	.Powerx3{fill:none;stroke:#000000;stroke-width:5;stroke-linejoin:round;stroke-miterlimit:10;}
	.Powerx4{fill:none;stroke:#000000;stroke-width:4;stroke-miterlimit:10;}
	.Powerx5{fill:none;stroke:#FF0000;stroke-width:5;stroke-miterlimit:10;}
	.Powerx6{fill:none;stroke:#000000;stroke-width:2;stroke-miterlimit:10;}
	.Powerx7{fill:none;stroke:#00B050;stroke-width:5;stroke-miterlimit:10;}
	.Powerx8{fill:none;stroke:#0070C0;stroke-width:5;stroke-miterlimit:10;}
	.Powerx9{stroke:#000000;stroke-miterlimit:10;}
</style>
<path class="Powerx0" d="M120,52.9L97.2,32.2c-1.7-1.5-3.9-2.4-6.1-2.4H37c-2.3,0-4.5,0.8-6.1,2.4L8.1,52.8L8,52.9
	c-5.2,5.5-5.4,13.9-0.4,19.7l23.1,22.9c1.7,1.7,4,2.6,6.4,2.6h53.6c2.4,0,4.7-0.9,6.4-2.6l23-22.8l0.1-0.1
	C125.4,66.9,125.2,58.4,120,52.9z"/>
<g>
	<circle class="Powerx9" cx="16.4" cy="63" r="4.1"/>
	<path class="Powerx9" d="M16.4,67.1c-2.3,0-4.1-1.9-4.1-4.1s1.9-4.1,4.1-4.1s4.1,1.9,4.1,4.1S18.7,67.1,16.4,67.1z M16.4,58.9
		c-2.2,0-4,1.8-4,4c0,2.2,1.8,4,4,4s4-1.8,4-4C20.4,60.7,18.6,58.9,16.4,58.9z"/>
</g>
<g>
	<circle class="Powerx9" cx="112.3" cy="63" r="4.1"/>
	<path class="Powerx9" d="M112.3,67.1c-2.3,0-4.1-1.9-4.1-4.1s1.9-4.1,4.1-4.1s4.1,1.9,4.1,4.1S114.6,67.1,112.3,67.1z M112.3,58.9
		c-2.2,0-4,1.8-4,4c0,2.2,1.8,4,4,4c2.2,0,4-1.8,4-4C116.4,60.7,114.5,58.9,112.3,58.9z"/>
</g>
<path class="Powerx0" d="M86.4,84.1H41.6c-2.7,0-4.9-2.2-4.9-4.9V48.7c0-2.7,2.2-4.9,4.9-4.9h44.8c2.7,0,4.9,2.2,4.9,4.9v30.5
	C91.3,81.9,89.1,84.1,86.4,84.1z"/>
<g>
	<line class="Powerx0" x1="49" y1="51.7" x2="49" y2="68.1"/>
	<line class="Powerx0" x1="79" y1="51.7" x2="79" y2="68.1"/>
	<line class="Powerx0" x1="64" y1="59.9" x2="64" y2="76.3"/>
</g>
</svg>
