<?xml version="1.0" encoding="utf-8"?>
<!-- Generator: Adobe Illustrator 26.0.2, SVG Export Plug-In . SVG Version: 6.00 Build 0)  -->
<svg version="1.1" id="Layer_1" xmlns="http://www.w3.org/2000/svg" xmlns:xlink="http://www.w3.org/1999/xlink" x="0px" y="0px"
	 viewBox="0 0 128 128" style="enable-background:new 0 0 128 128;" xml:space="preserve">
<style type="text/css">
	.QCodex0{fill:none;stroke:#000000;stroke-width:5;stroke-miterlimit:10;}
	.QCodex1{fill:none;stroke:#000000;stroke-width:3;stroke-miterlimit:10;}
	.QCodex2{stroke:#000000;stroke-width:5;stroke-miterlimit:10;}
	.QCodex3{stroke:#000000;stroke-miterlimit:10;}
	.QCodex4{stroke:#000000;stroke-width:3;stroke-miterlimit:10;}
	.QCodex5{fill:none;stroke:#FF0000;stroke-width:5;stroke-miterlimit:10;}
	.QCodex6{fill:#FF0000;}
	.QCodex7{fill:none;stroke:#FF0000;stroke-width:3;stroke-miterlimit:10;}
	.QCodex8{fill:none;stroke:#006837;stroke-width:5;stroke-miterlimit:10;}
	.QCodex9{fill:none;stroke:#006837;stroke-width:3;stroke-miterlimit:10;}
	.QCodex10{fill:none;stroke:#0070C0;stroke-width:5;stroke-miterlimit:10;}
	.QCodex11{fill:none;stroke:#0070C0;stroke-width:3;stroke-miterlimit:10;}
	.QCodex12{fill:none;stroke:#000000;stroke-miterlimit:10;}
	.QCodex13{fill:none;stroke:#000000;stroke-width:2;stroke-miterlimit:10;}
	.QCodex14{fill:#0070C0;stroke:#0070C0;stroke-width:5;stroke-miterlimit:10;}
	.QCodex15{fill:none;stroke:#000000;stroke-width:5;stroke-linejoin:round;stroke-miterlimit:10;}
	.QCodex16{fill:none;stroke:#CC4C33;stroke-width:5;stroke-miterlimit:10;}
</style>
<g>
	<rect x="73.4" y="98.7" class="QCodex4" width="8.4" height="8.4"/>
	<polygon class="QCodex4" points="98.7,98.7 98.7,90.2 98.7,81.8 90.2,81.8 90.2,90.2 81.8,90.2 81.8,98.7 90.2,98.7 	"/>
	<polygon class="QCodex4" points="90.2,107.1 81.8,107.1 81.8,115.6 73.4,115.6 73.4,124 81.8,124 90.2,124 90.2,115.6 98.7,115.6 
		98.7,107.1 	"/>
	<polygon class="QCodex4" points="115.6,73.4 115.6,81.8 107.1,81.8 107.1,90.2 107.1,98.7 115.6,98.7 115.6,90.2 124,90.2 124,81.8 
		124,73.4 	"/>
	<polygon class="QCodex4" points="115.6,115.6 124,115.6 124,107.1 124,98.7 115.6,98.7 115.6,107.1 	"/>
	<polygon class="QCodex4" points="98.7,115.6 98.7,124 107.1,124 115.6,124 115.6,115.6 107.1,115.6 	"/>
	<rect x="98.7" y="98.7" class="QCodex4" width="8.4" height="8.4"/>
	<polygon class="QCodex4" points="90.2,81.8 90.2,73.4 81.8,73.4 73.4,73.4 73.4,81.8 73.4,90.2 81.8,90.2 81.8,81.8 	"/>
	<rect x="98.7" y="73.4" class="QCodex4" width="8.4" height="8.4"/>
</g>
<g>
	<path class="QCodex0" d="M46.2,4H12.4H4v8.4v33.8v8.4h8.4h33.8h8.4v-8.4V12.4V4H46.2z"/>
	<rect x="21.4" y="21.4" class="QCodex0" width="15.8" height="15.8"/>
</g>
<g>
	<path class="QCodex0" d="M115.6,4H81.8h-8.4v8.4v33.8v8.4h8.4h33.8h8.4v-8.4V12.4V4H115.6z"/>
	<rect x="90.8" y="21.4" class="QCodex0" width="15.8" height="15.8"/>
</g>
<g>
	<path class="QCodex0" d="M46.2,73.4H12.4H4v8.4v33.8v8.4h8.4h33.8h8.4v-8.4V81.8v-8.4H46.2z"/>
	<rect x="21.4" y="90.8" class="QCodex0" width="15.8" height="15.8"/>
</g>
</svg>
