<?xml version="1.0" encoding="utf-8"?>
<!-- Generator: Adobe Illustrator 26.0.2, SVG Export Plug-In . SVG Version: 6.00 Build 0)  -->
<svg version="1.1" id="Layer_1" xmlns="http://www.w3.org/2000/svg" xmlns:xlink="http://www.w3.org/1999/xlink" x="0px" y="0px"
	 viewBox="0 0 128 128" style="enable-background:new 0 0 128 128;" xml:space="preserve">
<style type="text/css">
	.RackPDUx0{fill:none;stroke:#000000;stroke-width:5;stroke-miterlimit:10;}
	.RackPDUx1{fill:none;stroke:#000000;stroke-width:3;stroke-miterlimit:10;}
	.RackPDUx2{stroke:#000000;stroke-width:5;stroke-miterlimit:10;}
	.RackPDUx3{stroke:#000000;stroke-miterlimit:10;}
	.RackPDUx4{stroke:#000000;stroke-width:3;stroke-miterlimit:10;}
	.RackPDUx5{fill:none;stroke:#FF0000;stroke-width:5;stroke-miterlimit:10;}
	.RackPDUx6{fill:#FF0000;}
	.RackPDUx7{fill:none;stroke:#FF0000;stroke-width:3;stroke-miterlimit:10;}
	.RackPDUx8{fill:none;stroke:#006837;stroke-width:5;stroke-miterlimit:10;}
	.RackPDUx9{fill:none;stroke:#006837;stroke-width:3;stroke-miterlimit:10;}
	.RackPDUx10{fill:none;stroke:#0070C0;stroke-width:5;stroke-miterlimit:10;}
	.RackPDUx11{fill:none;stroke:#0070C0;stroke-width:3;stroke-miterlimit:10;}
	.RackPDUx12{fill:none;stroke:#000000;stroke-miterlimit:10;}
	.RackPDUx13{fill:none;stroke:#000000;stroke-width:2;stroke-miterlimit:10;}
	.RackPDUx14{fill:#0070C0;stroke:#0070C0;stroke-width:5;stroke-miterlimit:10;}
	.RackPDUx15{fill:none;stroke:#000000;stroke-width:5;stroke-linejoin:round;stroke-miterlimit:10;}
	.RackPDUx16{fill:none;stroke:#CC4C33;stroke-width:5;stroke-miterlimit:10;}
</style>
<path class="RackPDUx0" d="M112,105.7H16c-6.6,0-12-5.4-12-12V34.3c0-6.6,5.4-12,12-12h96c6.6,0,12,5.4,12,12v59.3
	C124,100.3,118.6,105.7,112,105.7z"/>
<path class="RackPDUx0" d="M45.2,82.5c7.7-2.7,13.2-10,13.2-18.5s-5.5-15.9-13.2-18.5v4.1c0,1.7-1.4,3-3,3h-6.8c-1.7,0-3-1.4-3-3v-4.1
	c-7.7,2.7-13.2,10-13.2,18.5s5.5,15.9,13.2,18.5v-3.8c0-1.7,1.4-3,3-3h6.8c1.7,0,3,1.4,3,3V82.5z"/>
<g>
	<rect x="28.3" y="61" class="RackPDUx1" width="6" height="6"/>
	<rect x="43.2" y="61" class="RackPDUx1" width="6" height="6"/>
</g>
<path class="RackPDUx0" d="M95.7,82.5c7.7-2.7,13.2-10,13.2-18.5s-5.5-15.9-13.2-18.5v4.1c0,1.7-1.4,3-3,3h-6.8c-1.7,0-3-1.4-3-3v-4.1
	c-7.7,2.7-13.2,10-13.2,18.5s5.5,15.9,13.2,18.5v-3.8c0-1.7,1.4-3,3-3h6.8c1.7,0,3,1.4,3,3V82.5z"/>
<g>
	<rect x="78.9" y="61" class="RackPDUx1" width="6" height="6"/>
	<rect x="93.8" y="61" class="RackPDUx1" width="6" height="6"/>
</g>
</svg>
