<?xml version="1.0" encoding="utf-8"?>
<!-- Generator: Adobe Illustrator 26.0.2, SVG Export Plug-In . SVG Version: 6.00 Build 0)  -->
<svg version="1.1" id="Layer_1" xmlns="http://www.w3.org/2000/svg" xmlns:xlink="http://www.w3.org/1999/xlink" x="0px" y="0px"
	 viewBox="0 0 128 128" style="enable-background:new 0 0 128 128;" xml:space="preserve">
<style type="text/css">
	.RFIDLocatorTagx0{fill:none;stroke:#000000;stroke-width:5;stroke-miterlimit:10;}
	.RFIDLocatorTagx1{fill:none;stroke:#000000;stroke-width:3;stroke-miterlimit:10;}
	.RFIDLocatorTagx2{fill:none;stroke:#000000;stroke-width:2;stroke-miterlimit:10;}
	.RFIDLocatorTagx3{stroke:#000000;stroke-width:3;stroke-miterlimit:10;}
	.RFIDLocatorTagx4{fill:none;stroke:#000000;stroke-miterlimit:10;}
	.RFIDLocatorTagx5{stroke:#000000;stroke-width:5;stroke-miterlimit:10;}
	.RFIDLocatorTagx6{fill:none;stroke:#000000;stroke-width:4;stroke-miterlimit:10;}
</style>
<g>
	<path class="RFIDLocatorTagx0" d="M124,82.4v32.2c0,5.2-4.2,9.4-9.4,9.4H13.4c-5.2,0-9.4-4.2-9.4-9.4V13.4C4,8.2,8.2,4,13.4,4h32.2"/>
	<path class="RFIDLocatorTagx0" d="M57,4.4c5.4-0.6,11-0.5,16.4,0.4c12.1,2,23.7,7.6,33,16.9c9.5,9.5,15.2,21.5,17,33.9
		c0.8,5.4,0.9,10.9,0.2,16.3"/>
	<path class="RFIDLocatorTagx0" d="M58.3,19.8c12.5-1.6,25.6,2.4,35.2,12c9.8,9.8,13.8,23.3,11.9,36.1"/>
	<path class="RFIDLocatorTagx0" d="M59.6,38c7.4-1.2,15.3,1,20.9,6.7c6,6,8.1,14.3,6.5,22"/>
	<circle class="RFIDLocatorTagx5" cx="61.6" cy="65" r="8.5"/>
	<line class="RFIDLocatorTagx0" x1="26.5" y1="95.4" x2="101.5" y2="95.4"/>
</g>
</svg>
