<?xml version="1.0" encoding="utf-8"?>
<!-- Generator: Adobe Illustrator 26.0.2, SVG Export Plug-In . SVG Version: 6.00 Build 0)  -->
<svg version="1.1" id="Layer_1" xmlns="http://www.w3.org/2000/svg" xmlns:xlink="http://www.w3.org/1999/xlink" x="0px" y="0px"
	 viewBox="0 0 128 128" style="enable-background:new 0 0 128 128;" xml:space="preserve">
<style type="text/css">
	.RFIDSensorTagx0{fill:none;stroke:#000000;stroke-width:5;stroke-miterlimit:10;}
	.RFIDSensorTagx1{fill:none;stroke:#000000;stroke-width:3;stroke-miterlimit:10;}
	.RFIDSensorTagx2{fill:none;stroke:#000000;stroke-width:2;stroke-miterlimit:10;}
	.RFIDSensorTagx3{stroke:#000000;stroke-width:3;stroke-miterlimit:10;}
	.RFIDSensorTagx4{fill:none;stroke:#000000;stroke-miterlimit:10;}
	.RFIDSensorTagx5{stroke:#000000;stroke-width:5;stroke-miterlimit:10;}
	.RFIDSensorTagx6{fill:none;stroke:#000000;stroke-width:4;stroke-miterlimit:10;}
</style>
<g>
	<path class="RFIDSensorTagx0" d="M40.2,36.2c-8.8,6.3-14.5,16.5-14.5,28.1c0,11.2,5.4,21.2,13.7,27.5"/>
	<path class="RFIDSensorTagx0" d="M52.3,50c-5,2.8-8.4,8.1-8.4,14.3c0,5.7,3,10.8,7.5,13.7"/>
	<circle class="RFIDSensorTagx5" cx="64" cy="63.3" r="8.5"/>
	<path class="RFIDSensorTagx0" d="M88.6,91.8c8.3-6.3,13.7-16.3,13.7-27.5c0-11.6-5.7-21.9-14.5-28.1"/>
	<path class="RFIDSensorTagx0" d="M76.6,78c4.5-2.9,7.5-8,7.5-13.7c0-6.1-3.4-11.5-8.4-14.3"/>
	<path class="RFIDSensorTagx0" d="M115.1,112.4H12.9c-4.9,0-8.9-4-8.9-8.9v-79c0-4.9,4-8.9,8.9-8.9h102.2c4.9,0,8.9,4,8.9,8.9v79
		C124,108.4,120,112.4,115.1,112.4z"/>
</g>
</svg>
