<?xml version="1.0" encoding="utf-8"?>
<!-- Generator: Adobe Illustrator 26.0.2, SVG Export Plug-In . SVG Version: 6.00 Build 0)  -->
<svg version="1.1" id="Layer_1" xmlns="http://www.w3.org/2000/svg" xmlns:xlink="http://www.w3.org/1999/xlink" x="0px" y="0px"
	 viewBox="0 0 128 128" style="enable-background:new 0 0 128 128;" xml:space="preserve">
<style type="text/css">
	.Securityx0{fill:none;stroke:#000000;stroke-width:5;stroke-miterlimit:10;}
	.Securityx1{fill:none;stroke:#000000;stroke-width:3;stroke-miterlimit:10;}
	.Securityx2{fill:none;stroke:#000000;stroke-width:2;stroke-miterlimit:10;}
	.Securityx3{stroke:#000000;stroke-width:3;stroke-miterlimit:10;}
	.Securityx4{fill:none;stroke:#000000;stroke-miterlimit:10;}
	.Securityx5{stroke:#000000;stroke-width:5;stroke-miterlimit:10;}
	.Securityx6{fill:none;stroke:#000000;stroke-width:4;stroke-miterlimit:10;}
</style>
<g>
	<polygon class="Securityx0" points="96,69.6 124,69.6 124,16.7 33.2,16.7 33.2,69.6 76.1,69.6 	"/>
	<polygon class="Securityx0" points="33.2,50.9 4,63.4 4,23 33.2,35.4 	"/>
	<path class="Securityx0" d="M90.9,69.6c0.3,1,0.4,2,0.4,3.1c0,6.9-5.6,12.4-12.4,12.4s-12.4-5.6-12.4-12.4c0-1.1,0.1-2.1,0.4-3.1H90.9z"/>
	<circle class="Securityx0" cx="52.5" cy="36" r="6.8"/>
	<path class="Securityx0" d="M78.6,85.1v13.1v3.9c0,5.1,4.1,9.2,9.2,9.2h35"/>
</g>
</svg>
