<?xml version="1.0" encoding="utf-8"?>
<!-- Generator: Adobe Illustrator 26.0.2, SVG Export Plug-In . SVG Version: 6.00 Build 0)  -->
<svg version="1.1" id="Layer_1" xmlns="http://www.w3.org/2000/svg" xmlns:xlink="http://www.w3.org/1999/xlink" x="0px" y="0px"
	 viewBox="0 0 128 128" style="enable-background:new 0 0 128 128;" xml:space="preserve">
<style type="text/css">
	.Storagex0{fill:none;stroke:#000000;stroke-width:5;stroke-miterlimit:10;}
	.Storagex1{fill:none;stroke:#000000;stroke-width:3;stroke-miterlimit:10;}
	.Storagex2{fill:none;stroke:#000000;stroke-width:2;stroke-miterlimit:10;}
	.Storagex3{stroke:#000000;stroke-width:3;stroke-miterlimit:10;}
	.Storagex4{fill:none;stroke:#000000;stroke-miterlimit:10;}
	.Storagex5{stroke:#000000;stroke-width:5;stroke-miterlimit:10;}
	.Storagex6{fill:none;stroke:#000000;stroke-width:4;stroke-miterlimit:10;}
</style>
<path class="Storagex0" d="M8.1,43.8h111.9c2.2,0,4.1,1.8,4.1,4.1v32.2c0,2.2-1.8,4.1-4.1,4.1H8.1c-2.2,0-4.1-1.8-4.1-4.1V47.9
	C4,45.6,5.8,43.8,8.1,43.8z"/>
<line class="Storagex0" x1="32" y1="43.8" x2="32" y2="84.2"/>
<g>
	<path class="Storagex1" d="M109.8,68.8H46.2c-1.9,0-3.4-1.5-3.4-3.4v0c0-1.9,1.5-3.4,3.4-3.4h63.7c1.9,0,3.4,1.5,3.4,3.4v0
		C113.2,67.2,111.7,68.8,109.8,68.8z"/>
</g>
<circle class="Storagex3" cx="18" cy="64.8" r="4.6"/>
</svg>
