<?xml version="1.0" encoding="utf-8"?>
<!-- Generator: Adobe Illustrator 26.0.2, SVG Export Plug-In . SVG Version: 6.00 Build 0)  -->
<svg version="1.1" id="Layer_1" xmlns="http://www.w3.org/2000/svg" xmlns:xlink="http://www.w3.org/1999/xlink" x="0px" y="0px"
	 viewBox="0 0 128 128" style="enable-background:new 0 0 128 128;" xml:space="preserve">
<style type="text/css">
	.SubseaLandingx0{fill:none;stroke:#000000;stroke-width:5;stroke-miterlimit:10;}
	.SubseaLandingx1{fill:none;stroke:#000000;stroke-width:4;stroke-miterlimit:10;}
	.SubseaLandingx2{stroke:#000000;stroke-width:5;stroke-miterlimit:10;}
	.SubseaLandingx3{fill:none;stroke:#000000;stroke-width:3;stroke-miterlimit:10;}
	.SubseaLandingx4{stroke:#000000;stroke-width:3;stroke-miterlimit:10;}
</style>
<g>
	<path class="SubseaLandingx0" d="M4,52.9C4,52.9,4.1,52.9,4,52.9c8.2,0,8.2-9.6,16.3-9.6s8.1,9.6,16.2,9.6c8.1,0,8.1-9.6,16.2-9.6
		s8.1,9.6,16.2,9.6c8.1,0,8.1-9.6,16.2-9.6c8.1,0,8.1,9.6,16.2,9.6s8.1-9.6,16.2-9.6c3.1,0,5.1,1.4,6.7,3.2"/>
	<path class="SubseaLandingx0" d="M4,70.1C4,70.1,4.1,70.1,4,70.1c8.2,0,8.2-9.6,16.3-9.6s8.1,9.6,16.2,9.6c8.1,0,8.1-9.6,16.2-9.6
		s8.1,9.6,16.2,9.6c8.1,0,8.1-9.6,16.2-9.6c8.1,0,8.1,9.6,16.2,9.6s8.1-9.6,16.2-9.6c3.1,0,5.1,1.4,6.7,3.2"/>
	<path class="SubseaLandingx0" d="M4,87.4C4,87.4,4.1,87.4,4,87.4c8.2,0,8.2-9.6,16.3-9.6s8.1,9.6,16.2,9.6c8.1,0,8.1-9.6,16.2-9.6
		s8.1,9.6,16.2,9.6c8.1,0,8.1-9.6,16.2-9.6c8.1,0,8.1,9.6,16.2,9.6s8.1-9.6,16.2-9.6c3.1,0,5.1,1.4,6.7,3.2"/>
	<path class="SubseaLandingx0" d="M4,105.4c0.2,0,0.4,0,0.6,0c5.3,0,5.3-8.7,10.7-8.7c5.3,0,5.3,8.7,10.7,8.7s5.3-8.7,10.7-8.7
		c5.3,0,5.3,8.7,10.7,8.7"/>
	<path class="SubseaLandingx0" d="M120,114.3H53.7c-1.1,0-2-0.9-2-2v-10c0-1.1,0.9-2,2-2H120c1.1,0,2,0.9,2,2v10
		C122,113.4,121.1,114.3,120,114.3z"/>
	<line class="SubseaLandingx0" x1="66.6" y1="100.4" x2="66.6" y2="114.3"/>
	<line class="SubseaLandingx0" x1="108.5" y1="100.4" x2="108.5" y2="114.3"/>
	<circle class="SubseaLandingx0" cx="87.9" cy="23.2" r="9.5"/>
	<g>
	</g>
	<line class="SubseaLandingx0" x1="68.9" y1="87.4" x2="66" y2="101"/>
	<line class="SubseaLandingx0" x1="71.7" y1="74.2" x2="70.4" y2="80.4"/>
	<line class="SubseaLandingx0" x1="75.7" y1="55.1" x2="74.6" y2="60.6"/>
	<line class="SubseaLandingx0" x1="81" y1="30.1" x2="78.9" y2="40.1"/>
	<polyline class="SubseaLandingx0" points="93.3,30.1 93.5,30.9 95.4,40.1 	"/>
	<line class="SubseaLandingx0" x1="99.8" y1="62" x2="98.6" y2="56.5"/>
	<line class="SubseaLandingx0" x1="108.3" y1="101" x2="105.2" y2="86.3"/>
	<line class="SubseaLandingx0" x1="104" y1="80.4" x2="102.7" y2="74.2"/>
</g>
</svg>
