<?xml version="1.0" encoding="utf-8"?>
<!-- Generator: Adobe Illustrator 26.0.2, SVG Export Plug-In . SVG Version: 6.00 Build 0)  -->
<svg version="1.1" id="Layer_1" xmlns="http://www.w3.org/2000/svg" xmlns:xlink="http://www.w3.org/1999/xlink" x="0px" y="0px"
	 viewBox="0 0 128 128" style="enable-background:new 0 0 128 128;" xml:space="preserve">
<style type="text/css">
	.Switchx0{fill:none;stroke:#000000;stroke-width:5;stroke-miterlimit:10;}
	.Switchx1{fill:none;stroke:#000000;stroke-width:3;stroke-miterlimit:10;}
	.Switchx2{stroke:#000000;stroke-width:5;stroke-miterlimit:10;}
	.Switchx3{stroke:#000000;stroke-miterlimit:10;}
	.Switchx4{stroke:#000000;stroke-width:3;stroke-miterlimit:10;}
	.Switchx5{fill:none;stroke:#FF0000;stroke-width:5;stroke-miterlimit:10;}
	.Switchx6{fill:#FF0000;}
	.Switchx7{fill:none;stroke:#FF0000;stroke-width:3;stroke-miterlimit:10;}
	.Switchx8{fill:none;stroke:#006837;stroke-width:5;stroke-miterlimit:10;}
	.Switchx9{fill:none;stroke:#006837;stroke-width:3;stroke-miterlimit:10;}
	.Switchx10{fill:none;stroke:#0070C0;stroke-width:5;stroke-miterlimit:10;}
	.Switchx11{fill:none;stroke:#0070C0;stroke-width:3;stroke-miterlimit:10;}
	.Switchx12{fill:none;stroke:#000000;stroke-miterlimit:10;}
	.Switchx13{fill:none;stroke:#000000;stroke-width:2;stroke-miterlimit:10;}
	.Switchx14{fill:#0070C0;stroke:#0070C0;stroke-width:5;stroke-miterlimit:10;}
	.Switchx15{fill:none;stroke:#000000;stroke-width:5;stroke-linejoin:round;stroke-miterlimit:10;}
	.Switchx16{fill:none;stroke:#CC4C33;stroke-width:5;stroke-miterlimit:10;}
</style>
<path class="Switchx0" d="M121.5,51.3H6.5c-1.4,0-2.5,1.1-2.5,2.5v20.4c0,1.4,1.1,2.5,2.5,2.5h115.1c1.4,0,2.5-1.1,2.5-2.5V53.8
	C124,52.4,122.9,51.3,121.5,51.3z"/>
<rect x="12.7" y="66.1" class="Switchx3" width="3.8" height="3.8"/>
<rect x="20.6" y="66.1" class="Switchx3" width="3.8" height="3.8"/>
<rect x="28.6" y="66.1" class="Switchx3" width="3.8" height="3.8"/>
<rect x="36.6" y="66.1" class="Switchx3" width="3.8" height="3.8"/>
<rect x="44.5" y="66.1" class="Switchx3" width="3.8" height="3.8"/>
<rect x="52.5" y="66.1" class="Switchx3" width="3.8" height="3.8"/>
<rect x="60.5" y="66.1" class="Switchx3" width="3.8" height="3.8"/>
<rect x="68.5" y="66.1" class="Switchx3" width="3.8" height="3.8"/>
<rect x="76.4" y="66.1" class="Switchx3" width="3.8" height="3.8"/>
<rect x="101.2" y="58.2" class="Switchx3" width="5.6" height="3.8"/>
<rect x="101.2" y="66.1" class="Switchx3" width="5.6" height="3.8"/>
<rect x="111" y="58.2" class="Switchx3" width="5.6" height="3.8"/>
<rect x="111" y="66.1" class="Switchx3" width="5.6" height="3.8"/>
</svg>
