<?xml version="1.0" encoding="utf-8"?>
<!-- Generator: Adobe Illustrator 26.0.2, SVG Export Plug-In . SVG Version: 6.00 Build 0)  -->
<svg version="1.1" id="Layer_1" xmlns="http://www.w3.org/2000/svg" xmlns:xlink="http://www.w3.org/1999/xlink" x="0px" y="0px"
	 viewBox="0 0 128 128" style="enable-background:new 0 0 128 128;" xml:space="preserve">
<style type="text/css">
	.Wirelessx0{fill:none;stroke:#000000;stroke-width:5;stroke-miterlimit:10;}
	.Wirelessx1{fill:none;stroke:#000000;stroke-width:3;stroke-miterlimit:10;}
	.Wirelessx2{fill:none;stroke:#000000;stroke-width:2;stroke-miterlimit:10;}
	.Wirelessx3{stroke:#000000;stroke-width:3;stroke-miterlimit:10;}
	.Wirelessx4{fill:none;stroke:#000000;stroke-miterlimit:10;}
	.Wirelessx5{stroke:#000000;stroke-width:5;stroke-miterlimit:10;}
	.Wirelessx6{fill:none;stroke:#000000;stroke-width:4;stroke-miterlimit:10;}
</style>
<g>
	<path class="Wirelessx0" d="M108.9,29.4 M116.3,50c-7-9.1-16.2-16.3-26.9-20.8C81.5,25.9,72.8,24,63.7,24c-8.8,0-17.1,1.7-24.8,4.8
		c-10.7,4.3-20.1,11.4-27.2,20.4"/>
	<path class="Wirelessx0" d="M99,65.2c-7.9-11-20.8-18.2-35.4-18.2c-14.1,0-26.7,6.8-34.6,17.2"/>
	<path class="Wirelessx0" d="M81.6,80.4c-3.5-6.3-10.2-10.6-17.9-10.6c-7.2,0-13.5,3.7-17.2,9.4"/>
	<circle class="Wirelessx5" cx="64" cy="95.1" r="8.9"/>
</g>
</svg>
