<?xml version="1.0" encoding="utf-8"?>
<!-- Generator: Adobe Illustrator 26.0.2, SVG Export Plug-In . SVG Version: 6.00 Build 0)  -->
<svg version="1.1" id="Layer_1" xmlns="http://www.w3.org/2000/svg" xmlns:xlink="http://www.w3.org/1999/xlink" x="0px" y="0px"
	 viewBox="0 0 128 128" style="enable-background:new 0 0 128 128;" xml:space="preserve">
<style type="text/css">
	.ExcelFilex0{fill:none;stroke:#000000;stroke-width:5;stroke-miterlimit:10;}
</style>
<g>
	<path class="ExcelFilex0" d="M16.4,24.7l51.9-11.2c2.6-0.6,5.1,1.4,5.1,4.1v92.7c0,2.6-2.4,4.6-5,4.1L16.6,105c-2-0.4-3.4-2.1-3.4-4.1V28.8
		C13.1,26.8,14.5,25.1,16.4,24.7z"/>
	<line class="ExcelFilex0" x1="31.1" y1="44.7" x2="56.5" y2="83.6"/>
	<line class="ExcelFilex0" x1="56.5" y1="44.7" x2="30.4" y2="83.6"/>
	<path class="ExcelFilex0" d="M110,103.3H73.4V24.8H110c2.7,0,4.8,2.2,4.8,4.8v68.8C114.9,101.1,112.7,103.3,110,103.3z"/>
	<g>
		<line class="ExcelFilex0" x1="73.4" y1="40.2" x2="84.2" y2="40.2"/>
		<line class="ExcelFilex0" x1="88.2" y1="40.2" x2="105.8" y2="40.2"/>
	</g>
	<g>
		<line class="ExcelFilex0" x1="73.4" y1="56" x2="84.2" y2="56"/>
		<line class="ExcelFilex0" x1="88.2" y1="56" x2="105.8" y2="56"/>
	</g>
	<g>
		<line class="ExcelFilex0" x1="73.4" y1="71.8" x2="84.2" y2="71.8"/>
		<line class="ExcelFilex0" x1="88.2" y1="71.8" x2="105.8" y2="71.8"/>
	</g>
	<g>
		<line class="ExcelFilex0" x1="73.4" y1="87.7" x2="84.2" y2="87.7"/>
		<line class="ExcelFilex0" x1="88.2" y1="87.7" x2="105.8" y2="87.7"/>
	</g>
</g>
</svg>
