<?xml version="1.0" encoding="utf-8"?>
<!-- Generator: Adobe Illustrator 26.0.2, SVG Export Plug-In . SVG Version: 6.00 Build 0)  -->
<svg version="1.1" id="Layer_1" xmlns="http://www.w3.org/2000/svg" xmlns:xlink="http://www.w3.org/1999/xlink" x="0px" y="0px"
	 viewBox="0 0 128 128" style="enable-background:new 0 0 128 128;" xml:space="preserve">
<style type="text/css">
	.FileDownloadx0{fill:none;stroke:#010101;stroke-width:5;stroke-linecap:round;stroke-linejoin:round;stroke-miterlimit:21.3333;}
</style>
<g id="SVGRepo_iconCarrier">
	<g id="File__x2F__File_x5F_Download">
		<path id="Vector" class="FileDownloadx0" d="M64,64v37.7 M64,101.7l18.9-12.6 M64,101.7L45.1,89.2 M70.3,7.4c-0.6,0-1.3,0-2,0H40.1
			c-7,0-10.6,0-13.3,1.4c-2.4,1.2-4.3,3.1-5.5,5.5C20,17,20,20.5,20,27.5v73c0,7,0,10.6,1.4,13.3c1.2,2.4,3.1,4.3,5.5,5.5
			c2.7,1.4,6.2,1.4,13.2,1.4h47.8c7,0,10.5,0,13.2-1.4c2.4-1.2,4.3-3.1,5.5-5.5c1.4-2.7,1.4-6.2,1.4-13.2V47.2c0-0.8,0-1.4,0-2
			 M70.3,7.4c1.8,0,2.9,0.1,4,0.3c1.3,0.3,2.5,0.8,3.6,1.5c1.3,0.8,2.4,1.9,4.5,4L102.1,33c2.2,2.2,3.3,3.3,4,4.5
			c0.7,1.1,1.2,2.4,1.5,3.6c0.3,1.1,0.3,2.2,0.3,4 M70.3,7.4V25c0,7,0,10.6,1.4,13.3c1.2,2.4,3.1,4.3,5.5,5.5
			c2.7,1.4,6.2,1.4,13.2,1.4H108 M108,45.1L108,45.1"/>
	</g>
</g>
</svg>
