<?xml version="1.0" encoding="UTF-8"?>
<svg xmlns="http://www.w3.org/2000/svg" xmlns:xlink="http://www.w3.org/1999/xlink" width="20px" height="20px" viewBox="0 0 20 20" version="1.1">
<g id="surface1">
<path style=" stroke:none;fill-rule:nonzero;fill:rgb(0%,0%,0%);fill-opacity:1;" d="M 16.589844 12.925781 L 12.816406 12.925781 C 12.355469 12.925781 11.984375 13.296875 11.984375 13.757812 C 11.984375 14.21875 12.355469 14.589844 12.816406 14.589844 L 14.816406 14.589844 C 12.9375 16.558594 10.050781 17.183594 7.523438 16.171875 C 5 15.164062 3.339844 12.71875 3.332031 10 C 3.332031 9.539062 2.960938 9.167969 2.5 9.167969 C 2.039062 9.167969 1.667969 9.539062 1.667969 10 C 1.675781 13.324219 3.660156 16.328125 6.71875 17.636719 C 9.777344 18.945312 13.320312 18.3125 15.734375 16.023438 L 15.734375 17.5 C 15.734375 17.960938 16.105469 18.332031 16.566406 18.332031 C 17.027344 18.332031 17.398438 17.960938 17.398438 17.5 L 17.398438 13.75 C 17.394531 13.300781 17.039062 12.9375 16.589844 12.925781 Z M 10 1.667969 C 7.863281 1.671875 5.8125 2.5 4.265625 3.976562 L 4.265625 2.5 C 4.265625 2.039062 3.894531 1.667969 3.433594 1.667969 C 2.972656 1.667969 2.601562 2.039062 2.601562 2.5 L 2.601562 6.25 C 2.601562 6.710938 2.972656 7.082031 3.433594 7.082031 L 7.183594 7.082031 C 7.644531 7.082031 8.015625 6.710938 8.015625 6.25 C 8.015625 5.789062 7.644531 5.417969 7.183594 5.417969 L 5.183594 5.417969 C 7.0625 3.453125 9.945312 2.828125 12.472656 3.835938 C 14.996094 4.839844 16.65625 7.28125 16.667969 10 C 16.667969 10.460938 17.039062 10.832031 17.5 10.832031 C 17.960938 10.832031 18.332031 10.460938 18.332031 10 C 18.332031 5.398438 14.601562 1.667969 10 1.667969 Z M 10 1.667969 "/>
</g>
</svg>
