<?xml version="1.0" encoding="utf-8"?>
<!-- Generator: Adobe Illustrator 26.0.2, SVG Export Plug-In . SVG Version: 6.00 Build 0)  -->
<svg version="1.1" id="Layer_1" xmlns="http://www.w3.org/2000/svg" xmlns:xlink="http://www.w3.org/1999/xlink" x="0px" y="0px"
	 viewBox="0 0 128 128" style="enable-background:new 0 0 128 128;" xml:space="preserve">
<style type="text/css">
	.Folderx0{fill:none;stroke:#000000;stroke-width:5;stroke-miterlimit:10;}
</style>
<g id="SVGRepo_iconCarrier">
	<path class="Folderx0" d="M21.3,10.7c-4.2,0-8.3,1.7-11.3,4.7s-4.7,7.1-4.7,11.3v74.7c0,4.2,1.7,8.3,4.7,11.3c3,3,7.1,4.7,11.3,4.7h85.3
		c4.2,0,8.3-1.7,11.3-4.7c3-3,4.7-7.1,4.7-11.3V42.7c0-4.2-1.7-8.3-4.7-11.3s-7.1-4.7-11.3-4.7H61.5L54,15.4c-2-3-5.3-4.7-8.9-4.7
		H21.3z"/>
</g>
</svg>
