<?xml version="1.0" encoding="utf-8"?>
<!-- Generator: Adobe Illustrator 26.0.2, SVG Export Plug-In . SVG Version: 6.00 Build 0)  -->
<svg version="1.1" id="Layer_1" xmlns="http://www.w3.org/2000/svg" xmlns:xlink="http://www.w3.org/1999/xlink" x="0px" y="0px"
	 viewBox="0 0 128 128" style="enable-background:new 0 0 128 128;" xml:space="preserve">
<style type="text/css">
	.HotDogx0{fill:none;stroke:#000000;stroke-width:5;stroke-miterlimit:10;}
	.HotDogx1{stroke:#000000;stroke-width:5;stroke-miterlimit:10;}
</style>
<path class="HotDogx0" d="M103.5,42.5c0-8.7-7-15.7-15.7-15.7H40.2c-8.7,0-15.7,7-15.7,15.7H103.5z"/>
<path class="HotDogx0" d="M103.5,85.5c0,8.7-7,15.7-15.7,15.7H40.2c-8.7,0-15.7-7-15.7-15.7H103.5z"/>
<path class="HotDogx0" d="M118.5,71.5H9.5C6.5,71.5,4,69,4,66v-4c0-3,2.5-5.5,5.5-5.5h109c3,0,5.5,2.5,5.5,5.5v4
	C124,69,121.5,71.5,118.5,71.5z"/>
</svg>
