<?xml version="1.0" encoding="utf-8"?>
<!-- Generator: Adobe Illustrator 26.0.2, SVG Export Plug-In . SVG Version: 6.00 Build 0)  -->
<svg version="1.1" id="Layer_1" xmlns="http://www.w3.org/2000/svg" xmlns:xlink="http://www.w3.org/1999/xlink" x="0px" y="0px"
	 viewBox="0 0 128 128" style="enable-background:new 0 0 128 128;" xml:space="preserve">
<style type="text/css">
	.Matchx0{fill:none;stroke:#000000;stroke-width:5;stroke-miterlimit:10;}
	.Matchx1{fill:none;stroke:#000000;stroke-width:5;stroke-linejoin:round;stroke-miterlimit:10;}
</style>
<g>
	<path class="Matchx0" d="M62.8,121.2H12.6c-2.6,0-4.7-2.1-4.7-4.7V35.2c0-2.6,2.1-4.7,4.7-4.7h50.2c2.6,0,4.7,2.1,4.7,4.7v81.3
		C67.5,119.1,65.4,121.2,62.8,121.2z"/>
	<path class="Matchx0" d="M56.5,30.4V11.5c0-2.6,2.1-4.8,4.7-4.8h50.2c2.6,0,4.8,2.1,4.8,4.8v40.8v40.6c0,2.6-2.1,4.8-4.8,4.8H67.5"/>
	<g>
		<polyline class="Matchx1" points="37.5,87 48.3,75.7 37.6,64.7 		"/>
		<line class="Matchx1" x1="48" y1="75.7" x2="7.8" y2="75.7"/>
	</g>
	<g>
		<polyline class="Matchx1" points="86.5,41 75.7,52.3 86.4,63.3 		"/>
		<line class="Matchx1" x1="76" y1="52.3" x2="116.2" y2="52.3"/>
	</g>
</g>
</svg>
