<?xml version="1.0" encoding="utf-8"?>
<!-- Generator: Adobe Illustrator 26.0.2, SVG Export Plug-In . SVG Version: 6.00 Build 0)  -->
<svg version="1.1" id="Layer_1" xmlns="http://www.w3.org/2000/svg" xmlns:xlink="http://www.w3.org/1999/xlink" x="0px" y="0px"
	 viewBox="0 0 128 128" style="enable-background:new 0 0 128 128;" xml:space="preserve">
<style type="text/css">
	.Missingx0{fill:none;stroke:#000000;stroke-width:5;stroke-linecap:round;stroke-linejoin:round;stroke-miterlimit:10;}
	.Missingx1{fill:none;stroke:#000000;stroke-width:5;stroke-miterlimit:10;}
</style>
<g>
	
		<ellipse transform="matrix(7.088903e-02 -0.9975 0.9975 7.088903e-02 -1.8971 96.5654)" class="Missingx0" cx="50.9" cy="49.3" rx="42.7" ry="42.7"/>
	<line class="Missingx0" x1="80.3" y1="80.2" x2="119.8" y2="121.4"/>
</g>
<path class="Missingx1" d="M34.5,40.8c0-0.1,0-0.2,0-0.3c0.6-4.4,2.2-7.7,4.9-10.1c2.7-2.4,6.3-3.6,10.8-3.6c4.7,0,8.5,1.3,11.3,3.9
	c2.8,2.6,4.2,5.7,4.2,9.4c0,2.1-0.5,4.1-1.5,5.9c-1,1.8-2.9,4-5.8,6.5c-1.9,1.7-3.2,3-3.8,3.8c-0.6,0.8-1,1.8-1.3,2.8
	c-0.3,0.9-0.4,3.7-0.5,6"/>
<line class="Missingx1" x1="52.9" y1="71" x2="52.9" y2="75.5"/>
</svg>
