<?xml version="1.0" encoding="utf-8"?>
<!-- Generator: Adobe Illustrator 26.0.2, SVG Export Plug-In . SVG Version: 6.00 Build 0)  -->
<svg version="1.1" id="Layer_1" xmlns="http://www.w3.org/2000/svg" xmlns:xlink="http://www.w3.org/1999/xlink" x="0px" y="0px"
	 viewBox="0 0 128 128" style="enable-background:new 0 0 128 128;" xml:space="preserve">
<style type="text/css">
	.Networkx0{fill:none;stroke:#010101;stroke-width:5;stroke-miterlimit:10;}
</style>
<g>
	<path class="Networkx0" d="M114.5,4H13.5C8.3,4,4,8.3,4,13.5v100.9c0,5.3,4.3,9.5,9.5,9.5h100.9c5.3,0,9.5-4.3,9.5-9.5V13.5
		C124,8.3,119.7,4,114.5,4z"/>
	<polygon class="Networkx0" points="102.8,28.1 102.8,76.4 88.5,76.4 88.5,86.9 76.4,86.9 76.4,99.1 51.7,99.1 51.7,86.9 39.5,86.9 
		39.5,76.4 25.2,76.4 25.2,28.1 	"/>
	<g>
		<line class="Networkx0" x1="39.6" y1="51.6" x2="39.6" y2="29.3"/>
		<line class="Networkx0" x1="51.8" y1="51.4" x2="51.8" y2="29"/>
		<line class="Networkx0" x1="64" y1="51.1" x2="64" y2="28.7"/>
		<line class="Networkx0" x1="76.2" y1="50.8" x2="76.2" y2="28.4"/>
		<line class="Networkx0" x1="88.4" y1="50.5" x2="88.4" y2="28.1"/>
	</g>
</g>
</svg>
