<?xml version="1.0" encoding="utf-8"?>
<!-- Generator: Adobe Illustrator 26.0.2, SVG Export Plug-In . SVG Version: 6.00 Build 0)  -->
<svg version="1.1" id="Layer_1" xmlns="http://www.w3.org/2000/svg" xmlns:xlink="http://www.w3.org/1999/xlink" x="0px" y="0px"
	 viewBox="0 0 128 128" style="enable-background:new 0 0 128 128;" xml:space="preserve">
<style type="text/css">
	.Oreosx0{fill:none;stroke:#000000;stroke-width:5;stroke-miterlimit:10;}
	.Oreosx1{stroke:#000000;stroke-width:5;stroke-miterlimit:10;}
</style>
<g>
	<path class="Oreosx0" d="M124,26.6c0-8.7-7-15.7-15.7-15.7H19.7C11,10.8,4,17.9,4,26.6H124z"/>
	<g>
		<path class="Oreosx0" d="M124,42.8c0,8.7-7,15.7-15.7,15.7H19.7C11,58.5,4,51.5,4,42.8H124z"/>
		<path class="Oreosx0" d="M124,85.2c0-8.7-7-15.7-15.7-15.7H19.7C11,69.5,4,76.5,4,85.2H124z"/>
	</g>
	<path class="Oreosx0" d="M124,101.4c0,8.7-7,15.7-15.7,15.7H19.7c-8.7,0-15.7-7-15.7-15.7H124z"/>
</g>
</svg>
