<?xml version="1.0" encoding="utf-8"?>
<!-- Generator: Adobe Illustrator 26.0.2, SVG Export Plug-In . SVG Version: 6.00 Build 0)  -->
<svg version="1.1" id="Layer_1" xmlns="http://www.w3.org/2000/svg" xmlns:xlink="http://www.w3.org/1999/xlink" x="0px" y="0px"
	 viewBox="0 0 128 128" style="enable-background:new 0 0 128 128;" xml:space="preserve">
<style type="text/css">
	.Pastex0{fill:none;stroke:#010101;stroke-width:5;stroke-miterlimit:10;}
</style>
<g>
	<g>
		<g>
			<path class="Pastex0" d="M124,83.1v33.6c0,3-2.4,5.4-5.4,5.4H45c-3,0-5.4-2.4-5.4-5.4V66.9c0-3,2.4-5.4,5.4-5.4h57.4L124,83.1z"/>
			<line class="Pastex0" x1="86.7" y1="111.8" x2="86.7" y2="70.6"/>
			<line class="Pastex0" x1="70.4" y1="111.8" x2="70.4" y2="70.6"/>
			<line class="Pastex0" x1="54.2" y1="111.8" x2="54.2" y2="70.6"/>
		</g>
		<polyline class="Pastex0" points="102.2,61.4 102.2,83.1 124,83.1 		"/>
	</g>
	<path class="Pastex0" d="M87.7,23.3h20c7.3,0,13.2,5.9,13.2,13.2V80"/>
	<path class="Pastex0" d="M37.2,23.3h-20C9.9,23.3,4,29.2,4,36.5v62.2c0,7.3,5.9,13.2,13.2,13.2h22.4"/>
	<path class="Pastex0" d="M37.2,37.5H26.1V47h72.7v-9.5H87.7V23.3V12.5c0-3.6-2.9-6.5-6.5-6.5H43.7c-3.6,0-6.5,2.9-6.5,6.5v10.9V37.5z"
		/>
</g>
</svg>
