<?xml version="1.0" encoding="utf-8"?>
<!-- Generator: Adobe Illustrator 26.0.2, SVG Export Plug-In . SVG Version: 6.00 Build 0)  -->
<svg version="1.1" id="Layer_1" xmlns="http://www.w3.org/2000/svg" xmlns:xlink="http://www.w3.org/1999/xlink" x="0px" y="0px"
	 viewBox="0 0 128 128" style="enable-background:new 0 0 128 128;" xml:space="preserve">
<style type="text/css">
	.Previewx0{fill:none;stroke:#000000;stroke-width:5;stroke-miterlimit:10;}
	.Previewx1{fill:none;stroke:#000000;stroke-width:5;stroke-linecap:round;stroke-linejoin:round;stroke-miterlimit:10;}
</style>
<g>
	<path class="Previewx0" d="M21.3,16c-5.9,0-10.7,4.8-10.7,10.7v74.7c0,5.9,4.8,10.7,10.7,10.7h85.3c5.9,0,10.7-4.8,10.7-10.7V26.7
		c0-5.9-4.8-10.7-10.7-10.7H21.3z M64,42.7c-17.6,0-32,17.6-32,21.3c0,3.7,14.4,21.3,32,21.3S96,66.7,96,64
		C96,61.3,81.6,42.7,64,42.7z M64,50.7v8c0,3.2,2.1,5.3,5.3,5.3h8c0,8.5-8,14.9-17.1,12.8c-4.3-1.1-8-4.8-9.6-9.6
		C49.1,58.7,55.5,50.7,64,50.7z"/>
	<path class="Previewx1" d="M64,50.7c0,0,13.5-0.8,13.3,13.3"/>
</g>
</svg>
