<?xml version="1.0" encoding="utf-8"?>
<!-- Generator: Adobe Illustrator 26.0.2, SVG Export Plug-In . SVG Version: 6.00 Build 0)  -->
<svg version="1.1" id="Layer_1" xmlns="http://www.w3.org/2000/svg" xmlns:xlink="http://www.w3.org/1999/xlink" x="0px" y="0px"
	 viewBox="0 0 128 128" style="enable-background:new 0 0 128 128;" xml:space="preserve">
<style type="text/css">
	.Reopenx0{fill:none;stroke:#000000;stroke-width:5;stroke-linecap:round;stroke-miterlimit:10;}
	.Reopenx1{fill:none;stroke:#000000;stroke-width:5;stroke-miterlimit:10;}
</style>
<g>
	<path class="Reopenx0" d="M115.2,73.2v30.9c0,6.1-5,11.1-11.1,11.1H23.8c-6.1,0-11.1-5-11.1-11.1V23.9c0-6.1,5-11.1,11.1-11.1h30.9"/>
	<g>
		<path class="Reopenx1" d="M44.3,43.3c1.3-8.2,6.7-15.5,15-18.8c12.4-5,26.6,1.1,31.6,13.6c0.8,2.1,1.4,4.3,1.6,6.5"/>
		<polygon class="Reopenx1" points="43.7,42.2 50.1,42.2 46.9,47.7 43.8,53.4 40.5,47.8 37.2,42.3 		"/>
	</g>
	<g>
		<path class="Reopenx1" d="M108.2,52.8c-1.3,8.2-6.7,15.5-15,18.8c-12.4,5-26.6-1.1-31.6-13.6c-0.8-2.1-1.4-4.3-1.6-6.5"/>
		<polygon class="Reopenx1" points="108.8,54 102.4,54 105.6,48.4 108.7,42.8 112,48.3 115.2,53.9 		"/>
	</g>
</g>
</svg>
