<?xml version="1.0" encoding="utf-8"?>
<!-- Generator: Adobe Illustrator 26.0.2, SVG Export Plug-In . SVG Version: 6.00 Build 0)  -->
<svg version="1.1" id="Layer_1" xmlns="http://www.w3.org/2000/svg" xmlns:xlink="http://www.w3.org/1999/xlink" x="0px" y="0px"
	 viewBox="0 0 128 128" style="enable-background:new 0 0 128 128;" xml:space="preserve">
<style type="text/css">
	.Savex0{fill:none;stroke:#000000;stroke-width:5;stroke-miterlimit:10;}
</style>
<g>
	<path class="Savex0" d="M97.33,4H12.57C7.84,4,4,7.84,4,12.57v102.86c0,4.73,3.84,8.57,8.57,8.57h102.86
		c4.73-0.01,8.56-3.84,8.57-8.57V30.67L97.33,4z M25.43,42.57V25.43h51.43v17.14H25.43z M85.4,90.72
		c-0.56,11.82-10.59,20.95-22.41,20.4c-11.82-0.56-20.95-10.59-20.4-22.41c0.52-11.04,9.36-19.88,20.4-20.4
		c11.85-0.52,21.89,8.66,22.41,20.52C85.43,89.46,85.43,90.09,85.4,90.72z"/>
</g>
</svg>
