<?xml version="1.0" encoding="utf-8"?>
<!-- Generator: Adobe Illustrator 26.0.2, SVG Export Plug-In . SVG Version: 6.00 Build 0)  -->
<svg version="1.1" id="Layer_1" xmlns="http://www.w3.org/2000/svg" xmlns:xlink="http://www.w3.org/1999/xlink" x="0px" y="0px"
	 viewBox="0 0 128 128" style="enable-background:new 0 0 128 128;" xml:space="preserve">
<style type="text/css">
	.SaveAsx0{fill:none;stroke:#000000;stroke-width:5;stroke-miterlimit:10;}
</style>
<g>
	<g id="SVGRepo_iconCarrier_00000059273364992174554950000001451938755913333397_">
		<g id="layer1_00000043441280905601775000000002131205537940684183_" transform="translate(0,-289.0625)">
			<path id="rect1037_00000157301657879785958570000016710431860462397360_" class="SaveAsx0" d="M13.6,296.07
				c-5.6,0-10.1,4.51-10.1,10.1v80.82l20.21,20.21h5.05v-20.21v-5.05h23.45L87,347.15l0.57-0.57H18.65v-50.51H13.6z M28.76,296.07
				v40.41h50.51v-40.41H28.76z M89.37,296.07v48.71l6.2-6.2l8.96-8.96v-23.45c0-5.6-4.51-10.1-10.1-10.1H89.37z M112.07,336.37
				l-10.77,10.78l11.43,11.43l10.77-10.77c-1.55-2.18-3.25-4.28-5.2-6.24C116.35,339.62,114.24,337.92,112.07,336.37z M95.57,352.88
				l-42.89,42.89l-2.86,14.3l14.3-2.86L107,364.31L95.57,352.88z"/>
		</g>
	</g>
</g>
</svg>
