<?xml version="1.0" encoding="utf-8"?>
<!-- Generator: Adobe Illustrator 26.0.2, SVG Export Plug-In . SVG Version: 6.00 Build 0)  -->
<svg version="1.1" id="Layer_1" xmlns="http://www.w3.org/2000/svg" xmlns:xlink="http://www.w3.org/1999/xlink" x="0px" y="0px"
	 viewBox="0 0 128 128" style="enable-background:new 0 0 128 128;" xml:space="preserve">
<style type="text/css">
	.SQLFilex0{fill:none;stroke:#000000;stroke-width:5;stroke-miterlimit:10;}
	.SQLFilex1{stroke:#000000;}
	.SQLFilex2{font-family:'ArialMT';}
	.SQLFilex3{font-size:38.7855px;}
</style>
<g>
	<path class="SQLFilex0" d="M79.2,114.8v3.7c0,2.5-2,4.5-4.5,4.5H13.8c-2.5,0-4.5-2-4.5-4.5V9.5c0-2.5,2-4.5,4.5-4.5h60.8
		c2.5,0,4.5,2,4.5,4.5v49.9"/>
	<path class="SQLFilex0" d="M29.2,114.8h84.9c2.5,0,4.5-2,4.5-4.5V63.9c0-2.5-2-4.5-4.5-4.5H29.2c-2.5,0-4.5,2-4.5,4.5v46.4
		C24.7,112.8,26.8,114.8,29.2,114.8z"/>
</g>
<text transform="matrix(1 0 0 1 33.4653 101.7783)" class="SQLFilex1 SQLFilex2 SQLFilex3">SQL</text>
</svg>
