<?xml version="1.0" encoding="utf-8"?>
<!-- Generator: Adobe Illustrator 26.0.2, SVG Export Plug-In . SVG Version: 6.00 Build 0)  -->
<svg version="1.1" id="Layer_1" xmlns="http://www.w3.org/2000/svg" xmlns:xlink="http://www.w3.org/1999/xlink" x="0px" y="0px"
	 viewBox="0 0 128 128" style="enable-background:new 0 0 128 128;" xml:space="preserve">
<style type="text/css">
	.Visibilityx0{fill:none;stroke:#000000;stroke-width:5;stroke-linejoin:round;stroke-miterlimit:10;}
</style>
<g id="SVGRepo_iconCarrier">
	<path class="Visibilityx0" d="M64,24C37.3,24,14.6,40.6,5.3,64c9.2,23.4,32,40,58.7,40s49.4-16.6,58.7-40C113.4,40.6,90.7,24,64,24z
		 M64,90.7c-14.7,0-26.7-11.9-26.7-26.7S49.3,37.3,64,37.3S90.7,49.3,90.7,64S78.7,90.7,64,90.7z M64,48c-8.9,0-16,7.1-16,16
		s7.1,16,16,16s16-7.1,16-16S72.9,48,64,48z"/>
</g>
</svg>
