<?xml version="1.0" encoding="utf-8"?>
<!-- Generator: Adobe Illustrator 26.0.2, SVG Export Plug-In . SVG Version: 6.00 Build 0)  -->
<svg version="1.1" id="Layer_1" xmlns="http://www.w3.org/2000/svg" xmlns:xlink="http://www.w3.org/1999/xlink" x="0px" y="0px"
	 viewBox="0 0 128 128" style="enable-background:new 0 0 128 128;" xml:space="preserve">
<style type="text/css">
	.VisibilityOffx0{fill:none;stroke:#000000;stroke-width:5;stroke-linejoin:round;stroke-miterlimit:10;}
</style>
<g id="SVGRepo_iconCarrier_00000093897781799748328030000005931675935883215785_">
	<path class="VisibilityOffx0" d="M64,37.2c14.7,0,26.7,11.9,26.7,26.7c0,3.5-0.7,6.7-1.9,9.8l15.6,15.6c8.1-6.7,14.4-15.4,18.3-25.3
		c-9.2-23.4-32-40-58.7-40c-7.5,0-14.6,1.3-21.2,3.7l11.5,11.5C57.3,37.9,60.6,37.2,64,37.2z M10.7,22.6l12.2,12.2l2.5,2.5
		C16.5,44.1,9.5,53.3,5.4,63.8c9.2,23.4,32,40,58.7,40c8.3,0,16.2-1.6,23.4-4.5l2.2,2.2l15.6,15.6l6.8-6.8L17.5,15.8L10.7,22.6z
		 M40.2,52.1l8.3,8.3c-0.3,1.1-0.4,2.3-0.4,3.5c0,8.9,7.1,16,16,16c1.2,0,2.3-0.2,3.5-0.4l8.3,8.3c-3.6,1.8-7.5,2.8-11.7,2.8
		c-14.7,0-26.7-11.9-26.7-26.7C37.4,59.6,38.4,55.7,40.2,52.1z M63.2,48L80,64.8l0.1-0.9c0-8.9-7.1-16-16-16L63.2,48z"/>
</g>
</svg>
