<?xml version="1.0" encoding="utf-8"?>
<!-- Generator: Adobe Illustrator 26.0.2, SVG Export Plug-In . SVG Version: 6.00 Build 0)  -->
<svg version="1.1" id="Layer_1" xmlns="http://www.w3.org/2000/svg" xmlns:xlink="http://www.w3.org/1999/xlink" x="0px" y="0px"
	 viewBox="0 0 128 128" style="enable-background:new 0 0 128 128;" xml:space="preserve">
<style type="text/css">
	.WordFilex0{fill:none;stroke:#010101;stroke-width:5;stroke-miterlimit:10;}
	.WordFilex1{fill:none;stroke:#000000;stroke-width:5;stroke-linejoin:round;stroke-miterlimit:10;}
</style>
<path class="WordFilex0" d="M16.4,24.8l51.9-11.2c2.6-0.6,5.1,1.4,5.1,4.1v92.7c0,2.6-2.4,4.6-5,4.1l-51.8-9.4c-2-0.4-3.4-2.1-3.4-4.1V28.9
	C13.1,26.9,14.5,25.2,16.4,24.8z"/>
<path class="WordFilex0" d="M110,103.4H73.4V24.9H110c2.7,0,4.8,2.2,4.8,4.8v68.8C114.9,101.2,112.7,103.4,110,103.4z"/>
<line class="WordFilex0" x1="74.2" y1="40.3" x2="105.8" y2="40.3"/>
<line class="WordFilex0" x1="74.2" y1="56.1" x2="105.8" y2="56.1"/>
<line class="WordFilex0" x1="74.2" y1="71.9" x2="105.8" y2="71.9"/>
<line class="WordFilex0" x1="74.2" y1="87.8" x2="105.8" y2="87.8"/>
<polyline class="WordFilex1" points="25.5,55.8 33,84 36.8,84 43.6,59.2 50.5,84 54.1,84 61.8,55.8 "/>
</svg>
