<?xml version="1.0" encoding="utf-8"?>
<!-- Generator: Adobe Illustrator 26.0.2, SVG Export Plug-In . SVG Version: 6.00 Build 0)  -->
<svg version="1.1" id="Layer_1" xmlns="http://www.w3.org/2000/svg" xmlns:xlink="http://www.w3.org/1999/xlink" x="0px" y="0px"
	 viewBox="0 0 128 128" style="enable-background:new 0 0 128 128;" xml:space="preserve">
<style type="text/css">
	.Asteriskx0{fill:#FFFF00;}
</style>
<g>
	<path class="Asteriskx0" d="M64,128L64,128C28.7,128,0,99.3,0,64v0C0,28.7,28.7,0,64,0h0c35.3,0,64,28.7,64,64v0C128,99.3,99.3,128,64,128
		z"/>
</g>
<g>
	<g>
		<path d="M38.8,62.6l3.5-10.8c8.1,2.8,13.9,5.3,17.6,7.4c-1-9.2-1.5-15.5-1.5-19h11.1c-0.2,5-0.7,11.3-1.8,18.9
			c5.2-2.6,11.2-5.1,18-7.3l3.5,10.8c-6.5,2.1-12.8,3.6-19,4.3c3.1,2.7,7.5,7.5,13.1,14.4l-9.1,6.5c-2.9-4-6.4-9.5-10.4-16.4
			C60,78.6,56.7,84,53.8,87.8l-9-6.5c5.9-7.3,10.1-12.1,12.7-14.4C50.9,65.6,44.7,64.2,38.8,62.6z"/>
	</g>
</g>
</svg>
