<?xml version="1.0" encoding="utf-8"?>
<!-- Generator: Adobe Illustrator 26.0.2, SVG Export Plug-In . SVG Version: 6.00 Build 0)  -->
<svg version="1.1" id="Layer_1" xmlns="http://www.w3.org/2000/svg" xmlns:xlink="http://www.w3.org/1999/xlink" x="0px" y="0px"
	 viewBox="0 0 128 128" style="enable-background:new 0 0 128 128;" xml:space="preserve">
<style type="text/css">
	.Bx0{fill:#FFFF00;}
</style>
<g>
	<path class="Bx0" d="M64,128.1L64,128.1c-35.3,0-64-28.7-64-64v0c0-35.3,28.7-64,64-64h0c35.3,0,64,28.7,64,64v0
		C128,99.4,99.3,128.1,64,128.1z"/>
</g>
<g>
	<path d="M42.3,92.8V35.4h21.5c4.4,0,7.9,0.6,10.6,1.7c2.6,1.2,4.7,3,6.2,5.4c1.5,2.4,2.3,4.9,2.3,7.6c0,2.5-0.7,4.8-2,6.9
		c-1.3,2.2-3.3,3.9-6,5.2c3.5,1,6.1,2.8,8,5.2c1.9,2.5,2.8,5.4,2.8,8.7c0,2.7-0.6,5.2-1.7,7.5c-1.1,2.3-2.5,4.1-4.2,5.3
		c-1.7,1.3-3.8,2.2-6.3,2.8c-2.5,0.6-5.6,1-9.3,1H42.3z M49.9,59.5h12.4c3.4,0,5.8-0.2,7.2-0.7c1.9-0.6,3.4-1.5,4.4-2.9
		c1-1.3,1.5-3,1.5-5c0-1.9-0.5-3.6-1.4-5c-0.9-1.4-2.2-2.4-3.9-3c-1.7-0.5-4.6-0.8-8.7-0.8H49.9V59.5z M49.9,86h14.3
		c2.5,0,4.2-0.1,5.2-0.3c1.7-0.3,3.2-0.8,4.4-1.6c1.2-0.7,2.1-1.8,2.9-3.2c0.8-1.4,1.1-3,1.1-4.8c0-2.1-0.5-4-1.6-5.6
		c-1.1-1.6-2.6-2.7-4.6-3.3c-1.9-0.6-4.7-1-8.4-1H49.9V86z"/>
</g>
</svg>
