<?xml version="1.0" encoding="utf-8"?>
<!-- Generator: Adobe Illustrator 26.0.2, SVG Export Plug-In . SVG Version: 6.00 Build 0)  -->
<svg version="1.1" id="Layer_1" xmlns="http://www.w3.org/2000/svg" xmlns:xlink="http://www.w3.org/1999/xlink" x="0px" y="0px"
	 viewBox="0 0 128 128" style="enable-background:new 0 0 128 128;" xml:space="preserve">
<style type="text/css">
	.Cx0{fill:#FFFF00;}
</style>
<g>
	<path class="Cx0" d="M64,128L64,128C28.7,128,0,99.3,0,64v0C0,28.7,28.7,0,64,0h0c35.3,0,64,28.7,64,64v0C128,99.3,99.3,128,64,128
		z"/>
</g>
<g>
	<path d="M81.8,72.6l7.6,1.9c-1.6,6.2-4.5,11-8.6,14.3c-4.1,3.3-9.2,4.9-15.2,4.9c-6.2,0-11.2-1.3-15.1-3.8
		c-3.9-2.5-6.8-6.2-8.8-10.9c-2-4.8-3-9.9-3-15.4c0-6,1.1-11.2,3.4-15.6c2.3-4.5,5.5-7.8,9.7-10.1c4.2-2.3,8.9-3.5,13.9-3.5
		c5.7,0,10.6,1.5,14.5,4.4c3.9,2.9,6.6,7,8.2,12.3l-7.5,1.8c-1.3-4.2-3.3-7.2-5.8-9.1c-2.5-1.9-5.7-2.9-9.6-2.9
		c-4.4,0-8.1,1.1-11.1,3.2s-5,5-6.2,8.5c-1.2,3.6-1.8,7.2-1.8,11c0,4.9,0.7,9.1,2.1,12.8c1.4,3.6,3.6,6.4,6.6,8.2
		c3,1.8,6.3,2.7,9.7,2.7c4.3,0,7.9-1.2,10.8-3.7C78.7,81,80.7,77.4,81.8,72.6z"/>
</g>
</svg>
