<?xml version="1.0" encoding="utf-8"?>
<!-- Generator: Adobe Illustrator 26.0.2, SVG Export Plug-In . SVG Version: 6.00 Build 0)  -->
<svg version="1.1" id="Layer_1" xmlns="http://www.w3.org/2000/svg" xmlns:xlink="http://www.w3.org/1999/xlink" x="0px" y="0px"
	 viewBox="0 0 128 128" style="enable-background:new 0 0 128 128;" xml:space="preserve">
<style type="text/css">
	.Commx0{fill:#FFFF00;}
</style>
<g>
	<path class="Commx0" d="M64,128L64,128C28.7,128,0,99.3,0,64v0C0,28.7,28.7,0,64,0h0c35.3,0,64,28.7,64,64v0C128,99.3,99.3,128,64,128
		z"/>
</g>
<g>
	<path d="M67.5,76.6c-1.5,1.7-3.1,3.1-5,4.1c-1.8,1-3.7,1.6-5.5,1.6c-2,0-4-0.6-5.9-1.8c-1.9-1.2-3.5-3-4.7-5.5s-1.8-5.2-1.8-8.1
		c0-3.6,0.9-7.3,2.8-10.9c1.9-3.6,4.2-6.4,6.9-8.2c2.8-1.8,5.4-2.7,8-2.7c2,0,3.9,0.5,5.7,1.6c1.8,1,3.3,2.6,4.6,4.7l1.2-5.3H80
		L75.1,69c-0.7,3.2-1,5-1,5.3c0,0.6,0.2,1.1,0.7,1.6c0.5,0.4,1,0.7,1.7,0.7c1.2,0,2.8-0.7,4.8-2.1c2.6-1.8,4.7-4.3,6.2-7.3
		c1.5-3.1,2.3-6.2,2.3-9.5c0-3.8-1-7.4-2.9-10.7c-1.9-3.3-4.9-5.9-8.7-7.9s-8.1-3-12.8-3c-5.3,0-10.2,1.2-14.6,3.7
		s-7.8,6.1-10.3,10.7s-3.6,9.7-3.6,15c0,5.6,1.2,10.4,3.6,14.4s5.9,7,10.5,8.9c4.6,1.9,9.7,2.9,15.3,2.9c6,0,11-1,15-3
		s7.1-4.4,9.1-7.3h6.2c-1.2,2.4-3.2,4.8-6,7.3c-2.8,2.5-6.2,4.4-10.1,5.9c-3.9,1.4-8.6,2.2-14.1,2.2c-5.1,0-9.7-0.6-14-1.9
		s-7.9-3.3-10.9-5.9c-3-2.6-5.3-5.6-6.8-9c-1.9-4.3-2.9-9-2.9-13.9c0-5.6,1.1-10.9,3.4-15.9c2.8-6.2,6.7-10.9,11.8-14.2
		c5.1-3.3,11.3-4.9,18.6-4.9c5.7,0,10.7,1.2,15.2,3.5c4.5,2.3,8,5.8,10.6,10.3c2.2,3.9,3.3,8.2,3.3,12.9c0,6.6-2.3,12.5-7,17.6
		c-4.1,4.6-8.7,6.9-13.6,6.9c-1.6,0-2.8-0.2-3.8-0.7c-1-0.5-1.7-1.2-2.1-2.1C67.9,78.9,67.7,78,67.5,76.6z M51,67.3
		c0,3.1,0.7,5.5,2.2,7.3c1.5,1.7,3.2,2.6,5.1,2.6c1.3,0,2.6-0.4,4-1.1c1.4-0.8,2.8-1.9,4.1-3.4c1.3-1.5,2.3-3.4,3.2-5.7
		s1.2-4.6,1.2-7c0-3.1-0.8-5.5-2.3-7.2s-3.4-2.6-5.6-2.6c-1.5,0-2.8,0.4-4.1,1.1c-1.3,0.7-2.5,1.9-3.7,3.6c-1.2,1.6-2.2,3.6-2.9,6
		C51.3,63.2,51,65.4,51,67.3z"/>
</g>
</svg>
