<?xml version="1.0" encoding="utf-8"?>
<!-- Generator: Adobe Illustrator 26.0.2, SVG Export Plug-In . SVG Version: 6.00 Build 0)  -->
<svg version="1.1" id="Layer_1" xmlns="http://www.w3.org/2000/svg" xmlns:xlink="http://www.w3.org/1999/xlink" x="0px" y="0px"
	 viewBox="0 0 128 128" style="enable-background:new 0 0 128 128;" xml:space="preserve">
<style type="text/css">
	.Dx0{fill:#FFFF00;}
</style>
<g>
	<path class="Dx0" d="M64,128L64,128C28.7,128,0,99.3,0,64v0C0,28.7,28.7,0,64,0h0c35.3,0,64,28.7,64,64v0C128,99.3,99.3,128,64,128
		z"/>
</g>
<g>
	<path d="M40.3,92.7V35.3H60c4.5,0,7.9,0.3,10.2,0.8c3.3,0.8,6.1,2.1,8.4,4.1c3,2.6,5.3,5.8,6.8,9.8s2.3,8.5,2.3,13.6
		c0,4.4-0.5,8.2-1.5,11.6c-1,3.4-2.3,6.2-3.9,8.4c-1.6,2.2-3.3,3.9-5.2,5.2c-1.9,1.3-4.2,2.2-6.9,2.9c-2.7,0.7-5.7,1-9.2,1H40.3z
		 M47.9,85.9h12.3c3.8,0,6.8-0.4,8.9-1.1c2.2-0.7,3.9-1.7,5.1-3c1.8-1.8,3.2-4.2,4.2-7.3c1-3,1.5-6.7,1.5-11.1c0-6-1-10.6-3-13.8
		c-2-3.2-4.4-5.4-7.2-6.5c-2-0.8-5.3-1.2-9.8-1.2H47.9V85.9z"/>
</g>
</svg>
