<?xml version="1.0" encoding="utf-8"?>
<!-- Generator: Adobe Illustrator 26.0.2, SVG Export Plug-In . SVG Version: 6.00 Build 0)  -->
<svg version="1.1" id="Layer_1" xmlns="http://www.w3.org/2000/svg" xmlns:xlink="http://www.w3.org/1999/xlink" x="0px" y="0px"
	 viewBox="0 0 128 128" style="enable-background:new 0 0 128 128;" xml:space="preserve">
<style type="text/css">
	.Gx0{fill:#FFFF00;}
</style>
<g>
	<path class="Gx0" d="M64,128L64,128C28.7,128,0,99.3,0,64v0C0,28.7,28.7,0,64,0h0c35.3,0,64,28.7,64,64v0C128,99.3,99.3,128,64,128
		z"/>
</g>
<g>
	<path d="M66.2,70.2v-6.7l24.3,0v21.3c-3.7,3-7.6,5.2-11.6,6.7c-4,1.5-8,2.3-12.2,2.3c-5.6,0-10.8-1.2-15.4-3.6
		c-4.6-2.4-8.1-5.9-10.4-10.5c-2.3-4.6-3.5-9.7-3.5-15.3c0-5.6,1.2-10.8,3.5-15.6c2.3-4.8,5.7-8.4,10.1-10.8
		c4.4-2.3,9.4-3.5,15.2-3.5c4.2,0,7.9,0.7,11.3,2c3.4,1.3,6,3.2,7.9,5.6s3.4,5.5,4.3,9.4l-6.9,1.9c-0.9-2.9-1.9-5.2-3.2-6.9
		c-1.3-1.7-3.1-3-5.5-4c-2.4-1-5-1.5-7.9-1.5c-3.5,0-6.5,0.5-9,1.6c-2.5,1.1-4.6,2.4-6.1,4.2c-1.6,1.7-2.8,3.6-3.6,5.7
		c-1.5,3.5-2.2,7.4-2.2,11.5c0,5.1,0.9,9.4,2.6,12.8c1.8,3.4,4.3,6,7.7,7.7c3.4,1.7,6.9,2.5,10.7,2.5c3.3,0,6.5-0.6,9.6-1.9
		c3.1-1.3,5.5-2.6,7.1-4.1V70.2H66.2z"/>
</g>
</svg>
