<?xml version="1.0" encoding="utf-8"?>
<!-- Generator: Adobe Illustrator 26.0.2, SVG Export Plug-In . SVG Version: 6.00 Build 0)  -->
<svg version="1.1" id="Layer_1" xmlns="http://www.w3.org/2000/svg" xmlns:xlink="http://www.w3.org/1999/xlink" x="0px" y="0px"
	 viewBox="0 0 128 128" style="enable-background:new 0 0 128 128;" xml:space="preserve">
<style type="text/css">
	.Hashx0{fill:#FFFF00;}
</style>
<g>
	<path class="Hashx0" d="M64,128L64,128C28.7,128,0,99.3,0,64v0C0,28.7,28.7,0,64,0h0c35.3,0,64,28.7,64,64v0C128,99.3,99.3,128,64,128
		z"/>
</g>
<g>
	<path d="M45.8,93.7L49.2,77h-6.6v-5.8h7.8L53.3,57H42.6v-5.8h11.9l3.4-16.8h5.9l-3.4,16.8h12.3l3.4-16.8H82l-3.4,16.8h6.8V57h-7.9
		l-2.9,14.2h10.9V77H73.3l-3.4,16.7H64L67.4,77H55.1l-3.4,16.7H45.8z M56.3,71.2h12.3L71.5,57H59.2L56.3,71.2z"/>
</g>
</svg>
