<?xml version="1.0" encoding="utf-8"?>
<!-- Generator: Adobe Illustrator 26.0.2, SVG Export Plug-In . SVG Version: 6.00 Build 0)  -->
<svg version="1.1" id="Layer_1" xmlns="http://www.w3.org/2000/svg" xmlns:xlink="http://www.w3.org/1999/xlink" x="0px" y="0px"
	 viewBox="0 0 128 128" style="enable-background:new 0 0 128 128;" xml:space="preserve">
<style type="text/css">
	.Jx0{fill:#FFFF00;}
</style>
<g>
	<path class="Jx0" d="M64,128L64,128C28.7,128,0,99.3,0,64v0C0,28.7,28.7,0,64,0h0c35.3,0,64,28.7,64,64v0C128,99.3,99.3,128,64,128
		z"/>
</g>
<g>
	<path d="M48.2,75.9l6.9-0.9c0.2,4.4,1,7.4,2.5,9c1.5,1.6,3.5,2.4,6.1,2.4c1.9,0,3.5-0.4,4.9-1.3c1.4-0.9,2.3-2.1,2.9-3.6
		c0.5-1.5,0.8-3.9,0.8-7.2V34.8h7.6v39.1c0,4.8-0.6,8.5-1.7,11.2c-1.2,2.6-3,4.6-5.5,6c-2.5,1.4-5.5,2.1-8.9,2.1
		c-5,0-8.9-1.4-11.6-4.3C49.4,85.9,48.1,81.6,48.2,75.9z"/>
</g>
</svg>
