<?xml version="1.0" encoding="utf-8"?>
<!-- Generator: Adobe Illustrator 26.0.2, SVG Export Plug-In . SVG Version: 6.00 Build 0)  -->
<svg version="1.1" id="Layer_1" xmlns="http://www.w3.org/2000/svg" xmlns:xlink="http://www.w3.org/1999/xlink" x="0px" y="0px"
	 viewBox="0 0 128 128" style="enable-background:new 0 0 128 128;" xml:space="preserve">
<style type="text/css">
	.Mx0{fill:#FFFF00;}
</style>
<g>
	<path class="Mx0" d="M64,128L64,128C28.7,128,0,99.3,0,64v0C0,28.7,28.7,0,64,0h0c35.3,0,64,28.7,64,64v0C128,99.3,99.3,128,64,128
		z"/>
</g>
<g>
	<path d="M36.6,92.7V35.3H48l13.6,40.6c1.3,3.8,2.2,6.6,2.7,8.5c0.7-2.1,1.7-5.2,3.1-9.2l13.7-39.9h10.2v57.4h-7.3v-48l-16.7,48
		h-6.9L43.9,43.8v48.9H36.6z"/>
</g>
</svg>
