<?xml version="1.0" encoding="utf-8"?>
<!-- Generator: Adobe Illustrator 26.0.2, SVG Export Plug-In . SVG Version: 6.00 Build 0)  -->
<svg version="1.1" id="Layer_1" xmlns="http://www.w3.org/2000/svg" xmlns:xlink="http://www.w3.org/1999/xlink" x="0px" y="0px"
	 viewBox="0 0 128 128" style="enable-background:new 0 0 128 128;" xml:space="preserve">
<style type="text/css">
	.Ox0{fill:#FFFF00;}
</style>
<g>
	<path class="Ox0" d="M64,128L64,128C28.7,128,0,99.3,0,64v0C0,28.7,28.7,0,64,0h0c35.3,0,64,28.7,64,64v0C128,99.3,99.3,128,64,128
		z"/>
</g>
<g>
	<path d="M36.6,64.8c0-9.5,2.6-17,7.7-22.4c5.1-5.4,11.7-8.1,19.8-8.1c5.3,0,10.1,1.3,14.3,3.8c4.3,2.5,7.5,6.1,9.7,10.6
		c2.2,4.5,3.3,9.7,3.3,15.4c0,5.8-1.2,11-3.5,15.6c-2.3,4.6-5.7,8.1-10,10.4c-4.3,2.4-9,3.5-13.9,3.5c-5.4,0-10.2-1.3-14.5-3.9
		c-4.3-2.6-7.5-6.2-9.7-10.7C37.7,74.6,36.6,69.8,36.6,64.8z M44.4,64.9c0,6.9,1.9,12.4,5.6,16.3c3.7,4,8.4,6,14,6
		c5.7,0,10.4-2,14.1-6c3.7-4,5.5-9.7,5.5-17.1c0-4.7-0.8-8.8-2.4-12.2c-1.6-3.5-3.9-6.2-6.9-8.1c-3-1.9-6.5-2.9-10.2-2.9
		c-5.4,0-10,1.8-13.9,5.5C46.3,50.1,44.4,56.2,44.4,64.9z"/>
</g>
</svg>
