<?xml version="1.0" encoding="utf-8"?>
<!-- Generator: Adobe Illustrator 26.0.2, SVG Export Plug-In . SVG Version: 6.00 Build 0)  -->
<svg version="1.1" id="Layer_1" xmlns="http://www.w3.org/2000/svg" xmlns:xlink="http://www.w3.org/1999/xlink" x="0px" y="0px"
	 viewBox="0 0 128 128" style="enable-background:new 0 0 128 128;" xml:space="preserve">
<style type="text/css">
	.Px0{fill:#FFFF00;}
</style>
<g>
	<path class="Px0" d="M64,128L64,128C28.7,128,0,99.3,0,64v0C0,28.7,28.7,0,64,0h0c35.3,0,64,28.7,64,64v0C128,99.3,99.3,128,64,128
		z"/>
</g>
<g>
	<path d="M42.1,92.7V35.3h21.7c3.8,0,6.7,0.2,8.7,0.5c2.8,0.5,5.2,1.4,7.1,2.7c1.9,1.3,3.4,3.2,4.6,5.5c1.2,2.4,1.7,5,1.7,7.8
		c0,4.9-1.6,9-4.7,12.4c-3.1,3.4-8.7,5.1-16.8,5.1H49.7v23.3H42.1z M49.7,62.6h14.8c4.9,0,8.4-0.9,10.5-2.7c2.1-1.8,3.1-4.4,3.1-7.7
		c0-2.4-0.6-4.5-1.8-6.2c-1.2-1.7-2.8-2.8-4.8-3.4c-1.3-0.3-3.6-0.5-7.1-0.5H49.7V62.6z"/>
</g>
</svg>
