<?xml version="1.0" encoding="utf-8"?>
<!-- Generator: Adobe Illustrator 26.0.2, SVG Export Plug-In . SVG Version: 6.00 Build 0)  -->
<svg version="1.1" id="Layer_1" xmlns="http://www.w3.org/2000/svg" xmlns:xlink="http://www.w3.org/1999/xlink" x="0px" y="0px"
	 viewBox="0 0 128 128" style="enable-background:new 0 0 128 128;" xml:space="preserve">
<style type="text/css">
	.Qx0{fill:#FFFF00;}
</style>
<g>
	<path class="Qx0" d="M64,128L64,128C28.7,128,0,99.3,0,64v0C0,28.7,28.7,0,64,0h0c35.3,0,64,28.7,64,64v0C128,99.3,99.3,128,64,128
		z"/>
</g>
<g>
	<path d="M82.2,84.8c3.5,2.4,6.8,4.2,9.7,5.3l-2.2,5.3c-4.1-1.5-8.2-3.8-12.3-7c-4.3,2.4-9,3.6-14.1,3.6c-5.2,0-9.9-1.3-14.1-3.8
		c-4.2-2.5-7.5-6-9.8-10.6C37.1,73.1,36,68,36,62.3c0-5.7,1.1-10.8,3.4-15.5c2.3-4.6,5.6-8.2,9.8-10.6c4.2-2.4,9-3.6,14.2-3.6
		c5.3,0,10.1,1.3,14.3,3.8c4.3,2.5,7.5,6,9.7,10.6c2.2,4.5,3.3,9.6,3.3,15.3c0,4.7-0.7,9-2.2,12.7C87.3,78.8,85.1,82,82.2,84.8z
		 M65.5,75.1c4.4,1.2,8,3.1,10.8,5.5c4.5-4.1,6.7-10.2,6.7-18.4c0-4.6-0.8-8.7-2.4-12.2c-1.6-3.5-3.9-6.2-6.9-8.1s-6.5-2.9-10.2-2.9
		c-5.7,0-10.4,1.9-14.1,5.8s-5.6,9.7-5.6,17.4c0,7.5,1.8,13.2,5.5,17.2c3.7,4,8.4,6,14.2,6c2.7,0,5.3-0.5,7.7-1.5
		c-2.4-1.5-4.9-2.6-7.5-3.3L65.5,75.1z"/>
</g>
</svg>
