<?xml version="1.0" encoding="utf-8"?>
<!-- Generator: Adobe Illustrator 26.0.2, SVG Export Plug-In . SVG Version: 6.00 Build 0)  -->
<svg version="1.1" id="Layer_1" xmlns="http://www.w3.org/2000/svg" xmlns:xlink="http://www.w3.org/1999/xlink" x="0px" y="0px"
	 viewBox="0 0 128 128" style="enable-background:new 0 0 128 128;" xml:space="preserve">
<style type="text/css">
	.Questionx0{fill:#FFFF00;}
</style>
<g>
	<path class="Questionx0" d="M64,128L64,128C28.7,128,0,99.3,0,64v0C0,28.7,28.7,0,64,0h0c35.3,0,64,28.7,64,64v0C128,99.3,99.3,128,64,128
		z"/>
</g>
<g>
	<path d="M60.4,79.1c0-0.9,0-1.6,0-2.1c0-2.8,0.4-5.2,1.2-7.2c0.6-1.5,1.5-3,2.8-4.6c0.9-1.1,2.6-2.8,5.1-4.9s4-3.9,4.8-5.1
		c0.7-1.3,1.1-2.7,1.1-4.2c0-2.7-1.1-5.1-3.2-7.2s-4.8-3.1-7.9-3.1c-3,0-5.5,0.9-7.5,2.8c-2,1.9-3.3,4.8-4,8.8l-7.2-0.9
		c0.7-5.4,2.6-9.4,5.8-12.3c3.2-2.8,7.5-4.3,12.8-4.3c5.6,0,10.1,1.5,13.4,4.6c3.3,3.1,5,6.7,5,11.1c0,2.5-0.6,4.8-1.8,6.9
		s-3.5,4.7-6.9,7.7c-2.3,2-3.8,3.5-4.5,4.5s-1.2,2.1-1.6,3.3s-0.5,3.3-0.6,6.1H60.4z M60,93.2v-8h8v8H60z"/>
</g>
</svg>
