<?xml version="1.0" encoding="utf-8"?>
<!-- Generator: Adobe Illustrator 26.0.2, SVG Export Plug-In . SVG Version: 6.00 Build 0)  -->
<svg version="1.1" id="Layer_1" xmlns="http://www.w3.org/2000/svg" xmlns:xlink="http://www.w3.org/1999/xlink" x="0px" y="0px"
	 viewBox="0 0 128 128" style="enable-background:new 0 0 128 128;" xml:space="preserve">
<style type="text/css">
	.Rx0{fill:#FFFF00;}
</style>
<g>
	<path class="Rx0" d="M64,128L64,128C28.7,128,0,99.3,0,64v0C0,28.7,28.7,0,64,0h0c35.3,0,64,28.7,64,64v0C128,99.3,99.3,128,64,128
		z"/>
</g>
<g>
	<path d="M38.7,92.7V35.3h25.4c5.1,0,9,0.5,11.7,1.5c2.7,1,4.8,2.9,6.4,5.5c1.6,2.6,2.4,5.5,2.4,8.7c0,4.1-1.3,7.5-4,10.3
		c-2.6,2.8-6.7,4.6-12.2,5.3c2,1,3.5,1.9,4.6,2.9c2.2,2,4.3,4.6,6.3,7.6l10,15.6h-9.6l-7.6-11.9c-2.2-3.4-4-6.1-5.5-7.9
		c-1.4-1.8-2.7-3.1-3.9-3.8c-1.1-0.7-2.3-1.2-3.5-1.5c-0.9-0.2-2.3-0.3-4.2-0.3h-8.8v25.5H38.7z M46.3,60.6h16.3
		c3.5,0,6.2-0.4,8.1-1.1c2-0.7,3.4-1.9,4.5-3.4c1-1.6,1.5-3.3,1.5-5.1c0-2.7-1-4.9-3-6.7c-2-1.7-5.1-2.6-9.3-2.6H46.3V60.6z"/>
</g>
</svg>
