<?xml version="1.0" encoding="utf-8"?>
<!-- Generator: Adobe Illustrator 26.0.2, SVG Export Plug-In . SVG Version: 6.00 Build 0)  -->
<svg version="1.1" id="Layer_1" xmlns="http://www.w3.org/2000/svg" xmlns:xlink="http://www.w3.org/1999/xlink" x="0px" y="0px"
	 viewBox="0 0 128 128" style="enable-background:new 0 0 128 128;" xml:space="preserve">
<style type="text/css">
	.Sx0{fill:#FFFF00;}
</style>
<g>
	<path class="Sx0" d="M64,128L64,128C28.7,128,0,99.3,0,64v0C0,28.7,28.7,0,64,0h0c35.3,0,64,28.7,64,64v0C128,99.3,99.3,128,64,128
		z"/>
</g>
<g>
	<path d="M41.2,74.3l7.2-0.6c0.3,2.9,1.1,5.2,2.4,7.1c1.2,1.8,3.2,3.3,5.8,4.5c2.6,1.1,5.5,1.7,8.8,1.7c2.9,0,5.5-0.4,7.7-1.3
		c2.2-0.9,3.9-2,5-3.5c1.1-1.5,1.6-3.1,1.6-4.9c0-1.8-0.5-3.4-1.6-4.7c-1-1.3-2.8-2.5-5.2-3.4c-1.5-0.6-4.9-1.5-10.2-2.8
		c-5.3-1.3-9-2.5-11.1-3.6c-2.7-1.4-4.8-3.2-6.1-5.3c-1.3-2.1-2-4.5-2-7.1c0-2.9,0.8-5.6,2.5-8.1c1.6-2.5,4-4.4,7.2-5.7
		c3.2-1.3,6.7-2,10.5-2c4.3,0,8,0.7,11.3,2.1c3.2,1.4,5.7,3.4,7.5,6c1.7,2.7,2.7,5.7,2.8,9L77.8,52c-0.4-3.6-1.7-6.4-4-8.2
		c-2.3-1.9-5.6-2.8-10-2.8c-4.6,0-7.9,0.8-10,2.5c-2.1,1.7-3.2,3.7-3.2,6.1c0,2.1,0.7,3.8,2.2,5.1c1.5,1.3,5.3,2.7,11.5,4.1
		c6.2,1.4,10.4,2.6,12.7,3.7c3.3,1.5,5.8,3.5,7.4,5.9c1.6,2.4,2.4,5.1,2.4,8.2c0,3.1-0.9,5.9-2.6,8.6c-1.7,2.7-4.3,4.8-7.5,6.3
		c-3.3,1.5-7,2.3-11.1,2.3c-5.2,0-9.5-0.8-13.1-2.3c-3.5-1.5-6.3-3.8-8.3-6.8C42.3,81.5,41.3,78.1,41.2,74.3z"/>
</g>
</svg>
