<?xml version="1.0" encoding="utf-8"?>
<!-- Generator: Adobe Illustrator 26.0.2, SVG Export Plug-In . SVG Version: 6.00 Build 0)  -->
<svg version="1.1" id="Layer_1" xmlns="http://www.w3.org/2000/svg" xmlns:xlink="http://www.w3.org/1999/xlink" x="0px" y="0px"
	 viewBox="0 0 128 128" style="enable-background:new 0 0 128 128;" xml:space="preserve">
<style type="text/css">
	.Ux0{fill:#FFFF00;}
</style>
<g>
	<path class="Ux0" d="M64,128L64,128C28.7,128,0,99.3,0,64v0C0,28.7,28.7,0,64,0h0c35.3,0,64,28.7,64,64v0C128,99.3,99.3,128,64,128
		z"/>
</g>
<g>
	<path d="M79,34.8h7.6V68c0,5.8-0.7,10.3-2,13.7c-1.3,3.4-3.7,6.2-7.1,8.3c-3.4,2.1-7.9,3.2-13.4,3.2c-5.4,0-9.8-0.9-13.2-2.8
		c-3.4-1.9-5.9-4.5-7.3-8c-1.5-3.5-2.2-8.3-2.2-14.4V34.8H49v33.1c0,5,0.5,8.7,1.4,11c0.9,2.4,2.5,4.2,4.8,5.5
		c2.3,1.3,5,1.9,8.3,1.9c5.6,0,9.6-1.3,11.9-3.8C77.8,80,79,75.1,79,67.9V34.8z"/>
</g>
</svg>
