<?xml version="1.0" encoding="utf-8"?>
<!-- Generator: Adobe Illustrator 26.0.2, SVG Export Plug-In . SVG Version: 6.00 Build 0)  -->
<svg version="1.1" id="Layer_1" xmlns="http://www.w3.org/2000/svg" xmlns:xlink="http://www.w3.org/1999/xlink" x="0px" y="0px"
	 viewBox="0 0 128 128" style="enable-background:new 0 0 128 128;" xml:space="preserve">
<style type="text/css">
	.Wx0{fill:#FFFF00;}
</style>
<g>
	<path class="Wx0" d="M64,128L64,128C28.7,128,0,99.3,0,64v0C0,28.7,28.7,0,64,0h0c35.3,0,64,28.7,64,64v0C128,99.3,99.3,128,64,128
		z"/>
</g>
<g>
	<path d="M42.3,92.7L27.1,35.3h7.8l8.7,37.6c0.9,3.9,1.7,7.9,2.4,11.7c1.5-6.1,2.3-9.7,2.6-10.6l10.9-38.8h9.2l8.2,29.1
		c2.1,7.2,3.5,14,4.5,20.3c0.7-3.6,1.7-7.8,2.9-12.5l9-36.9h7.6L85.2,92.7h-7.3L65.7,49c-1-3.7-1.6-5.9-1.8-6.7
		c-0.6,2.6-1.2,4.9-1.7,6.7L50.1,92.7H42.3z"/>
</g>
</svg>
