<?xml version="1.0" encoding="utf-8"?>
<!-- Generator: Adobe Illustrator 26.0.2, SVG Export Plug-In . SVG Version: 6.00 Build 0)  -->
<svg version="1.1" id="Layer_1" xmlns="http://www.w3.org/2000/svg" xmlns:xlink="http://www.w3.org/1999/xlink" x="0px" y="0px"
	 viewBox="0 0 128 128" style="enable-background:new 0 0 128 128;" xml:space="preserve">
<style type="text/css">
	.Xx0{fill:#FFFF00;}
</style>
<g>
	<path class="Xx0" d="M64,128L64,128C28.7,128,0,99.3,0,64v0C0,28.7,28.7,0,64,0h0c35.3,0,64,28.7,64,64v0C128,99.3,99.3,128,64,128
		z"/>
</g>
<g>
	<path d="M37.7,92.7l22.2-29.9L40.3,35.3h9L59.8,50c2.2,3.1,3.7,5.4,4.6,7c1.3-2.1,2.8-4.3,4.5-6.5l11.5-15.2h8.3L68.6,62.4
		l21.7,30.3h-9.4L66.5,72.2c-0.8-1.2-1.6-2.5-2.5-3.8c-1.3,2.1-2.2,3.5-2.7,4.3l-14.4,20H37.7z"/>
</g>
</svg>
