<?xml version="1.0" encoding="utf-8"?>
<!-- Generator: Adobe Illustrator 26.0.2, SVG Export Plug-In . SVG Version: 6.00 Build 0)  -->
<svg version="1.1" id="Layer_1" xmlns="http://www.w3.org/2000/svg" xmlns:xlink="http://www.w3.org/1999/xlink" x="0px" y="0px"
	 viewBox="0 0 128 128" style="enable-background:new 0 0 128 128;" xml:space="preserve">
<style type="text/css">
	.Yx0{fill:#FFFF00;}
</style>
<g>
	<path class="Yx0" d="M64,128L64,128C28.7,128,0,99.3,0,64v0C0,28.7,28.7,0,64,0h0c35.3,0,64,28.7,64,64v0C128,99.3,99.3,128,64,128
		z"/>
</g>
<g>
	<path d="M59.8,92.7V68.4L37.7,35.3h9.2l11.3,17.3c2.1,3.2,4,6.5,5.8,9.7c1.7-3,3.8-6.4,6.3-10.1l11.1-16.9h8.8L67.4,68.4v24.3H59.8
		z"/>
</g>
</svg>
